<?xml version="1.0" encoding="utf-8"?>
<!-- Generator: Adobe Illustrator 18.1.1, SVG Export Plug-In . SVG Version: 6.00 Build 0)  -->
<svg version="1.1" id="Layer_1" xmlns="http://www.w3.org/2000/svg" xmlns:xlink="http://www.w3.org/1999/xlink" x="0px" y="0px"
	 width="595.3px" height="595.3px" viewBox="0 123.3 595.3 595.3" enable-background="new 0 123.3 595.3 595.3"
	 xml:space="preserve">
<g>
	<g>
		<path fill="#EEEEEE" d="M0,123.3v114.3c265,0,481,216,481,481h114.3C595.3,390.8,327.8,123.3,0,123.3L0,123.3z"/>
		<path fill="#EEEEEE" d="M0,325.5v114.3c74.1,0,144.4,28.9,197.2,81.6s81.6,123.1,81.6,197.2h114.3C393.1,501.3,216,325.5,0,325.5
			L0,325.5z"/>
		<path fill="#EEEEEE" d="M79.1,560.3c-44,0-79.1,35.2-79.1,77.9c0,44,35.2,79.1,79.1,79.1s79.1-35.2,79.1-79.1
			C158.2,595.5,123.1,560.3,79.1,560.3L79.1,560.3z"/>
	</g>
</g>
</svg>
