<?xml version="1.0" encoding="utf-8"?>
<!-- Generator: Adobe Illustrator 21.0.0, SVG Export Plug-In . SVG Version: 6.00 Build 0)  -->
<svg version="1.1" id="圖層_1" xmlns="http://www.w3.org/2000/svg" xmlns:xlink="http://www.w3.org/1999/xlink" x="0px" y="0px"
	 viewBox="0 0 30 30" style="enable-background:new 0 0 30 30;" xml:space="preserve">
<style type="text/css">
	.st0{fill:#FFFFFF;}
</style>
<path class="st0" d="M11.4,14.1c0.7,0.1,2-0.6,2.6,0.4c0.5-1.4,1.9-2.1,2.4-3.3c-0.2-0.5-1.4-0.3,0.1-1.2c-0.4,0.9,0,1.2,1.1,0.8
	c-0.8-1.2-1.8-1.7-2.9-1.9c-0.1-0.2,0.2-1.4,0.2-1.4c0.2-0.1,0.2,0,0.2,0.3c0.2-0.1,0.2-0.1,0.2-0.1c0.3,0.3,1.8,0.9,2.3,1.1
	c0-1.7,2.1-2.1,0.9-3.3c0.1,0,0.2-0.1,0.3-0.1c-0.6-0.4-0.7-0.1-1.1-1.1C17,3.4,12.6,6,12.3,6.6c-0.2-0.1-0.6-0.2-0.6-0.3
	c0,0.1-0.1,0.3-0.1,0.4c0-0.3-0.1-0.5-0.4-0.3c-1.7,0.9-1.2,1-1.5,1.5C8.3,7.8,5.5,7.1,5.2,9.1c0.5,0.4,1-0.4,1.6-0.1
	c1.2,0.6,0.2,4.9,2.9,5.2c0.1,0.3-0.3,0.2-0.3,0.5c1.1,0.5,4.1,1.8,5.5,2.6c-0.6,1.2,2,7.1,3.3,7c0-0.4,3.1-4.4,4.1-5.6
	C19,15.6,13.1,17.6,11.4,14.1z M11,8c0.6-0.5,0.4-0.6,0.1-0.7c0.3,0,0.5-0.3,0.5-0.5C11.5,7.4,11.4,8.1,11,8z"/>
<path class="st0" d="M29.3,14.7c0,7.8-6.3,14-14,14c-7.7,0-14-6.3-14-14c0-7.7,6.3-14,14-14C23.1,0.7,29.3,7,29.3,14.7z M15.3,4.2
	C9.5,4.2,4.8,8.9,4.8,14.7c0,5.8,4.7,10.5,10.5,10.5c5.8,0,10.5-4.7,10.5-10.5C25.8,8.9,21.1,4.2,15.3,4.2z"/>
</svg>
