<?xml version="1.0" encoding="utf-8"?>
<!-- Generator: Adobe Illustrator 21.0.0, SVG Export Plug-In . SVG Version: 6.00 Build 0)  -->
<svg version="1.1" id="圖層_1" xmlns="http://www.w3.org/2000/svg" xmlns:xlink="http://www.w3.org/1999/xlink" x="0px" y="0px"
	 viewBox="0 0 30 30" style="enable-background:new 0 0 30 30;" xml:space="preserve">
<style type="text/css">
	.st0{fill:#FFFFFF;}
</style>
<path class="st0" d="M23.3,2.9H6.9c-2.4,0-4.3,1.9-4.3,4.3v16.4c0,2.4,1.9,4.3,4.3,4.3h16.4c2.4,0,4.3-1.9,4.3-4.3V7.2
	C27.6,4.9,25.7,2.9,23.3,2.9z M5.7,9.2h8.4v9.3H5.7V9.2z M24.5,22.4H5.8v-1h18.7V22.4z M24.5,18.5h-7.8v-1h7.8V18.5z M24.5,14.5
	h-7.8v-1h7.8V14.5z M24.5,11h-7.8V9h7.8V11z"/>
</svg>
