<?xml version="1.0" encoding="utf-8"?>
<!-- Generator: Adobe Illustrator 21.0.0, SVG Export Plug-In . SVG Version: 6.00 Build 0)  -->
<svg version="1.1" id="圖層_1" xmlns="http://www.w3.org/2000/svg" xmlns:xlink="http://www.w3.org/1999/xlink" x="0px" y="0px"
	 viewBox="0 0 30 30" style="enable-background:new 0 0 30 30;" xml:space="preserve">
<style type="text/css">
	.st0{fill:url(#XMLID_2_);}
</style>
<g>
	
		<linearGradient id="XMLID_2_" gradientUnits="userSpaceOnUse" x1="1.9428" y1="847.0648" x2="1.4588" y2="845.7347" gradientTransform="matrix(19.8427 0 0 -19.8427 -18.8427 16809.8066)">
		<stop  offset="0" style="stop-color:#8839A8"/>
		<stop  offset="0.1635" style="stop-color:#BE2B9B"/>
		<stop  offset="0.3333" style="stop-color:#CC316D"/>
		<stop  offset="0.4744" style="stop-color:#D0446C"/>
		<stop  offset="0.6474" style="stop-color:#E35752"/>
		<stop  offset="0.8205" style="stop-color:#EE6D45"/>
		<stop  offset="1" style="stop-color:#FCAD54"/>
	</linearGradient>
	<path id="XMLID_594_" class="st0" d="M10.6,14.9c0-2.3,1.9-4.2,4.2-4.2s4.2,1.9,4.2,4.2s-1.9,4.2-4.2,4.2S10.6,17.2,10.6,14.9
		 M8.3,14.9c0,3.7,2.9,6.6,6.6,6.6s6.6-2.9,6.6-6.6s-2.9-6.6-6.6-6.6S8.3,11.3,8.3,14.9 M19.8,8.3c0,0.8,0.7,1.5,1.5,1.5
		c0.7,0,1.5-0.7,1.5-1.5c0-0.7-0.7-1.5-1.5-1.5C20.4,6.8,19.8,7.5,19.8,8.3 M9.9,24.6c-1.2-0.1-1.8-0.3-2.2-0.5
		c-0.6-0.2-1-0.5-1.4-0.9c-0.5-0.5-0.7-0.8-0.9-1.4c-0.2-0.5-0.4-1.1-0.5-2.2c-0.1-1.3-0.1-1.6-0.1-4.9s0-3.7,0.1-4.9
		s0.3-1.8,0.5-2.2c0.2-0.6,0.5-1,0.9-1.4c0.5-0.5,0.8-0.7,1.4-0.9c0.5-0.2,1.1-0.4,2.2-0.5c1.3,0.1,1.6,0.1,4.9,0.1s3.7,0,4.9,0.1
		c1.2,0.1,1.8,0.3,2.2,0.5c0.6,0.2,1,0.5,1.4,0.9c0.5,0.5,0.7,0.8,0.9,1.4c0.2,0.5,0.4,1.1,0.5,2.2c0.1,1.3,0.1,1.6,0.1,4.9
		s0,3.7-0.1,4.9s-0.3,1.8-0.5,2.2c-0.2,0.6-0.5,1-0.9,1.4c-0.5,0.5-0.8,0.7-1.4,0.9c-0.5,0.2-1.1,0.4-2.2,0.5
		c-1.4,0.1-1.7,0.1-5,0.1C11.5,24.7,11.2,24.7,9.9,24.6 M9.6,2.4c-1.4,0-2.2,0.3-3.1,0.6C5.6,3.3,4.9,3.7,4.2,4.4
		C3.6,5.1,3.1,5.8,2.7,6.7c-0.3,0.8-0.5,1.6-0.5,3c-0.1,1.4-0.1,1.8-0.1,5.2s0,3.9,0.1,5.2c0.1,1.4,0.3,2.2,0.7,3.1
		c0.4,0.8,0.7,1.5,1.5,2.2c0.7,0.7,1.5,1.2,2.2,1.5c0.8,0.3,1.7,0.6,3.1,0.7s1.8,0.1,5.2,0.1s3.9,0,5.2-0.1c1.4-0.1,2.2-0.3,3.1-0.7
		c0.8-0.4,1.5-0.7,2.2-1.5c0.7-0.7,1.2-1.5,1.5-2.2c0.3-0.8,0.6-1.7,0.7-3.1c0.1-1.4,0.1-1.8,0.1-5.2s0-3.9-0.1-5.2
		c-0.1-1.4-0.3-2.2-0.7-3.1c-0.6-0.7-0.9-1.5-1.6-2.2c-0.7-0.7-1.5-1.2-2.2-1.5c-0.8-0.3-1.7-0.6-3.1-0.7s-1.8-0.1-5.2-0.1
		C11.3,2.3,10.9,2.3,9.6,2.4"/>
</g>
</svg>
