<?xml version="1.0" encoding="utf-8"?>
<!-- Generator: Adobe Illustrator 21.0.0, SVG Export Plug-In . SVG Version: 6.00 Build 0)  -->
<svg version="1.1" id="圖層_1" xmlns="http://www.w3.org/2000/svg" xmlns:xlink="http://www.w3.org/1999/xlink" x="0px" y="0px"
	 viewBox="0 0 30 30" style="enable-background:new 0 0 30 30;" xml:space="preserve">
<style type="text/css">
	.st0{fill:#E02A26;}
</style>
<g id="XMLID_7419_">
	<g id="Lozenge">
		<g>
			<path class="st0" d="M28,10.5c0,0-0.3-1.8-1-2.6c-1-1-2.1-1-2.6-1.1c-3.7-0.3-9.1-0.3-9.1-0.3h0c0,0-5.5,0-9.1,0.3
				C5.6,6.9,4.5,6.9,3.5,7.9c-0.8,0.8-1,2.6-1,2.6s-0.3,2.1-0.3,4.2v2c0,2.1,0.3,4.2,0.3,4.2s0.3,1.8,1,2.6c1,1,2.3,1,2.9,1.1
				c2.1,0.2,8.9,0.3,8.9,0.3s5.5,0,9.1-0.3c0.5-0.1,1.6-0.1,2.6-1.1c0.8-0.8,1-2.6,1-2.6s0.3-2.1,0.3-4.2v-2
				C28.3,12.6,28,10.5,28,10.5z M12.5,19.1l0-7.3l7.1,3.7L12.5,19.1z"/>
		</g>
	</g>
</g>
</svg>
