<?xml version="1.0" encoding="utf-8"?>
<!-- Generator: Adobe Illustrator 21.0.0, SVG Export Plug-In . SVG Version: 6.00 Build 0)  -->
<svg version="1.1" id="圖層_1" xmlns="http://www.w3.org/2000/svg" xmlns:xlink="http://www.w3.org/1999/xlink" x="0px" y="0px"
	 viewBox="0 0 30 30" style="enable-background:new 0 0 30 30;" xml:space="preserve">
<style type="text/css">
	.st0{display:none;}
	.st1{display:inline;}
	.st2{fill:#686868;}
	.st3{fill:#3B5998;}
	.st4{fill:#DC4A3D;}
	.st5{fill:#3A3E7B;}
</style>
<g id="圖層_1_1_" class="st0">
	<g id="XMLID_7392_" class="st1">
		<path id="XMLID_7393_" class="st2" d="M17,16.2h4l0.7-4.7h-4.6V8.6c0-1.3,0.3-2.3,2.3-2.3h2.5V2.2C21.3,2.1,19.8,2,18.1,2
			c-3.6,0-6,2.2-6,6.1v3.4h-4v4.7h4V28H17V16.2z"/>
	</g>
</g>
<g id="圖層_1_拷貝" class="st0">
	<g id="XMLID_1_" class="st1">
		<path id="XMLID_2_" class="st3" d="M17,16.2h4l0.7-4.7h-4.6V8.6c0-1.3,0.3-2.3,2.3-2.3h2.5V2.2C21.3,2.1,19.8,2,18.1,2
			c-3.6,0-6,2.2-6,6.1v3.4h-4v4.7h4V28H17V16.2z"/>
	</g>
</g>
<g id="圖層_3" class="st0">
	<g id="XMLID_7358_" class="st1">
		<path id="XMLID_7360_" class="st2" d="M17.7,3.3C17.6,3,17.3,2.8,17,2.8H9.9c-0.8,0-1.6,0.1-2.4,0.4C4.8,4.1,2.9,6.4,2.9,8.7
			c0,3.2,2.5,5.7,5.8,5.9c0,0.2-0.1,0.4-0.1,0.6c0,0.4,0.1,0.9,0.3,1.3c-3.2,0.1-6,1.6-7.1,4c-0.3,0.6-0.4,1.3-0.4,1.9
			s0.2,1.2,0.5,1.8c0.7,1.3,2.2,2.2,4.2,2.8c1,0.3,2.2,0.4,3.3,0.4c1,0,2-0.1,3-0.4c2.9-0.8,4.8-3,4.8-5.5c0-2.4-0.8-3.8-2.8-5.2
			c-0.9-0.6-1.6-1.4-1.6-1.6c0-0.4,0-0.6,1.1-1.5c1.5-1.2,2.3-2.7,2.3-4.3c0-1.3-0.4-2.5-1-3.4h0.2c0.2,0,0.3,0,0.4-0.1l1.6-1.2
			C17.7,3.9,17.8,3.6,17.7,3.3z M9.8,18.6L9.8,18.6c0.6,0,1.1,0.1,1.5,0.2c0.2,0.1,0.3,0.2,0.5,0.3c1.1,0.7,1.8,1.2,2,2
			c0,0.2,0.1,0.4,0.1,0.6c0,2-1.5,3-4.5,3c-2.2,0-4-1.4-4-3.1C5.4,20,7.5,18.6,9.8,18.6z M10.2,12.4L10.2,12.4
			c-1.5,0-2.9-1.8-3.2-3.8C6.8,7.5,7,6.5,7.6,5.8c0.3-0.4,0.8-0.6,1.3-0.6H9c1.5,0,2.9,1.7,3.2,3.8c0.1,1.1-0.1,2.2-0.7,2.8
			C11.1,12.2,10.7,12.4,10.2,12.4z"/>
		<path id="XMLID_7359_" class="st2" d="M28.6,13.3c0-0.4-0.3-0.7-0.7-0.7H24V8.7C24,8.3,23.7,8,23.3,8h-1.2c-0.4,0-0.7,0.3-0.7,0.7
			v3.9h-3.9c-0.4,0-0.7,0.3-0.7,0.7v1.2c0,0.4,0.3,0.7,0.7,0.7h3.9v3.9c0,0.4,0.3,0.7,0.7,0.7h1.2c0.4,0,0.7-0.3,0.7-0.7v-3.9h3.9
			c0.4,0,0.7-0.3,0.7-0.7V13.3z"/>
	</g>
	<g id="XMLID_3_" class="st1">
		<path id="XMLID_5_" class="st4" d="M17.7,3.3C17.6,3,17.3,2.8,17,2.8H9.9c-0.8,0-1.6,0.1-2.4,0.4C4.8,4.1,2.9,6.4,2.9,8.7
			c0,3.2,2.5,5.7,5.8,5.9c0,0.2-0.1,0.4-0.1,0.6c0,0.4,0.1,0.9,0.3,1.3c-3.2,0.1-6,1.6-7.1,4c-0.3,0.6-0.4,1.3-0.4,1.9
			s0.2,1.2,0.5,1.8c0.7,1.3,2.2,2.2,4.2,2.8c1,0.3,2.2,0.4,3.3,0.4c1,0,2-0.1,3-0.4c2.9-0.8,4.8-3,4.8-5.5c0-2.4-0.8-3.8-2.8-5.2
			c-0.9-0.6-1.6-1.4-1.6-1.6c0-0.4,0-0.6,1.1-1.5c1.5-1.2,2.3-2.7,2.3-4.3c0-1.3-0.4-2.5-1-3.4h0.2c0.2,0,0.3,0,0.4-0.1l1.6-1.2
			C17.7,3.9,17.8,3.6,17.7,3.3z M9.8,18.6L9.8,18.6c0.6,0,1.1,0.1,1.5,0.2c0.2,0.1,0.3,0.2,0.5,0.3c1.1,0.7,1.8,1.2,2,2
			c0,0.2,0.1,0.4,0.1,0.6c0,2-1.5,3-4.5,3c-2.2,0-4-1.4-4-3.1C5.4,20,7.5,18.6,9.8,18.6z M10.2,12.4L10.2,12.4
			c-1.5,0-2.9-1.8-3.2-3.8C6.8,7.5,7,6.5,7.6,5.8c0.3-0.4,0.8-0.6,1.3-0.6H9c1.5,0,2.9,1.7,3.2,3.8c0.1,1.1-0.1,2.2-0.7,2.8
			C11.1,12.2,10.7,12.4,10.2,12.4z"/>
		<path id="XMLID_4_" class="st4" d="M28.6,13.3c0-0.4-0.3-0.7-0.7-0.7H24V8.7C24,8.3,23.7,8,23.3,8h-1.2c-0.4,0-0.7,0.3-0.7,0.7
			v3.9h-3.9c-0.4,0-0.7,0.3-0.7,0.7v1.2c0,0.4,0.3,0.7,0.7,0.7h3.9v3.9c0,0.4,0.3,0.7,0.7,0.7h1.2c0.4,0,0.7-0.3,0.7-0.7v-3.9h3.9
			c0.4,0,0.7-0.3,0.7-0.7V13.3z"/>
	</g>
</g>
<g>
	<circle id="XMLID_7683_" class="st5" cx="15" cy="10.2" r="6.7"/>
	<g id="XMLID_7681_">
		<path id="XMLID_7682_" class="st5" d="M24.5,26.5c0-6.4-4.2-11.6-9.5-11.6s-9.5,5.2-9.5,11.6c0,0.3,0,0.6,0,1h18.8
			C24.4,27.2,24.5,26.9,24.5,26.5z"/>
	</g>
</g>
</svg>
