<?xml version="1.0" encoding="utf-8"?>
<!-- Generator: Adobe Illustrator 21.0.0, SVG Export Plug-In . SVG Version: 6.00 Build 0)  -->
<svg version="1.1" id="圖層_1" xmlns="http://www.w3.org/2000/svg" xmlns:xlink="http://www.w3.org/1999/xlink" x="0px" y="0px"
	 viewBox="0 0 30 30" style="enable-background:new 0 0 30 30;" xml:space="preserve">
<style type="text/css">
	.st0{fill:#009EAE;}
</style>
<g id="XMLID_7377_">
	<path id="XMLID_7388_" class="st0" d="M23,3.8H7c-2.2,0-4,1.8-4,4v10.5c0,2.2,1.8,4,4,4h3.7v5.4l6.7-5.4H23c2.2,0,4-1.8,4-4V7.8
		C27,5.6,25.2,3.8,23,3.8z M24.5,18.3c0,0.8-0.7,1.5-1.5,1.5h-5.6h-0.9l-0.7,0.6l-2.6,2.1v-0.2v-2.5h-2.5H7c-0.8,0-1.5-0.7-1.5-1.5
		V7.8C5.5,7,6.2,6.3,7,6.3h16c0.8,0,1.5,0.7,1.5,1.5V18.3L24.5,18.3z"/>
	<circle id="XMLID_7386_" class="st0" cx="9.8" cy="13.1" r="1.5"/>
	<circle id="XMLID_7379_" class="st0" cx="15" cy="13.1" r="1.5"/>
	<circle id="XMLID_7378_" class="st0" cx="20.2" cy="13.1" r="1.5"/>
</g>
</svg>
