<?xml version="1.0" encoding="utf-8"?>
<!-- Generator: Adobe Illustrator 21.1.0, SVG Export Plug-In . SVG Version: 6.00 Build 0)  -->
<svg version="1.1" id="圖層_1" xmlns="http://www.w3.org/2000/svg" xmlns:xlink="http://www.w3.org/1999/xlink" x="0px" y="0px"
	 viewBox="0 0 50 50" style="enable-background:new 0 0 50 50;" xml:space="preserve">
<style type="text/css">
	.st0{display:none;}
	.st1{display:inline;fill:#1AD14E;}
	.st2{display:inline;fill:#FFFFFF;}
	.st3{opacity:0.5;fill:#DADAD9;}
	.st4{fill:#56709E;}
	.st5{fill:#FFFFFF;}
	.st6{fill:#FFFFFF;stroke:#040000;stroke-width:0.2892;}
	.st7{opacity:0.1;fill:#6D7A8A;}
	.st8{fill:#7A8AB8;}
	.st9{opacity:0.1;}
	.st10{opacity:0.15;fill:#585854;}
	.st11{fill:#F1F5F6;}
	.st12{fill:#F7FAFC;}
	.st13{opacity:0.5;fill:#FFFFFF;}
	.st14{display:inline;fill:#E60012;}
</style>
<g class="st0">
	<path class="st1" d="M47,22.1c0-9.3-9.9-16.9-22.1-16.9S2.7,12.8,2.7,22.1c0,4.6,2.4,8.7,6.3,11.7c0,0,0,0,0,0s0.3,0.2,0.8,0.6
		c2.2,1.6,4.8,2.8,7.7,3.6c1.3,0.4,2.7,0.7,4.2,0.8c2,0.2,1.8,2.2,1.3,3.3c-0.4,1.1-1.4,3.9,2.1,1.9c3.6-2.1,13.4-8,16.2-10.7
		c0,0,0,0,0,0C44.9,30.3,47,26.4,47,22.1z"/>
	<circle class="st2" cx="12.7" cy="22.3" r="3.3"/>
	<circle class="st2" cx="25" cy="22.3" r="3.3"/>
	<circle class="st2" cx="37.4" cy="22.3" r="3.3"/>
</g>
<g>
	<path class="st3" d="M29.4,8.8L29.4,8.8L29.4,8.8L29.4,8.8L29.4,8.8z M29.1,8.8C29,8.8,29,8.8,29.1,8.8L29.1,8.8
		C29,8.8,29,8.8,29.1,8.8L29.1,8.8z M28.7,8.9C28.7,8.9,28.6,8.9,28.7,8.9L28.7,8.9C28.6,8.9,28.7,8.9,28.7,8.9L28.7,8.9z M28.4,9
		C28.4,9,28.4,9,28.4,9L28.4,9C28.4,9,28.4,9,28.4,9L28.4,9z M28.1,9.1C28.1,9.2,28.1,9.2,28.1,9.1L28.1,9.1
		C28.1,9.2,28.1,9.2,28.1,9.1L28.1,9.1z M28,9.3C28,9.3,27.9,9.3,28,9.3L28,9.3C27.9,9.3,28,9.3,28,9.3L28,9.3z M27.8,9.4L27.8,9.4
		C27.8,9.4,27.8,9.4,27.8,9.4C27.8,9.4,27.8,9.4,27.8,9.4C27.8,9.4,27.8,9.4,27.8,9.4z M27.7,9.5L27.7,9.5
		C27.7,9.5,27.7,9.5,27.7,9.5L27.7,9.5C27.7,9.5,27.7,9.5,27.7,9.5z"/>
	<g>
		<polygon class="st4" points="8.6,42.3 17.7,42.3 17.7,24.8 7.3,24.8 		"/>
		<path class="st4" d="M17.7,24.8v17.5H8.6L7.3,24.8H17.7 M17.7,23.1H7.3c-0.5,0-0.9,0.2-1.3,0.6C5.7,24,5.5,24.5,5.6,25l1.4,17.5
			C7,43.3,7.7,44,8.6,44h9.1c0.9,0,1.7-0.8,1.7-1.7V24.8C19.4,23.9,18.7,23.1,17.7,23.1L17.7,23.1z"/>
	</g>
	<g>
		<path class="st5" d="M41.9,26.7c3.7,0,5-4.8,1.3-4.8c-2.6,0-12.6,0-12.6,0c0.5-1.8,1.3-7.6,1.3-7.6C31.7,11.6,29.9,8,29.9,8
			c-2.2-0.9-3.2,0.4-3.2,0.4s0.1,4.5,0.1,5.5s-5.1,9.3-6.3,10.3c-1.2,1.1-4.3,2.9-4.3,2.9c-3.7,8.9,0.8,12.6,0.8,12.6s0.9,0,2.4,0
			c0.9,0,2,1.4,3.2,1.4c5.6,0,13.7,0,15.6,0c3.7,0,5-4.8,1.3-4.8c3.7,0,5-4.8,1.3-4.8C44.4,31.5,45.7,26.7,41.9,26.7z"/>
	</g>
	<g>
		<path class="st5" d="M28.3,9.2c0.1,0,0.3,0,0.5,0.1c0.6,1.2,1.5,3.3,1.6,5.1c-0.1,1-0.9,5.7-1.2,7.3l-0.5,1.9h1.9h12.6
			c0.4,0,0.6,0.1,0.7,0.2c0,0,0,0,0,0.1c0,0.5-0.7,1.5-2,1.5v3c0.4,0,0.6,0.1,0.7,0.2c0,0,0,0,0,0.1c0,0.5-0.7,1.5-2,1.5v3
			c0.5,0,0.7,0.1,0.7,0.2c0,0,0,0,0,0.1c0,0.5-0.7,1.5-2,1.5v3c0.4,0,0.6,0.1,0.7,0.2c0,0,0,0,0,0.1c0,0.5-0.7,1.5-2,1.5H22.5
			c-0.2,0-0.7-0.3-1-0.5c-0.6-0.4-1.3-0.8-2.2-0.8h-1.8c-0.8-0.9-2.6-4-0.3-10c0.9-0.6,3.1-1.9,4.1-2.8c1.1-1,6.9-9.6,6.9-11.5
			c0-0.8-0.1-3.3-0.1-4.7C28.2,9.2,28.3,9.2,28.3,9.2L28.3,9.2 M28.3,7.7c-1.2,0-1.7,0.7-1.7,0.7s0.1,4.5,0.1,5.5s-5.1,9.3-6.3,10.3
			c-1.2,1.1-4.3,2.9-4.3,2.9c-3.7,8.9,0.8,12.6,0.8,12.6s0.9,0,2.4,0c0.9,0,2,1.4,3.2,1.4c5.6,0,13.7,0,15.6,0c3.7,0,5-4.8,1.3-4.8
			c3.7,0,5-4.8,1.3-4.8c3.7,0,5-4.8,1.3-4.8c3.7,0,5-4.8,1.3-4.8c-2.6,0-12.6,0-12.6,0c0.5-1.8,1.3-7.6,1.3-7.6
			C31.7,11.6,29.9,8,29.9,8C29.3,7.8,28.8,7.7,28.3,7.7L28.3,7.7z"/>
	</g>
	<path class="st6" d="M35.8,22.2"/>
	<path class="st4" d="M28.3,7.7c0.4,0,0.9,0.1,1.5,0.3c0,0,1.9,3.5,2.1,6.3c0,0-0.8,5.8-1.3,7.6c0,0,10,0,12.6,0
		c3.7,0,2.5,4.8-1.3,4.8c3.7,0,2.5,4.8-1.3,4.8c3.7,0,2.5,4.8-1.3,4.8c3.7,0,2.5,4.8-1.3,4.8c-2,0-10,0-15.6,0
		c-1.2,0-2.3-1.4-3.2-1.4c-1.5,0-2.4,0-2.4,0S12.3,36,16,27.1c0,0,3.1-1.8,4.3-2.9c1.2-1.1,6.3-9.3,6.3-10.3s-0.1-5.5-0.1-5.5
		S27.2,7.7,28.3,7.7 M28.3,6L28.3,6c-1.5,0-2.6,0.7-3.1,1.3C25,7.7,24.9,8,24.9,8.4c0,0,0.1,4,0.1,5.3c-0.5,1.5-4.8,8.3-5.8,9.2
		c-0.9,0.8-3.3,2.2-4.1,2.7c-0.3,0.2-0.6,0.5-0.7,0.8c-4.1,10,1.1,14.4,1.4,14.5c0.3,0.2,0.7,0.4,1.1,0.4h2.3
		c0.1,0.1,0.4,0.2,0.6,0.3c0.7,0.4,1.6,1,2.8,1h15.6c3.1,0,5.2-2.4,5.2-4.7c0-0.5-0.1-1-0.3-1.4c1-0.9,1.6-2.1,1.6-3.3
		c0-0.5-0.1-1-0.3-1.4c1-0.9,1.6-2.1,1.6-3.3c0-0.5-0.1-1-0.3-1.4c1-0.9,1.6-2.1,1.6-3.3c0-1-0.4-1.9-1.1-2.5c-0.5-0.4-1.4-1-2.8-1
		H32.7c0.4-2.4,0.9-5.5,0.9-5.7c0-0.1,0-0.2,0-0.4c-0.2-3.1-2.2-6.9-2.3-7c-0.2-0.3-0.5-0.6-0.8-0.8C29.8,6.2,29,6,28.3,6L28.3,6z"
		/>
	<path class="st7" d="M16.4,26.9v12.2c0.3,0.4,0.5,0.5,0.5,0.5s0.9,0,2.4,0V25.1C18.2,25.8,17,26.6,16.4,26.9z"/>
	<path class="st4" d="M16.4,24.8v17.5H5.9L4.5,24.8H16.4 M16.4,23.1H4.5c-0.5,0-0.9,0.2-1.2,0.6C2.9,24,2.8,24.5,2.8,25l1.4,17.5
		C4.3,43.3,5,44,5.9,44h10.5c0.9,0,1.7-0.8,1.7-1.7V24.8C18.1,23.9,17.3,23.1,16.4,23.1L16.4,23.1z"/>
	<g>
		<polygon class="st8" points="5.9,42.3 16.4,42.3 16.4,24.8 4.5,24.8 		"/>
	</g>
	<g class="st9">
		<g>
			<rect x="4.5" y="24.8" class="st5" width="11.8" height="2.2"/>
		</g>
		<path class="st5" d="M15.3,25.8v15.4H6.8L5.6,25.8H15.3 M16.4,24.8H4.5l1.4,17.5h10.5V24.8L16.4,24.8z"/>
	</g>
	<g>
		<circle class="st10" cx="13.4" cy="39.7" r="1.2"/>
		<g>
			<g>
				<ellipse class="st11" cx="13.3" cy="39.5" rx="1.2" ry="1.2"/>
			</g>
			<g>
				<circle class="st12" cx="13.3" cy="39.5" r="1"/>
			</g>
			<ellipse class="st13" cx="12.9" cy="39.3" rx="0.5" ry="0.5"/>
			<g>
				<ellipse class="st8" cx="13" cy="39.3" rx="0.1" ry="0.1"/>
				<circle class="st8" cx="13" cy="39.8" r="0.1"/>
				<circle class="st8" cx="13.5" cy="39.3" r="0.1"/>
				<ellipse class="st8" cx="13.5" cy="39.8" rx="0.1" ry="0.1"/>
			</g>
		</g>
	</g>
</g>
<g class="st0">
	<path class="st14" d="M43.1,45.9H6.9c-1.6,0-2.8-1.3-2.8-2.8V6.9c0-1.6,1.3-2.8,2.8-2.8h36.2c1.6,0,2.8,1.3,2.8,2.8v36.2
		C45.9,44.6,44.6,45.9,43.1,45.9z"/>
	<path class="st2" d="M36.6,27.2l-16,9.3c-1.2,0.7-2.8-0.2-2.8-1.6V16.3c0-1.4,1.6-2.3,2.8-1.6l16,9.3
		C37.9,24.6,37.9,26.4,36.6,27.2z"/>
</g>
</svg>
