<?xml version="1.0" encoding="utf-8"?>
<!-- Generator: Adobe Illustrator 21.0.0, SVG Export Plug-In . SVG Version: 6.00 Build 0)  -->
<svg version="1.1" id="圖層_1" xmlns="http://www.w3.org/2000/svg" xmlns:xlink="http://www.w3.org/1999/xlink" x="0px" y="0px"
	 viewBox="0 0 120.2 140" style="enable-background:new 0 0 120.2 140;" xml:space="preserve">
<style type="text/css">
	.st0{fill:#686868;}
</style>
<g id="XMLID_2_">
	<circle id="XMLID_1_" class="st0" cx="60.1" cy="49.1" r="28.7"/>
	<g id="XMLID_3_">
		<path id="XMLID_7_" class="st0" d="M100,111.8c0-17.1-17.9-31-39.9-31s-39.9,13.9-39.9,31v7.7H100V111.8z"/>
	</g>
</g>
<g id="XMLID_5_">
	<g id="XMLID_9_">
		<polygon id="XMLID_12_" class="st0" points="-81.3,299.8 -86.5,322.2 -64.4,316.1 -30.1,280.5 -47.1,264.2 		"/>
		<path id="XMLID_10_" class="st0" d="M-21.1,260.9l-6.8-6.5c-2.8-2.7-7.3-2.6-10,0.2l-5.7,6l16.9,16.3l5.7-6
			C-18.2,268-18.2,263.6-21.1,260.9z"/>
	</g>
	<path id="XMLID_14_" class="st0" d="M-54.4,337.1h-48.6c-1.6,0-2.8-1.3-2.8-2.8l0,0c0-1.6,1.3-2.8,2.8-2.8h48.6
		c1.6,0,2.8,1.3,2.8,2.8l0,0C-51.5,335.8-52.8,337.1-54.4,337.1z"/>
	<g id="XMLID_15_">
		<path id="XMLID_18_" class="st0" d="M-54.3,310.5l-5.5,5.7h5.4c1.6,0,2.8-1.3,2.8-2.8C-51.5,311.8-52.7,310.5-54.3,310.5z"/>
		<path id="XMLID_21_" class="st0" d="M-102.9,310.5c-1.6,0-2.8,1.3-2.8,2.8s1.3,2.8,2.8,2.8h14.3l1.3-5.7H-102.9z"/>
		<path id="XMLID_23_" class="st0" d="M-102.9,289.8c-1.6,0-2.8,1.3-2.8,2.8c0,1.6,1.3,2.8,2.8,2.8h21l5.5-5.7H-102.9z"/>
	</g>
	<g id="XMLID_4_">
		<path id="XMLID_26_" class="st0" d="M-43.1,298.9v48.4c0,0.2-0.2,0.5-0.5,0.5H-114c-0.2,0-0.5-0.2-0.5-0.5v-70.4
			c0-0.2,0.2-0.5,0.5-0.5h50.4l6.6-6.8h-57c-4,0-7.3,3.3-7.3,7.3v70.4c0,4,3.3,7.3,7.3,7.3h70.4c4,0,7.3-3.3,7.3-7.3v-55.5
			L-43.1,298.9z"/>
	</g>
</g>
</svg>
