<?xml version="1.0" encoding="utf-8"?>
<!-- Generator: Adobe Illustrator 21.0.0, SVG Export Plug-In . SVG Version: 6.00 Build 0)  -->
<svg version="1.1" id="圖層_1" xmlns="http://www.w3.org/2000/svg" xmlns:xlink="http://www.w3.org/1999/xlink" x="0px" y="0px"
	 viewBox="0 0 120.2 140" style="enable-background:new 0 0 120.2 140;" xml:space="preserve">
<style type="text/css">
	.st0{fill:#FD3A13;}
</style>
<g id="XMLID_5_">
	<g id="XMLID_9_">
		<polygon id="XMLID_12_" class="st0" points="48,66.8 42.8,89.2 65,83.1 99.2,47.5 82.3,31.2 		"/>
		<path id="XMLID_10_" class="st0" d="M108.3,27.9l-6.8-6.5c-2.8-2.7-7.3-2.6-10,0.2l-5.7,6l16.9,16.3l5.7-6
			C111.2,35,111.1,30.6,108.3,27.9z"/>
	</g>
	<path id="XMLID_14_" class="st0" d="M75,104.1H26.4c-1.6,0-2.8-1.3-2.8-2.8v0c0-1.6,1.3-2.8,2.8-2.8H75c1.6,0,2.8,1.3,2.8,2.8v0
		C77.8,102.8,76.5,104.1,75,104.1z"/>
	<g id="XMLID_15_">
		<path id="XMLID_18_" class="st0" d="M75.1,77.5l-5.5,5.7H75c1.6,0,2.8-1.3,2.8-2.8C77.8,78.8,76.6,77.5,75.1,77.5z"/>
		<path id="XMLID_21_" class="st0" d="M26.4,77.5c-1.6,0-2.8,1.3-2.8,2.8s1.3,2.8,2.8,2.8h14.3l1.3-5.7H26.4z"/>
		<path id="XMLID_23_" class="st0" d="M26.4,56.8c-1.6,0-2.8,1.3-2.8,2.8c0,1.6,1.3,2.8,2.8,2.8h21l5.5-5.7H26.4z"/>
	</g>
	<g id="XMLID_4_">
		<path id="XMLID_26_" class="st0" d="M86.2,65.9v48.4c0,0.2-0.2,0.5-0.5,0.5H15.4c-0.2,0-0.5-0.2-0.5-0.5V43.9
			c0-0.2,0.2-0.5,0.5-0.5h50.4l6.6-6.8h-57c-4,0-7.3,3.3-7.3,7.3v70.4c0,4,3.3,7.3,7.3,7.3h70.4c4,0,7.3-3.3,7.3-7.3V58.8L86.2,65.9
			z"/>
	</g>
</g>
</svg>
