<?xml version="1.0" encoding="utf-8"?>
<!-- Generator: Adobe Illustrator 21.0.0, SVG Export Plug-In . SVG Version: 6.00 Build 0)  -->
<svg version="1.1" id="圖層_1" xmlns="http://www.w3.org/2000/svg" xmlns:xlink="http://www.w3.org/1999/xlink" x="0px" y="0px"
	 viewBox="0 0 30 30" style="enable-background:new 0 0 30 30;" xml:space="preserve">
<style type="text/css">
	.st0{fill:#009EAE;}
	.st1{display:none;}
	.st2{display:inline;}
	.st3{fill:#686868;}
	.st4{fill:#3B5998;}
	.st5{fill:#EA423A;}
	.st6{fill:none;stroke:#009EAE;stroke-miterlimit:10;}
	.st7{fill:#FFFFFF;}
</style>
<circle class="st0" cx="15" cy="15.2" r="13.9"/>
<g id="圖層_1_1_" class="st1">
	<g id="XMLID_7392_" class="st2">
		<path id="XMLID_7393_" class="st3" d="M17,16.2h4l0.7-4.7h-4.6V8.6c0-1.3,0.3-2.3,2.3-2.3h2.5V2.2C21.3,2.1,19.8,2,18.1,2
			c-3.6,0-6,2.2-6,6.1v3.4h-4v4.7h4V28H17V16.2z"/>
	</g>
</g>
<g id="圖層_1_拷貝" class="st1">
	<g id="XMLID_1_" class="st2">
		<path id="XMLID_2_" class="st4" d="M17,16.2h4l0.7-4.7h-4.6V8.6c0-1.3,0.3-2.3,2.3-2.3h2.5V2.2C21.3,2.1,19.8,2,18.1,2
			c-3.6,0-6,2.2-6,6.1v3.4h-4v4.7h4V28H17V16.2z"/>
	</g>
</g>
<g id="圖層_4" class="st1">
	<g id="XMLID_7345_" class="st2">
		<path id="XMLID_7346_" class="st3" d="M15.2,2c-2.5,0-4.8,0.9-6.6,2.7C6.9,6.4,5.8,8.6,5.7,11v0.1v0.1c0,0,0,0,0,0.1V25
			c0,1.6,1.3,3,3,3s3-1.3,3-3v-4.7l0.8,0.3c0.9,0.3,1.8,0.4,2.8,0.4c5.3,0,9.5-4.3,9.5-9.5C24.7,6.2,20.5,2,15.2,2z M15.2,15.1h-3.1
			c-0.5,0-0.9-0.4-0.9-0.9v-3.1c0-2.2,1.8-4,4-4s4,1.8,4,4S17.4,15.1,15.2,15.1z"/>
	</g>
	<g id="XMLID_75_" class="st2">
		<path id="XMLID_76_" class="st5" d="M15,2c-2.5,0-4.8,0.9-6.6,2.7C6.7,6.3,5.6,8.6,5.5,11v0.1v0.1c0,0,0,0,0,0.1v13.9
			c0,1.6,1.3,3,3,3s3-1.3,3-3v-4.7l0.8,0.3c0.9,0.3,1.8,0.4,2.8,0.4c5.3,0,9.5-4.3,9.5-9.5C24.5,6.3,20.3,2,15,2z M15,15.1h-3.1
			c-0.5,0-0.9-0.4-0.9-0.9v-3.1c0-2.2,1.8-4,4-4s4,1.8,4,4S17.2,15.1,15,15.1z"/>
	</g>
</g>
<g id="XMLID_30_">
	<circle id="XMLID_9_" class="st6" cx="15" cy="15.2" r="13.6"/>
	<g id="XMLID_24_">
		<g id="XMLID_7576_">
			<path id="XMLID_7580_" class="st7" d="M20.1,8.5h-9.7C9,8.5,8,9.6,8,10.9v6.4c0,1.4,1.1,2.4,2.4,2.4h2.2v3.2l4-3.2H20
				c1.4,0,2.4-1.1,2.4-2.4v-6.4C22.5,9.6,21.4,8.5,20.1,8.5z M21,17.3c0,0.5-0.4,0.9-0.9,0.9h-3.4h-0.5l-0.4,0.3l-1.5,1.3v-0.1v-1.5
				h-1.5h-2.2c-0.5,0-0.9-0.4-0.9-0.9v-6.4c0-0.5,0.4-0.9,0.9-0.9h9.6c0.5,0,0.9,0.4,0.9,0.9V17.3L21,17.3z"/>
			<circle id="XMLID_7579_" class="st7" cx="12.2" cy="14.1" r="0.9"/>
			<circle id="XMLID_7578_" class="st7" cx="15.2" cy="14.1" r="0.9"/>
			<circle id="XMLID_7577_" class="st7" cx="18.4" cy="14.1" r="0.9"/>
		</g>
	</g>
</g>
</svg>
