<?xml version="1.0" encoding="utf-8"?>
<!-- Generator: Adobe Illustrator 21.0.0, SVG Export Plug-In . SVG Version: 6.00 Build 0)  -->
<svg version="1.1" id="圖層_1" xmlns="http://www.w3.org/2000/svg" xmlns:xlink="http://www.w3.org/1999/xlink" x="0px" y="0px"
	 viewBox="0 0 240 144.5" style="enable-background:new 0 0 240 144.5;" xml:space="preserve">
<style type="text/css">
	.st0{fill:#FFFFFF;}
</style>
<g>
	<path class="st0" d="M236,48.8h-2.3h-4.5H223c-6.1,0-5.7-1.5-5.7-1.5c0.5-1.5-4.1-1.5-4.1-1.5c-4.6,0-5,1.5-5,1.5
		c-0.5,1.5-10.4,1.5-10.4,1.5h-1.8c-0.5,0-0.7,0-1.1,0.1c0,0,0,0,0,0c0.2-0.7,0.1-1.7-0.1-2.3c-0.2-0.6,0-1.4,0-1.4
		c0.2-0.8,1.4-1.9,3.5-2.6c2.1-0.7,4.1-1.2,5.1-1.5c1-0.2,2-0.9,2-0.9c1-0.7,2-2.5,2.2-4.6c0.1-2.5-0.9-4.3-2-4.9
		c-1.1-0.5-1.5-0.4-1.5-0.4c-0.3,0.1-0.7,0.5-0.9,1.1c-0.1,0.5,0,1.2,0.3,2.3c0.3,1.1,0.4,1.8,0.3,2.3c-0.1,0.5-0.3,0.9-0.5,1
		c-0.2,0.2-3.4,1.1-3.4,1.1l-3.2,1c-2.2,0.9-3.8,2.2-4.2,2.9c-0.4,0.8-0.8,2.8-0.8,2.8c-0.3,1.6,0.1,3.2,0.7,4.1
		c-6.1,0.4-6.9,1.6-6.9,1.6l-0.6,1.8l-1.2,3.6l-0.7,2.2c-0.7,2.2,0.6,2.2,0.6,2.2c1.3,0,0.3,3,0.3,3c-1,3,0.6,3,0.6,3
		c1.6,0,0.1,2.4,0.1,2.4l-1.5,2.4c-0.9,1.2-2.1,1.9-3.7,1.9h-1.8l-0.5,3.6c-0.5,3.6,2.3,3.6,2.3,3.6h2.8c1.8,0,3.5-0.8,4.4-1.6
		c0.8-0.8,6.3-0.8,6.3-0.8h5.5l-5.9,18.4c-0.3,1-0.9,1.5-1.8,1.5h-1.9c-1.9,0-2.5,3.6-2.5,3.6c-0.6,3.6,3.3,3.6,3.3,3.6h3.9
		c3.5,0,5.9-2,7.2-5.9l9.3-28.8h-4.6H201h-3.9c-3.9,0-2.6-1.8-2.6-1.8c1.3-1.8,11.2-1.8,11.2-1.8h14c9.9,0,10.9-3,10.9-3
		c1-3,2.5-3,2.5-3c1.5,0,3.4-5.8,3.4-5.8C238.3,48.8,236,48.8,236,48.8 M226.3,57.9c-0.6,1.8-10.5,1.8-10.5,1.8h-14.1
		c-9.9,0-9.3-1.8-9.3-1.8C193,56,202.9,56,202.9,56H217C226.9,56,226.3,57.9,226.3,57.9 M196.7,25.6c0.8-2.4-0.2-9.4-2.1-18.5
		l-0.4-1.2c-0.4-1.6-3.1-1.4-3.4,1.2l0.2-0.2c-0.4,1.2,0.1,3.8,1.7,9.1c1,3.1,1.1,3.9,1.1,6.2c-0.4,1.5-0.2,3-0.6,3.4
		c-0.4,0.4-1.9,1.7-1.9,1.7c-0.4,0.7-2.5,1.3-6,3.9c-3.2,2.4-5.1,4.5-5.5,6.5c-1.1,3.9-0.7,6.5,0.3,7.1c1,0.6,1.5,0.7,1.5,0.7
		l0.5,0.1c0.3-0.3,0.6-0.7,0.7-1.2c0.1-0.4,0.1-1-0.1-1.9c-0.2-0.9-0.2-1.5-0.1-1.9c0.1-0.4,0.3-0.7,0.5-0.9
		c0.2-0.2,0.5-0.9,0.5-0.9c0.4-0.8,2.7-3.2,6.6-6.3C193.6,30.3,196.2,28.2,196.7,25.6 M175.3,46.7h-7.9c-9.9,0-11.2,4.1-11.2,4.1
		c-1.3,4.1,8.6,4.1,8.6,4.1h7.9c9.9,0,11.2-4.1,11.2-4.1C185.2,46.7,175.3,46.7,175.3,46.7 M174.2,23.5c0.8-1.8-0.2-4.8-1.6-6.9
		c-1.4-2.1-3.6-4-3.6-4c-2.2-1.9-4.8-4-5.6-4.4c-3.1-0.8-5.2-0.7-5.9-0.3c-0.7,0.4-0.7,0.9-0.7,0.9c-0.1,0.5,0.5,1.3,1.8,1.7
		c5.4,0.7,9.5,4.1,10.9,7.2c1.3,3.1,1,3.7,1,3.7c-0.3,0.6-2.4,2-5.8,3.8c-3.4,1.8-5.4,3.7-6,6c-1,4.1,0.2,8.1,2,10
		c1.8,1.9,2.1,2,2.1,2c0.3,0.1,1.1-0.2,1.6-0.5c0.5-0.3,0.6-0.7,0.6-0.7c0-0.4-0.5-1.6-1.5-3.4c-1.1-1.8-1.5-3.1-1.4-4.2
		c-0.1-2.1,1.8-4.1,5.6-5.9C171.4,26.6,173.6,25,174.2,23.5 M152,50.8c1.3-4.1-8.6-4.1-8.6-4.1h-0.1c-3.7,0-6,0.6-7.6,1.3l9.3-28.8
		h-4.6h-4.5h-5.7c-5.7,0-2.9-8.7-2.9-8.7c2.8-8.7-1.8-8.7-1.8-8.7c-4.6,0-7.4,8.7-7.4,8.7c-2.8,8.7-12.7,8.7-12.7,8.7h-1
		c-9.9,0-10.5,2-10.5,2l-0.7,2l-1.3,4.1l-4.4,13.8l1.6-24.7l0-0.1c0-0.1-9.9-0.1-9.9-0.1H48.7c-9.9,0-14.8,8.6-14.8,8.6l-9.6,16.6
		c-0.8,1.5-1.7,2.3-2.8,2.4h-1.2l-2,6.1c-2,6.1-0.4,6.1-0.4,6.1c1.6,0-1.4,9.4-1.4,9.4L3.8,104.9c-2.1,6.6-0.9,10,3.7,10h15.9
		l1.8-5.7c1.8-5.7-2.8-5.7-2.8-5.7h-4.6c-1.2,0-1.5-0.9-0.9-2.6l3.1-9.7c0.4,2.9,3.6,7.8,9.6,12.3c3.3,2.5,9.8,6.2,14.6,8.6
		c4.8,2.4,5,2.6,5,2.6l0.2,0.2c-2.8,2.8-6.9,6.5-12.2,11.1c-6,5.2-10.2,8.8-11.3,9.9c-1.1,1.1-0.9,1.9-0.9,1.9
		c0.2,0.9,0.9,2,1.8,2.5c3.1,1.7,5.6,2.4,7.5,2.1c2.2-0.4,3.1-1,2.8-1.5c-0.2-0.5,4.4-4.8,4.4-4.8c4.6-4.3,13.8-12.6,18.4-16.5
		c4.6-3.9,5.1-4,5.1-4l0.5-0.1L98.6,131c0.1,0,0.7,0.4,1.9,1.2c0.9,0.6,1.7,0.8,2.5,0.6c0.2,0,0.6-0.2,1-0.3
		c2.3-1.6,4.4-3.2,5.2-3.9c0.8-0.8,1.1-1.3,1.1-1.3c0.3-0.5-0.1-1.4-1.4-2.1c-17.9-8.9-29.5-14.6-32.3-15.8
		c-2.7-1.3-2.8-1.6-2.8-1.6l-0.1-0.3c3.1-2.8,5.4-4.8,6.2-5.5c0.8-0.7,0.9-0.7,0.9-0.7c0.1,0,0.4-0.3,0.9-0.8c0.5-0.5,1-0.7,1.5-0.7
		c2.6,0.8,4.6,1.2,6,1.4c1.5,0.4,3.3,0.4,5.2,0.1c2.5-0.4,5-1.3,7.5-2.7c4.6-3.5,7.9-6.2,10.2-7.9c3.6-2.9,6.7-5.8,9.3-8.8l0-0.2
		c0-0.2-0.5-0.5-0.5-0.5c-0.5-0.3-1.6-0.4-3-0.2c-0.9,0.2-2,0.5-3.4,1c-1.7,0.7-2.8,1.1-3.2,1.2l-2.1,0.9c-0.8,0.3-1.5,0.4-1.9,0.4
		c-0.3,0,0.8-1.5,0.8-1.5c1.1-1.4,2.9-3.5,3.6-4.2c0.7-0.7,0.6-1,0.6-1l-0.1-0.3c-0.9-0.6-2.1-0.7-3.4-0.5c-0.7,0.1-1.9,0.5-3.4,1.2
		c-1.7,0.7-2.9,1.1-3.3,1.2c-0.3,0.1-0.4-0.1-0.4-0.1l0-0.2c3.2-3.7,4.9-5.7,4.9-5.8c0-0.1-0.3-0.5-0.3-0.5
		c-0.4-0.4-1.5-0.6-2.9-0.3c-6.2,2.6-9.9,4.3-10.6,4.6c-0.7,0.3-0.9,0.3-0.9,0.3l-0.2,0c1-1.8,1.9-3.1,2.5-4c1.9-2.6,2.9-4.3,3-4.7
		c0.1-0.4-0.5-0.6-0.5-0.6c-0.6-0.3-1.7-0.4-2.7-0.3c-0.4,0.1-0.8,0.2-1.2,0.4c-3.9,2.2-8.7,5.9-14.5,11.1c-3.5,3.1-5,6.4-4.4,9.9
		c0.3,1.4,0.9,2.8,1.4,3.5c0.5,0.7-1.8,2.8-1.8,2.8c-2.3,2.1-6,5.2-7.2,6.1c-1.3,0.9-2.1,1.1-2.1,1.1l-0.8,0.2
		c-17.3-8.5-30.3-14.9-34.7-17c-1.1-0.5-2.1-0.9-2.8-1.2h40c4.6,0,7.9-3.3,10.1-10l6-18.6h1.5c-0.3,4.7,2.4,4.9,2.4,4.9
		c4.6,0,7.6-9.4,7.6-9.4L98,36.8c3-9.4,12.9-9.4,12.9-9.4h12.4c9.9,0,6.9,9.4,6.9,9.4l-4.6,14.3c-0.3,1-0.9,1.5-1.9,1.5h-1
		c-1,0-1-0.2-1-0.2c0.1-0.2,0.2-0.6,0.4-0.9l6.5-20.1h-4.4h-4.3h-8.4h-4.4H105c-2.2,0-5,8.9-5,8.9l-2.9,8.9l-1.3,4.1l-0.7,2.1
		c-0.7,2.1,9.2,2.1,9.2,2.1h10.5c2.4,0,4.3-0.9,5-1.9c0.7-0.9,0.2,2.2,0.2,2.2l-0.5,3.1h6.7c3.5,0,6-2,7.3-5.9l0,0c0,0,0.1,0,0.1,0
		c2.8,0,0.2,8,0.2,8c-2.6,8-5.2,8-5.2,8c-2.6,0-4,4.1-4,4.1c-1.3,4.1,1.3,4.1,1.3,4.1c2.6,0-0.2,8.9-0.2,8.9
		c-2.8,8.9-5.7,8.9-5.7,8.9c-2.9,0-4.2,4.1-4.2,4.1c-1.3,4.1,8.6,4.1,8.6,4.1h0.7c9.9,0,11.2-4.1,11.2-4.1c1.3-4.1-1.5-4.1-1.5-4.1
		c-2.8,0,0-8.9,0-8.9c2.8-8.9,5.4-8.9,5.4-8.9c2.5,0,3.8-4.1,3.8-4.1c1.3-4.1-1.2-4.1-1.2-4.1c-2.5,0,0.1-8,0.1-8c2.6-8,5.2-8,5.2-8
		C150.7,54.8,152,50.8,152,50.8 M116,43.6l-1.3,4.1c-0.3,1-0.9,1.5-1.9,1.5h-7l1.6-4.9c1.6-4.9,5.7-4.9,5.7-4.9
		C117.3,39.5,116,43.6,116,43.6 M78.2,88.5c-0.2-0.9-0.1-1.8,0.2-2.7c1.9-3.6,4.4-6.5,6-7.6c1.6-1.1,0.8,0.3,0.8,0.3
		c-0.8,1.4-2.2,3.5-2.7,4.2c-0.5,0.7-0.5,0.9-0.5,0.9c0,0.2,0.4,0.5,1,0.8c0.6,0.3,1,0.5,1,0.6c0,0,0.8-0.1,0.8-0.1
		c0.7-0.1,2.2-0.6,3.7-1.5c3-1.8,5.3-3.2,6-3.6c0.8-0.5,0.9-0.3,0.9-0.3l0.1,0.2l-2.5,2.7c-2.5,2.7-2.6,3.2-2.6,3.2
		c-0.1,0.5,0.8,1.1,1.8,1.2c1,0.1,2.9-0.7,2.9-0.7c1.9-0.8,4.6-2.1,5.5-2.6c0.8-0.5,1.3-0.6,1.3-0.6l0.5-0.1c-1.8,2.4-3.3,4.2-4,4.9
		c-0.7,0.6-0.7,1.1-0.7,1.1c0,0.5,0.9,1,1.8,1.1c0.9,0.1,1.6,0,1.6,0c0.7-0.1,2.6-0.8,5.1-1.8c2.5-1,4.3-1.7,4.9-1.8
		c0.6-0.1-0.2,0.7-0.2,0.7c-0.8,0.8-3.1,2.8-6.2,5.1c-1,0.8-3.6,2.6-7.7,5.4c-1.5,0.7-2.8,1.1-4,1.3c-1.6,0.3-2.8,0.2-3.3,0
		c-0.5-0.2-1.3-0.2-1.3-0.2c-0.9,0-2.2-0.6-3.2-1.8c-1-1.1-2-1.8-2.4-1.9c-0.4-0.1-1.6-1.2-1.6-1.2C80,92.7,78.6,90.6,78.2,88.5
		 M68.4,112.3c-0.1-0.6,0.8-1.3,1.7-1.6c0.9-0.3,6.6,2.4,6.6,2.4c5.7,2.7,13.5,6.5,17.8,8.7c5.8,2.8,9.5,4.8,10.1,5.3
		c0.7,0.5,0.5,1,0.5,1c-0.2,0.5-0.9,1.1-1.6,1.2c-0.6,0.1-9.4-4-9.4-4l-8.8-4.1c-6.6-3.1-12.2-5.9-14.5-7.3
		c-2.3-1.3-2.4-1.4-2.4-1.4C68.5,112.5,68.4,112.4,68.4,112.3 M70.4,102.3c7.5-6.4,7.9-6.5,7.9-6.5c0.3-0.1,1,0.2,1.4,0.6
		c0.4,0.4-1.3,2-1.3,2c-1.7,1.6-5.5,5.1-9.8,8.9l-17.4,15.4c-6.5,5.8-12.3,11-17.2,15.7c-1,0.6-1.6,0.9-1.7,1c-0.1,0-0.6,0-0.6,0
		c-0.5-0.1-1.3-0.7-1.6-1.2c-0.3-0.5-0.2-0.9-0.2-0.9c0.1-0.4,0.9-1.3,2-2.4c1-0.8,2-1.7,3-2.5L70.4,102.3z M23.8,87.4l0.1-0.1
		l3.3,1.2L44,96.9c6,3,11.4,5.9,13.9,7.3c2.5,1.4,1.6,2.5,1.6,2.5c-0.9,1.1-3.5,3.1-5.1,4.2c-1.6,1-2.1,1.1-2.1,1.1
		c-0.4,0-1.4-0.2-2.4-0.7l-2.4-1.2c-2.8-1.7-5-2.9-6.7-3.6c-5.6-3.5-9.5-6.2-11.5-8.1c-3.6-3.4-5.5-7-5.6-8.9
		C23.7,87.6,23.8,87.4,23.8,87.4 M26.9,69.6c0.9-2.8,10.8-2.8,10.8-2.8h28.8l-1,3.1c-0.5,1.7-1.4,2.6-2.6,2.6H26L26.9,69.6z
		 M42.9,50.6h18.9c9.9,0,8.9,3,8.9,3c-1,3-10.9,3-10.9,3H41c-9.9,0-8.9-3-8.9-3C33,50.6,42.9,50.6,42.9,50.6 M75.6,33.4
		c-0.4,5-6.7,5-6.7,5c-6.3,0-5.3-3.1-5.3-3.1c1-3.1-4.9-3.1-4.9-3.1c-5.9,0-6.9,3.1-6.9,3.1c-1,3.1-7.3,3.1-7.3,3.1
		c-6.3,0-3.4-5-3.4-5c2.9-5,12.8-5,12.8-5h12.3C76,28.5,75.6,33.4,75.6,33.4 M148.2,12.5c1.2-3.8-0.4-3.8-0.4-3.8h-1.7
		c-0.8,0-1.3-0.5-1.5-1.4l-1.3-3.5h-5c-5,0-4,3.9-4,3.9l1,3.9c0.4,3.2,2.2,4.8,5.3,4.8h6.3L148.2,12.5z M109.1,11.5l6.4-7.7h-9.8
		l-2.6,2.7c-0.9,1.2-2.2,1.9-3.8,1.9h-3l-0.6,3.8c-0.6,3.8,2.9,3.8,2.9,3.8h3.5C104.6,16.1,106.9,14.5,109.1,11.5 M138.8,100.8
		c-0.7,4.1,1.5,4.1,1.5,4.1h2.1c3.3,0,5.8-1.8,7.5-5.4l12-27.7h2.3c2.3,0-0.7,9.4-0.7,9.4L157.7,99c-1.3,3.9-0.1,5.9,3.4,5.9h6.6
		l1.3-4.1c1.3-4.1,0.6-4.1,0.6-4.1h-0.7c-0.9,0-1.2-0.5-0.9-1.5l7.5-23.5h1.4c1.4,0,2.7-4.1,2.7-4.1c1.3-4.1-8.6-4.1-8.6-4.1h-10.8
		c-9.9,0-11.2,4.1-11.2,4.1c-1.3,4.1,1.1,4.1,1.1,4.1h2.5L143,95c-0.5,1.1-1.2,1.7-2,1.8h-1.6L138.8,100.8z M179.9,92.5
		c2.4,0,4.7-1.4,6.8-4.3l5.4-7.1h-9.5l-1.9,2.7c-0.9,1.2-2.1,1.9-3.7,1.9h-2.2l-0.4,3.4c-0.4,3.4,2.6,3.4,2.6,3.4H179.9z
		 M170.8,98.2l-0.4,3.4c-0.4,3.4,2.5,3.4,2.5,3.4h2.9c2.4,0,4.7-1.4,6.8-4.3l5.1-6.8h-9.5l-1.6,2.5c-0.9,1.3-2.1,1.9-3.7,1.9H170.8z
		 M210.9,79.4l-4.8,19.8c-1,3.7,0.2,5.6,3.4,5.6h10.8l1.3-4.1c1.3-4.1-1.8-4.1-1.8-4.1h-3.1c-0.8,0-1.1-0.6-0.8-1.8l0.6-2.7h2.5
		c2,0,3.6-1.7,4.9-5.1l7.2-15.4h-2.6c-2.6,0-5.2,5.8-5.2,5.8l-2.7,5.8c-0.3,0.8-0.8,1.3-1.4,1.3h-0.8l1.8-7.4
		c1.8-7.4-2.6-7.4-2.6-7.4C213.2,69.8,210.9,79.4,210.9,79.4"/>
	<path class="st0" d="M125.4,116.7c0-1.1-0.1-1.9-0.4-2.4c-0.3-0.5-0.8-0.9-1.6-1.2c-0.8-0.3-1.7-0.5-2.9-0.5c-1,0-1.9,0.1-2.6,0.4
		c-0.7,0.3-1.2,0.7-1.6,1.2c-0.3,0.5-0.5,1.3-0.5,2.4c0,0.8,0.1,1.4,0.3,1.9c0.2,0.5,0.5,0.9,0.9,1.2c0.3,0.3,1.1,0.7,2.1,1.3
		c1.1,0.6,1.7,1,2,1.3c0.3,0.3,0.4,0.8,0.4,1.7c0,0.4-0.1,0.7-0.2,0.9c-0.1,0.2-0.4,0.3-0.6,0.3c-0.3,0-0.5-0.1-0.6-0.2
		c-0.1-0.2-0.2-0.5-0.2-1v-1.7h-4v0.9c0,1.1,0.1,1.9,0.4,2.5c0.3,0.6,0.8,1.1,1.6,1.4c0.8,0.4,1.8,0.6,2.9,0.6c1,0,2-0.2,2.8-0.5
		c0.8-0.3,1.3-0.7,1.6-1.2c0.3-0.5,0.4-1.2,0.4-2.3c0-1.4-0.2-2.4-0.7-3.1c-0.5-0.6-1.7-1.4-3.6-2.4c-0.7-0.3-1.1-0.6-1.2-0.9
		c-0.2-0.2-0.2-0.6-0.2-1.1c0-0.4,0.1-0.6,0.2-0.8c0.1-0.2,0.3-0.3,0.6-0.3c0.2,0,0.4,0.1,0.5,0.2c0.1,0.1,0.2,0.5,0.2,0.9v1.1h4
		V116.7z M132.6,112.9v10.6c0,0.7,0,1.2-0.1,1.4c-0.1,0.2-0.3,0.3-0.5,0.3c-0.2,0-0.4-0.1-0.5-0.3c-0.1-0.2-0.1-0.6-0.1-1.2v-10.8
		H127v8.5c0,1.6,0,2.7,0.1,3.2c0.1,0.5,0.3,1,0.7,1.4c0.4,0.5,0.9,0.8,1.7,1.1c0.8,0.3,1.6,0.4,2.6,0.4c0.9,0,1.7-0.1,2.3-0.4
		c0.7-0.2,1.2-0.6,1.6-1.1c0.4-0.5,0.6-0.9,0.7-1.4c0.1-0.4,0.1-1.2,0.1-2.3v-9.6H132.6z M138.5,127.3h4.3v-5.8h1.2
		c0.9,0,1.7-0.1,2.3-0.3c0.6-0.2,1-0.5,1.2-1c0.2-0.4,0.3-1.1,0.3-2v-1.2c0-0.9-0.1-1.6-0.2-2c-0.1-0.4-0.3-0.8-0.6-1.1
		c-0.3-0.3-0.8-0.5-1.4-0.7c-0.6-0.2-1.5-0.2-2.7-0.2h-4.3V127.3z M143.9,115.6c0.2,0.1,0.3,0.5,0.3,1v1.2c0,0.5-0.1,0.9-0.2,1.1
		c-0.2,0.2-0.4,0.3-0.8,0.3c-0.1,0-0.2,0-0.3,0l0-3.7C143.4,115.4,143.8,115.5,143.9,115.6 M149,127.3h7.5v-2.9h-3.2v-3.2h2.7v-2.7
		h-2.7v-2.7h2.9v-2.9H149V127.3z M157.7,127.3h4.3v-6.5c0.6,0,1,0.1,1.1,0.3c0.1,0.2,0.2,0.7,0.2,1.4v4.8h4v-3.8
		c0-1.2,0-1.9-0.1-2.1c-0.1-0.3-0.3-0.5-0.5-0.8c-0.3-0.3-0.9-0.6-1.7-0.7c0.9-0.1,1.6-0.3,1.9-0.7c0.3-0.4,0.5-1.1,0.5-2.3
		c0-1.2-0.2-2.1-0.7-2.7c-0.5-0.6-1-0.9-1.8-1c-0.7-0.1-2.1-0.2-4.1-0.2h-3V127.3z M163,115.6c0.2,0.1,0.3,0.4,0.3,0.9v0.8
		c0,0.6-0.1,1-0.3,1.1c-0.2,0.1-0.5,0.2-1,0.2v-3.2C162.5,115.4,162.8,115.5,163,115.6 M171.9,112.9v2.9h2.5v11.5h4.3v-11.5h2.6
		v-2.9H171.9z M182.7,112.9l-2.2,14.3h4.4l0.3-2.6h1.5l0.2,2.6h4.4l-2.5-14.3H182.7z M185.1,122.2c0.1-1.3,0.4-3.3,0.8-6
		c0.2,2.4,0.4,4.4,0.7,6H185.1z M201.2,116.7c0-1.1-0.1-1.9-0.4-2.4c-0.3-0.5-0.8-0.9-1.6-1.2c-0.8-0.3-1.7-0.5-2.9-0.5
		c-1,0-1.9,0.1-2.6,0.4c-0.7,0.3-1.2,0.7-1.6,1.2c-0.3,0.5-0.5,1.3-0.5,2.4c0,0.8,0.1,1.4,0.3,1.9c0.2,0.5,0.5,0.9,0.9,1.2
		c0.3,0.3,1.1,0.7,2.1,1.3c1.1,0.6,1.7,1,2,1.3c0.3,0.3,0.4,0.8,0.4,1.7c0,0.4-0.1,0.7-0.2,0.9c-0.1,0.2-0.4,0.3-0.6,0.3
		c-0.3,0-0.5-0.1-0.6-0.2c-0.1-0.2-0.2-0.5-0.2-1v-1.7h-4v0.9c0,1.1,0.1,1.9,0.4,2.5c0.3,0.6,0.8,1.1,1.6,1.4
		c0.8,0.4,1.8,0.6,2.9,0.6c1,0,2-0.2,2.8-0.5c0.8-0.3,1.3-0.7,1.6-1.2c0.3-0.5,0.4-1.2,0.4-2.3c0-1.4-0.2-2.4-0.7-3.1
		c-0.5-0.6-1.7-1.4-3.6-2.4c-0.7-0.3-1.1-0.6-1.2-0.9c-0.1-0.2-0.2-0.6-0.2-1.1c0-0.4,0.1-0.6,0.2-0.8c0.1-0.2,0.3-0.3,0.6-0.3
		c0.2,0,0.4,0.1,0.5,0.2c0.1,0.1,0.2,0.5,0.2,0.9v1.1h4V116.7z M202.1,112.9v2.9h2.5v11.5h4.3v-11.5h2.6v-2.9H202.1z M212.5,127.3
		h7.5v-2.9h-3.2v-3.2h2.7v-2.7h-2.7v-2.7h2.9v-2.9h-7.2V127.3z"/>
</g>
</svg>
