<?xml version="1.0" encoding="utf-8"?>
<!-- Generator: Adobe Illustrator 21.0.0, SVG Export Plug-In . SVG Version: 6.00 Build 0)  -->
<svg version="1.1" id="圖層_1" xmlns="http://www.w3.org/2000/svg" xmlns:xlink="http://www.w3.org/1999/xlink" x="0px" y="0px"
	 viewBox="0 0 30 30" style="enable-background:new 0 0 30 30;" xml:space="preserve">
<g>
	<g>
		<path d="M27.3,6.6C27.3,6.6,27.3,6.6,27.3,6.6C27.3,6.6,27.3,6.6,27.3,6.6c0-0.1,0-0.1,0-0.1c0,0,0,0,0,0c0,0,0,0,0,0l-1.9-5
			c0,0,0,0,0,0l0,0c0,0,0,0,0,0c0,0,0,0,0,0c0,0,0,0,0,0c0,0,0,0,0-0.1c0,0,0,0,0,0c0,0,0,0,0,0c0,0,0,0,0,0c0,0,0,0,0,0
			c0,0,0,0,0,0c0,0-0.1,0-0.1-0.1c0,0,0,0,0,0h0c0,0,0,0,0,0c0,0,0,0,0,0c0,0,0,0,0,0c0,0,0,0,0,0c0,0,0,0,0,0c0,0,0,0,0,0
			c-0.1,0-0.1,0-0.2,0c0,0,0,0,0,0c0,0,0,0,0,0c0,0,0,0,0,0c0,0,0,0,0,0c0,0,0,0,0,0v0c0,0,0,0,0,0l0,0c0,0,0,0-0.1,0c0,0,0,0,0,0
			c0,0,0,0,0,0c0,0,0,0,0,0c0,0,0,0,0,0c0,0,0,0,0,0l-3.4,3.4c0,0,0,0,0,0c0,0,0,0.1-0.1,0.1c0,0,0,0,0,0c0,0,0,0,0,0c0,0,0,0,0,0
			c0,0,0,0,0,0l-2.7,15.5l-1.2,1.1l2.3-8.7c0,0,0,0,0,0l0,0l0,0l0,0c0,0,0,0,0,0c0,0,0-0.1,0-0.1c0,0,0-0.1,0-0.1l-1.4-3.1
			c0,0,0,0,0,0c0,0,0,0,0-0.1c0,0,0,0,0,0c0,0,0,0,0,0c0,0,0,0,0,0c0,0,0,0,0,0c0,0,0,0,0,0c0,0,0,0,0,0c0,0,0,0,0,0
			c0,0-0.1,0-0.1,0c0,0,0,0,0,0c0,0,0,0,0,0c0,0,0,0,0,0c0,0-0.1,0-0.1,0c0,0,0,0,0,0c0,0,0,0,0,0c0,0,0,0,0,0c0,0,0,0,0,0
			c0,0,0,0,0,0c0,0,0,0,0,0c0,0,0,0,0,0c0,0,0,0,0,0c0,0,0,0,0,0c0,0,0,0,0,0c0,0,0,0,0,0l-2.5,2.1c0,0,0,0,0,0c0,0,0,0,0,0
			c0,0,0,0,0,0c0,0,0,0,0,0c0,0,0,0,0,0c0,0,0,0,0,0.1c0,0,0,0,0,0c0,0,0,0,0,0c0,0,0,0,0,0c0,0,0,0,0,0c0,0,0,0,0,0l-1.8,8.2L9.3,7
			c0,0,0,0,0-0.1c0,0,0,0,0,0c0,0,0,0,0,0c0,0,0,0,0,0c0,0,0,0,0,0c0,0,0,0,0,0c0,0,0,0,0,0c0,0,0,0,0,0c0,0,0,0,0,0c0,0,0,0,0,0
			l0,0h0l0,0c0,0,0,0-0.1-0.1c0,0,0,0,0,0c0,0,0,0,0,0L4.8,4.2c0,0,0,0,0,0c0,0,0,0,0,0c0,0,0,0,0,0c0,0,0,0,0,0c0,0,0,0,0,0
			c0,0,0,0,0,0c0,0,0,0,0,0c0,0,0,0,0,0c0,0,0,0,0,0c0,0,0,0,0,0c0,0,0,0,0,0c0,0,0,0-0.1,0c0,0,0,0,0,0c0,0,0,0,0,0c0,0,0,0,0,0
			c0,0,0,0,0,0c0,0,0,0,0,0c0,0,0,0,0,0c0,0,0,0,0,0c0,0,0,0,0,0c0,0-0.1,0-0.1,0.1c0,0,0,0,0,0c0,0,0,0,0,0c0,0,0,0,0,0.1
			c0,0,0,0,0,0c0,0,0,0,0,0c0,0,0,0,0,0c0,0,0,0,0,0c0,0,0,0,0,0L2.7,9.2c0,0,0,0,0,0c0,0,0,0,0,0c0,0,0,0,0,0c0,0,0,0,0,0l0,0
			c0,0,0,0.1,0,0.1c0,0,0,0,0,0c0,0,0,0,0,0c0,0,0,0,0,0l0,0c0,0,0,0,0,0l5.1,13.8l-1,2.7c-0.1,0.1,0,0.3,0.1,0.4l3,2.2c0,0,0,0,0,0
			l0.1,0.1c0.1,0,0.1,0.1,0.2,0.1h7.2c0.1,0,0.1,0,0.2-0.1l2.6-1.7l4.7-1.7c0,0,0.1,0,0.1-0.1c0,0,0,0,0,0c0,0,0,0,0,0
			c0-0.1,0.1-0.1,0.1-0.2h0c0,0,0,0,0,0c0-0.1,0-0.1,0-0.2L23.9,22L27.3,6.6C27.3,6.6,27.3,6.6,27.3,6.6C27.3,6.6,27.3,6.6,27.3,6.6
			C27.3,6.6,27.3,6.6,27.3,6.6L27.3,6.6z M17.5,28.1h-6.8l1.4-3.7l1.2-2.2l1.5,4.1c0,0,0,0,0,0c0,0,0,0,0,0c0,0,0,0,0,0.1
			c0,0,0,0.1,0.1,0.1c0,0,0,0,0,0c0,0,0,0,0,0l0,0c0,0,0,0,0,0c0.1,0,0.1,0,0.2,0.1c0,0,0,0,0,0l0,0l0,0h0h0c0,0,0,0,0,0
			c0,0,0,0,0,0c0,0,0,0,0,0c0,0,0,0,0,0c0,0,0,0,0,0l4.9-1.2l-0.2,1.2L17.5,28.1z M15.4,25.5l-1.1-3l2.4,2L15.4,25.5z M11.6,23.8
			l-2.2-0.6l1.5-0.6c0,0,0,0,0,0l0,0l0,0c0,0,0,0,0,0c0,0,0,0,0,0c0,0,0,0,0,0l1.6-0.6L11.6,23.8z M8.7,22.7l0.7-3.3l0.9,2.7
			L8.7,22.7z M11.1,21.8l-0.9-2.7l2.6,2.1L11.1,21.8z M20,22.6l-0.5-1.4l1.6,0.5c0,0,0,0,0,0l1.7,0.5l-2.1,2L20,22.6z M24.6,5.5
			l0.5-2.6L26.3,6L24.6,5.5z M23.9,5.3l-1.6-0.5l2.1-2.1L23.9,5.3z M23.8,6l-2.9,14.9l-1.7-0.5l2.6-15L23.8,6z M20.1,24.5l-3.3,0.8
			l0.6-0.5c0,0,0,0,0,0c0,0,0,0,0,0c0,0,0,0,0,0l2.1-1.5L20.1,24.5z M17.8,11.9l0.3-1.2l0.6,1.4L17.8,11.9z M17.1,11.8l-0.8-0.2
			l1.1-1L17.1,11.8z M14.8,21.5l-1-0.2l1.9-9l1.2,0.3L14.8,21.5z M6.1,7.8L5.3,5.3l2.8,1.7L6.1,7.8z M5.5,8.1L3.6,8.7l1-3.1L5.5,8.1
			z M5.7,8.7L9,18l-0.8,3.9L3.5,9.5L5.7,8.7z M23.1,25.2l-2.4,0.9l0.2-1L23.1,25.2z M23.3,21.6l-1.7-0.5l2.9-14.9l2,0.6L23.3,21.6z
			 M18.7,21.3l0.4,1l-1.3-0.2L18.7,21.3z M17.3,24.1L15,22.3l1.6,0.4c0,0,0.1,0,0.1,0c0.1,0,0.1,0,0.2-0.1c0,0,0,0,0,0l1.8,0.3
			L17.3,24.1z M15.5,21.6l2.1-9l1.3,0.3l-2.4,8.9L15.5,21.6z M9.7,17.8L6.4,8.5l2.3-0.9l4,12.6L9.7,17.8z M8.5,23.7l2.8,0.8
			l-1.2,3.3l-2.4-1.8L8.5,23.7z M21.5,24.4l1.9-1.8l1,1.9L21.5,24.4z"/>
	</g>
</g>
</svg>
