<?xml version="1.0" encoding="utf-8"?>
<!-- Generator: Adobe Illustrator 21.0.0, SVG Export Plug-In . SVG Version: 6.00 Build 0)  -->
<svg version="1.1" id="圖層_1" xmlns="http://www.w3.org/2000/svg" xmlns:xlink="http://www.w3.org/1999/xlink" x="0px" y="0px"
	 viewBox="0 0 30 30" style="enable-background:new 0 0 30 30;" xml:space="preserve">
<style type="text/css">
	.st0{fill:none;}
	.st1{fill:#1A171B;}
	.st2{fill:#333333;}
</style>
<g>
	<g>
		<g>
			<polygon points="9.3,13.5 5.5,20.8 13.7,28.5 13.7,23.2 13.7,15.8 			"/>
		</g>
	</g>
	<g>
		<g>
			<g>
				<path class="st0" d="M21.9,20c0,0-0.1,0-0.1,0c-0.1,0-0.2,0-0.2,0.1c-0.1,0.1,0,0.3,0.1,0.4c0,0,0.1,0,0.1,0
					c0.1,0,0.2,0,0.2-0.1C22.1,20.3,22,20.1,21.9,20z"/>
			</g>
		</g>
		<g>
			<g>
				<circle class="st0" cx="17.2" cy="24.5" r="0.3"/>
			</g>
		</g>
		<g>
			<g>
				<path class="st0" d="M18.9,24.2c0,0,0.1,0,0.1,0c0.1-0.1,0.2-0.2,0.1-0.4c0-0.1-0.1-0.1-0.2-0.1c0,0-0.1,0-0.1,0
					c-0.1,0.1-0.2,0.2-0.1,0.4C18.7,24.1,18.8,24.2,18.9,24.2z"/>
			</g>
		</g>
		<g>
			<g>
				<path class="st0" d="M17.3,18.1L17.3,18.1c0,0,0.1,0,0.1,0c0.1-0.1,0.2-0.2,0.1-0.4c0-0.1-0.1-0.1-0.2-0.1c0,0-0.1,0-0.1,0
					C17,17.7,17,17.8,17,18C17.1,18,17.2,18.1,17.3,18.1z"/>
			</g>
		</g>
		<g>
			<g>
				<path class="st0" d="M19.3,22c0-0.1-0.1-0.1-0.2-0.1c0,0-0.1,0-0.1,0c-0.1,0.1-0.2,0.2-0.1,0.4c0,0.1,0.1,0.1,0.2,0.1
					c0,0,0.1,0,0.1,0C19.3,22.3,19.4,22.1,19.3,22z"/>
			</g>
		</g>
		<g>
			<g>
				<path class="st0" d="M17,21.6c0,0.1,0.1,0.1,0.2,0.1c0,0,0.1,0,0.1,0c0.1-0.1,0.2-0.2,0.1-0.4c0-0.1-0.1-0.1-0.2-0.1
					c0,0-0.1,0-0.1,0C17,21.3,17,21.5,17,21.6z"/>
			</g>
		</g>
		<g>
			<g>
				<circle class="st0" cx="17.6" cy="23" r="0.3"/>
			</g>
		</g>
		<g>
			<g>
				<path class="st0" d="M18.8,17.3c0,0,0.1,0,0.1,0c0.1,0,0.1-0.1,0.1-0.2c0-0.1,0-0.1,0-0.2c0-0.1-0.1-0.1-0.2-0.1
					c0,0-0.1,0-0.1,0c-0.1,0.1-0.2,0.2-0.1,0.4C18.6,17.2,18.7,17.3,18.8,17.3z"/>
			</g>
		</g>
		<g>
			<g>
				<path class="st0" d="M19.7,19.8c0,0.1,0.1,0.1,0.2,0.1c0,0,0.1,0,0.1,0c0.1-0.1,0.2-0.2,0.1-0.4c0-0.1-0.1-0.1-0.2-0.1
					c0,0-0.1,0-0.1,0C19.7,19.5,19.7,19.7,19.7,19.8z"/>
			</g>
		</g>
		<g>
			<g>
				<path class="st0" d="M20.3,21.4c0,0,0.1,0,0.1,0c0.1,0,0.1-0.1,0.1-0.2c0-0.1,0-0.1,0-0.2c0-0.1-0.1-0.1-0.2-0.1
					c0,0-0.1,0-0.1,0c-0.1,0.1-0.2,0.2-0.1,0.4C20.2,21.3,20.3,21.4,20.3,21.4z"/>
			</g>
		</g>
		<g>
			<g>
				<path class="st0" d="M18.4,19c0,0.1,0.1,0.1,0.2,0.1c0,0,0.1,0,0.1,0c0.1-0.1,0.2-0.2,0.1-0.4c0-0.1-0.1-0.1-0.2-0.1
					c0,0-0.1,0-0.1,0C18.4,18.7,18.3,18.9,18.4,19z"/>
			</g>
		</g>
		<g>
			<g>
				<path class="st0" d="M18.4,20.9c0,0,0.1,0,0.1,0c0.1,0,0.2,0,0.2-0.1c0.1-0.1,0-0.3-0.1-0.4c0,0-0.1,0-0.1,0
					c-0.1,0-0.2,0-0.2,0.1C18.2,20.6,18.3,20.8,18.4,20.9z"/>
			</g>
		</g>
		<g>
			<g>
				<circle class="st0" cx="17.2" cy="14.2" r="0.3"/>
			</g>
		</g>
		<g>
			<g>
				<path class="st0" d="M19.9,17.9c0,0.1,0,0.1,0,0.2c0,0.1,0.1,0.1,0.1,0.2c0,0,0.1,0,0.1,0c0.1,0,0.2,0,0.2-0.1
					c0.1-0.1,0-0.3-0.1-0.4c0,0-0.1,0-0.1,0C20,17.8,20,17.8,19.9,17.9z"/>
			</g>
		</g>
		<g>
			<g>
				<path class="st0" d="M15.8,16.9c0,0-0.1,0-0.1,0c-0.1,0-0.2,0-0.2,0.1c0,0.1,0,0.1,0,0.2c0,0.1,0.1,0.1,0.1,0.2c0,0,0.1,0,0.1,0
					c0.1,0,0.2,0,0.2-0.1C16,17.2,15.9,17,15.8,16.9z"/>
			</g>
		</g>
		<g>
			<g>
				<path class="st0" d="M14.3,18.1c0.1,0,0.3-0.1,0.3-0.3c0-0.1-0.1-0.3-0.3-0.3c-0.1,0-0.1,0-0.1,0v0c-0.1,0-0.1,0.1-0.1,0.2
					c0,0.1,0,0.2,0.1,0.2v0C14.2,18.1,14.3,18.1,14.3,18.1z"/>
			</g>
		</g>
		<g>
			<g>
				<path class="st0" d="M14.1,19.6c0,0.1,0,0.2,0.1,0.2v0c0,0,0.1,0.1,0.1,0.1c0.1,0,0.3-0.1,0.3-0.3c0-0.1-0.1-0.3-0.3-0.3
					c-0.1,0-0.1,0-0.1,0.1v0C14.1,19.5,14.1,19.5,14.1,19.6z"/>
			</g>
		</g>
		<g>
			<g>
				<path class="st0" d="M16.8,19.8c0.1,0,0.2,0,0.2-0.1c0.1-0.1,0-0.3-0.1-0.4c0,0-0.1,0-0.1,0c-0.1,0-0.2,0-0.2,0.1
					c-0.1,0.1,0,0.3,0.1,0.4C16.7,19.8,16.8,19.8,16.8,19.8z"/>
			</g>
		</g>
		<g>
			<g>
				<path class="st0" d="M14.1,24.9c0,0.1,0,0.2,0.1,0.2v0c0,0,0.1,0,0.1,0c0.1,0,0.3-0.1,0.3-0.3c0-0.1-0.1-0.3-0.3-0.3
					c-0.1,0-0.1,0-0.1,0v0C14.1,24.7,14.1,24.8,14.1,24.9z"/>
			</g>
		</g>
		<g>
			<g>
				<path class="st0" d="M15.9,22.2c0,0-0.1,0-0.1,0c-0.1,0-0.2,0-0.2,0.1c-0.1,0.1,0,0.3,0.1,0.4c0,0,0.1,0,0.1,0
					c0.1,0,0.2,0,0.2-0.1C16.1,22.4,16.1,22.2,15.9,22.2z"/>
			</g>
		</g>
		<g>
			<g>
				<path class="st0" d="M15.7,20.4c0,0-0.1,0-0.1,0c-0.1,0.1-0.2,0.2-0.1,0.4c0,0.1,0.1,0.1,0.2,0.1c0,0,0.1,0,0.1,0
					c0.1,0,0.1-0.1,0.1-0.2c0-0.1,0-0.1,0-0.2C15.9,20.5,15.8,20.4,15.7,20.4z"/>
			</g>
		</g>
		<g>
			<g>
				<path class="st0" d="M15.3,18.9c0,0.1,0.1,0.1,0.2,0.1c0,0,0.1,0,0.1,0c0.1-0.1,0.2-0.2,0.1-0.4c0-0.1-0.1-0.1-0.2-0.1
					c0,0-0.1,0-0.1,0C15.2,18.6,15.2,18.8,15.3,18.9z"/>
			</g>
		</g>
		<g>
			<g>
				<path class="st0" d="M15.5,24.2c0,0,0.1,0,0.1,0c0.1-0.1,0.2-0.2,0.1-0.4c0-0.1-0.1-0.1-0.2-0.1c0,0-0.1,0-0.1,0
					c-0.1,0.1-0.2,0.2-0.1,0.4C15.4,24.1,15.4,24.2,15.5,24.2z"/>
			</g>
		</g>
		<g>
			<g>
				<path class="st0" d="M15.5,26c0,0,0.1,0,0.1,0c0.1,0,0.1-0.1,0.1-0.2c0-0.1,0-0.1,0-0.2c0-0.1-0.1-0.1-0.2-0.1c0,0-0.1,0-0.1,0
					c-0.1,0.1-0.2,0.2-0.1,0.4C15.4,26,15.5,26,15.5,26z"/>
			</g>
		</g>
		<g>
			<g>
				<circle class="st0" cx="20.4" cy="23.2" r="0.3"/>
			</g>
		</g>
		<g>
			<g>
				<path class="st0" d="M18.8,15.7c0.1,0,0.2,0,0.2-0.1c0.1-0.1,0-0.3-0.1-0.4c0,0-0.1,0-0.1,0c-0.1,0-0.2,0-0.2,0.1
					c-0.1,0.1,0,0.3,0.1,0.4C18.7,15.7,18.7,15.7,18.8,15.7z"/>
			</g>
		</g>
		<g>
			<g>
				<path class="st0" d="M15.5,15.7c0,0,0.1,0,0.1,0c0.1,0,0.1-0.1,0.1-0.2c0-0.1,0-0.1,0-0.2c0-0.1-0.1-0.1-0.2-0.1
					c0,0-0.1,0-0.1,0c-0.1,0.1-0.2,0.2-0.1,0.4C15.4,15.7,15.5,15.7,15.5,15.7z"/>
			</g>
		</g>
		<g>
			<g>
				<path class="st0" d="M21.5,22.4c0,0,0.1,0,0.1,0c0.1-0.1,0.2-0.2,0.1-0.4c0-0.1-0.1-0.1-0.2-0.1c0,0-0.1,0-0.1,0
					c-0.1,0.1-0.2,0.2-0.1,0.4C21.4,22.3,21.4,22.4,21.5,22.4z"/>
			</g>
		</g>
		<g>
			<g>
				<path class="st0" d="M21.6,19L21.6,19c0,0,0.1,0,0.1,0c0.1-0.1,0.2-0.2,0.1-0.4c0-0.1-0.1-0.1-0.2-0.1c0,0-0.1,0-0.1,0
					c-0.1,0.1-0.2,0.2-0.1,0.4C21.4,19,21.5,19,21.6,19z"/>
			</g>
		</g>
		<g>
			<g>
				<path class="st0" d="M17.2,16.3C17.2,16.3,17.2,16.3,17.2,16.3c0,0,0.1,0,0.1,0h0c0,0,0,0,0,0c0.1-0.1,0.2-0.2,0.1-0.4
					c0-0.1-0.1-0.1-0.2-0.1c0,0-0.1,0-0.1,0c-0.1,0.1-0.2,0.2-0.1,0.4c0,0,0.1,0.1,0.1,0.1h0C17.1,16.3,17.1,16.3,17.2,16.3z"/>
			</g>
		</g>
		<g>
			<g>
				<path class="st0" d="M23,19.6c0,0.1,0,0.2,0.1,0.2v0c0,0,0.1,0.1,0.1,0.1c0.1,0,0.3-0.1,0.3-0.3c0-0.1-0.1-0.3-0.3-0.3
					c-0.1,0-0.1,0-0.1,0.1v0C23,19.5,23,19.5,23,19.6z"/>
			</g>
		</g>
		<g>
			<g>
				<path class="st1" d="M24.5,20.4c0,0,0.1,0,0.1,0c0,0,0.1,0,0.1,0l0,0c-0.1,0-0.1-0.1-0.2-0.1C24.5,20.4,24.5,20.4,24.5,20.4
					c-0.2,0-0.2,0.2-0.2,0.3l0.1,0C24.3,20.6,24.4,20.5,24.5,20.4z"/>
			</g>
		</g>
		<g>
			<g>
				<path class="st1" d="M23.6,19.6c0-0.2-0.1-0.3-0.3-0.3c-0.1,0-0.1,0-0.1,0v0.1v0c0,0,0.1-0.1,0.1-0.1
					C23.4,19.4,23.5,19.5,23.6,19.6c-0.1,0.1-0.2,0.3-0.3,0.3c-0.1,0-0.1,0-0.1-0.1v0v0.1c0,0,0.1,0,0.1,0
					C23.4,19.9,23.6,19.8,23.6,19.6z"/>
			</g>
		</g>
		<g>
			<g>
				<path class="st1" d="M23.3,21.3c0-0.1-0.1-0.1-0.2-0.2v0v0.1C23.2,21.2,23.2,21.2,23.3,21.3c0,0.1,0,0.2,0,0.2l0.1-0.1
					C23.4,21.4,23.4,21.3,23.3,21.3z"/>
			</g>
		</g>
		<g>
			<g>
				<path class="st1" d="M18.8,15.7c0.1,0,0.2-0.1,0.3-0.2c0.1-0.2,0-0.3-0.1-0.4c0,0-0.1,0-0.2,0c-0.1,0-0.2,0.1-0.3,0.2
					c-0.1,0.2,0,0.3,0.1,0.4C18.7,15.7,18.7,15.7,18.8,15.7z M18.6,15.3c0-0.1,0.1-0.1,0.2-0.1c0,0,0.1,0,0.1,0
					c0.1,0.1,0.2,0.2,0.1,0.4c0,0.1-0.1,0.1-0.2,0.1c0,0-0.1,0-0.1,0C18.5,15.6,18.5,15.4,18.6,15.3z"/>
			</g>
		</g>
		<g>
			<g>
				<path class="st1" d="M15.5,15.8c0.1,0,0.1,0,0.2,0c0.2-0.1,0.2-0.3,0.1-0.4c-0.1-0.1-0.2-0.2-0.3-0.2c-0.1,0-0.1,0-0.2,0
					c-0.2,0.1-0.2,0.3-0.1,0.4C15.3,15.7,15.4,15.8,15.5,15.8z M15.4,15.2c0,0,0.1,0,0.1,0c0.1,0,0.2,0,0.2,0.1c0,0.1,0,0.1,0,0.2
					c0,0.1-0.1,0.1-0.1,0.2c0,0-0.1,0-0.1,0c-0.1,0-0.2,0-0.2-0.1C15.3,15.5,15.3,15.3,15.4,15.2z"/>
			</g>
		</g>
		<g>
			<g>
				<path class="st1" d="M17.2,13.9c-0.2,0-0.3,0.1-0.3,0.3c0,0.2,0.1,0.3,0.3,0.3c0.2,0,0.3-0.1,0.3-0.3
					C17.5,14,17.4,13.9,17.2,13.9z M17.2,14.5c-0.1,0-0.3-0.1-0.3-0.3s0.1-0.3,0.3-0.3c0.1,0,0.3,0.1,0.3,0.3S17.4,14.5,17.2,14.5z"
					/>
			</g>
		</g>
		<g>
			<g>
				<path class="st1" d="M15.5,14c0.1,0,0.1,0,0.2,0c0.1-0.1,0.2-0.3,0.1-0.4c0-0.1-0.1-0.1-0.2-0.1l0,0c0.1,0,0.1,0.1,0.2,0.1
					c0.1,0.1,0,0.3-0.1,0.4C15.6,13.9,15.6,13.9,15.5,14c-0.1-0.1-0.2-0.1-0.2-0.2l0,0C15.4,13.9,15.4,14,15.5,14z"/>
			</g>
		</g>
		<g>
			<g>
				<path class="st1" d="M17,16.3C17,16.3,17,16.2,17,16.3c-0.2-0.2-0.1-0.4,0-0.4c0,0,0.1,0,0.1,0c0.1,0,0.2,0,0.2,0.1
					c0.1,0.1,0,0.3-0.1,0.4c0,0,0,0,0,0h0h0.1c0.1-0.1,0.1-0.3,0.1-0.4c-0.1-0.1-0.2-0.2-0.3-0.2c-0.1,0-0.1,0-0.2,0
					c-0.1,0.1-0.2,0.3-0.1,0.4C16.9,16.3,16.9,16.3,17,16.3L17,16.3L17,16.3z"/>
			</g>
		</g>
		<g>
			<g>
				<path class="st1" d="M20.3,16.3L20.3,16.3L20.3,16.3C20.3,16.3,20.3,16.2,20.3,16.3l0-0.1C20.2,16.2,20.2,16.3,20.3,16.3
					L20.3,16.3z"/>
			</g>
		</g>
		<g>
			<g>
				<path class="st1" d="M14.2,16.2L14.2,16.2C14.2,16.2,14.2,16.2,14.2,16.2c0.1,0,0.2,0,0.2,0.1h0h0.1
					C14.4,16.2,14.3,16.1,14.2,16.2C14.2,16.1,14.2,16.1,14.2,16.2L14.2,16.2z"/>
			</g>
		</g>
		<g>
			<g>
				<path class="st1" d="M22,20.4c0.1-0.1,0-0.3-0.1-0.4c0,0-0.1,0-0.2,0c-0.1,0-0.2,0.1-0.3,0.2c-0.1,0.2,0,0.3,0.1,0.4
					c0,0,0.1,0,0.2,0C21.9,20.6,22,20.5,22,20.4z M21.8,20.5c0,0-0.1,0-0.1,0c-0.1-0.1-0.2-0.2-0.1-0.4c0-0.1,0.1-0.1,0.2-0.1
					c0,0,0.1,0,0.1,0c0.1,0.1,0.2,0.2,0.1,0.4C22,20.5,21.9,20.5,21.8,20.5z"/>
			</g>
		</g>
		<g>
			<g>
				<path class="st1" d="M21.3,22.3c0.1,0.1,0.2,0.2,0.3,0.2c0.1,0,0.1,0,0.2,0c0.2-0.1,0.2-0.3,0.1-0.4c-0.1-0.1-0.2-0.2-0.3-0.2
					c-0.1,0-0.1,0-0.2,0C21.2,22,21.2,22.1,21.3,22.3z M21.4,21.9c0,0,0.1,0,0.1,0c0.1,0,0.2,0,0.2,0.1c0.1,0.1,0,0.3-0.1,0.4
					c0,0-0.1,0-0.1,0c-0.1,0-0.2,0-0.2-0.1C21.2,22.1,21.3,22,21.4,21.9z"/>
			</g>
		</g>
		<g>
			<g>
				<path class="st1" d="M19.7,19.8c0.1,0.1,0.2,0.2,0.3,0.2c0.1,0,0.1,0,0.2,0c0.1-0.1,0.2-0.3,0.1-0.4c-0.1-0.1-0.2-0.2-0.3-0.2
					c-0.1,0-0.1,0-0.2,0C19.7,19.5,19.6,19.7,19.7,19.8z M20,19.4c0.1,0,0.2,0,0.2,0.1c0.1,0.1,0,0.3-0.1,0.4c0,0-0.1,0-0.1,0
					c-0.1,0-0.2,0-0.2-0.1c-0.1-0.1,0-0.3,0.1-0.4C19.9,19.4,19.9,19.4,20,19.4z"/>
			</g>
		</g>
		<g>
			<g>
				<path class="st1" d="M18.3,20.5c-0.1,0.1,0,0.3,0.1,0.4c0,0,0.1,0,0.2,0c0,0,0,0,0,0c0.1,0,0.2-0.1,0.3-0.2
					c0.1-0.2,0-0.3-0.1-0.4c0,0-0.1,0-0.2,0C18.4,20.3,18.3,20.4,18.3,20.5z M18.5,20.4c0,0,0.1,0,0.1,0c0.1,0.1,0.2,0.2,0.1,0.4
					c0,0.1-0.1,0.1-0.2,0.1c0,0-0.1,0-0.1,0c-0.1-0.1-0.2-0.2-0.1-0.4C18.4,20.4,18.4,20.4,18.5,20.4z"/>
			</g>
		</g>
		<g>
			<g>
				<path class="st1" d="M19.3,22c-0.1-0.1-0.2-0.2-0.3-0.2c-0.1,0-0.1,0-0.2,0c-0.1,0.1-0.2,0.3-0.1,0.4c0.1,0.1,0.2,0.2,0.3,0.2
					c0.1,0,0.1,0,0.2,0C19.4,22.3,19.4,22.1,19.3,22z M19.1,22.4c-0.1,0-0.2,0-0.2-0.1c-0.1-0.1,0-0.3,0.1-0.4c0,0,0.1,0,0.1,0
					c0.1,0,0.2,0,0.2,0.1c0.1,0.1,0,0.3-0.1,0.4C19.2,22.4,19.1,22.4,19.1,22.4z"/>
			</g>
		</g>
		<g>
			<g>
				<path class="st1" d="M20.4,23.5c0.2,0,0.3-0.1,0.3-0.3s-0.1-0.3-0.3-0.3c-0.2,0-0.3,0.1-0.3,0.3S20.2,23.5,20.4,23.5z
					 M20.4,22.9c0.1,0,0.3,0.1,0.3,0.3c0,0.1-0.1,0.3-0.3,0.3c-0.1,0-0.3-0.1-0.3-0.3C20.1,23,20.2,22.9,20.4,22.9z"/>
			</g>
		</g>
		<g>
			<g>
				<path class="st1" d="M15.7,20.4c-0.1,0-0.1,0-0.2,0c-0.1,0.1-0.2,0.3-0.1,0.4c0.1,0.1,0.2,0.2,0.3,0.2c0.1,0,0.1,0,0.2,0
					c0.1,0,0.1-0.1,0.1-0.2c0-0.1,0-0.2,0-0.2C15.9,20.4,15.8,20.4,15.7,20.4z M15.9,20.7c0,0.1-0.1,0.1-0.1,0.2c0,0-0.1,0-0.1,0
					c-0.1,0-0.2,0-0.2-0.1c-0.1-0.1,0-0.3,0.1-0.4c0,0,0.1,0,0.1,0c0.1,0,0.2,0,0.2,0.1C15.9,20.6,16,20.7,15.9,20.7z"/>
			</g>
		</g>
		<g>
			<g>
				<path class="st1" d="M16.1,22.6c0.1-0.2,0-0.3-0.1-0.4c0,0-0.1,0-0.2,0c-0.1,0-0.2,0.1-0.3,0.2c-0.1,0.1,0,0.3,0.1,0.4
					c0,0,0.1,0,0.2,0C15.9,22.7,16,22.6,16.1,22.6z M15.8,22.7c0,0-0.1,0-0.1,0c-0.1-0.1-0.2-0.2-0.1-0.4c0-0.1,0.1-0.1,0.2-0.1
					c0,0,0.1,0,0.1,0c0.1,0.1,0.2,0.2,0.1,0.4C16,22.6,15.9,22.7,15.8,22.7z"/>
			</g>
		</g>
		<g>
			<g>
				<path class="st1" d="M16.8,19.9c0.1,0,0.2-0.1,0.3-0.2c0.1-0.1,0-0.3-0.1-0.4c0,0-0.1,0-0.2,0c-0.1,0-0.2,0.1-0.3,0.2
					c-0.1,0.2,0,0.3,0.1,0.4C16.7,19.9,16.8,19.9,16.8,19.9z M16.6,19.4c0-0.1,0.1-0.1,0.2-0.1c0,0,0.1,0,0.1,0
					c0.1,0.1,0.2,0.2,0.1,0.4c0,0.1-0.1,0.1-0.2,0.1c0,0-0.1,0-0.1,0C16.6,19.7,16.5,19.6,16.6,19.4z"/>
			</g>
		</g>
		<g>
			<g>
				<path class="st1" d="M17.9,23c0-0.2-0.1-0.3-0.3-0.3c-0.2,0-0.3,0.1-0.3,0.3c0,0.2,0.1,0.3,0.3,0.3C17.8,23.3,17.9,23.1,17.9,23
					z M17.4,23c0-0.1,0.1-0.3,0.3-0.3c0.1,0,0.3,0.1,0.3,0.3c0,0.1-0.1,0.3-0.3,0.3C17.5,23.2,17.4,23.1,17.4,23z"/>
			</g>
		</g>
		<g>
			<g>
				<path class="st1" d="M15.5,26.1c0.1,0,0.1,0,0.2,0c0.2-0.1,0.2-0.3,0.1-0.4c-0.1-0.1-0.2-0.2-0.3-0.2c-0.1,0-0.1,0-0.2,0
					c-0.2,0.1-0.2,0.3-0.1,0.4C15.3,26,15.4,26.1,15.5,26.1z M15.4,25.5c0,0,0.1,0,0.1,0c0.1,0,0.2,0,0.2,0.1c0,0.1,0,0.1,0,0.2
					c0,0.1-0.1,0.1-0.1,0.2c0,0-0.1,0-0.1,0c-0.1,0-0.2,0-0.2-0.1C15.3,25.8,15.3,25.6,15.4,25.5z"/>
			</g>
		</g>
		<g>
			<g>
				<path class="st1" d="M17.5,24.5c0-0.2-0.1-0.3-0.3-0.3c-0.2,0-0.3,0.1-0.3,0.3c0,0.2,0.1,0.3,0.3,0.3
					C17.4,24.8,17.5,24.7,17.5,24.5z M17.2,24.7c-0.1,0-0.3-0.1-0.3-0.3c0-0.1,0.1-0.3,0.3-0.3c0.1,0,0.3,0.1,0.3,0.3
					C17.5,24.6,17.4,24.7,17.2,24.7z"/>
			</g>
		</g>
		<g>
			<g>
				<path class="st1" d="M21.4,17.3c0.1,0.1,0.2,0.2,0.3,0.2c0,0,0.1,0,0.1,0l-0.1,0c0,0,0,0-0.1,0C21.5,17.4,21.4,17.4,21.4,17.3
					c0-0.1,0-0.1,0-0.2l-0.1,0C21.3,17.2,21.3,17.2,21.4,17.3z"/>
			</g>
		</g>
		<g>
			<g>
				<path class="st1" d="M19.9,17.9c0,0.1-0.1,0.2,0,0.2c0,0.1,0.1,0.1,0.1,0.2c0,0,0.1,0,0.2,0c0.1,0,0.2-0.1,0.3-0.2
					c0.1-0.2,0-0.3-0.1-0.4c0,0-0.1,0-0.2,0C20,17.7,19.9,17.8,19.9,17.9z M20.4,18.1c0,0.1-0.1,0.1-0.2,0.1c0,0-0.1,0-0.1,0
					c-0.1,0-0.1-0.1-0.1-0.2c0-0.1,0-0.1,0-0.2c0-0.1,0.1-0.1,0.2-0.1c0,0,0.1,0,0.1,0C20.4,17.9,20.4,18,20.4,18.1z"/>
			</g>
		</g>
		<g>
			<g>
				<path class="st1" d="M18.8,17.4c0.1,0,0.1,0,0.2,0c0.1,0,0.1-0.1,0.1-0.2c0-0.1,0-0.2,0-0.2c-0.1-0.1-0.2-0.2-0.3-0.2
					c-0.1,0-0.1,0-0.2,0c-0.2,0.1-0.2,0.3-0.1,0.4C18.6,17.3,18.7,17.4,18.8,17.4z M18.7,16.8c0,0,0.1,0,0.1,0c0.1,0,0.2,0,0.2,0.1
					c0,0.1,0,0.1,0,0.2c0,0.1-0.1,0.1-0.1,0.2c0,0-0.1,0-0.1,0c-0.1,0-0.2,0-0.2-0.1C18.5,17,18.5,16.9,18.7,16.8z"/>
			</g>
		</g>
		<g>
			<g>
				<path class="st1" d="M15.8,16.9c0,0-0.1,0-0.2,0c-0.1,0-0.2,0.1-0.3,0.2c0,0.1-0.1,0.2,0,0.2c0,0.1,0.1,0.1,0.1,0.2
					c0,0,0.1,0,0.2,0c0.1,0,0.2-0.1,0.3-0.2C16,17.2,16,17,15.8,16.9z M15.9,17.3c0,0.1-0.1,0.1-0.2,0.1c0,0-0.1,0-0.1,0
					c-0.1,0-0.1-0.1-0.1-0.2c0-0.1,0-0.1,0-0.2c0-0.1,0.1-0.1,0.2-0.1c0,0,0.1,0,0.1,0C15.9,17,16,17.2,15.9,17.3z"/>
			</g>
		</g>
		<g>
			<g>
				<path class="st1" d="M17.3,18.1c0.1,0,0.1,0,0.2,0c0.1-0.1,0.2-0.3,0.1-0.4c-0.1-0.1-0.2-0.2-0.3-0.2c-0.1,0-0.1,0-0.2,0
					C17,17.6,16.9,17.8,17,18C17,18.1,17.2,18.1,17.3,18.1z M17.1,17.6c0,0,0.1,0,0.1,0c0.1,0,0.2,0,0.2,0.1c0.1,0.1,0,0.3-0.1,0.4
					c0,0-0.1,0-0.1,0l0,0c-0.1,0-0.2,0-0.2-0.1C17,17.8,17,17.7,17.1,17.6z"/>
			</g>
		</g>
		<g>
			<g>
				<path class="st1" d="M23,19.6c0-0.1,0-0.2,0.1-0.2v-0.1v0C23,19.4,22.9,19.5,23,19.6c-0.1,0.1,0,0.2,0.1,0.3v0v-0.1
					C23,19.8,23,19.7,23,19.6z"/>
			</g>
		</g>
		<g>
			<g>
				<path class="st1" d="M18.9,24.2c0.1,0,0.1,0,0.2,0c0.1-0.1,0.2-0.3,0.1-0.4c-0.1-0.1-0.2-0.2-0.3-0.2c-0.1,0-0.1,0-0.2,0
					c-0.1,0.1-0.2,0.3-0.1,0.4C18.7,24.2,18.8,24.2,18.9,24.2z M18.7,23.7c0,0,0.1,0,0.1,0c0.1,0,0.2,0,0.2,0.1
					c0.1,0.1,0,0.3-0.1,0.4c0,0-0.1,0-0.1,0c-0.1,0-0.2,0-0.2-0.1C18.6,23.9,18.6,23.8,18.7,23.7z"/>
			</g>
		</g>
		<g>
			<g>
				<path class="st1" d="M17,21.6c0.1,0.1,0.2,0.2,0.3,0.2c0.1,0,0.1,0,0.2,0c0.1-0.1,0.2-0.3,0.1-0.4c-0.1-0.1-0.2-0.2-0.3-0.2
					c-0.1,0-0.1,0-0.2,0C16.9,21.3,16.9,21.5,17,21.6z M17.3,21.2c0.1,0,0.2,0,0.2,0.1c0.1,0.1,0,0.3-0.1,0.4c0,0-0.1,0-0.1,0
					c-0.1,0-0.2,0-0.2-0.1c-0.1-0.1,0-0.3,0.1-0.4C17.2,21.2,17.2,21.2,17.3,21.2z"/>
			</g>
		</g>
		<g>
			<g>
				<path class="st1" d="M20.3,21.4c0.1,0,0.1,0,0.2,0c0.1,0,0.1-0.1,0.1-0.2c0-0.1,0-0.2,0-0.2c-0.1-0.1-0.2-0.2-0.3-0.2
					c-0.1,0-0.1,0-0.2,0c-0.1,0.1-0.2,0.3-0.1,0.4C20.1,21.4,20.2,21.4,20.3,21.4z M20.2,20.9c0,0,0.1,0,0.1,0c0.1,0,0.2,0,0.2,0.1
					c0,0.1,0,0.1,0,0.2c0,0.1-0.1,0.1-0.1,0.2c0,0-0.1,0-0.1,0c-0.1,0-0.2,0-0.2-0.1C20.1,21.1,20.1,20.9,20.2,20.9z"/>
			</g>
		</g>
		<g>
			<g>
				<path class="st1" d="M18.4,19c0.1,0.1,0.2,0.2,0.3,0.2c0.1,0,0.1,0,0.2,0c0.1-0.1,0.2-0.3,0.1-0.4c-0.1-0.1-0.2-0.2-0.3-0.2
					c-0.1,0-0.1,0-0.2,0C18.3,18.7,18.3,18.9,18.4,19z M18.5,18.7c0,0,0.1,0,0.1,0c0.1,0,0.2,0,0.2,0.1c0.1,0.1,0,0.3-0.1,0.4
					c0,0-0.1,0-0.1,0c-0.1,0-0.2,0-0.2-0.1C18.3,18.9,18.4,18.7,18.5,18.7z"/>
			</g>
		</g>
		<g>
			<g>
				<path class="st1" d="M15.2,18.9c0.1,0.1,0.2,0.2,0.3,0.2c0.1,0,0.1,0,0.2,0c0.1-0.1,0.2-0.3,0.1-0.4c-0.1-0.1-0.2-0.2-0.3-0.2
					c-0.1,0-0.1,0-0.2,0C15.2,18.6,15.1,18.8,15.2,18.9z M15.5,18.5c0.1,0,0.2,0,0.2,0.1c0.1,0.1,0,0.3-0.1,0.4c0,0-0.1,0-0.1,0
					c-0.1,0-0.2,0-0.2-0.1c-0.1-0.1,0-0.3,0.1-0.4C15.4,18.5,15.4,18.5,15.5,18.5z"/>
			</g>
		</g>
		<g>
			<g>
				<path class="st1" d="M21.6,19.1L21.6,19.1c0.1,0,0.1,0,0.2,0c0.1-0.1,0.2-0.3,0.1-0.4c-0.1-0.1-0.2-0.2-0.3-0.2
					c-0.1,0-0.1,0-0.2,0c-0.1,0.1-0.2,0.3-0.1,0.4C21.4,19,21.5,19.1,21.6,19.1z M21.5,18.6c0,0,0.1,0,0.1,0c0.1,0,0.2,0,0.2,0.1
					c0.1,0.1,0,0.3-0.1,0.4c0,0-0.1,0-0.1,0l0,0c-0.1,0-0.2,0-0.2-0.1C21.3,18.8,21.3,18.6,21.5,18.6z"/>
			</g>
		</g>
		<g>
			<g>
				<path class="st1" d="M15.5,24.2c0.1,0,0.1,0,0.2,0c0.1-0.1,0.2-0.3,0.1-0.4c-0.1-0.1-0.2-0.2-0.3-0.2c-0.1,0-0.1,0-0.2,0
					c-0.1,0.1-0.2,0.3-0.1,0.4C15.3,24.2,15.4,24.2,15.5,24.2z M15.4,23.7c0,0,0.1,0,0.1,0c0.1,0,0.2,0,0.2,0.1
					c0.1,0.1,0,0.3-0.1,0.4c0,0-0.1,0-0.1,0c-0.1,0-0.2,0-0.2-0.1C15.2,23.9,15.3,23.8,15.4,23.7z"/>
			</g>
		</g>
		<g>
			<g>
				<path class="st1" d="M16.9,26.4c0-0.1,0-0.2,0.1-0.2c0,0,0.1,0,0.1,0c0,0,0.1,0,0.1,0l0.1,0c0,0-0.1,0-0.1,0c-0.1,0-0.1,0-0.2,0
					C16.9,26.2,16.8,26.3,16.9,26.4L16.9,26.4z"/>
			</g>
		</g>
		<g>
			<g>
				<path class="st1" d="M23.1,21.1c-0.1,0-0.1,0-0.2,0c-0.1,0-0.1,0.1-0.1,0.2c0,0.1,0,0.2,0,0.2c0,0.1,0.1,0.1,0.2,0.2l0.1-0.1
					c0,0,0,0,0,0c-0.1,0-0.2,0-0.2-0.1c0-0.1,0-0.1,0-0.2c0-0.1,0.1-0.1,0.1-0.2C23,21.2,23,21.2,23.1,21.1
					C23.1,21.2,23.1,21.2,23.1,21.1L23.1,21.1L23.1,21.1C23.1,21.1,23.1,21.1,23.1,21.1z"/>
			</g>
		</g>
		<g>
			<g>
				<path class="st1" d="M14.3,19.3c-0.1,0-0.1,0-0.1,0v0.1v0C14.2,19.4,14.3,19.4,14.3,19.3c0.1,0.1,0.3,0.2,0.3,0.3
					c0,0.1-0.1,0.3-0.3,0.3c-0.1,0-0.1,0-0.1-0.1v0v0.1c0,0,0.1,0,0.1,0c0.2,0,0.3-0.1,0.3-0.3C14.7,19.5,14.5,19.3,14.3,19.3z"/>
			</g>
		</g>
		<g>
			<g>
				<path class="st1" d="M14.7,24.9c0-0.2-0.1-0.3-0.3-0.3c-0.1,0-0.1,0-0.1,0v0.1v0c0,0,0.1,0,0.1,0C14.5,24.6,14.6,24.7,14.7,24.9
					c-0.1,0.1-0.2,0.3-0.3,0.3c-0.1,0-0.1,0-0.1,0v0v0.1c0,0,0.1,0,0.1,0C14.5,25.2,14.7,25,14.7,24.9z"/>
			</g>
		</g>
		<g>
			<g>
				<path class="st1" d="M14.5,26.6c-0.1-0.1-0.2-0.2-0.3-0.2c0,0,0,0,0,0v0.1v0c0,0,0,0,0,0C14.3,26.5,14.4,26.5,14.5,26.6
					L14.5,26.6L14.5,26.6z"/>
			</g>
		</g>
		<g>
			<g>
				<path class="st1" d="M14.2,21.7c0,0,0.1,0,0.1,0c0.2-0.1,0.2-0.3,0.1-0.4c0-0.1-0.1-0.1-0.2-0.2v0v0.1c0.1,0,0.1,0.1,0.2,0.1
					C14.4,21.4,14.4,21.6,14.2,21.7C14.3,21.7,14.2,21.7,14.2,21.7L14.2,21.7L14.2,21.7z"/>
			</g>
		</g>
		<g>
			<g>
				<path class="st1" d="M14.2,17.6c0,0,0.1,0,0.1,0c0.1,0,0.3,0.1,0.3,0.3c0,0.1-0.1,0.3-0.3,0.3c-0.1,0-0.1,0-0.1,0v0v0.1
					c0,0,0.1,0,0.1,0c0.2,0,0.3-0.1,0.3-0.3s-0.1-0.3-0.3-0.3C14.3,17.5,14.2,17.5,14.2,17.6L14.2,17.6L14.2,17.6z"/>
			</g>
		</g>
		<g>
			<g>
				<path class="st1" d="M14.2,23.4c0-0.1,0.1-0.1,0.1-0.2c0-0.1,0-0.1-0.1-0.2v0v0.1c0,0,0,0.1,0,0.1c0,0,0,0.1,0,0.1V23.4
					L14.2,23.4z"/>
			</g>
		</g>
		<g>
			<g>
				<path class="st1" d="M17.2,16.3C17.2,16.3,17.2,16.3,17.2,16.3c0,0-0.1,0-0.1,0h0h-0.1C17,16.4,17.1,16.4,17.2,16.3
					C17.2,16.4,17.2,16.4,17.2,16.3c0.1,0.1,0.1,0,0.2,0c0,0,0,0,0.1,0h0h-0.1C17.2,16.3,17.2,16.3,17.2,16.3z"/>
			</g>
		</g>
		<g>
			<g>
				<path class="st1" d="M20.3,16.3c0.1,0.1,0.2,0.2,0.3,0.2c0,0,0,0,0,0c0,0,0,0,0.1,0l-0.1,0c0,0,0,0,0,0c0,0,0,0,0,0
					C20.4,16.4,20.4,16.4,20.3,16.3L20.3,16.3L20.3,16.3C20.3,16.3,20.3,16.3,20.3,16.3z"/>
			</g>
		</g>
		<g>
			<g>
				<path class="st1" d="M14.4,16.3c0,0,0,0.1,0,0.1c0,0.1-0.1,0.3-0.3,0.3c0,0,0,0,0,0v0v0.1c0,0,0,0,0,0c0.2,0,0.3-0.1,0.3-0.3
					C14.5,16.4,14.5,16.3,14.4,16.3L14.4,16.3L14.4,16.3z"/>
			</g>
		</g>
		<g>
			<g>
				<path class="st1" d="M15.7,27.1c-0.1,0-0.2,0.1-0.3,0.2c0,0.1-0.1,0.2,0,0.2c0,0,0,0,0,0l0.1,0c0-0.1,0-0.1,0-0.2
					C15.5,27.2,15.6,27.2,15.7,27.1c0,0.1,0.1,0.1,0.1,0.1l0.1,0c0,0,0,0,0,0C15.8,27.1,15.7,27.1,15.7,27.1z"/>
			</g>
		</g>
		<g>
			<g>
				<path class="st1" d="M14.2,28.4L14.2,28.4C14.3,28.3,14.2,28.3,14.2,28.4L14.2,28.4L14.2,28.4C14.2,28.4,14.2,28.4,14.2,28.4z"
					/>
			</g>
		</g>
		<g>
			<g>
				<path class="st1" d="M14.3,27.8c-0.1,0-0.1,0-0.1,0v0.1v0C14.2,27.9,14.3,27.9,14.3,27.8c0.1,0.1,0.3,0.2,0.3,0.3c0,0,0,0,0,0
					l0.1,0C14.6,27.9,14.5,27.8,14.3,27.8z"/>
			</g>
		</g>
		<g>
			<g>
				<path class="st1" d="M14.4,26.6c0,0,0,0.1,0,0.1c0,0.1-0.1,0.3-0.3,0.3c0,0,0,0,0,0v0V27c0,0,0,0,0,0c0.2,0,0.3-0.1,0.3-0.3
					C14.5,26.7,14.5,26.6,14.4,26.6L14.4,26.6L14.4,26.6z"/>
			</g>
		</g>
		<g>
			<g>
				<path class="st1" d="M14,16.3c0-0.1,0.1-0.1,0.2-0.1v-0.1v0C14.1,16.1,14,16.2,14,16.3L14,16.3z"/>
			</g>
		</g>
		<g>
			<g>
				<path class="st1" d="M14.1,19.6c0-0.1,0-0.2,0.1-0.2v-0.1v0C14.1,19.4,14,19.5,14.1,19.6c-0.1,0.1,0,0.2,0.1,0.3v0v-0.1
					C14.1,19.8,14.1,19.7,14.1,19.6z"/>
			</g>
		</g>
		<g>
			<g>
				<path class="st1" d="M14.1,24.9c0-0.1,0-0.2,0.1-0.2v-0.1v0C14.1,24.6,14,24.7,14.1,24.9c-0.1,0.1,0,0.2,0.1,0.3v0v-0.1
					C14.1,25,14.1,25,14.1,24.9z"/>
			</g>
		</g>
		<g>
			<g>
				<path class="st1" d="M14.2,26.4L14.2,26.4c-0.1,0-0.2,0-0.2,0.1v0.1C14,26.5,14.1,26.5,14.2,26.4L14.2,26.4z"/>
			</g>
		</g>
		<g>
			<g>
				<path class="st1" d="M14.2,21.7L14.2,21.7L14.2,21.7C14.2,21.7,14.2,21.7,14.2,21.7c-0.1-0.1-0.2-0.1-0.2-0.1v0.1
					C14,21.7,14.1,21.7,14.2,21.7C14.2,21.7,14.2,21.7,14.2,21.7z"/>
			</g>
		</g>
		<g>
			<g>
				<path class="st1" d="M14.2,21.1c-0.1,0-0.1,0-0.2,0v0.1c0,0,0,0,0,0C14.1,21.2,14.1,21.2,14.2,21.1
					C14.2,21.2,14.2,21.2,14.2,21.1L14.2,21.1L14.2,21.1C14.2,21.1,14.2,21.1,14.2,21.1z"/>
			</g>
		</g>
		<g>
			<g>
				<path class="st1" d="M14,17.8c0,0.1,0.1,0.2,0.2,0.3v0V18C14.1,18,14.1,17.9,14,17.8c0.1-0.1,0.1-0.2,0.2-0.2v-0.1v0
					C14.1,17.6,14,17.7,14,17.8z"/>
			</g>
		</g>
		<g>
			<g>
				<path class="st1" d="M14.2,23.4v-0.1v0c0,0.1-0.1,0.2-0.2,0.2v0.1C14.1,23.5,14.2,23.5,14.2,23.4z"/>
			</g>
		</g>
		<g>
			<g>
				<path class="st1" d="M14,22.9L14,22.9c0.1,0.1,0.2,0.1,0.2,0.2v0V23C14.2,22.9,14.1,22.9,14,22.9z"/>
			</g>
		</g>
		<g>
			<g>
				<path class="st1" d="M14.2,16.7c-0.1,0-0.2,0-0.2-0.1v0.1C14,16.7,14.1,16.8,14.2,16.7L14.2,16.7L14.2,16.7z"/>
			</g>
		</g>
		<g>
			<g>
				<polygon class="st1" points="14,16.3 14,16.3 14,16.3 				"/>
			</g>
		</g>
		<g>
			<g>
				<path class="st1" d="M14.2,27.8C14.1,27.9,14,28,14,28.1c0,0.1,0.1,0.2,0.2,0.3v0v-0.1c-0.1,0-0.1-0.1-0.1-0.2
					C14.1,28,14.1,27.9,14.2,27.8L14.2,27.8L14.2,27.8z"/>
			</g>
		</g>
		<g>
			<g>
				<polygon class="st1" points="14,26.6 14,26.6 14,26.6 				"/>
			</g>
		</g>
		<g>
			<g>
				<path class="st1" d="M14.2,27c-0.1,0-0.2,0-0.2-0.1V27C14,27,14.1,27,14.2,27L14.2,27L14.2,27z"/>
			</g>
		</g>
	</g>
	<g>
		<g>
			<g>
				<path class="st1" d="M19.5,5.4C19.5,5.4,19.5,5.4,19.5,5.4L19.2,5v0.3C19.3,5.4,19.4,5.4,19.5,5.4z"/>
			</g>
		</g>
		<g>
			<g>
				<path class="st1" d="M19.5,5.8c0,0.1,0,0.1,0,0.2h0.1C19.6,5.9,19.7,5.8,19.5,5.8z"/>
			</g>
		</g>
		<g>
			<g>
				<path class="st1" d="M21,8.7c0.4-0.1,0.4-0.2,0.5-0.5c-0.1,0-0.4,0.1-0.4,0.1C21,8.6,21,8.6,21,8.7z"/>
			</g>
		</g>
		<g>
			<g>
				<path class="st1" d="M21,8.7C20.9,8.7,20.9,8.7,21,8.7C20.9,8.7,21,8.7,21,8.7z"/>
			</g>
		</g>
		<g>
			<g>
				<path class="st1" d="M20.9,10.1c0.1,0,0.1-0.2,0.1-0.3c0.2-0.4,0.8-0.4,0.8-0.9c0-0.2-0.3-0.3-0.4-0.1c0,0.2,0.1,0.4,0,0.5
					c-0.2,0.3-0.4,0.2-0.5,0c-0.2-0.2,0.1,0.6-0.2,0.7c-0.1,0-0.2-0.1-0.2-0.1c-0.2,0.2-0.4,0.5-0.2,0.7l0,0
					C20.4,10.4,20.5,10.1,20.9,10.1z"/>
			</g>
		</g>
		<g>
			<g>
				<path class="st1" d="M22.6,9.5c0,0,0.1-0.1,0.1-0.1c0,0,0-0.1,0.1-0.1l-0.1-0.1c0,0,0,0,0,0.1c0,0.1-0.2,0.1-0.3,0.1
					C22.5,9.4,22.6,9.5,22.6,9.5z"/>
			</g>
		</g>
		<g>
			<g>
				<path class="st1" d="M20.2,7.3c0-0.3,0.2-0.5,0.3-0.7l-0.2-0.2c-0.2,0.3-0.4,0.7-0.4,0.9l-0.2,0.3C20.1,7.6,20,7.4,20.2,7.3z"/>
			</g>
		</g>
		<g>
			<g>
				<path class="st1" d="M19.3,10.3c0.1-0.4-0.2-0.9,0-1.2L19.4,9c0,0-0.1,0.1-0.2,0.2v1.2C19.2,10.4,19.3,10.3,19.3,10.3z"/>
			</g>
		</g>
		<g>
			<g>
				<path class="st1" d="M19.9,8.6c0,0,0.1,0.2,0.1,0.3c0,0.1,0.1,0.2,0.1,0.3c0-0.1,0.1-0.3,0.1-0.4c0-0.3-0.1-0.6-0.3-0.6
					c-0.5,0.2-0.1,0.2-0.5,0.5C19.5,8.7,19.7,8.6,19.9,8.6z"/>
			</g>
		</g>
		<g>
			<g>
				<path class="st1" d="M19.5,8.7C19.4,8.7,19.4,8.7,19.5,8.7C19.4,8.7,19.4,8.7,19.5,8.7z"/>
			</g>
		</g>
		<g>
			<g>
				<path class="st1" d="M20.1,9.5c0,0-0.1-0.1-0.1-0.1c-0.5,0-0.4,0.6-0.3,0.7c0.1,0.2,0.4,0.3,0.3,0C19.6,9,20,9.6,20.1,9.5z"/>
			</g>
		</g>
		<g>
			<g>
				<path class="st1" d="M19.2,7.8c0-0.4,0.4-0.9,0.4-1.3c-0.1,0-0.1-0.1-0.1-0.1c-0.2,0.1-0.3,0.3-0.3,0.5v0.7c0,0,0,0,0,0.1
					C19.2,7.7,19.2,7.7,19.2,7.8l-0.1,0.3C19.2,8.1,19.2,8,19.2,7.8z"/>
			</g>
		</g>
		<g>
			<g>
				<path class="st1" d="M19.9,10.7c-0.1-0.1-0.2,0.1-0.4,0.2L19.9,10.7C19.9,10.8,19.9,10.7,19.9,10.7z"/>
			</g>
		</g>
		<g>
			<g>
				<path class="st1" d="M19.4,6c0,0.1,0,0.2,0.2,0.2c-0.1,0-0.1-0.1,0-0.2H19.4z"/>
			</g>
		</g>
		<g>
			<g>
				<path class="st1" d="M20.8,7.3c-0.4,0.3-0.4,0.8-0.3,1.2c0.3-0.2,0-0.5,0.2-0.7c0.1-0.2,0.3-0.4,0.5-0.6L21,7.1
					C20.9,7.2,20.8,7.2,20.8,7.3z"/>
			</g>
		</g>
		<g>
			<g>
				<path class="st1" d="M20.7,6.8l-0.1-0.1C20.6,6.8,20.6,6.8,20.7,6.8C20.7,6.9,20.7,6.9,20.7,6.8z"/>
			</g>
		</g>
		<g>
			<g>
				<path class="st1" d="M21.7,9.6c0.2,0,0.3,0,0.4-0.1C22,9.5,21.8,9.4,21.7,9.6z"/>
			</g>
		</g>
		<g>
			<g>
				<path class="st1" d="M16.6,3.4c-0.2,0-0.3-0.1-0.4,0.1C16.3,3.6,16.5,3.6,16.6,3.4z"/>
			</g>
		</g>
		<g>
			<g>
				<path class="st1" d="M14.5,3.4c0,0.1-0.1,0.1-0.1,0.1l-0.1,0.2C14.4,3.7,14.6,3.7,14.5,3.4z"/>
			</g>
		</g>
		<g>
			<g>
				<path class="st1" d="M15.1,3c0.1,0.2-0.1,0.4-0.2,0.6c0.1,0,0.2,0.1,0.3,0.1c0-0.1,0.1-0.2,0.1-0.3C15,3,15.3,2.6,15.4,2.2
					c0.2,0.1,0.3,0,0.4-0.2c0.1-0.2,0.2-0.4,0.3-0.6L16,1.3c-0.2,0.5-0.6,1.2-1.2,1.3l-0.1,0.2c0,0,0,0,0,0C14.8,2.9,15,2.9,15.1,3z
					"/>
			</g>
		</g>
		<g>
			<g>
				<path class="st1" d="M15.1,5.3C15.1,5.2,15.1,5.2,15.1,5.3c0.2,0.1,0.4,0.2,0.5,0.2c0.1,0,0.2-0.1,0.3-0.1
					c0.2-0.2,0-0.5,0.4-0.6c0.1,0,0.2,0,0.3,0c-0.2-0.1-0.4-0.2-0.6-0.2c0.1,0.4-0.1,0.5-0.3,0.5c-0.1,0-0.5-0.3-0.4-0.5
					c0.1-0.2,0.5-0.3,0.6-0.6c0-0.1,0.2-0.4-0.1-0.3c-0.4,0.2-0.3,0.8-0.9,0.7c0.3,0.1,0.4,0.2,0.4,0.4C15.3,5.1,15.2,5.2,15.1,5.3z
					"/>
			</g>
		</g>
		<g>
			<g>
				<path class="st1" d="M14.8,5.5c0,0.1,0,0.3,0.3,0.3c-0.2-0.1-0.2-0.3-0.1-0.4c0,0,0,0,0-0.1C14.9,5.4,14.8,5.4,14.8,5.5z"/>
			</g>
		</g>
		<g>
			<g>
				<path class="st1" d="M15,5.3c0,0,0.1,0,0.1-0.1C15,5.3,15,5.3,15,5.3z"/>
			</g>
		</g>
		<g>
			<g>
				<path class="st1" d="M16.7,4.9c0.1,0.3-0.1,0.6-0.4,0.7c0.2,0.1,0.4,0.2,0.5,0.1C17.1,5.5,17,5.1,16.7,4.9
					C16.7,4.9,16.7,4.9,16.7,4.9z"/>
			</g>
		</g>
		<g>
			<g>
				<path class="st1" d="M16.6,4.8C16.6,4.9,16.6,4.9,16.6,4.8C16.6,4.9,16.6,4.8,16.6,4.8z"/>
			</g>
		</g>
		<g>
			<g>
				<path class="st1" d="M16.4,2.2c0,0.1,0,0.1,0,0.2C16.4,2.3,16.4,2.2,16.4,2.2z"/>
			</g>
		</g>
		<g>
			<g>
				<path class="st1" d="M16.4,1.9c0,0-0.1,0.1-0.1,0.1c0.1,0,0.1,0.1,0.1,0.1C16.4,2.1,16.4,2,16.4,1.9z"/>
			</g>
		</g>
		<g>
			<g>
				<path class="st1" d="M16.4,2.4C16,2.6,16.2,2.9,16,3c0.1,0,0.2-0.1,0.3-0.1c0.1,0,0.2,0,0.3,0C16.5,2.7,16.5,2.5,16.4,2.4
					C16.4,2.4,16.4,2.4,16.4,2.4z"/>
			</g>
		</g>
		<g>
			<g>
				<path class="st1" d="M17.8,4.6c0,0,0.1,0.1,0.1,0.1c0-0.2,0-0.3,0.1-0.5C17.6,4.4,17.7,4.5,17.8,4.6z"/>
			</g>
		</g>
		<g>
			<g>
				<path class="st1" d="M17.5,5.2c0,0.1,0,0.2,0,0.3c0.3,0.1,0.3-0.2,0.4-0.4C17.7,5.2,17.6,5.2,17.5,5.2z"/>
			</g>
		</g>
		<g>
			<g>
				<path class="st1" d="M17.8,5.1C17.9,5.1,18,5,18,4.8c0,0-0.1,0-0.1-0.1C17.9,4.8,17.9,5,17.8,5.1C17.9,5.1,17.8,5.1,17.8,5.1z"
					/>
			</g>
		</g>
		<g>
			<g>
				<path class="st1" d="M19.2,6V5.7C19.1,5.8,19,5.9,18.9,6L19.2,6C19.1,6,19.1,6,19.2,6z"/>
			</g>
		</g>
		<g>
			<g>
				<path class="st1" d="M17.2,3.7c0.2,0,0.4,0.1,0.5-0.2c0,0-0.1-0.1-0.1-0.1c0-0.1,0-0.1,0-0.2l-0.1-0.1
					C17.5,3.3,17.3,3.5,17.2,3.7C17.2,3.6,17.2,3.7,17.2,3.7z"/>
			</g>
		</g>
		<g>
			<g>
				<path class="st1" d="M17,3.7c0.1,0,0.2,0,0.2,0C17.1,3.6,17,3.6,17,3.7z"/>
			</g>
		</g>
		<g>
			<g>
				<path class="st1" d="M17.1,4.4c0.1,0,0.2-0.1,0.3-0.1c0.1,0,0.1-0.2,0.2-0.3c-0.3,0-0.6,0.2-0.9,0.2c-0.1,0-0.1,0.2-0.2,0.2
					c-0.1,0-0.1-0.1-0.2-0.1c0,0-0.2,0.1-0.3,0.1C16.5,4.5,16.8,4.4,17.1,4.4z"/>
			</g>
		</g>
		<g>
			<g>
				<path class="st1" d="M14,6h0.5c0-0.1,0.1-0.2,0.1-0.3C14.5,5.7,14.1,5.9,14,6C14,6,14,6,14,6z"/>
			</g>
		</g>
		<g>
			<g>
				<path class="st1" d="M13.3,5.8L13.1,6h0.1L13.3,5.8C13.3,5.7,13.3,5.7,13.3,5.8z"/>
			</g>
		</g>
		<g>
			<g>
				<path class="st1" d="M16.1,5.8c-0.2,0-0.4,0-0.6-0.1c-0.1,0-0.1,0.2-0.1,0.4h0.3C15.9,5.9,15.9,5.8,16.1,5.8z"/>
			</g>
		</g>
		<g>
			<g>
				<path class="st1" d="M17.2,5.9C17.1,5.9,17,6,16.9,6c0,0,0,0,0,0h0.4C17.3,6,17.3,5.9,17.2,5.9z"/>
			</g>
		</g>
		<g>
			<g>
				<path class="st1" d="M19.2,5.4V5l0,0c0,0.1-0.1,0.2-0.1,0.2C19.1,5.3,19.1,5.3,19.2,5.4z"/>
			</g>
		</g>
		<g>
			<g>
				<path class="st1" d="M17.9,5.9c0.1,0.1,0.2-0.1,0.2-0.3c0.1-0.5,0.5-0.7,0.7-1l-0.1-0.1c-0.3,0.3-0.6,0.7-0.6,1.2
					C18.1,5.7,17.8,5.8,17.9,5.9z"/>
			</g>
		</g>
		<g>
			<g>
				<path class="st1" d="M14.2,4.5c-0.2,0.1-0.4,0.1-0.4,0.3c0,0,0.1,0,0.1,0.1c0,0.1,0.1,0.3-0.1,0.4c-0.1,0-0.2,0.1-0.3,0.1
					c0.2,0.2,0.5,0,0.7,0.1C14,5.3,14.1,4.9,14.2,4.5C14.2,4.6,14.2,4.5,14.2,4.5z"/>
			</g>
		</g>
		<g>
			<g>
				<path class="st1" d="M14.2,4.5c0.1,0,0.2,0,0.2-0.1C14.3,4.5,14.2,4.5,14.2,4.5z"/>
			</g>
		</g>
		<g>
			<g>
				<path class="st1" d="M14.3,5.5C14.3,5.5,14.4,5.5,14.3,5.5C14.4,5.5,14.4,5.5,14.3,5.5z"/>
			</g>
		</g>
		<g>
			<g>
				<path class="st1" d="M15.6,1.5c0-0.1-0.1-0.2-0.1-0.3l0,0C15.4,1.4,15.3,1.6,15.6,1.5z"/>
			</g>
		</g>
		<g>
			<g>
				<path class="st1" d="M14.6,4c0.1,0.1,0.1,0.2,0.1,0.3c0-0.1,0.1-0.1,0.1-0.2C14.8,4,14.7,4,14.6,4z"/>
			</g>
		</g>
		<g>
			<g>
				<path class="st1" d="M12.5,7.2c0,0,0,0.1,0,0.1c0,0.1,0,0.2,0,0.3c-0.1,0-0.1,0.1-0.2,0.1l0,0L12.4,8c0.1-0.1,0.2-0.2,0.2-0.3
					c0-0.1,0.1-0.1,0.1-0.2c0,0,0.1-0.1,0.1-0.2c0.1-0.1,0.2-0.9,0.4-1L13.3,6h-0.1L12.5,7.2z"/>
			</g>
		</g>
		<g>
			<g>
				<path class="st1" d="M13.2,8.8l0.4,0.5c0,0,0,0,0,0c0-0.1-0.3-0.2-0.3-0.3c0.1-0.1,0.6,0.1,0.4-0.2C13.4,8.7,13.2,8.7,13.2,8.8z
					"/>
			</g>
		</g>
		<g>
			<g>
				<path class="st1" d="M14.1,9.4c-0.1-0.1-0.2,0-0.3,0.2L14,9.8C14.1,9.7,14.2,9.5,14.1,9.4z"/>
			</g>
		</g>
		<g>
			<g>
				<path class="st1" d="M15.4,9.1c0,0,0.1,0.1,0.1,0.1c0.2-0.2,0.1-0.6,0.2-0.7C16,8.3,16.1,8.3,16.2,8c0.1-0.2,0.4-0.2,0.5-0.1
					c0.1,0,0.1,0.2,0.1,0.3c0,0-0.1,0.1-0.1,0.1c0.7,0.3,0.3,0.8,0.1,1.3c0.2-0.3,0.5-0.5,0.6-0.9c-0.5-0.2-0.4-0.7-0.8-1
					c-0.2-0.2-0.4,0.3-0.7,0c0,0.2,0,0.4-0.2,0.6c-0.1,0-0.2,0-0.3,0c-0.3,0.3-0.3,0.7-0.9,0.8l0.1,0.1C14.9,9.4,15.2,9.5,15.4,9.1z
					"/>
			</g>
		</g>
		<g>
			<g>
				<path class="st1" d="M14.4,8.5c0-0.1,0.2-0.2,0.2-0.1c0,0,0-0.1,0-0.1c0-0.1,0.2-0.1,0.2-0.2c0-0.4-0.1-0.5,0.1-0.8
					C15.1,7,15.3,7,15.6,7.1c-0.3-0.2-0.4-0.1-0.6,0l-0.4-0.2c-0.2,0.1,0.4,0.6,0.3,0.7c-0.2,0.5-0.4,1.1-0.8,1.4
					C14.4,9.1,14.4,8.8,14.4,8.5z"/>
			</g>
		</g>
		<g>
			<g>
				<path class="st1" d="M13.6,6.4c0.2,0,0.4-0.1,0.6-0.1c0,0.1,0.1,0.1,0.1,0.2c0-0.1,0.1-0.3,0.2-0.5H14
					C13.7,6.1,13.4,6.2,13.6,6.4z"/>
			</g>
		</g>
		<g>
			<g>
				<path class="st1" d="M17.9,6.4C17.9,6.4,18,6.4,17.9,6.4c0,0-0.1,0-0.2,0C17.8,6.4,17.9,7.2,17.9,6.4z"/>
			</g>
		</g>
		<g>
			<g>
				<path class="st1" d="M18.1,6.1C18,6.2,18,6.3,18,6.3C18,6.3,18.1,6.3,18.1,6.1z"/>
			</g>
		</g>
		<g>
			<g>
				<path class="st1" d="M18.7,6.3c0,0.1-0.1,0.1-0.1,0.2C18.7,6.4,18.7,6.4,18.7,6.3C18.7,6.3,18.7,6.3,18.7,6.3z"/>
			</g>
		</g>
		<g>
			<g>
				<path class="st1" d="M18.7,6.5c-0.1,0.2-0.4,0-0.5,0.2c0,0.1,0,0.2,0,0.3c-0.4,0.3-0.8,0.6-1,1c0.2-0.1,0.5-0.3,0.5-0.6
					c0-0.1,0.2-0.1,0.4-0.2c0.1,0,0.2-0.1,0.1-0.3C18.6,6.9,18.6,6.7,18.7,6.5z"/>
			</g>
		</g>
		<g>
			<g>
				<path class="st1" d="M18.9,6.1C19,6.1,19,6,19.1,6h-0.2c-0.1,0.1-0.2,0.2-0.3,0.1c0,0,0.1,0.1,0.1,0.1
					C18.8,6.2,18.8,6.2,18.9,6.1z"/>
			</g>
		</g>
		<g>
			<g>
				<path class="st1" d="M18.6,8.1c0-0.1,0-0.3,0-0.4c-0.1,0.3-0.3,0.7-0.7,0.6c0.1,0.5,0.3,0.3,0.4,0.3C18.5,8.5,18.6,8.3,18.6,8.1
					z"/>
			</g>
		</g>
		<g>
			<g>
				<path class="st1" d="M18.2,9.3c-0.1,0-0.3,0-0.4,0c-0.1,0.1,0,0.4,0.1,0.5c0-0.1,0-0.2,0-0.3C18,9.4,18.1,9.4,18.2,9.3z"/>
			</g>
		</g>
		<g>
			<g>
				<path class="st1" d="M16.6,8.7c-0.3,0.3-0.7,1-1.1,1.2c-0.1,0-0.2-0.2-0.4-0.1c-0.1,0-0.1,0.1-0.2,0.1c0.2,0,0.4,0,0.6,0.1
					c0,0,0,0.2,0,0.3c0.3-0.4,0.6-0.6,0.9-1C16.4,9.2,16.7,8.8,16.6,8.7z"/>
			</g>
		</g>
		<g>
			<g>
				<path class="st1" d="M17.6,10.9c0.3,0,0.3-0.4,0.6,0c0,0,0.1-0.1,0.1-0.1c-0.2,0-0.2-0.1-0.3-0.3c0-0.1,0-0.2,0-0.3
					c-0.1-0.1-0.2-0.2-0.3-0.2c0,0,0,0,0.1,0c0.2,0.2,0.2,0.5,0.1,0.7C17.8,10.8,17.7,10.9,17.6,10.9z"/>
			</g>
		</g>
		<g>
			<g>
				<path class="st1" d="M17.4,9.9C17.4,9.9,17.4,9.9,17.4,9.9c0.1,0,0.1,0.1,0.2,0.1C17.6,10,17.5,9.9,17.4,9.9z"/>
			</g>
		</g>
		<g>
			<g>
				<path class="st1" d="M17.1,9.6c-0.3,0.3-0.9,0.3-1.1,0.7c-0.1,0.2,0.1,0.2,0.3,0.3c0.1,0.1,0.2,0.2,0.3,0.3
					c0.1-0.4-0.6-0.3-0.4-0.5c0.2-0.2,0.3-0.4,0.4-0.4c0.4-0.2,0.5,0.3,0.7,0.5c0-0.2,0-0.4,0.2-0.5C17.3,9.9,17.2,9.8,17.1,9.6z"/>
			</g>
		</g>
		<g>
			<g>
				<path class="st1" d="M15.2,10.7c0.1,0.1,0.3,0.2,0.4,0.4c0.1-0.1,0.2-0.1,0.2-0.2c0-0.2-0.5-0.2-0.7-0.3c-0.1,0-0.2-0.2-0.2-0.4
					c0,0.2,0,0.4,0.1,0.5C15,10.7,15.2,10.6,15.2,10.7z"/>
			</g>
		</g>
		<g>
			<g>
				<path class="st1" d="M14.5,10c0,0-0.1-0.1-0.1-0.1c-0.1,0-0.1,0-0.2,0l0,0C14.2,9.9,14.4,10.1,14.5,10z"/>
			</g>
		</g>
		<g>
			<g>
				<path class="st1" d="M14.1,7.7c0-0.3-0.5-0.1-0.6-0.4c-0.1,0.1-0.2,0.2-0.2,0.2c0.3,0.2,0.3,0.4,0.6,0.6
					C13.9,7.9,14.1,7.8,14.1,7.7z"/>
			</g>
		</g>
		<g>
			<g>
				<path class="st1" d="M16.4,11.1c-0.1,0-0.3,0-0.3,0.1c-0.1,0.2-0.2,0.4-0.3,0.7L16,12C16.2,11.7,16.4,11.4,16.4,11.1z"/>
			</g>
		</g>
		<g>
			<g>
				<path class="st1" d="M17.1,11.1c-0.1-0.1-0.2,0-0.2,0.1c0,0.1,0,0.3,0.3,0.3c0.2,0,0.3-0.1,0.4-0.1
					C17.1,11.4,17.2,11.2,17.1,11.1z"/>
			</g>
		</g>
		<g>
			<g>
				<path class="st1" d="M17.8,11.6L17.8,11.6c0.1,0,0.1-0.1,0.1-0.1C17.8,11.6,17.8,11.6,17.8,11.6z"/>
			</g>
		</g>
		<g>
			<g>
				<path class="st1" d="M16,7.2c0.1,0.1,0.3,0.2,0.4,0.1c0.1,0,0.1,0,0.1-0.1c0.1-0.2,0.3-0.4,0.3-0.6c0,0-0.2-0.1-0.3-0.1
					C16.7,6.9,16.5,7.3,16,7.2z"/>
			</g>
		</g>
		<g>
			<g>
				<path class="st1" d="M18.6,11.3c0.2-0.3,0.3-0.4,0.3-0.7c0-0.1,0.1-0.1,0.2-0.2V9.2c-0.1,0.1-0.1,0.1-0.1,0.1
					c-0.1,0.2-0.1,0.9-0.2,1.4c-0.1,0.2-0.3,0.3-0.3,0.5C18.5,11.2,18.6,11.2,18.6,11.3z"/>
			</g>
		</g>
		<g>
			<g>
				<path class="st1" d="M19.2,7.7c0,0.1,0,0.2,0,0.3c0,0.1-0.3,0.2-0.4,0.3c0.2-0.1,0.4-0.1,0.4-0.1V7.7z"/>
			</g>
		</g>
		<g>
			<g>
				<path class="st1" d="M19.2,6.9c0,0.1,0,0.3-0.1,0.4c-0.1,0.2,0,0.2,0.1,0.3V6.9L19.2,6.9z"/>
			</g>
		</g>
		<g>
			<g>
				<path class="st1" d="M15,6.6c0.2,0.2,0.2-0.2,0.4-0.4C15.2,6.4,14.8,6.4,15,6.6z"/>
			</g>
		</g>
		<g>
			<g>
				<path class="st1" d="M15.8,6.3c0.1-0.1,0-0.2,0-0.3h-0.3c0,0.1,0.1,0.1,0.1,0.2C15.6,6.3,15.8,6.4,15.8,6.3z"/>
			</g>
		</g>
		<g>
			<g>
				<path class="st1" d="M17.5,6.4c-0.2-0.1-0.1-0.3-0.1-0.4h-0.4c0.1,0.2,0.2,0.3,0.4,0.5C17.3,6.5,17.4,6.5,17.5,6.4z"/>
			</g>
		</g>
		<g>
			<g>
				<path class="st1" d="M13.4,8.2c-0.2,0-0.4,0-0.6,0.3l0,0C13.1,8.4,13.3,8.4,13.4,8.2z"/>
			</g>
		</g>
		<g>
			<g>
				<path class="st1" d="M19,8.9c-0.2,0-0.3-0.1-0.4,0.1C18.8,9,18.9,9,19,8.9z"/>
			</g>
		</g>
		<g>
			<g>
				<path class="st1" d="M13.8,6.8C13.9,7,14,7.1,14,7.2c0-0.1,0.1-0.2,0.1-0.3C14.1,6.9,14,6.8,13.8,6.8z"/>
			</g>
		</g>
		<g>
			<g>
				<path class="st1" d="M18.6,9.9c0-0.1-0.1-0.2-0.3-0.1c0.1,0.1,0.2,0.3,0.1,0.4C18.5,10.1,18.6,10,18.6,9.9z"/>
			</g>
		</g>
		<g>
			<g>
				<path class="st1" d="M17.4,7c-0.1-0.1-0.3,0-0.3,0.1c0,0.1,0,0.2,0.1,0.3C17.2,7.3,17.3,7.2,17.4,7z"/>
			</g>
		</g>
		<g>
			<g>
				<path class="st1" d="M15.6,7.7c0-0.1-0.1-0.2-0.1-0.3C15.5,7.5,15.3,7.8,15.6,7.7z"/>
			</g>
		</g>
	</g>
	<g>
		<g>
			<g>
				<rect x="7.4" y="9.6" transform="matrix(0.7071 -0.7071 0.7071 0.7071 -4.809 8.4064)" class="st0" width="0.8" height="0.8"/>
			</g>
		</g>
		<g>
			<g>
				<polygon class="st0" points="8.8,9.4 8.3,8.9 7.8,9.4 7.8,9.4 8.3,10 8.8,9.4 8.8,9.4 				"/>
			</g>
		</g>
		<g>
			<g>
				<rect x="8.5" y="8.5" transform="matrix(0.7071 -0.7071 0.7071 0.7071 -3.666 8.8805)" class="st0" width="0.8" height="0.8"/>
			</g>
		</g>
		<g>
			<g>
				<rect x="9.1" y="7.9" transform="matrix(0.7071 -0.7071 0.7071 0.7071 -3.0944 9.1169)" class="st0" width="0.8" height="0.8"/>
			</g>
		</g>
		<g>
			<g>
				<rect x="6.8" y="11.3" transform="matrix(0.7072 -0.707 0.707 0.7072 -6.1884 8.5033)" class="st0" width="0.8" height="0.8"/>
			</g>
		</g>
		<g>
			<g>
				<rect x="7.4" y="8.5" transform="matrix(0.7069 -0.7073 0.7073 0.7069 -4.001 8.0751)" class="st0" width="0.8" height="0.8"/>
			</g>
		</g>
		<g>
			<g>
				
					<rect x="10.2" y="7.9" transform="matrix(0.7069 -0.7073 0.7073 0.7069 -2.7591 9.9288)" class="st0" width="0.8" height="0.8"/>
			</g>
		</g>
		<g>
			<g>
				<rect x="7.9" y="7.9" transform="matrix(0.707 -0.7072 0.7072 0.707 -3.4292 8.3109)" class="st0" width="0.8" height="0.8"/>
			</g>
		</g>
		<g>
			<g>
				<polygon class="st0" points="9.5,8.9 8.9,9.4 8.9,9.4 9.5,10 10,9.4 10,9.4 				"/>
			</g>
		</g>
		<g>
			<g>
				<rect x="9.7" y="8.5" transform="matrix(0.7069 -0.7073 0.7073 0.7069 -3.3309 9.6925)" class="st0" width="0.8" height="0.8"/>
			</g>
		</g>
		<g>
			<g>
				<rect x="8.5" y="9.6" transform="matrix(0.7071 -0.7071 0.7071 0.7071 -4.4742 9.2146)" class="st0" width="0.8" height="0.8"/>
			</g>
		</g>
		<g>
			<g>
				
					<rect x="7.9" y="10.2" transform="matrix(0.7071 -0.7071 0.7071 0.7071 -5.0457 8.9787)" class="st0" width="0.8" height="0.8"/>
			</g>
		</g>
		<g>
			<g>
				<rect x="8.5" y="10.8" transform="matrix(0.707 -0.7072 0.7072 0.707 -5.2827 9.5516)" class="st0" width="0.8" height="0.8"/>
			</g>
		</g>
		<g>
			<g>
				
					<rect x="7.4" y="13.1" transform="matrix(0.7071 -0.7071 0.7071 0.7071 -7.2337 9.4107)" class="st0" width="0.8" height="0.8"/>
			</g>
		</g>
		<g>
			<g>
				<rect x="6.8" y="13.6" transform="matrix(0.7073 -0.7069 0.7069 0.7073 -7.804 9.1704)" class="st0" width="0.8" height="0.8"/>
			</g>
		</g>
		<g>
			<g>
				
					<rect x="6.2" y="16.5" transform="matrix(0.7071 -0.7071 0.7071 0.7071 -9.9931 9.6069)" class="st0" width="0.8" height="0.8"/>
			</g>
		</g>
		<g>
			<g>
				<rect x="7.4" y="14.2" transform="matrix(0.7072 -0.707 0.707 0.7072 -8.0411 9.743)" class="st0" width="0.8" height="0.8"/>
			</g>
		</g>
		<g>
			<g>
				
					<rect x="7.9" y="12.5" transform="matrix(0.7071 -0.7071 0.7071 0.7071 -6.6623 9.6484)" class="st0" width="0.8" height="0.8"/>
			</g>
		</g>
		<g>
			<g>
				<rect x="8.5" y="11.9" transform="matrix(0.7072 -0.707 0.707 0.7072 -6.0903 9.8819)" class="st0" width="0.8" height="0.8"/>
			</g>
		</g>
		<g>
			<g>
				
					<rect x="6.8" y="12.5" transform="matrix(0.7074 -0.7068 0.7068 0.7074 -6.9953 8.8337)" class="st0" width="0.8" height="0.8"/>
			</g>
		</g>
		<g>
			<g>
				<rect x="9.1" y="10.2" transform="matrix(0.707 -0.7072 0.7072 0.707 -4.711 9.7891)" class="st0" width="0.8" height="0.8"/>
			</g>
		</g>
		<g>
			<g>
				<rect x="7.4" y="10.8" transform="matrix(0.7072 -0.707 0.707 0.7072 -5.6169 8.7391)" class="st0" width="0.8" height="0.8"/>
			</g>
		</g>
		<g>
			<g>
				
					<rect x="7.9" y="11.3" transform="matrix(0.7069 -0.7073 0.7073 0.7069 -5.8548 9.3179)" class="st0" width="0.8" height="0.8"/>
			</g>
		</g>
		<g>
			<g>
				<rect x="7.4" y="11.9" transform="matrix(0.7072 -0.707 0.707 0.7072 -6.4249 9.0737)" class="st0" width="0.8" height="0.8"/>
			</g>
		</g>
		<g>
			<g>
				<rect x="9.7" y="9.6" transform="matrix(0.7072 -0.707 0.707 0.7072 -4.1395 10.0211)" class="st0" width="0.8" height="0.8"/>
			</g>
		</g>
		<g>
			<g>
				
					<rect x="6.8" y="14.8" transform="matrix(0.7074 -0.7068 0.7068 0.7074 -8.6112 9.5026)" class="st0" width="0.8" height="0.8"/>
			</g>
		</g>
		<g>
			<g>
				<polygon class="st1" points="11.1,8.3 11.2,8.3 10.7,7.7 10.6,7.7 10.6,7.8 				"/>
			</g>
		</g>
		<g>
			<g>
				<polygon class="st1" points="11.5,8.6 11.5,8.6 11.2,8.3 11.2,8.3 				"/>
			</g>
		</g>
		<g>
			<g>
				<polygon class="st1" points="10.6,7.7 10.6,7.7 10.6,7.7 				"/>
			</g>
		</g>
		<g>
			<g>
				<polygon class="st1" points="9.3,7.5 9.2,7.5 9.4,7.7 9.5,7.7 				"/>
			</g>
		</g>
		<g>
			<g>
				<rect x="9.7" y="7.6" transform="matrix(0.7071 -0.7071 0.7071 0.7071 -2.8087 9.2353)" class="st1" width="0.1" height="0.8"/>
			</g>
		</g>
		<g>
			<g>
				<polygon class="st1" points="11.1,9.4 11.1,9.3 10.6,8.9 10.6,8.9 				"/>
			</g>
		</g>
		<g>
			<g>
				<polygon class="st1" points="10.6,8.8 10.1,8.3 10,8.3 10.6,8.9 				"/>
			</g>
		</g>
		<g>
			<g>
				<polygon class="st1" points="8.8,8.3 8.9,8.3 8.4,7.7 8.3,7.8 				"/>
			</g>
		</g>
		<g>
			<g>
				<polygon class="st1" points="7.9,7.3 7.8,7.3 8.3,7.7 8.3,7.7 				"/>
			</g>
		</g>
		<g>
			<g>
				<rect x="9.1" y="8.2" transform="matrix(0.7072 -0.707 0.707 0.7072 -3.3803 8.997)" class="st1" width="0.1" height="0.8"/>
			</g>
		</g>
		<g>
			<g>
				<polygon class="st1" points="10,9.4 9.5,8.9 9.5,8.9 10,9.4 10,9.4 10,9.4 				"/>
			</g>
		</g>
		<g>
			<g>
				<polygon class="st1" points="7.2,7.7 7.2,7.8 7.7,8.3 7.7,8.3 				"/>
			</g>
		</g>
		<g>
			<g>
				<polygon class="st1" points="7.7,8.3 8.3,8.9 8.3,8.8 7.8,8.3 				"/>
			</g>
		</g>
		<g>
			<g>
				<polygon class="st1" points="8.8,9.4 8.9,9.4 8.9,9.4 8.4,8.9 8.3,8.9 8.8,9.4 				"/>
			</g>
		</g>
		<g>
			<g>
				<polygon class="st1" points="7,7.6 7,7.6 7.1,7.7 7.2,7.7 				"/>
			</g>
		</g>
		<g>
			<g>
				<polygon class="st1" points="6.9,8.6 6.9,8.7 7.1,8.9 7.2,8.8 				"/>
			</g>
		</g>
		<g>
			<g>
				<polygon class="st1" points="7.7,9.4 7.2,8.9 7.2,8.9 7.7,9.4 7.7,9.4 7.7,9.4 				"/>
			</g>
		</g>
		<g>
			<g>
				<polygon class="st1" points="7.7,7.3 7.6,7.2 7.2,7.7 7.1,7.7 7,7.8 7,7.9 7.2,7.8 7.2,7.7 				"/>
			</g>
		</g>
		<g>
			<g>
				<polygon class="st1" points="7.7,8.3 7.8,8.3 8.3,7.8 8.4,7.7 8.7,7.4 8.6,7.4 8.3,7.7 8.3,7.7 7.7,8.3 7.7,8.3 7.2,8.8 
					7.1,8.9 6.9,9.1 6.9,9.2 7.2,8.9 7.2,8.9 				"/>
			</g>
		</g>
		<g>
			<g>
				<polygon class="st1" points="7.8,9.4 7.8,9.4 8.3,8.9 8.4,8.9 8.9,8.3 8.9,8.3 9.5,7.8 9.5,7.7 9.6,7.6 9.6,7.6 9.5,7.7 
					9.4,7.7 8.9,8.3 8.8,8.3 8.3,8.8 8.3,8.9 7.7,9.4 7.7,9.4 7.7,9.4 7.7,9.4 				"/>
			</g>
		</g>
		<g>
			<g>
				<polygon class="st1" points="9.5,8.8 9.4,8.9 8.9,9.4 8.9,9.4 8.8,9.4 8.8,9.4 8.9,9.4 8.9,9.4 9.5,8.9 9.5,8.9 10,8.3 
					10.1,8.3 10.6,7.8 10.6,7.7 10.6,7.7 10.6,7.7 10,8.3 10,8.3 				"/>
			</g>
		</g>
		<g>
			<g>
				<polygon class="st1" points="10.6,8.8 10.6,8.9 10,9.4 10,9.4 10,9.4 10.1,9.4 10.6,8.9 10.6,8.9 11.2,8.3 11.2,8.3 11.6,7.9 
					11.5,7.9 11.2,8.3 11.1,8.3 				"/>
			</g>
		</g>
		<g>
			<g>
				
					<rect x="7.4" y="14.5" transform="matrix(0.7071 -0.7071 0.7071 0.7071 -8.3276 9.6271)" class="st1" width="0.1" height="0.8"/>
			</g>
		</g>
		<g>
			<g>
				<polygon class="st1" points="6.6,14 6.6,14 7.1,14.6 7.2,14.5 				"/>
			</g>
		</g>
		<g>
			<g>
				<polygon class="st1" points="6.3,13.7 6.3,13.8 6.6,14 6.6,14 				"/>
			</g>
		</g>
		<g>
			<g>
				<polygon class="st1" points="8,15.4 8,15.4 7.8,15.2 7.7,15.2 				"/>
			</g>
		</g>
		<g>
			<g>
				<polygon class="st1" points="6.2,14.7 6.2,14.8 6.6,15.2 6.6,15.1 				"/>
			</g>
		</g>
		<g>
			<g>
				<polygon class="st1" points="7.6,16.2 7.6,16.1 7.2,15.7 7.2,15.8 				"/>
			</g>
		</g>
		<g>
			<g>
				<rect x="6.9" y="15.1" transform="matrix(0.7071 -0.7071 0.7071 0.7071 -8.8993 9.391)" class="st1" width="0.1" height="0.8"/>
			</g>
		</g>
		<g>
			<g>
				
					<rect x="6.9" y="16.2" transform="matrix(0.7074 -0.7068 0.7068 0.7074 -9.7048 9.7191)" class="st1" width="0.1" height="0.8"/>
			</g>
		</g>
		<g>
			<g>
				<polygon class="st1" points="7.2,16.9 7.2,16.9 7.2,16.9 				"/>
			</g>
		</g>
		<g>
			<g>
				<polygon class="st1" points="6.1,15.7 6.1,15.8 6.6,16.3 6.6,16.3 				"/>
			</g>
		</g>
		<g>
			<g>
				<polygon class="st1" points="6,16.8 6,16.8 6,16.9 6,16.8 				"/>
			</g>
		</g>
		<g>
			<g>
				<polygon class="st1" points="6.8,17.7 6.8,17.6 6.6,17.4 6.6,17.5 				"/>
			</g>
		</g>
		<g>
			<g>
				<polygon class="st1" points="6.1,16.9 6,16.9 6.6,17.4 6.6,17.4 				"/>
			</g>
		</g>
		<g>
			<g>
				<polygon class="st1" points="5.8,17.8 5.8,17.9 6,18 6,18 				"/>
			</g>
		</g>
		<g>
			<g>
				<polygon class="st1" points="6.4,18.4 6.4,18.4 6.1,18 6,18.1 				"/>
			</g>
		</g>
		<g>
			<g>
				<polygon class="st1" points="5.7,18.8 5.7,18.9 6,19.2 6,19.1 				"/>
			</g>
		</g>
		<g>
			<g>
				<polygon class="st1" points="5.6,19.8 5.6,19.9 5.6,19.9 5.6,19.9 				"/>
			</g>
		</g>
		<g>
			<g>
				<polygon class="st1" points="6.4,12.7 6.4,12.7 6.6,12.9 6.6,12.8 				"/>
			</g>
		</g>
		<g>
			<g>
				<polygon class="st1" points="6.6,12.9 6.6,12.9 7.1,13.4 7.2,13.4 				"/>
			</g>
		</g>
		<g>
			<g>
				<polygon class="st1" points="8.4,14.7 8.4,14.6 8.4,14.6 8.3,14.6 				"/>
			</g>
		</g>
		<g>
			<g>
				<rect x="7.4" y="13.3" transform="matrix(0.707 -0.7072 0.7072 0.707 -7.5201 9.2946)" class="st1" width="0.1" height="0.8"/>
			</g>
		</g>
		<g>
			<g>
				<rect x="8" y="13.9" transform="matrix(0.7113 -0.7029 0.7029 0.7113 -7.7295 9.7703)" class="st1" width="0.1" height="0.8"/>
			</g>
		</g>
		<g>
			<g>
				
					<rect x="6.9" y="11.6" transform="matrix(0.7088 -0.7054 0.7054 0.7088 -6.4659 8.3548)" class="st1" width="0.1" height="0.8"/>
			</g>
		</g>
		<g>
			<g>
				
					<rect x="7.4" y="12.2" transform="matrix(0.7071 -0.7071 0.7071 0.7071 -6.7112 8.9576)" class="st1" width="0.1" height="0.8"/>
			</g>
		</g>
		<g>
			<g>
				<polygon class="st1" points="8.7,13.9 8.8,13.9 8.4,13.4 8.3,13.5 				"/>
			</g>
		</g>
		<g>
			<g>
				<polygon class="st1" points="7.7,12.9 8.3,13.4 8.3,13.4 7.8,12.9 				"/>
			</g>
		</g>
		<g>
			<g>
				<polygon class="st1" points="6.6,11.6 6.6,11.7 6.6,11.7 6.6,11.7 				"/>
			</g>
		</g>
		<g>
			<g>
				<polygon class="st1" points="7.7,11.8 8.3,12.3 8.3,12.3 7.8,11.7 				"/>
			</g>
		</g>
		<g>
			<g>
				<polygon class="st1" points="9.1,13.2 9.2,13.1 8.9,12.9 8.9,12.9 				"/>
			</g>
		</g>
		<g>
			<g>
				<polygon class="st1" points="6.7,10.6 6.7,10.7 7.1,11.2 7.2,11.1 				"/>
			</g>
		</g>
		<g>
			<g>
				<polygon class="st1" points="8.3,12.3 8.8,12.9 8.9,12.8 8.4,12.3 				"/>
			</g>
		</g>
		<g>
			<g>
				<rect x="7.4" y="11.1" transform="matrix(0.7071 -0.7071 0.7071 0.7071 -5.903 8.6228)" class="st1" width="0.1" height="0.8"/>
			</g>
		</g>
		<g>
			<g>
				<polygon class="st1" points="7.2,10 7.2,10 7.7,10.6 7.7,10.5 				"/>
			</g>
		</g>
		<g>
			<g>
				<polygon class="st1" points="6.8,9.6 6.8,9.7 7.1,10 7.2,10 				"/>
			</g>
		</g>
		<g>
			<g>
				
					<rect x="9.1" y="11.6" transform="matrix(0.7099 -0.7043 0.7043 0.7099 -5.7968 9.9436)" class="st1" width="0.1" height="0.8"/>
			</g>
		</g>
		<g>
			<g>
				<polygon class="st1" points="8.3,11.2 8.8,11.7 8.9,11.7 8.4,11.2 				"/>
			</g>
		</g>
		<g>
			<g>
				<rect x="8" y="10.5" transform="matrix(0.7073 -0.7069 0.7069 0.7073 -5.3309 8.8563)" class="st1" width="0.1" height="0.8"/>
			</g>
		</g>
		<g>
			<g>
				<polygon class="st1" points="9.5,12.4 9.6,12.3 9.5,12.3 9.5,12.3 				"/>
			</g>
		</g>
		<g>
			<g>
				<polygon class="st1" points="9.9,11.6 9.9,11.6 9.5,11.2 9.5,11.2 				"/>
			</g>
		</g>
		<g>
			<g>
				<polygon class="st1" points="7.7,9.4 7.7,9.4 7.7,9.4 				"/>
			</g>
		</g>
		<g>
			<g>
				<polygon class="st1" points="8.3,10 8.8,10.6 8.9,10.5 8.4,10 				"/>
			</g>
		</g>
		<g>
			<g>
				<rect x="9.1" y="10.5" transform="matrix(0.7072 -0.707 0.707 0.7072 -4.9965 9.6665)" class="st1" width="0.1" height="0.8"/>
			</g>
		</g>
		<g>
			<g>
				<polygon class="st1" points="7.8,9.4 7.8,9.4 7.8,9.5 7.7,9.5 8.3,10 8.3,10 7.8,9.4 				"/>
			</g>
		</g>
		<g>
			<g>
				<polygon class="st1" points="8.8,9.4 8.8,9.4 8.8,9.4 				"/>
			</g>
		</g>
		<g>
			<g>
				<polygon class="st1" points="8.9,9.4 8.9,9.4 8.9,9.5 8.9,9.5 9.4,10 9.5,10 8.9,9.4 				"/>
			</g>
		</g>
		<g>
			<g>
				<rect x="9.7" y="9.9" transform="matrix(0.7071 -0.7071 0.7071 0.7071 -4.4252 9.9048)" class="st1" width="0.1" height="0.8"/>
			</g>
		</g>
		<g>
			<g>
				<polygon class="st1" points="10.3,10.9 10.3,10.8 10.1,10.6 10,10.6 				"/>
			</g>
		</g>
		<g>
			<g>
				<polygon class="st1" points="10,9.5 10.6,10 10.6,10 10.1,9.4 10.1,9.4 10,9.5 				"/>
			</g>
		</g>
		<g>
			<g>
				<polygon class="st1" points="10.7,10.1 10.7,10.1 10.6,10 10.6,10 				"/>
			</g>
		</g>
		<g>
			<g>
				<polygon class="st1" points="6,19.1 6,19.1 6,19.2 5.6,19.5 5.6,19.6 6,19.3 				"/>
			</g>
		</g>
		<g>
			<g>
				<polygon class="st1" points="6.1,18 6.6,17.5 6.6,17.4 7.2,16.9 7.2,16.9 7.3,16.7 7.2,16.8 7.1,16.9 6.6,17.4 6.6,17.4 6,18 
					6,18 5.8,18.2 5.8,18.3 6,18.1 				"/>
			</g>
		</g>
		<g>
			<g>
				<polygon class="st1" points="6.6,16.3 6.6,16.3 7.2,15.8 7.2,15.7 7.7,15.2 7.8,15.2 8.3,14.6 8.4,14.6 8.4,14.5 8.5,14.3 
					8.3,14.5 8.3,14.6 7.7,15.1 7.7,15.2 7.2,15.7 7.1,15.7 6.6,16.3 6.6,16.3 6,16.8 6,16.9 5.9,16.9 5.9,17 6,16.9 6.1,16.9 				
					"/>
			</g>
		</g>
		<g>
			<g>
				<polygon class="st1" points="7.2,14.6 7.2,14.6 7.7,14 7.8,14 8.3,13.5 8.4,13.4 8.9,12.9 8.9,12.9 9.5,12.3 9.5,12.3 9.7,12.1 
					9.8,12 9.5,12.3 9.4,12.3 8.9,12.8 8.8,12.9 8.3,13.4 8.3,13.4 7.7,14 7.7,14 7.2,14.5 7.1,14.6 6.6,15.1 6.6,15.2 6.1,15.6 
					6.1,15.7 6.6,15.2 6.6,15.2 				"/>
			</g>
		</g>
		<g>
			<g>
				<polygon class="st1" points="7.2,13.5 7.2,13.4 7.7,12.9 7.8,12.9 8.3,12.3 8.4,12.3 8.9,11.8 8.9,11.7 9.5,11.2 9.5,11.2 
					10,10.6 10.1,10.6 10.6,10 10.6,10 10.9,9.7 11,9.6 10.6,10 10.6,10 10,10.5 10,10.6 9.5,11.1 9.4,11.2 8.9,11.7 8.8,11.7 
					8.3,12.3 8.3,12.3 7.7,12.8 7.7,12.9 7.2,13.4 7.1,13.4 6.6,14 6.6,14 6.3,14.3 6.2,14.4 6.6,14 6.6,14 				"/>
			</g>
		</g>
		<g>
			<g>
				<polygon class="st1" points="7.2,12.3 7.2,12.3 7.7,11.8 7.8,11.7 8.3,11.2 8.4,11.2 8.9,10.6 8.9,10.6 9.5,10 9.5,10 10,9.5 
					10,9.5 10.1,9.4 10,9.4 9.5,10 9.4,10 8.9,10.5 8.8,10.6 8.3,11.1 8.3,11.2 7.7,11.7 7.7,11.7 7.2,12.3 7.1,12.3 6.6,12.8 
					6.6,12.9 6.4,13 6.4,13.1 6.6,12.9 6.6,12.9 				"/>
			</g>
		</g>
		<g>
			<g>
				<polygon class="st1" points="7.2,11.2 7.2,11.2 7.7,10.6 7.8,10.6 8.3,10 8.4,10 8.9,9.5 8.9,9.5 8.9,9.4 8.8,9.4 8.8,9.4 
					8.3,10 8.3,10 7.7,10.5 7.7,10.6 7.2,11.1 7.1,11.2 6.6,11.7 6.6,11.7 6.6,11.7 6.5,11.8 6.6,11.8 6.6,11.7 				"/>
			</g>
		</g>
		<g>
			<g>
				<polygon class="st1" points="7.7,9.5 7.8,9.5 7.8,9.4 7.7,9.4 7.7,9.4 7.2,10 7.1,10 6.7,10.4 6.7,10.5 7.2,10 7.2,10 				"/>
			</g>
		</g>
	</g>
	<g>
		<g>
			<polygon points="20.4,15.9 23.1,10 16.4,12.5 			"/>
		</g>
	</g>
	<g>
		<g>
			<polygon points="15.2,1.1 7.3,6.9 12,7.6 			"/>
		</g>
	</g>
	<g>
		<g>
			<path class="st2" d="M16.1,12.6L16,12.5c0,0-0.1-0.1-0.1-0.1c0-0.1,0-0.1,0.1-0.1l0.1,0l-3.9-4.4l0,0.1c0,0,0,0,0,0l-0.1,0.2
				l3.8,4.3l-2.1,3.1l0.1,0.1c0.1,0,0.1,0.1,0.1,0.2c0,0.1-0.1,0.1-0.1,0.1c0,0,0,0-0.1,0l-0.1,0v7.4c0-0.1,0.1-0.2,0.2-0.2
				c0.1,0,0.2,0.1,0.2,0.2v-7.5L16.1,12.6z"/>
		</g>
	</g>
	<g>
		<g>
			<path class="st2" d="M9.2,13.4c-0.1,0-0.1-0.1-0.1-0.2L5.6,20l-0.1,0.8l0,0l3.8-7.3L9.2,13.4z"/>
		</g>
	</g>
	<g>
		<g>
			<path class="st2" d="M7.1,7l0,0.2l4.8,0.8l-2.8,5.3c0-0.1,0.1-0.1,0.2-0.1l0.1,0.1l2.7-5.1l0.1-0.2c0,0,0,0,0,0l0-0.1l3.4-6.9
				l-0.2-0.2c-0.1-0.1,0-0.2,0-0.2c0,0,0,0,0,0c0,0,0,0,0,0L6.9,6.9c0,0,0,0,0,0c0,0,0.1,0,0.1,0C7.1,6.8,7.1,6.9,7.1,7z M15.2,1.1
				L12,7.6L7.3,6.9L15.2,1.1z"/>
		</g>
	</g>
	<g>
		<g>
			<path class="st2" d="M15.7,0.4C15.7,0.4,15.7,0.4,15.7,0.4C15.7,0.4,15.7,0.4,15.7,0.4C15.7,0.5,15.7,0.4,15.7,0.4z"/>
		</g>
	</g>
	<g>
		<g>
			<path class="st2" d="M25.3,20.3C25.4,20.3,25.4,20.3,25.3,20.3C25.4,20.3,25.3,20.3,25.3,20.3C25.3,20.4,25.3,20.4,25.3,20.3z"/>
		</g>
	</g>
	<g>
		<g>
			<path class="st2" d="M15.5,0.7l0.2,0.2l7.5,8.8l-6.9,2.6l-0.1,0c-0.1,0-0.1,0.1-0.1,0.1c0,0.1,0,0.1,0.1,0.1l0.1,0.1l8.9,7.6
				l0.1-0.1L25,19.8l-4.4-3.8l0,0.1c0,0.1-0.1,0.1-0.2,0.1c-0.1,0-0.1-0.1-0.1-0.2l0.1-0.2l-4-3.4l6.7-2.5l0.2-0.3
				c0-0.1,0.1-0.1,0.2-0.1c0,0,0.1,0,0.1,0.1c0,0,0,0,0,0l-7.8-9.1c0,0,0,0,0,0c0,0,0,0,0,0c0,0,0,0,0,0c0,0,0,0,0,0c0,0,0,0,0,0
				c0,0,0,0,0,0c0,0,0,0,0,0c0,0,0,0,0,0C15.4,0.5,15.4,0.6,15.5,0.7z"/>
		</g>
	</g>
	<g>
		<g>
			<path class="st2" d="M23.5,9.7C23.5,9.7,23.5,9.7,23.5,9.7C23.5,9.6,23.5,9.6,23.5,9.7c-0.1-0.1-0.1-0.1-0.1-0.1
				c-0.1,0-0.1,0-0.2,0.1L23.1,10l-2.7,5.9L20.3,16c0,0.1,0,0.2,0.1,0.2c0.1,0,0.2,0,0.2-0.1l0-0.1l2.7-5.9l1.7,9.6l0.1,0.3L25,20.2
				l-11,8.3v-5.4c0-0.1-0.1-0.2-0.2-0.2c-0.1,0-0.2,0.1-0.2,0.2v5.3l0.3,0.2c0.1,0.1,0.1,0.2,0,0.2c0,0,0,0,0,0c0,0,0,0,0,0
				l11.4-8.6c0,0,0,0,0,0c0,0,0,0,0,0c0,0,0,0,0,0c0,0,0,0,0-0.1c0,0,0,0,0,0L23.5,9.7C23.5,9.7,23.5,9.7,23.5,9.7z"/>
		</g>
	</g>
	<g>
		<g>
			<path class="st2" d="M13.9,28.8l-0.3-0.2l-8.2-7.8l0,0L5.6,20L7.1,7.2l0-0.2c0-0.1-0.1-0.2-0.1-0.2c0,0-0.1,0-0.1,0
				c0,0,0,0,0,0.1c0,0,0,0,0,0c0,0,0,0,0,0L5.2,20.8c0,0,0,0,0,0c0,0,0,0,0,0.1c0,0,0,0,0,0c0,0,0,0,0,0c0,0,0,0,0,0l8.5,8.1
				c0,0,0,0,0,0c0,0,0,0,0,0c0,0,0,0,0.1,0c0,0,0,0,0.1,0c0,0,0,0,0,0c0,0,0,0,0,0C14,28.9,14,28.8,13.9,28.8z"/>
		</g>
	</g>
	<g>
		<g>
			<path class="st2" d="M9.2,13.4l0.1,0.1l4.4,2.3l0.1,0c0,0,0,0,0.1,0c0.1,0,0.1,0,0.1-0.1c0-0.1,0-0.2-0.1-0.2l-0.1-0.1l-4.3-2.3
				l-0.1-0.1c-0.1,0-0.2,0-0.2,0.1C9.1,13.3,9.1,13.4,9.2,13.4z"/>
		</g>
	</g>
	<g>
		<g>
			<path class="st2" d="M13.9,29C13.9,29,13.9,29.1,13.9,29C13.9,29.1,13.9,29,13.9,29z"/>
		</g>
	</g>
	<g>
		<g>
			<path class="st2" d="M13.8,29C13.8,29,13.8,29,13.8,29C13.8,29,13.8,29,13.8,29C13.8,29,13.8,29,13.8,29z"/>
		</g>
	</g>
</g>
</svg>
