<?xml version="1.0" encoding="utf-8"?>
<!-- Generator: Adobe Illustrator 21.0.0, SVG Export Plug-In . SVG Version: 6.00 Build 0)  -->
<svg version="1.1" id="Layer_1" xmlns="http://www.w3.org/2000/svg" xmlns:xlink="http://www.w3.org/1999/xlink" x="0px" y="0px"
	 viewBox="0 0 379 190.8" style="enable-background:new 0 0 379 190.8;" xml:space="preserve">
<style type="text/css">
	.st0{fill:#FFFFFF;}
</style>
<g>
	<ellipse class="st0" cx="241.8" cy="9.1" rx="7.9" ry="6.6"/>
	<ellipse class="st0" cx="263.7" cy="9.1" rx="7.9" ry="6.6"/>
	<ellipse class="st0" cx="285.7" cy="9.1" rx="7.9" ry="6.6"/>
	<ellipse class="st0" cx="307.6" cy="9.1" rx="7.9" ry="6.6"/>
	<ellipse class="st0" cx="256.3" cy="28.8" rx="7.9" ry="6.6"/>
	<path class="st0" d="M270.3,28.8c0-3.7,3.5-6.6,7.9-6.6s7.9,3,7.9,6.6s-3.5,6.6-7.9,6.6C273.9,35.4,270.3,32.5,270.3,28.8z"/>
	<ellipse class="st0" cx="300.2" cy="28.8" rx="7.9" ry="6.6"/>
	<ellipse class="st0" cx="322.1" cy="28.8" rx="7.9" ry="6.6"/>
	<ellipse class="st0" cx="270.8" cy="48.5" rx="7.9" ry="6.6"/>
	<ellipse class="st0" cx="292.7" cy="48.5" rx="7.9" ry="6.6"/>
	<path class="st0" d="M306.8,48.5c0-3.7,3.5-6.6,7.9-6.6s7.9,3,7.9,6.6c0,3.7-3.5,6.6-7.9,6.6S306.8,52.2,306.8,48.5z"/>
	<ellipse class="st0" cx="336.6" cy="48.5" rx="7.9" ry="6.6"/>
	<ellipse class="st0" cx="307.2" cy="68.2" rx="7.9" ry="6.6"/>
	<ellipse class="st0" cx="329.1" cy="68.2" rx="7.9" ry="6.6"/>
	<ellipse class="st0" cx="351.1" cy="68.2" rx="7.9" ry="6.6"/>
	<ellipse class="st0" cx="299.7" cy="87.9" rx="7.9" ry="6.6"/>
	<ellipse class="st0" cx="321.7" cy="87.9" rx="7.9" ry="6.6"/>
	<path class="st0" d="M335.7,87.9c0-3.7,3.5-6.6,7.9-6.6s7.9,3,7.9,6.6c0,3.7-3.5,6.6-7.9,6.6C339.3,94.5,335.7,91.6,335.7,87.9z"/>
	<ellipse class="st0" cx="365.6" cy="87.9" rx="7.9" ry="6.6"/>
	<ellipse class="st0" cx="241.8" cy="166.7" rx="7.9" ry="6.6"/>
	<ellipse class="st0" cx="263.7" cy="166.7" rx="7.9" ry="6.6"/>
	<ellipse class="st0" cx="285.7" cy="166.7" rx="7.9" ry="6.6"/>
	<ellipse class="st0" cx="307.6" cy="166.7" rx="7.9" ry="6.6"/>
	<ellipse class="st0" cx="256.3" cy="147" rx="7.9" ry="6.6"/>
	<path class="st0" d="M270.3,147c0,3.7,3.5,6.6,7.9,6.6s7.9-3,7.9-6.6c0-3.7-3.5-6.6-7.9-6.6C273.9,140.4,270.3,143.4,270.3,147z"/>
	<ellipse class="st0" cx="300.2" cy="147" rx="7.9" ry="6.6"/>
	<ellipse class="st0" cx="322.1" cy="147" rx="7.9" ry="6.6"/>
	<ellipse class="st0" cx="292.7" cy="127.3" rx="7.9" ry="6.6"/>
	<path class="st0" d="M306.8,127.3c0,3.7,3.5,6.6,7.9,6.6s7.9-3,7.9-6.6c0-3.7-3.5-6.6-7.9-6.6C310.3,120.7,306.8,123.7,306.8,127.3
		z"/>
	<ellipse class="st0" cx="336.6" cy="127.3" rx="7.9" ry="6.6"/>
	<ellipse class="st0" cx="307.2" cy="107.6" rx="7.9" ry="6.6"/>
	<ellipse class="st0" cx="329.1" cy="107.6" rx="7.9" ry="6.6"/>
	<ellipse class="st0" cx="351.1" cy="107.6" rx="7.9" ry="6.6"/>
	<path class="st0" d="M292.2,63.5h-0.3l0,0h-36c-0.7,0-2.2,0.2-3,0.3c-11.1,1.6-20.7,11-22,21.9c-0.2,1.8-0.2,3.6,0.1,5.3
		c1,8.1,7.3,14,15.9,14.4c0.8,0.1,1.6,0.1,2.5,0.1l0,0H263l0,0c0.5,0,0.9,0,1.4,0c3.4,0.2,6,2.5,6.4,5.8c0.1,0.7,0.1,1.4,0,2.1
		c-0.5,4.7-5.5,8.6-10.3,8.9c-0.3,0-0.7,0.1-1,0.1h-35.1l-2.8,9c0,0,0,0,0,0.1l-0.6,1.8l-0.3,0.8l0,0l-0.1,0.4
		c-0.1,0.2,0,0.3,0.2,0.3h3l0,0h37.1c0.7,0,2.2-0.2,2.9-0.3c11.1-1.6,20.7-11,22-21.9c0.2-1.8,0.2-3.6-0.1-5.3
		c-1-8.1-7.4-14-15.9-14.4c-0.9-0.1-1.8-0.1-2.8-0.1l0,0h-13.2l0,0c-0.5,0-0.9,0-1.4,0c-3.4-0.2-6-2.5-6.4-5.8
		c-0.1-0.7-0.1-1.4,0-2.1c0.5-4.7,4.8-8.3,9.6-8.6c0.3,0,0.7,0,1-0.1h31.9l3.6-11.7l0,0l0.1-0.2l0.1-0.4l0,0v-0.1
		C292.5,63.6,292.4,63.5,292.2,63.5z"/>
	<path class="st0" d="M62.4,75.9H61c-0.2,0-0.5,0-0.6-0.2c-0.1-0.1-0.1-0.3-0.1-0.6l0,0l4.2-7.6c0.4-0.7,0.8-1.4,1.4-2
		c1.6-1.6,3.7-2.6,5.8-2.8l0,0c2.6-0.3,5.3-0.4,8-0.4l0,0h41l4.3-14l0.3-1c0.1-0.2,0-0.3-0.2-0.3H45.4l0,0
		c-5.5-0.1-11.1,0.2-16.5,0.8l0,0c-4.4,0.5-8.6,2.4-12,5.8c-1.2,1.2-2.2,2.6-3,4.1l-8,15v0.1c-0.4,1-0.3,2,0.3,2.6
		c0.6,0.7,1.9,0.8,2.8,0.8h34.9L29.6,123v0.2c-0.7,3.4,0.1,6,2.4,8.3c2.2,2.2,5,3.3,7.9,3.2h0.8h26l18.1-58.9H62.4V75.9z"/>
	<path class="st0" d="M214.3,99.4c-0.7-0.5-1.4-1-2.2-1.4c-0.4-0.2-0.8-0.4-1.2-0.6c5.1-3.3,9.1-7.7,10.3-13.6
		c0.4-1.8,0.5-4.1,0.2-5.8c-1-8.1-8.8-14-17.4-14.4c-0.9-0.1-2.8-0.1-2.8-0.1h-35.8c-4.6,0-5.2-0.2-7.7,2.6c-0.6,0.6-1,1.1-1,1.1
		l-53,56.2c0,0-0.4,0.3-0.7,0.3c-0.4,0-0.8-0.3-0.8-0.7l14.4-47h-15.3l-17,55.5l0,0l-0.9,3c-0.1,0.2,0,0.3,0.2,0.3h0.7h29l52.2-58.7
		h33.1c0,0,1.5,0,2,0.1c3.4,0.2,6,2.5,6.4,5.8c0.1,0.7,0.1,1.4,0,2.1c-0.5,4.6-6.9,8.6-11.7,8.9c-0.3,0-0.7,0.1-1,0.1h-8.9
		l-3.9,12.4h15.1l0,0c0.5,0,0.9,0,1.4,0c3.4,0.2,5.7,2.5,6.1,5.8c0.1,0.7,0.1,1.4,0,2.1c-0.5,4.7-5.5,8.6-10.3,8.9
		c-0.3,0-0.7,0.1-1,0.1H171l12.1-39.3h-16.6l-15.7,51l0,0l-0.1,0.3c-0.1,0.2,0,0.3,0.2,0.3h0.3l0,0h43.3c0.1,0,3,0,3.5,0
		c12.3-0.6,22.6-9.8,23.1-20.6c0.1-1.7-0.1-3.4-0.5-5C219.8,105.2,217.5,101.8,214.3,99.4z"/>
</g>
</svg>
