<?xml version="1.0" encoding="utf-8"?>
<!-- Generator: Adobe Illustrator 22.1.0, SVG Export Plug-In . SVG Version: 6.00 Build 0)  -->
<svg version="1.1" id="圖層_1" xmlns="http://www.w3.org/2000/svg" xmlns:xlink="http://www.w3.org/1999/xlink" x="0px" y="0px"
	 viewBox="0 0 256 256" style="enable-background:new 0 0 256 256;" xml:space="preserve">
<style type="text/css">
	.st0{fill:#333333;}
	.st1{opacity:0.3;enable-background:new    ;}
	.st2{fill:#FFFFFF;}
</style>
<g id="Layer_1">
	<g>
		
			<image style="overflow:visible;opacity:0.75;enable-background:new    ;" width="963" height="963" xlink:href="2C576351.png"  transform="matrix(0.2385 0 0 0.2385 22.786 19.6577)">
		</image>
		<g>
			<path class="st0" d="M128.5,21.7c58.5,0,105.8,47.4,105.8,105.8c0,58.5-47.4,105.8-105.8,105.8c-58.5,0-105.8-47.4-105.8-105.8
				C22.7,69,70.1,21.7,128.5,21.7z"/>
		</g>
	</g>
	<path class="st1" d="M102.9,160.8v8.7c0,4.8,5,8.7,11.3,8.7c2.5,0,4.8-0.6,6.7-1.7l56.7-36.4c5.5-4.3,5.5-11.2,0-15.5l-56.7-36.4
		c-1.9-1.1-4.2-1.7-6.7-1.7c-6.2,0-11.3,3.9-11.3,8.7v8.7C102.9,106.6,102.9,158.4,102.9,160.8z"/>
	<path class="st2" d="M99.9,155.8v8.7c0,4.8,5,8.7,11.3,8.7c2.5,0,4.8-0.6,6.7-1.7l56.7-36.4c5.5-4.3,5.5-11.2,0-15.5l-56.7-36.4
		c-1.9-1.1-4.2-1.7-6.7-1.7c-6.2,0-11.3,3.9-11.3,8.7v8.7C99.9,101.6,99.9,153.4,99.9,155.8z"/>
</g>
<g id="Layer_2">
	<path class="st1" d="M134,27.8c-57.7,0-104.5,46.8-104.5,104.5c0,34,16.2,64.2,41.3,83.2c-29-18.9-48.2-51.6-48.2-88.7
		C22.7,68.4,70.1,21,128.5,21c37.2,0,69.9,19.2,88.7,48.2C198.2,44.1,168,27.8,134,27.8z"/>
	<g>
		<g>
			<path class="st2" d="M128.5,10.5c-64.6,0-117,52.4-117,117c0,64.6,52.4,117,117,117c64.6,0,117-52.4,117-117
				C245.5,62.9,193.1,10.5,128.5,10.5z M128.5,231.2c-57.3,0-103.7-46.4-103.7-103.7c0-57.3,46.4-103.7,103.7-103.7
				c57.3,0,103.7,46.4,103.7,103.7C232.2,184.8,185.8,231.2,128.5,231.2z"/>
		</g>
	</g>
</g>
</svg>
