<?xml version="1.0" encoding="utf-8"?>
<!-- Generator: Adobe Illustrator 16.0.3, SVG Export Plug-In . SVG Version: 6.00 Build 0)  -->
<!DOCTYPE svg PUBLIC "-//W3C//DTD SVG 1.1//EN" "http://www.w3.org/Graphics/SVG/1.1/DTD/svg11.dtd">
<svg version="1.1" id="圖層_1" xmlns="http://www.w3.org/2000/svg" xmlns:xlink="http://www.w3.org/1999/xlink" x="0px" y="0px"
	 width="167.907px" height="135.625px" viewBox="0 0 167.907 135.625" enable-background="new 0 0 167.907 135.625"
	 xml:space="preserve">
<image overflow="visible" width="15" height="12" xlink:href="link.png"  transform="matrix(11.1875 0 0 11.1875 0.0474 0.6875)">
</image>
<rect x="122.407" y="78.875" fill="#FFFFFF" width="12" height="12"/>
<path fill="#FFFFFF" d="M134.407,90.875v44.75H0v-101.5h44.407v11.69c-0.385,0.033-0.764,0.08-1.141,0.143
	c0.377-0.063,0.756-0.109,1.141-0.143v0.31H12v77.5h110.406v-32.75H134.407z M44.407,0v34.125h12V12h99.5v66.875h-21.5v12h33.5V0
	H44.407z"/>
<path fill="#FFFFFF" d="M51.005,46.125h5.401v-12h-12v11.69C46.528,45.63,48.756,45.859,51.005,46.125z"/>
<path fill="#FFFFFF" d="M61.67,46.125c0.199-0.055,0.399-0.102,0.596-0.167C62.07,46.023,61.87,46.07,61.67,46.125h60.736v32.75h12
	v-44.75h-78v12H61.67z"/>
<rect x="55.955" y="56.646" fill="#FFFFFF" width="44.333" height="11.167"/>
<rect x="89.621" y="62.229" fill="#FFFFFF" width="10.667" height="38.751"/>
<rect x="44.288" y="101.146" fill="#FFFFFF" width="11.5" height="11.5"/>
<rect x="55.788" y="89.813" fill="#FFFFFF" width="11.5" height="11.5"/>
<rect x="67.288" y="78.313" fill="#FFFFFF" width="11.5" height="11.5"/>
<rect x="78.204" y="67.813" fill="#FFFFFF" width="11.5" height="11.5"/>
</svg>
