<?xml version="1.0" encoding="utf-8"?>
<!-- Generator: Adobe Illustrator 20.1.0, SVG Export Plug-In . SVG Version: 6.00 Build 0)  -->
<svg version="1.1" id="圖層_1" xmlns="http://www.w3.org/2000/svg" xmlns:xlink="http://www.w3.org/1999/xlink" x="0px" y="0px"
	 viewBox="0 0 225 144" style="enable-background:new 0 0 225 144;" xml:space="preserve">
<style type="text/css">
	.st0{fill:#FFFFFF;fill-opacity:0.6;stroke:#000000;stroke-miterlimit:10;stroke-opacity:0.2;}
</style>
<path class="st0" d="M137.1,88.7c-11.8,0-22.9-6.4-29.3-16.6c-11.7-1-21-10.8-21-22.7c0-10.2,6.9-19,16.3-21.9
	c3-10.8,13.1-18.8,24.7-18.8c3.9,0,7.8,0.9,11.2,2.6c6.9-6.1,15.7-9.6,25.1-9.6c12.8,0,24.6,6.5,31.5,17.1
	c15.4,1.7,27.9,14.8,27.9,30.4c0,16.8-14,30.4-31,30.4c-1.6,0-3.3-0.1-4.8-0.4c-4.8,4.5-11,7.2-17.8,7.2c-4.8,0-9.5-1.3-13.4-3.9
	C150.4,86.6,143.8,88.7,137.1,88.7 M109.6,65.9c0.6,0,1.3,0,1.9-0.1c4.5,9.6,14.4,16.7,25.7,16.7c7.3,0,14-3.1,18.9-7.7
	c3.6,3.3,8.3,5.5,13.6,5.5c6.4,0,12-3,15.6-7.8c2.2,0.7,4.5,1,7.1,1c13.4,0,24.9-10.8,24.9-24.3c0-13.4-11.5-24.3-24.9-24.3
	c-0.1,0-0.2,0-0.3,0C186.9,14.9,176.4,8,164.4,8c-9.7,0-18.4,4.5-24.1,11.4C137,16.6,132.7,15,128,15c-10.2,0-18.6,7.9-19.4,17.9
	c-8.6,0.6-15.4,7.7-15.4,16.5C93,58.5,100.4,65.9,109.6,65.9"/>
<path class="st0" d="M152.3,43.4v16c0,1.2-1,2.2-2.2,2.2h-5V49.5v-6L152.3,43.4L152.3,43.4z"/>
<path class="st0" d="M148.7,32.9c2.5,0,4.5,2,4.5,4.5s-2,4.5-4.5,4.5s-4.5-2-4.5-4.5S146.3,32.9,148.7,32.9"/>
<path class="st0" d="M118.4,32.9c2.5,0,4.5,2,4.5,4.5s-2,4.5-4.5,4.5s-4.5-2-4.5-4.5S115.9,32.9,118.4,32.9"/>
<path class="st0" d="M137.8,32.9l-6.1,22.8c3.6,0.4,7.2,0.1,10.6-0.9v7c-6.5,1.7-13.7,1.5-19.8-1.2l7.4-27.6
	C129.8,32.9,137.8,32.9,137.8,32.9z"/>
<path class="st0" d="M178.8,43.4h5.3c1.1,0,2.5,0.9,2.8,2l3.6,9.5l4.4-11.5h7.2l-6,16c-0.5,1.2-1.8,2.2-3,2.2h-7.5L178.8,43.4z"/>
<path class="st0" d="M176.8,43.4v4.7c0,1.1-0.9,2-2,2h-5v9.2c0,1.2-1,2.2-2.2,2.2h-5V50.1h-7.1v-6.7
	C155.4,43.4,176.8,43.4,176.8,43.4z"/>
</svg>
