<?xml version="1.0" encoding="utf-8"?>
<!-- Generator: Adobe Illustrator 19.2.1, SVG Export Plug-In . SVG Version: 6.00 Build 0)  -->
<svg version="1.1" id="圖層_1" xmlns="http://www.w3.org/2000/svg" xmlns:xlink="http://www.w3.org/1999/xlink" x="0px" y="0px"
	 viewBox="0 0 151 90.6" style="enable-background:new 0 0 151 90.6;" xml:space="preserve">
<style type="text/css">
	.st0{fill-rule:evenodd;clip-rule:evenodd;fill:#5D0C75;}
	.st1{fill-rule:evenodd;clip-rule:evenodd;fill:#FFFFFF;}
</style>
<title>litv_logo</title>
<path class="st0" d="M20,70.8c0.8,0,1.6,0,2.3-0.1C27.8,82.4,39.8,91,53.5,91c8.9,0,16.9-3.8,23-9.4c4.3,4.1,10.1,6.6,16.5,6.6
	c7.8,0,14.7-3.7,19-9.5c2.7,0.8,5.6,1.3,8.6,1.3c16.3,0,30.3-13.2,30.3-29.5c0-16.3-14-29.5-30.3-29.5c-0.1,0-0.3,0-0.4,0
	c-6.3-12.2-19-20.6-33.8-20.6c-11.8,0-22.4,5.4-29.3,13.8C53,10.9,47.9,9,42.2,9c-12.4,0-22.6,9.6-23.6,21.7
	C8.2,31.4-0.1,40.1-0.1,50.7C-0.1,61.8,8.9,70.8,20,70.8"/>
<path class="st1" d="M72,43.5v19.4c0,1.5-1.2,2.7-2.7,2.7h-6.1V50.9v-7.3H72z"/>
<path class="st1" d="M67.6,30.7c3,0,5.4,2.4,5.4,5.4c0,3-2.4,5.4-5.4,5.4c-3,0-5.4-2.4-5.4-5.4C62.2,33.1,64.6,30.7,67.6,30.7"/>
<path class="st1" d="M30.7,30.7c3,0,5.4,2.4,5.4,5.4c0,3-2.4,5.4-5.4,5.4s-5.4-2.4-5.4-5.4C25.3,33.1,27.7,30.7,30.7,30.7"/>
<path class="st1" d="M54.2,30.7l-7.4,27.6c4.3,0.5,8.7,0.2,12.8-1.1v8.5c-7.9,2.1-16.7,1.9-24.1-1.4l9-33.6H54.2z"/>
<path class="st1" d="M104.1,43.5h6.5c1.4,0,2.9,1.1,3.5,2.5l4.3,11.5l5.3-14h8.8l-7.3,19.4c-0.6,1.5-2.2,2.7-3.7,2.7h-9L104.1,43.5z
	"/>
<path class="st1" d="M101.7,43.5v5.7c0,1.4-1.1,2.5-2.5,2.5H93v11.2c0,1.5-1.2,2.7-2.7,2.7h-6.1V51.7h-8.7v-8.2H101.7z"/>
</svg>
