<?xml version="1.0" encoding="utf-8"?>
<!-- Generator: Adobe Illustrator 20.0.0, SVG Export Plug-In . SVG Version: 6.00 Build 0)  -->
<svg version="1.1" xmlns="http://www.w3.org/2000/svg" xmlns:xlink="http://www.w3.org/1999/xlink" x="0px" y="0px"
	 viewBox="0 0 88 88" style="enable-background:new 0 0 88 88;" xml:space="preserve">
<style type="text/css">
	.st0{opacity:0.7;fill:#FFFFFF;enable-background:new    ;}
	.st1{display:none;opacity:0.5;fill:#FFFFFF;enable-background:new    ;}
	.st2{enable-background:new    ;}
</style>
<g id="圖層_1">
	<path class="st0" d="M12.7,77.4c4,3.6,8.7,6.3,14,8c5.4,1.7,11.2,2.6,17.5,2.6c6.2,0,11.9-0.9,17.3-2.6c2.2-0.7,4.2-1.5,6.1-2.5
		c2.9-1.5,5.5-3.3,7.9-5.5c4-3.6,7.1-8.2,9.3-13.7c2.2-5.5,3.3-12.1,3.3-19.7S87,29.9,84.8,24.3c-2.2-5.5-5.3-10.1-9.3-13.7
		s-8.7-6.3-14-8C56.1,0.9,50.3,0,44.2,0c-6.3,0-12.1,0.9-17.5,2.6c-1.7,0.6-3.4,1.2-5,2c-3.3,1.6-6.3,3.6-9,6
		c-4,3.6-7.1,8.2-9.3,13.7C1.1,29.9,0,36.4,0,44s1.1,14.1,3.3,19.7C5.6,69.2,8.7,73.8,12.7,77.4z M36.7,59L36.7,59
		c-1,0-1.7-0.7-1.7-1.7V30.7c0-0.9,0.7-1.7,1.7-1.7h0.1c0.4-0.1,0.8,0,1.2,0.2l22.6,13.1c0.8,0.5,1.1,1.5,0.6,2.3c0,0,0,0.1-0.1,0.1
		c-0.1,0.3-0.3,0.5-0.6,0.7L38,58.8C37.6,59,37.1,59.1,36.7,59L36.7,59z"/>
	<path class="st1" d="M36.7,59L36.7,59c-1,0-1.7-0.7-1.7-1.7V30.7c0-0.9,0.7-1.7,1.7-1.7h0.1c0.4-0.1,0.8,0,1.2,0.2l22.6,13.1
		c0.8,0.5,1.1,1.5,0.6,2.3c0,0,0,0.1-0.1,0.1c-0.1,0.3-0.3,0.5-0.6,0.7L38,58.8C37.6,59,37.1,59.1,36.7,59L36.7,59z"/>
</g>
<g id="圖層_2">
	<path class="st2" d="M36.7,59L36.7,59c-1,0-1.7-0.7-1.7-1.7V30.7c0-0.9,0.7-1.7,1.7-1.7h0.1c0.4-0.1,0.8,0,1.2,0.2l22.6,13.1
		c0.8,0.5,1.1,1.5,0.6,2.3c0,0,0,0.1-0.1,0.1c-0.1,0.3-0.3,0.5-0.6,0.7L38,58.8C37.6,59,37.1,59.1,36.7,59L36.7,59z"/>
</g>
</svg>
