<svg xmlns="http://www.w3.org/2000/svg" xmlns:xlink="http://www.w3.org/1999/xlink" version="1.1" enable-background="new 0 0 1000 1000" xml:space="preserve" width="310.631591796875" height="308.2631530761719"><rect id="backgroundrect" width="100%" height="100%" x="0" y="0" fill="none" stroke="none" class=""/>
<g class="currentLayer"><title>Layer 1</title><g id="svg_1" class="" fill="#ffffff" fill-opacity="1"><path d="M155.26317277274885,300.5263455454977 C75.16090892949019,300.5263455454977 10,235.3654366160075 10,155.26317277274885 C10,75.16090892949019 75.16090892949019,10 155.26317277274885,10 c80.10226384325865,0 145.26317277274885,65.16090892949019 145.26317277274885,145.26317277274885 C300.5263455454977,235.3654366160075 235.3654366160075,300.5263455454977 155.26317277274885,300.5263455454977 zM155.26317277274885,23.84446973160688 C82.77981411369356,23.84446973160688 23.84446973160688,82.77981411369356 23.84446973160688,155.26317277274885 c0,72.48335865905528 58.9649899275505,131.41870304114198 131.41870304114198,131.41870304114198 S286.6818758138908,227.74653143180413 286.6818758138908,155.26317277274885 C286.6818758138908,82.77981411369356 227.74653143180413,23.84446973160688 155.26317277274885,23.84446973160688 z" id="svg_2" fill="#ffffff" fill-opacity="1"/><path d="M110.29088030412436,72.25564547403522 l124.51129094807044,83.00752729871363 l-124.51129094807044,83.00752729871363 V72.25564547403522 z" id="svg_3" fill="#ffffff" fill-opacity="1"/></g></g></svg>