<svg xmlns="http://www.w3.org/2000/svg" width="20" height="20"><g fill="none" fill-rule="evenodd"><path d="M0 0h20v20H0z" opacity=".3"/><path fill="#979797" d="M8.373 10.272L3.269 5.168a.963.963 0 0 1 .692-1.629c.26 0 .495.102.668.269l5.769 5.769a.96.96 0 0 1 .294.692.962.962 0 0 1-.294.696l-5.769 5.769a.962.962 0 1 1-1.294-1.425l5.038-5.037z"/><path fill="#979797" d="M11.627 10.272l5.104-5.104a.963.963 0 0 0-.692-1.629.957.957 0 0 0-.668.269L9.602 9.577a.96.96 0 0 0-.294.692c0 .276.113.521.294.696l5.769 5.769a.962.962 0 1 0 1.294-1.425l-5.038-5.037z"/></g></svg>