<svg xmlns="http://www.w3.org/2000/svg" width="25" height="25"><g fill="none" fill-rule="evenodd" transform="translate(-244 -859)"><path fill="#FFF" d="M0 0h375v1750H0z"/><rect width="346" height="215" x="14.5" y="767.5" stroke="#E0E0E0" rx="6"/><g fill="#33A6B8" fill-rule="nonzero"><path d="M245 860v23h18a5 5 0 0 0 5-5v-13a5 5 0 0 0-5-5h-18zm-1-1h19a6 6 0 0 1 6 6v13a6 6 0 0 1-6 6h-19v-25z"/><path d="M252.03 870.97a.75.75 0 0 0-1.06 1.06l4.166 4.167a.75.75 0 0 0 1.061 0l6.667-6.667a.75.75 0 0 0-1.061-1.06l-6.136 6.136-3.637-3.636z"/></g></g></svg>