<svg height="20" viewBox="0 0 20 20" width="20" xmlns="http://www.w3.org/2000/svg"><g fill="#4a4a4a" fill-rule="evenodd"><path d="m10 19a9 9 0 1 1 0-18 9 9 0 0 1 0 18zm0-1.169a7.831 7.831 0 1 0 0-15.661 7.831 7.831 0 0 0 0 15.662z" fill-rule="nonzero"/><path d="m10.013 4c1.1 0 1.98.258 2.658.804.66.53.999 1.259.999 2.169 0 .743-.22 1.365-.627 1.85-.152.167-.626.562-1.439 1.183-.304.243-.542.501-.694.774-.186.303-.27.637-.27 1.016v.258h-1.813v-.258c0-.56.101-1.046.321-1.44.237-.425.88-1.047 1.93-1.881l.288-.289c.305-.349.457-.713.457-1.107 0-.334-.067-.62-.197-.862a1.495 1.495 0 0 0 -.294-.382c-.338-.303-.812-.455-1.422-.455-.762 0-1.32.213-1.66.637-.304.364-.456.895-.456 1.563h-1.794c0-1.108.356-1.972 1.084-2.61.71-.651 1.693-.97 2.929-.97zm-.251 9c.359 0 .665.103.895.315.25.215.38.502.38.84 0 .333-.126.617-.388.857a1.403 1.403 0 0 1 -.887.308c-.355 0-.656-.114-.87-.327a1.07 1.07 0 0 1 -.392-.839c0-.344.134-.633.376-.824.227-.225.525-.33.886-.33z"/></g></svg>