<svg height="26" viewBox="0 0 20 26" width="20" xmlns="http://www.w3.org/2000/svg"><g fill="none" fill-rule="evenodd"><path d="m5.57496307 19.5061243c-.03827615-.1085803-.05914006-.2256851-.05914006-.3477799 0-.8975082-.99735046-1.8936626-1.62973605-2.6330735-.0503753-.0589009-.126067-.1409435-.21793602-.2406524-1.90720056-1.7104303-3.10576909-4.1853975-3.10576909-6.93836359 0-5.08191376 4.08428212-9.21650931 9.17094248-9.34326045.04709266-.00264857.0942691-.00299446.14152689-.00299446.01652091 0 .03303188.00004227.04953281.00012672.01650311-.00008444.03301459-.00012672.04953601-.00012672.04725776 0 .09443426.00034589.14152686.00103526 5.0866604.12871034 9.1709425 4.26330589 9.1709425 9.34521965 0 2.75296609-1.1985685 5.22793329-3.1057691 6.93836359-.091869.0997089-.1675607.1817515-.217936.2406524-.6323856.7394109-1.629736 1.7355653-1.629736 2.6330735 0 .1220948-.020864.2391996-.0591401.3477799-.2776115 1.018712-2.0004743 1.7171848-4.1583613 1.7911307v.0065047c-.0640122 0-.1277075-.0005412-.19106127-.0016161-.06335376.0010749-.1270491.0016161-.1910613.0016161v-.0065047c-2.15788695-.0739459-3.88074975-.7724187-4.15836126-1.7911307zm.39476481 4.0639506c-.31438246-.3017176-.33038191-.807282-.03573576-1.1292097.29464615-.3219276.78836139-.338311 1.10274385-.0365934.32953065.3162556 1.50894839.6039531 2.88218357.6039531 1.41132246 0 2.58584376-.2815363 2.87915996-.5839866.3036137-.3130684.7975851-.314826 1.103316-.0039255.3057309.3109004.3074473.8167272.0038336 1.1297956-.6705221.6914026-2.1911363 1.0558985-3.98630956 1.0558985-1.73492777 0-3.25652049-.3711648-3.94919166-1.035932z" fill="#fff" fill-rule="nonzero" transform="translate(.038 .265)"/><path d="m2.43974194 8.68793951c-.57563675 0-1.04168271.4766111-1.04168271 1.04854442 0 .55829917.45232253 1.04854447 1.04168271 1.04854447s1.05540614-.4902063 1.05540614-1.04854447c0-.57193332-.47969074-1.04854442-1.05540614-1.04854442zm.24724272-8.68793951c-1.8413444 0-2.68698466 1.1998581-2.68698466 2.00978921 0 .58497654.45007423.85493923.81836659.85493923.73650646 0 .43645697-1.154893 1.827688-1.154893.68199824 0 1.22758901.32998787 1.22758901 1.01991166 0 .80997413-.76381925 1.27490032-1.21393261 1.69486141-.3955269.37495297-.913844.98992058-.913844 2.27979493 0 .77989701.19091568 1.00489461.75016285 1.00489461.66834185 0 .80471019-.32994484.80471019-.61492459 0-.77994003.01369553-1.2298922.76385839-1.87480786.36825323-.31497082 1.52763851-1.33488247 1.52763851-2.74476415 0-1.40988167-1.15938528-2.47480145-2.90525227-2.47480145z" fill="#ffb408" transform="translate(7.259 5.822)"/></g></svg>