<!DOCTYPE svg PUBLIC "-//W3C//DTD SVG 20010904//EN" "http://www.w3.org/TR/2001/REC-SVG-20010904/DTD/svg10.dtd">
<svg version="1.0" xmlns="http://www.w3.org/2000/svg" width="600px" height="600px" viewBox="0 0 6000 6000" preserveAspectRatio="xMidYMid meet">
<g id="layer1" fill="#7b7b7b" stroke="none">
 <path d="M1736 3991 c-10 -15 13 -63 27 -59 21 7 20 46 -2 57 -12 7 -22 7 -25 2z"/>
 <path d="M3077 3864 c-11 -11 -8 -82 3 -89 12 -8 22 14 24 56 1 31 -13 47 -27 33z"/>
 <path d="M3775 3400 c-7 -11 35 -31 49 -22 5 3 1 11 -9 19 -22 16 -32 16 -40 3z"/>
 <path d="M2845 2831 c-7 -12 12 -24 25 -16 11 7 4 25 -10 25 -5 0 -11 -4 -15 -9z"/>
 </g>
<g id="layer2" fill="#959595" stroke="none">
 <path d="M2297 5249 c-16 -10 -16 -12 4 -40 24 -34 42 -29 33 9 -9 37 -16 43 -37 31z"/>
 <path d="M1554 5016 c-4 -10 -2 -22 4 -28 8 -8 13 -7 18 6 4 10 2 22 -4 28 -8 8 -13 7 -18 -6z"/>
 <path d="M1564 4926 c-4 -10 -2 -22 4 -28 8 -8 13 -7 18 6 4 10 2 22 -4 28 -8 8 -13 7 -18 -6z"/>
 <path d="M3994 4176 c-4 -10 -2 -22 4 -28 8 -8 13 -7 18 6 4 10 2 22 -4 28 -8 8 -13 7 -18 -6z"/>
 <path d="M1714 4160 c-8 -8 -9 -24 -4 -48 5 -20 11 -55 15 -77 6 -45 26 -70 48 -62 20 7 38 173 21 190 -4 3 -16 0 -27 -8 -18 -12 -22 -12 -31 1 -8 11 -14 12 -22 4z"/>
 <path d="M3074 4041 c-2 -2 -4 -44 -4 -92 0 -78 2 -90 20 -99 15 -8 21 -8 24 2 2 7 9 29 16 48 19 59 28 130 17 137 -12 7 -67 10 -73 4z"/>
 <path d="M3074 3776 c-4 -10 -2 -22 4 -28 8 -8 13 -7 18 6 4 10 2 22 -4 28 -8 8 -13 7 -18 -6z"/>
 <path d="M3777 3414 c-10 -10 13 -46 26 -41 7 2 20 0 29 -4 10 -5 19 -5 23 0 3 6 -4 15 -15 21 -11 6 -20 8 -20 4 0 -4 -8 0 -18 9 -10 10 -21 14 -25 11z"/>
 <path d="M4069 3336 c-2 -3 -16 -6 -31 -8 -46 -6 -43 -17 13 -42 29 -14 57 -22 61 -18 3 4 8 21 10 37 3 26 -1 30 -22 33 -14 2 -28 1 -31 -2z"/>
 <path d="M1131 3196 l-24 -25 27 -11 c43 -16 60 6 33 44 -12 16 -14 15 -36 -8z"/>
 <path d="M2915 2869 c-50 -24 -69 -47 -54 -65 10 -12 47 -19 154 -30 22 -2 67 -8 100 -13 85 -13 179 -17 185 -8 9 14 -161 79 -215 81 -5 1 -10 -8 -10 -19 0 -15 -7 -20 -30 -21 -32 0 -75 14 -75 26 0 11 27 31 36 28 5 -2 10 0 12 5 1 4 -1 8 -5 8 -5 1 -17 8 -28 15 -24 17 -21 17 -70 -7z"/>
 <path d="M4155 2710 c-17 -19 -17 -20 6 -29 30 -11 38 -6 32 19 -8 29 -18 32 -38 10z"/>
 <path d="M1077 2443 c-4 -3 3 -19 15 -35 l21 -30 20 21 c13 13 18 24 12 30 -14 12 -61 22 -68 14z"/>
 <path d="M3231 2026 c-9 -10 -9 -16 -1 -21 17 -10 37 12 24 25 -8 8 -15 6 -23 -4z"/>
 </g>
<g id="layer3" fill="#b5b5b5" stroke="none">
 <path d="M2455 5400 c-3 -6 0 -12 7 -15 26 -10 453 0 451 10 -4 14 -449 19 -458 5z"/>
 <path d="M1896 5381 c-4 -6 -11 -9 -16 -6 -5 3 -21 0 -36 -5 -19 -8 -24 -14 -16 -22 7 -7 18 -6 39 3 21 11 52 12 128 7 55 -4 110 -9 121 -11 35 -5 131 -70 149 -100 9 -15 21 -24 27 -21 6 4 8 3 5 -3 -7 -11 21 -55 31 -49 4 2 8 30 10 63 2 38 10 67 22 85 26 36 11 43 -29 13 -36 -26 -60 -25 -129 5 -24 11 -46 19 -50 18 -4 -1 -20 5 -37 12 -40 17 -210 26 -219 11z"/>
 <path d="M3705 5361 c-7 -12 12 -24 25 -16 11 7 4 25 -10 25 -5 0 -11 -4 -15 -9z"/>
 <path d="M3785 5361 c-7 -12 12 -24 25 -16 11 7 4 25 -10 25 -5 0 -11 -4 -15 -9z"/>
 <path d="M1762 5338 c-18 -11 -29 -24 -26 -29 5 -9 24 -2 58 24 31 23 3 28 -32 5z"/>
 <path d="M3846 5351 c-3 -5 0 -14 7 -20 21 -17 308 -161 352 -176 61 -22 64 -1 3 31 -88 46 -348 174 -353 174 -2 0 -6 -4 -9 -9z"/>
 <path d="M1240 5329 c-19 -5 -66 -14 -105 -20 -78 -12 -141 -29 -199 -54 -73 -31 -22 -34 99 -5 66 16 157 37 203 47 46 10 83 23 83 28 0 13 -38 15 -81 4z"/>
 <path d="M1657 5244 c-45 -51 -84 -59 -110 -21 -37 54 -37 -25 0 -173 3 -14 5 -43 5 -64 -1 -22 2 -44 7 -50 5 -6 9 -22 8 -36 -2 -40 95 -577 136 -759 6 -23 47 -20 75 4 23 20 27 32 30 93 5 81 -9 197 -39 327 -22 96 -75 287 -89 320 -35 79 -40 104 -40 182 0 82 11 122 45 163 6 8 15 23 18 32 12 33 -8 26 -46 -18z"/>
 <path d="M3582 5247 c-11 -12 -31 -44 -44 -72 -13 -27 -29 -59 -36 -70 -6 -11 -27 -58 -47 -105 -20 -47 -47 -110 -60 -140 -14 -30 -32 -75 -41 -100 -50 -143 -101 -285 -161 -450 -20 -54 -42 -75 -60 -57 -27 27 -34 124 -39 532 -3 231 -8 427 -11 435 -4 8 -7 18 -7 23 -1 8 -16 10 -16 2 0 -3 0 -8 -1 -12 0 -5 2 -271 4 -593 4 -611 6 -634 46 -623 14 4 20 -1 23 -16 4 -27 23 -23 24 4 0 11 2 25 5 30 3 6 16 48 28 95 30 111 77 270 103 345 11 33 26 80 33 105 7 25 25 71 39 104 14 32 26 65 26 72 0 7 14 43 30 79 17 36 30 70 30 75 0 5 13 35 28 67 16 32 41 85 56 118 40 86 40 86 64 127 26 42 15 58 -16 25z"/>
 <path d="M795 5111 c-11 -18 5 -185 29 -301 13 -63 27 -137 31 -165 3 -27 20 -120 36 -205 44 -229 68 -360 75 -405 3 -22 16 -89 29 -150 32 -144 59 -278 91 -450 24 -129 25 -143 11 -176 -12 -30 -23 -38 -73 -55 -33 -10 -60 -23 -62 -29 -2 -10 175 -26 191 -17 4 2 2 11 -4 19 -11 12 -10 14 6 11 17 -3 19 2 17 32 -2 19 -17 83 -33 143 -16 59 -29 119 -29 133 0 14 -13 79 -30 144 -16 65 -30 132 -30 149 0 16 -13 87 -30 156 -16 69 -30 138 -30 151 0 14 -11 78 -24 142 -13 65 -29 146 -34 182 -6 36 -20 107 -31 159 -12 52 -21 106 -21 120 0 15 -14 89 -31 166 -17 77 -31 163 -30 192 0 50 -11 75 -24 54z"/>
 <path d="M4329 4966 c-1 -3 -2 -9 -3 -13 -1 -5 -27 -60 -58 -123 -85 -175 -148 -312 -148 -321 0 -5 -13 -38 -30 -72 -16 -35 -30 -69 -30 -75 0 -5 -13 -40 -30 -76 -16 -37 -31 -76 -32 -89 -2 -12 -7 -28 -11 -35 -6 -8 2 -18 24 -30 17 -9 44 -27 59 -39 15 -13 31 -23 34 -23 3 0 25 -14 48 -30 22 -17 46 -30 53 -30 6 0 22 -11 35 -25 13 -14 29 -25 36 -25 7 0 22 -15 34 -34 11 -19 25 -36 31 -38 6 -2 11 -10 13 -18 1 -8 10 -31 19 -50 26 -57 29 -72 29 -135 0 -64 -33 -164 -72 -217 -11 -15 -16 -29 -11 -32 28 -18 107 155 110 242 1 33 -3 63 -8 66 -6 4 -8 12 -5 19 5 15 -21 83 -36 92 -6 4 -8 10 -5 15 11 17 -99 131 -170 175 -16 10 -34 24 -38 32 -4 7 -14 13 -21 13 -20 0 -62 51 -77 93 -12 33 -11 47 3 100 9 35 28 88 42 119 14 31 26 59 26 62 0 11 87 209 125 286 40 79 78 180 68 180 -3 0 0 6 6 14 8 10 9 16 1 21 -5 3 -11 4 -11 1z"/>
 <path d="M1775 4050 c-4 -6 -3 -16 3 -22 6 -6 12 -6 17 2 4 6 3 16 -3 22 -6 6 -12 6 -17 -2z"/>
 <path d="M1728 4043 c-7 -14 -3 -33 6 -33 12 -1 17 28 6 35 -5 3 -10 2 -12 -2z"/>
 <path d="M1765 3980 c-4 -6 -10 -8 -15 -5 -5 3 -11 1 -14 -4 -4 -5 -2 -12 3 -15 5 -4 12 -2 16 4 4 6 10 8 15 5 5 -3 11 -1 14 4 4 5 2 12 -3 15 -5 4 -12 2 -16 -4z"/>
 <path d="M3129 3956 c-1 -3 -2 -9 -3 -13 -1 -5 -5 -14 -9 -20 -5 -7 -5 -13 -1 -13 3 0 1 -7 -6 -15 -7 -9 -10 -18 -7 -22 4 -3 2 -12 -4 -19 -7 -8 -7 -14 1 -19 5 -3 11 -4 11 -1 1 3 2 9 3 14 1 4 5 13 10 20 4 7 5 16 2 19 -3 3 -1 12 5 20 6 7 8 13 4 13 -4 0 -2 6 4 14 8 10 9 16 1 21 -5 3 -11 4 -11 1z"/>
 <path d="M1751 3936 c-7 -8 -8 -17 -3 -20 6 -3 15 1 21 8 7 8 8 17 3 20 -6 3 -15 -1 -21 -8z"/>
 <path d="M4230 3384 c-30 -19 -67 -34 -82 -34 -22 0 -31 -6 -39 -27 -5 -14 -17 -32 -27 -39 -16 -12 -15 -13 4 -21 33 -13 86 -64 122 -117 17 -27 32 -52 33 -55 0 -3 3 -17 5 -31 8 -49 10 -191 3 -196 -4 -2 -6 -12 -4 -22 1 -9 -15 -39 -36 -66 -22 -27 -39 -53 -39 -58 0 -5 -4 -7 -9 -4 -11 7 -33 -18 -24 -27 3 -4 12 -2 20 5 9 7 13 7 11 1 -2 -6 20 -29 49 -52 57 -46 108 -135 121 -213 8 -44 24 -55 30 -19 4 25 -51 163 -82 204 -34 46 -49 101 -40 145 4 20 9 42 10 47 1 6 3 13 4 18 1 4 3 15 4 25 1 9 4 22 7 27 15 24 19 94 9 140 -7 28 -14 61 -16 75 -3 14 -15 41 -28 60 -63 96 -59 159 14 214 27 21 47 42 44 47 -3 5 -6 9 -7 8 -1 -1 -27 -16 -57 -35z"/>
 <path d="M3825 3380 c-7 -12 32 -33 45 -25 6 4 8 10 5 14 -7 13 -44 20 -50 11z"/>
 <path d="M792 3033 c-9 -23 -9 -422 1 -446 20 -51 27 7 27 223 0 216 -7 273 -28 223z"/>
 <path d="M2922 2879 c-13 -5 -20 -13 -17 -19 8 -13 18 -13 40 3 23 17 8 28 -23 16z"/>
 <path d="M2970 2860 c-24 -24 -25 -33 -4 -65 11 -16 23 -23 38 -21 11 2 30 -1 40 -6 15 -8 23 -4 43 21 20 25 28 29 39 21 7 -7 18 -9 24 -5 13 8 3 26 -13 24 -7 -1 -38 10 -70 24 -69 32 -72 32 -97 7z"/>
 <path d="M2850 2831 c-6 -12 -6 -22 -1 -26 6 -3 15 3 21 14 6 12 6 22 1 26 -6 3 -15 -3 -21 -14z"/>
 <path d="M2885 2800 c-8 -12 20 -24 35 -15 6 3 8 11 5 16 -8 12 -32 12 -40 -1z"/>
 <path d="M3235 2770 c-16 -17 -16 -20 -2 -26 8 -3 24 -1 35 5 13 7 22 7 29 0 8 -8 13 -7 17 0 4 6 5 12 2 12 -3 1 -9 2 -13 3 -5 1 -18 7 -29 14 -18 9 -24 8 -39 -8z"/>
 <path d="M3125 2771 c-7 -12 12 -24 25 -16 11 7 4 25 -10 25 -5 0 -11 -4 -15 -9z"/>
 <path d="M936 2451 c-4 -6 17 -21 47 -36 70 -33 79 -54 78 -182 -1 -61 3 -104 9 -108 6 -3 8 -10 5 -15 -3 -5 0 -21 6 -37 7 -15 13 -33 13 -40 2 -20 66 -104 75 -98 5 3 -7 31 -27 62 -20 31 -36 60 -35 65 2 4 -2 20 -8 35 -20 50 -3 236 26 282 3 5 1 12 -5 16 -18 11 -11 27 10 22 11 -3 22 -2 25 3 9 15 -20 27 -68 28 -26 0 -69 3 -96 7 -30 4 -51 3 -55 -4z"/>
 <path d="M2095 2398 c-9 -13 -31 -46 -48 -73 -105 -166 -304 -391 -381 -431 -87 -46 -112 -56 -136 -56 -14 0 -29 -3 -34 -6 -13 -7 -91 -6 -104 2 -6 4 -21 5 -34 2 -15 -2 -46 11 -90 40 -37 24 -70 39 -73 35 -6 -11 88 -80 118 -85 12 -3 22 -5 22 -7 0 -1 15 -3 32 -3 18 -1 36 -5 39 -9 9 -9 68 -9 77 -1 4 4 26 8 50 9 42 2 56 7 143 55 52 28 163 134 240 226 105 127 124 152 124 162 0 5 18 26 40 46 44 39 92 47 139 23 23 -11 79 -79 101 -122 6 -11 21 -34 33 -50 12 -17 46 -64 76 -105 105 -146 242 -256 349 -280 41 -10 52 6 15 21 -15 7 -47 20 -70 30 -24 11 -47 19 -52 19 -5 0 -19 11 -32 25 -13 13 -29 25 -34 25 -6 0 -28 21 -49 46 -56 67 -94 118 -156 209 -91 135 -120 179 -120 183 0 3 -16 25 -36 48 -33 41 -39 44 -84 44 -39 0 -52 -4 -65 -22z"/>
 <path d="M4344 2336 c-4 -9 -4 -20 0 -23 3 -3 1 -12 -5 -20 -6 -7 -9 -13 -5 -13 3 0 -5 -18 -20 -41 -14 -22 -23 -47 -20 -55 3 -8 2 -13 -3 -10 -5 3 -14 -1 -20 -8 -20 -24 5 -27 26 -3 17 19 45 75 49 100 1 4 3 9 4 12 1 3 3 8 5 13 1 4 5 15 10 25 4 11 3 23 -3 29 -8 8 -13 7 -18 -6z"/>
 <path d="M4198 2099 c-20 -17 -45 -32 -55 -34 -10 -3 -45 -14 -78 -26 -58 -21 -69 -21 -425 -15 -201 3 -376 7 -390 8 -14 2 -25 -1 -25 -7 -1 -5 -15 -38 -32 -73 -19 -39 -27 -65 -20 -69 5 -3 16 3 23 13 26 38 70 74 103 85 24 8 115 10 295 7 310 -6 437 2 504 33 26 12 55 24 66 26 24 4 91 69 79 76 -4 3 -25 -8 -45 -24z"/>
 <path d="M3031 1804 c-24 -10 -31 -18 -24 -25 13 -13 77 17 68 31 -4 6 -7 10 -8 10 -1 -1 -17 -7 -36 -16z"/>
 <path d="M2835 1781 c-3 -6 0 -14 9 -17 24 -9 136 0 136 11 0 14 -136 19 -145 6z"/>
 </g>
<g id="layer4" fill="#dad9db" stroke="none">
 <path d="M2505 5494 c-106 -21 -134 -30 -167 -50 -38 -24 -113 -33 -133 -16 -19 16 -111 40 -172 46 -135 12 -245 -18 -371 -101 l-54 -35 -46 17 c-26 10 -60 27 -77 39 -41 29 -198 35 -305 11 -41 -9 -111 -25 -155 -34 -222 -48 -315 -146 -315 -334 0 -68 7 -117 55 -372 14 -71 30 -161 35 -200 6 -38 19 -106 30 -150 10 -44 21 -102 25 -130 4 -27 16 -93 27 -145 11 -52 28 -142 38 -200 32 -175 57 -301 80 -394 24 -99 20 -143 -13 -156 -182 -70 -228 -106 -268 -215 -21 -55 -23 -78 -23 -260 0 -184 2 -206 24 -270 29 -86 63 -124 160 -177 41 -23 77 -43 80 -45 3 -3 8 -55 11 -116 9 -178 67 -294 192 -389 139 -106 296 -130 454 -69 45 18 93 41 106 51 14 11 29 20 34 20 25 0 218 206 313 335 54 73 57 75 97 75 32 0 34 -2 115 -118 13 -18 42 -59 65 -90 23 -31 50 -68 60 -82 42 -58 158 -162 215 -194 70 -39 206 -76 278 -76 63 0 179 32 232 63 24 14 75 57 115 95 41 40 83 72 100 75 15 3 159 3 318 0 276 -5 295 -4 385 17 250 59 400 230 400 455 0 86 -19 152 -71 248 -27 50 -49 97 -49 106 0 9 9 50 21 91 31 110 24 229 -19 329 -48 110 -44 130 38 207 95 89 149 236 137 377 -8 87 -20 125 -65 197 -46 74 -105 129 -220 205 -8 6 -28 24 -44 40 -25 26 -28 36 -25 75 2 25 14 65 25 89 12 25 22 49 22 53 0 5 16 43 35 84 19 41 35 80 35 87 0 7 7 22 15 34 9 12 22 41 30 63 8 23 23 53 33 68 11 15 23 38 27 52 4 14 18 49 31 78 26 58 33 176 13 229 -30 78 -115 147 -290 233 -57 28 -116 58 -130 65 -14 8 -64 28 -110 46 -94 35 -152 35 -224 2 -50 -22 -135 -91 -135 -108 0 -7 -7 -18 -16 -25 -8 -8 -21 -27 -29 -44 -8 -17 -22 -47 -33 -66 -30 -57 -79 -163 -93 -200 -7 -19 -16 -40 -20 -45 -4 -6 -15 -33 -24 -60 -10 -27 -27 -72 -40 -99 -12 -28 -30 -70 -40 -94 -25 -58 -41 -70 -49 -35 -3 16 -9 141 -11 278 -7 316 -15 370 -64 433 -85 107 -170 133 -429 131 -87 -1 -166 -3 -177 -5z m413 -113 c9 -5 33 -17 54 -27 24 -12 43 -32 58 -60 20 -42 21 -55 20 -368 0 -191 3 -327 9 -330 5 -3 12 -50 15 -104 4 -53 9 -116 12 -140 4 -32 2 -42 -8 -40 -10 2 -13 -15 -13 -69 0 -90 18 -97 26 -11 3 35 6 54 7 44 2 -22 30 -56 45 -56 17 0 57 42 57 59 0 12 3 11 13 -4 10 -13 16 -15 21 -6 11 17 -1 44 -16 35 -8 -5 -9 -2 -5 10 4 10 7 23 7 29 0 6 6 2 14 -9 12 -16 15 -16 20 -4 11 31 11 55 0 53 -7 -1 -10 6 -7 17 3 11 10 18 16 17 6 -1 19 20 29 47 14 37 16 52 7 62 -6 8 -9 15 -5 15 3 1 10 2 15 3 19 2 24 16 11 31 -8 10 -9 15 -2 15 20 0 35 40 21 56 -6 8 -9 15 -5 15 3 1 10 2 15 3 19 2 24 16 11 31 -7 8 -10 16 -6 16 3 1 11 3 16 4 6 1 13 3 16 4 4 0 1 7 -5 15 -9 10 -8 16 4 26 15 13 54 92 58 120 1 8 6 20 10 27 4 6 4 19 0 29 -4 11 -3 15 5 10 7 -4 19 9 32 33 11 23 16 42 10 46 -5 3 0 15 11 26 20 20 44 67 41 81 -1 4 9 24 23 43 13 20 21 43 18 51 -3 9 0 14 8 12 7 -2 13 2 14 7 1 17 18 39 55 70 31 27 43 30 90 29 40 -2 70 -10 110 -32 43 -25 57 -28 69 -19 12 9 13 9 8 0 -10 -16 35 -45 57 -37 9 4 16 3 15 -2 -4 -21 2 -26 16 -14 16 13 30 7 30 -13 0 -7 11 -11 23 -9 23 3 73 -22 71 -36 -3 -20 3 -23 18 -11 10 8 14 9 10 2 -5 -7 11 -22 44 -39 97 -53 112 -131 50 -259 -31 -63 -37 -83 -28 -94 9 -11 9 -13 0 -8 -12 7 -60 -66 -66 -100 -2 -10 -13 -37 -25 -60 -14 -26 -18 -44 -12 -48 6 -4 8 -11 4 -16 -3 -5 -9 -7 -14 -4 -5 3 -11 1 -14 -4 -4 -5 -2 -12 3 -15 5 -3 7 -15 4 -26 -3 -11 -9 -17 -14 -15 -12 8 -33 -37 -31 -68 1 -15 -1 -27 -5 -26 -20 3 -24 -2 -13 -17 11 -12 11 -15 -1 -12 -10 2 -13 -5 -11 -25 2 -19 -1 -26 -8 -22 -6 4 -16 -8 -24 -27 -14 -33 -12 -53 5 -43 5 4 9 -5 9 -18 0 -34 24 -89 49 -111 12 -11 20 -26 19 -35 -2 -11 4 -15 20 -13 18 3 22 -1 20 -14 -2 -13 12 -26 47 -45 27 -15 54 -27 59 -26 6 1 10 -3 11 -8 0 -6 15 -27 34 -47 40 -44 64 -78 56 -78 -3 0 5 -19 17 -42 12 -24 21 -50 19 -60 -1 -9 3 -19 9 -23 13 -8 13 -62 0 -70 -6 -3 -10 -16 -10 -28 -1 -38 -54 -145 -91 -184 -20 -21 -62 -51 -93 -66 -31 -16 -53 -33 -50 -38 3 -6 12 -8 19 -5 11 4 11 -1 3 -25 -6 -17 -8 -43 -4 -59 3 -16 1 -32 -4 -35 -5 -3 1 -22 15 -43 44 -65 65 -110 59 -125 -3 -8 -2 -17 3 -20 7 -5 9 -133 2 -147 -3 -7 -6 -22 -8 -36 0 -7 -21 -39 -45 -72 -25 -33 -42 -63 -38 -67 4 -4 0 -5 -8 -4 -8 2 -40 -9 -70 -23 -74 -36 -176 -47 -305 -32 -55 7 -120 19 -145 28 -25 8 -79 24 -120 34 -41 11 -101 30 -133 41 -32 12 -62 19 -67 16 -5 -3 -12 -1 -15 5 -5 8 -11 8 -19 1 -9 -8 -51 -6 -137 4 -68 8 -151 18 -184 21 -63 7 -101 21 -90 32 4 4 11 8 16 8 19 3 20 4 14 14 -5 8 -11 7 -21 -1 -8 -6 -14 -8 -14 -4 0 4 -6 2 -14 -5 -8 -6 -49 -14 -91 -17 -41 -3 -78 -10 -81 -14 -3 -5 9 -29 26 -53 24 -35 35 -44 53 -41 12 3 58 12 102 21 44 10 91 17 105 17 52 0 136 -15 163 -29 15 -8 81 -32 145 -53 176 -58 219 -71 235 -71 8 0 17 -7 21 -15 3 -8 16 -15 28 -14 35 1 423 -12 462 -15 18 -2 38 -6 45 -10 6 -4 14 0 17 8 3 9 11 16 18 16 6 0 35 15 63 34 32 21 56 30 64 25 7 -4 17 -5 23 -2 5 3 6 2 3 -4 -3 -5 7 -24 22 -41 16 -17 26 -34 22 -37 -3 -4 1 -12 9 -18 8 -7 15 -16 16 -22 0 -19 17 -90 22 -99 8 -13 6 -67 -3 -91 -4 -11 -16 -39 -26 -63 -10 -23 -15 -42 -12 -42 4 0 -5 -12 -19 -28 -14 -15 -31 -37 -37 -49 -6 -13 -15 -22 -19 -21 -4 2 -28 -11 -53 -29 -25 -17 -52 -31 -60 -30 -18 2 -97 -20 -128 -36 -31 -15 -409 -13 -425 3 -13 13 -113 13 -121 0 -7 -11 -66 -14 -62 -2 1 4 -3 7 -8 7 -6 0 -9 -3 -8 -6 1 -4 -15 -9 -37 -13 -21 -3 -52 -18 -69 -32 -31 -26 -40 -19 -21 16 6 12 7 21 0 25 -8 5 -53 -68 -53 -85 1 -21 -74 -84 -132 -112 -99 -48 -162 -50 -277 -8 -129 47 -194 100 -293 239 -56 79 -77 101 -88 94 -8 -4 -7 -1 1 9 10 12 9 18 -3 28 -8 7 -31 39 -51 71 -19 33 -40 57 -45 53 -5 -3 -8 0 -7 8 2 7 -3 12 -11 10 -7 -2 -22 5 -32 14 -10 9 -41 19 -67 22 -44 4 -53 1 -88 -29 -21 -19 -31 -24 -21 -12 10 11 14 24 9 27 -17 10 -88 -94 -74 -109 4 -5 2 -5 -4 -2 -7 4 -30 -17 -55 -51 -24 -31 -65 -83 -92 -114 -26 -31 -48 -61 -48 -65 1 -4 -3 -8 -8 -8 -5 0 -36 -22 -68 -50 -31 -27 -60 -50 -63 -50 -3 -1 -34 -14 -70 -31 -58 -27 -75 -30 -151 -29 -77 1 -92 5 -142 33 -31 18 -59 32 -62 32 -3 0 -10 0 -16 0 -5 0 -8 4 -4 9 3 5 -8 18 -24 27 -17 10 -28 21 -25 26 3 4 -6 19 -20 33 -14 14 -23 25 -20 25 2 0 -1 10 -8 22 -7 13 -13 41 -15 62 -2 22 -7 44 -13 50 -14 14 -13 62 2 85 6 11 8 26 3 37 -4 11 -10 30 -12 44 -6 37 -36 83 -63 97 -22 11 -21 12 18 15 58 4 53 23 -5 23 -35 0 -47 -4 -45 -13 2 -9 -7 -7 -27 7 -16 11 -38 22 -50 24 -28 4 -69 45 -89 87 -23 52 -23 449 0 500 20 43 61 83 91 87 12 2 31 7 42 12 11 5 43 17 70 26 62 22 81 38 95 81 7 19 16 32 21 28 5 -3 7 -9 4 -14 -3 -5 -1 -11 4 -14 5 -4 12 -2 15 3 4 5 2 12 -3 16 -6 3 -8 11 -5 19 8 21 -14 68 -28 60 -9 -6 -9 -3 0 9 15 18 7 41 -11 30 -9 -5 -9 -3 0 8 14 17 7 52 -15 87 -11 17 -12 25 -2 37 14 17 4 39 -13 28 -8 -5 -8 -2 1 9 10 12 8 33 -11 110 -12 53 -29 103 -36 112 -7 9 -11 21 -8 28 6 18 4 34 -5 30 -12 -3 -10 12 3 25 14 14 -4 79 -21 75 -11 -3 -11 0 -1 12 15 18 5 40 -12 29 -7 -4 -6 1 2 11 10 12 11 20 3 28 -6 6 -8 16 -5 23 2 8 -3 25 -12 39 -14 21 -15 29 -5 41 15 18 5 49 -12 39 -9 -6 -9 -3 1 9 16 20 7 52 -11 41 -10 -6 -9 -3 0 9 15 18 7 41 -11 30 -8 -5 -8 -2 1 9 15 19 6 75 -16 101 -13 15 -14 22 -4 38 13 21 7 43 -9 34 -13 -8 -11 9 2 22 14 14 2 36 -14 26 -8 -5 -8 -2 1 9 16 20 1 94 -18 90 -11 -3 -11 0 0 12 9 12 10 19 1 29 -6 8 -8 17 -4 20 3 4 -2 22 -12 41 -15 28 -16 37 -6 50 15 17 5 40 -12 29 -7 -4 -6 0 2 10 16 20 7 52 -11 41 -9 -6 -9 -3 1 9 16 20 7 52 -11 41 -9 -6 -9 -3 1 9 16 20 7 52 -11 41 -9 -5 -9 -3 1 9 10 13 11 20 2 30 -6 8 -8 17 -5 20 4 3 3 14 -1 24 -17 41 -16 92 4 132 24 46 82 94 104 86 8 -4 18 -1 22 4 3 6 10 9 14 7 15 -10 106 21 103 34 -2 10 0 11 10 2 16 -12 53 -6 82 14 14 10 23 10 32 3 15 -12 37 -2 28 12 -3 6 3 5 13 -2 16 -10 26 -9 50 3 46 23 121 16 171 -15 23 -15 41 -31 41 -35 -3 -14 14 -73 22 -78 4 -2 6 -11 2 -19 -3 -8 -2 -23 2 -32 5 -10 7 -28 6 -40 -1 -11 2 -24 7 -27 6 -3 8 -15 5 -25 -5 -21 12 -37 22 -21 4 6 3 19 -1 28 -4 9 -6 27 -5 39 1 11 -2 24 -7 27 -6 3 -8 15 -5 26 3 11 1 26 -5 33 -6 7 -7 19 -3 26 6 9 11 10 15 2 11 -17 57 -13 79 6 19 18 19 17 1 -20 -13 -28 -15 -40 -6 -49 9 -9 13 -7 18 8 13 40 35 83 44 89 6 4 8 10 5 15 -10 16 137 116 154 106 5 -4 12 -2 15 2 3 5 16 7 30 5 13 -3 27 0 30 6 4 6 27 11 51 11 24 0 47 -5 51 -11 3 -6 17 -9 30 -6 14 2 27 0 30 -5 3 -5 12 -7 20 -4 8 3 29 -3 46 -14 17 -10 36 -16 41 -13 6 3 7 1 3 -5 -4 -6 6 -18 23 -27 17 -8 28 -21 26 -28 -20 -57 -23 -273 -5 -318 7 -17 28 -85 45 -152 18 -67 36 -121 41 -120 5 2 10 115 12 253 l2 250 -24 37 c-14 21 -35 50 -47 66 l-21 27 24 -4 c12 -2 31 1 42 6 12 7 16 7 12 0 -3 -6 -2 -13 3 -16 5 -4 19 8 31 25 12 16 43 41 69 54 44 22 57 23 259 24 117 1 220 -3 230 -8z m1307 -2650 c0 -20 4 -46 8 -58 11 -29 -1 -29 -36 2 l-28 25 20 26 c11 15 19 30 16 34 -2 3 1 7 8 7 7 0 12 -15 12 -36z"/>
 <path d="M1554 4936 c-3 -9 -3 -24 1 -33 4 -10 9 -38 11 -62 2 -25 8 -49 13 -54 5 -5 7 -15 5 -22 -7 -16 12 -29 21 -15 3 5 3 15 -1 21 -3 6 -8 31 -10 56 -2 24 -7 49 -11 56 -4 7 -6 22 -5 34 4 26 -16 41 -24 19z"/>
 <path d="M1646 4941 c-7 -11 9 -57 23 -65 6 -4 8 -13 5 -20 -6 -17 12 -31 21 -16 3 5 3 16 -2 23 -4 6 -8 17 -9 22 -4 19 -23 65 -28 65 -3 0 -7 -4 -10 -9z"/>
 <path d="M1687 4813 c-4 -3 -2 -12 4 -20 6 -7 9 -13 6 -13 -3 0 2 -24 12 -52 10 -29 22 -52 27 -50 12 4 8 35 -12 80 -10 20 -18 40 -18 44 -2 12 -12 18 -19 11z"/>
 <path d="M1594 4716 c-4 -9 -1 -22 5 -30 6 -7 8 -16 5 -19 -4 -3 -4 -14 0 -23 5 -13 10 -14 18 -6 6 6 7 18 3 29 -5 10 -7 25 -6 35 3 22 -18 33 -25 14z"/>
 <path d="M1736 4642 c-3 -5 4 -49 15 -98 29 -123 28 -119 41 -106 8 8 5 36 -12 107 -22 92 -33 115 -44 97z"/>
 <path d="M1614 4576 c-3 -8 -3 -20 1 -27 4 -6 9 -29 10 -50 2 -21 7 -44 11 -50 4 -7 8 -28 10 -47 2 -20 8 -40 13 -45 5 -5 7 -15 5 -22 -7 -16 12 -29 21 -15 3 5 3 15 -1 21 -4 7 -8 27 -10 46 -2 18 -6 39 -10 45 -4 6 -9 29 -11 51 -2 21 -6 44 -10 51 -4 6 -6 18 -5 28 4 21 -16 34 -24 14z"/>
 <path d="M1784 4396 c-8 -21 3 -49 16 -41 5 3 10 15 10 25 0 25 -18 36 -26 16z"/>
 <path d="M1675 4260 c-4 -6 -3 -16 3 -22 6 -6 12 -6 17 2 4 6 3 16 -3 22 -6 6 -12 6 -17 -2z"/>
 <path d="M3194 4236 c-4 -10 -2 -22 4 -28 8 -8 13 -7 18 6 4 10 2 22 -4 28 -8 8 -13 7 -18 -6z"/>
 <path d="M1685 4210 c-3 -5 -3 -15 1 -21 4 -7 8 -28 10 -47 2 -20 8 -40 13 -45 5 -5 7 -15 5 -22 -7 -16 12 -29 21 -15 3 5 3 15 -1 21 -4 7 -8 28 -10 47 -2 20 -8 40 -13 45 -5 5 -7 15 -5 22 7 16 -12 29 -21 15z"/>
 <path d="M3999 4206 c-1 -3 -2 -9 -3 -13 -1 -5 -5 -13 -9 -20 -4 -6 -3 -14 3 -18 5 -3 11 -4 11 -1 1 3 2 9 3 14 1 4 5 12 9 19 4 6 3 14 -3 18 -5 3 -11 4 -11 1z"/>
 <path d="M1785 4188 c-9 -24 -2 -93 10 -93 14 0 19 85 6 98 -7 7 -12 5 -16 -5z"/>
 <path d="M3188 4185 c-3 -24 -6 -32 -17 -60 -7 -16 -14 -39 -15 -50 -1 -12 -5 -26 -9 -32 -4 -6 -3 -14 3 -18 5 -3 11 -4 11 -1 3 14 6 23 18 51 7 17 14 39 15 50 1 12 6 27 10 34 5 7 3 18 -3 24 -6 6 -12 7 -13 2z"/>
 <path d="M4006 4142 c-3 -5 12 -21 34 -35 40 -26 64 -22 32 5 -27 24 -60 39 -66 30z"/>
 <path d="M3065 4078 c-9 -24 -1 -188 10 -191 14 -3 19 183 6 196 -7 7 -12 5 -16 -5z"/>
 <path d="M1774 4026 c-4 -10 -2 -22 4 -28 8 -8 13 -7 18 6 4 10 2 22 -4 28 -8 8 -13 7 -18 -6z"/>
 <path d="M1725 4010 c-4 -6 -3 -16 3 -22 6 -6 12 -6 17 2 4 6 3 16 -3 22 -6 6 -12 6 -17 -2z"/>
 <path d="M1765 3971 c-3 -6 -10 -9 -15 -6 -12 7 -23 -12 -15 -25 5 -8 11 -7 21 1 8 6 14 8 14 3 0 -4 5 -3 12 4 9 9 9 15 1 23 -8 8 -13 8 -18 0z"/>
 <path d="M3129 3946 c-1 -3 -2 -9 -3 -13 -1 -5 -5 -13 -9 -20 -4 -6 -3 -14 3 -18 5 -3 11 -4 11 -1 1 3 2 9 3 14 1 4 5 12 9 19 4 6 3 14 -3 18 -5 3 -11 4 -11 1z"/>
 <path d="M1751 3926 c-9 -10 -9 -16 -1 -21 17 -10 37 12 24 25 -8 8 -15 6 -23 -4z"/>
 <path d="M2316 3758 c-3 -7 -14 -44 -26 -82 -12 -38 -29 -86 -39 -105 -10 -20 -16 -45 -13 -56 2 -11 1 -17 -3 -13 -11 10 -36 -12 -29 -24 3 -5 12 -4 20 3 21 17 20 -158 -1 -187 -26 -38 -4 -34 65 13 57 39 67 50 59 64 -5 10 -9 101 -9 203 0 113 -4 187 -10 191 -6 3 -12 0 -14 -7z"/>
 <path d="M3764 3398 c-5 -8 3 -12 20 -9 5 1 17 -5 26 -14 10 -9 24 -18 32 -19 7 -2 24 -8 38 -13 14 -6 29 -9 33 -6 14 9 -16 34 -35 30 -11 -3 -22 2 -29 15 -8 16 -13 17 -25 7 -12 -10 -15 -10 -12 1 3 14 -40 22 -48 8z"/>
 <path d="M4095 3341 c-7 -12 12 -24 25 -16 11 7 4 25 -10 25 -5 0 -11 -4 -15 -9z"/>
 <path d="M3965 3330 c-3 -5 7 -16 23 -24 23 -12 32 -12 42 -3 9 8 11 8 7 1 -4 -7 4 -19 18 -28 14 -9 25 -13 25 -9 0 4 15 -8 34 -26 19 -18 36 -29 40 -23 5 8 -48 68 -56 61 -1 -2 -13 4 -26 13 -15 10 -19 18 -13 23 6 3 9 11 6 16 -8 12 -92 12 -100 -1z"/>
 <path d="M1155 3219 c-4 -6 -3 -15 3 -21 6 -6 8 -16 6 -23 -3 -7 -1 -16 5 -19 14 -9 25 14 13 26 -6 6 -8 16 -6 23 7 17 -12 29 -21 14z"/>
 <path d="M1025 3171 c-7 -12 12 -24 25 -16 11 7 4 25 -10 25 -5 0 -11 -4 -15 -9z"/>
 <path d="M1075 3170 c-8 -13 20 -24 41 -16 20 8 9 26 -16 26 -10 0 -22 -5 -25 -10z"/>
 <path d="M2945 2891 c-6 -11 29 -33 39 -24 7 7 -12 33 -25 33 -4 0 -10 -4 -14 -9z"/>
 <path d="M3015 2871 c-3 -6 3 -15 14 -21 12 -6 22 -6 26 -1 3 6 -3 15 -14 21 -12 6 -22 6 -26 1z"/>
 <path d="M3085 2841 c-3 -6 3 -15 14 -21 12 -6 22 -6 26 -1 3 6 -3 15 -14 21 -12 6 -22 6 -26 1z"/>
 <path d="M3145 2820 c-6 -9 53 -39 85 -43 35 -5 18 18 -27 35 -57 21 -50 20 -58 8z"/>
 <path d="M1135 2440 c-3 -5 -3 -10 1 -10 4 0 0 -8 -8 -17 -26 -30 -39 -61 -28 -68 7 -5 43 46 45 65 0 3 4 10 8 17 4 6 3 14 -2 17 -5 4 -12 2 -16 -4z"/>
 <path d="M2093 2407 c-19 -24 -23 -36 -14 -41 5 -3 16 5 25 19 16 24 6 45 -11 22z"/>
 <path d="M2206 2412 c-3 -5 3 -17 13 -26 11 -10 22 -13 25 -8 3 5 -3 17 -13 26 -11 10 -22 13 -25 8z"/>
 <path d="M3255 2031 c-7 -13 17 -24 40 -19 9 1 16 8 16 13 0 14 -48 19 -56 6z"/>
 </g>
<g id="layer5" fill="#fdfdfd" stroke="none">
 <path d="M55 5991 l-50 -6 -3 -2444 c-1 -1699 1 -2448 8 -2455 7 -8 191 -12 551 -14 516 -3 540 -4 525 -21 -22 -24 -22 -304 -1 -403 49 -234 252 -432 522 -510 77 -23 87 -23 608 -23 583 0 582 0 714 62 101 48 204 150 254 253 63 127 77 206 77 417 0 179 1 185 23 204 21 17 49 18 570 19 603 0 675 5 838 60 360 120 609 380 707 738 l27 97 0 1290 0 1290 -140 75 c-409 222 -720 454 -1051 784 -193 194 -307 324 -444 509 l-64 87 -1811 -2 c-995 0 -1832 -4 -1860 -7z m2857 -525 c126 -24 204 -95 227 -204 6 -29 11 -137 11 -240 1 -217 13 -376 31 -398 10 -13 15 -12 34 6 12 12 30 40 40 63 10 23 28 65 40 93 13 27 30 72 40 99 9 27 20 54 24 60 4 5 13 26 20 45 14 37 63 143 93 200 11 19 25 49 33 66 8 17 21 36 29 44 9 7 16 18 16 24 0 15 67 67 115 89 71 33 130 33 220 -1 44 -16 98 -39 120 -50 22 -11 83 -41 136 -67 126 -62 194 -110 233 -163 28 -40 31 -52 34 -131 3 -75 1 -94 -21 -141 -14 -30 -28 -66 -32 -80 -4 -14 -16 -37 -27 -52 -10 -15 -25 -45 -33 -68 -8 -22 -21 -51 -30 -63 -8 -12 -15 -27 -15 -34 0 -7 -16 -46 -35 -87 -19 -41 -35 -79 -35 -84 0 -4 -10 -28 -21 -53 -12 -24 -24 -63 -27 -86 -4 -37 0 -47 28 -80 18 -21 42 -45 54 -53 13 -8 40 -27 62 -41 79 -53 165 -160 193 -239 6 -19 14 -67 18 -107 12 -141 -36 -275 -132 -368 -87 -84 -91 -105 -43 -216 43 -100 50 -219 19 -329 -12 -41 -21 -82 -21 -91 0 -9 22 -56 49 -106 52 -96 71 -162 71 -248 0 -222 -136 -378 -380 -435 -89 -21 -113 -22 -405 -18 l-310 3 -35 -25 c-19 -13 -57 -48 -83 -77 -27 -29 -53 -50 -58 -47 -5 3 -12 -1 -15 -9 -11 -30 -161 -77 -245 -77 -70 0 -207 37 -275 75 -90 50 -198 167 -324 350 -78 113 -99 135 -134 135 -40 0 -58 -15 -116 -95 -85 -115 -270 -315 -293 -315 -5 0 -20 -9 -34 -20 -13 -10 -61 -33 -106 -51 -154 -60 -313 -37 -447 63 -113 83 -169 201 -179 373 -3 61 -9 115 -14 122 -4 6 -45 32 -91 57 -146 80 -170 140 -170 431 0 183 2 205 23 260 12 33 36 75 52 93 29 32 142 92 172 92 25 0 65 39 72 69 3 17 -3 66 -15 117 -23 93 -48 219 -80 394 -10 58 -27 148 -38 200 -11 52 -23 118 -27 145 -4 28 -15 86 -25 130 -11 44 -24 112 -30 150 -5 39 -21 129 -35 200 -48 255 -55 304 -55 372 0 90 22 164 63 206 42 45 132 86 232 108 44 9 114 25 155 34 107 24 264 18 305 -11 17 -12 51 -29 77 -39 l46 -17 54 35 c126 83 236 113 371 101 61 -6 153 -30 172 -46 20 -17 95 -8 133 16 33 20 61 29 167 50 54 10 339 5 407 -8z m-168 -3986 c78 -13 174 -59 230 -110 81 -74 147 -240 113 -278 -12 -14 -16 -57 -19 -227 l-3 -210 -32 -67 c-17 -37 -50 -87 -74 -112 -47 -52 -158 -112 -229 -124 -25 -4 -270 -5 -545 -2 l-500 5 -67 32 c-84 40 -148 104 -190 191 l-32 67 -7 240 c-7 269 -3 297 57 396 57 95 149 165 254 193 45 12 144 15 520 15 256 1 491 -3 524 -9z"/>
 <path d="M2424 5381 c-22 -10 -55 -36 -72 -57 l-32 -39 1 -330 c0 -214 5 -363 13 -425 18 -126 18 -496 0 -630 -19 -151 -19 -497 1 -544 24 -57 160 -290 252 -430 l84 -129 77 6 c63 4 90 12 146 41 47 25 73 33 80 26 5 -5 17 -10 26 -10 8 0 42 -11 75 -24 33 -13 85 -31 115 -41 30 -10 60 -21 65 -26 6 -4 30 -12 55 -19 25 -6 68 -20 95 -30 28 -11 79 -26 115 -35 36 -9 85 -23 110 -31 72 -25 235 -40 320 -31 125 13 227 76 287 175 26 44 28 53 28 162 -1 99 -4 121 -23 157 -33 63 -110 139 -174 171 l-56 29 71 7 c139 13 250 96 303 229 40 100 39 186 -4 277 -34 75 -113 160 -175 192 -23 11 -54 30 -69 42 -14 11 -51 36 -82 55 -31 18 -56 34 -56 36 0 7 50 145 58 161 5 10 22 52 37 91 15 40 31 75 36 79 5 3 9 13 9 23 0 10 14 45 30 79 17 34 30 65 30 69 0 4 15 38 34 77 118 245 123 263 86 336 -22 42 -49 65 -125 102 -27 14 -63 32 -80 41 -16 9 -92 46 -167 82 -121 58 -144 65 -197 65 -55 0 -62 -3 -98 -37 -34 -32 -55 -65 -103 -162 -4 -9 -20 -43 -35 -76 -15 -33 -38 -82 -50 -110 -13 -27 -36 -81 -51 -120 -14 -38 -30 -74 -35 -79 -5 -6 -9 -18 -9 -28 0 -10 -4 -26 -9 -36 -15 -30 -29 -66 -42 -107 -6 -22 -15 -49 -19 -60 -24 -62 -50 -145 -55 -178 -4 -20 -11 -40 -16 -43 -5 -3 -9 -16 -9 -29 0 -13 -4 -26 -9 -29 -4 -3 -11 -25 -15 -48 -3 -24 -17 -81 -30 -128 -14 -47 -35 -125 -48 -173 l-23 -89 -8 44 c-4 23 -7 102 -5 173 1 72 -1 373 -6 670 -8 522 -9 541 -30 584 -13 27 -37 54 -61 70 -40 26 -40 26 -280 29 -217 2 -244 0 -281 -17z m466 -473 c0 -172 2 -398 5 -503 3 -104 7 -343 10 -529 3 -218 9 -344 15 -350 6 -6 66 -32 133 -57 129 -49 147 -49 147 -2 0 63 125 563 217 868 79 265 210 595 309 786 l35 66 199 -98 199 -97 -84 -179 c-45 -98 -104 -230 -130 -293 -54 -131 -155 -409 -155 -426 0 -6 64 -53 143 -104 78 -52 166 -109 195 -128 69 -45 104 -104 104 -174 -1 -107 -69 -179 -183 -194 -56 -8 -121 21 -274 120 -55 36 -103 62 -106 58 -8 -8 -62 -227 -80 -320 -7 -37 -8 -66 -3 -71 5 -4 97 -38 204 -75 209 -71 248 -94 281 -159 29 -56 24 -155 -10 -191 -105 -111 -367 -66 -986 169 l-170 64 -35 -39 c-19 -21 -49 -45 -67 -54 -75 -37 -195 -6 -241 63 -55 83 -53 53 -59 1149 l-6 1012 197 0 196 0 0 -312z"/>
 <path d="M1875 5369 c-74 -13 -176 -77 -196 -123 -5 -12 -19 -37 -31 -56 -16 -26 -22 -56 -26 -120 -4 -76 -1 -90 21 -135 14 -27 28 -63 32 -80 4 -16 17 -61 30 -100 53 -162 78 -295 83 -445 4 -144 -10 -346 -27 -363 -5 -5 -13 19 -18 55 -11 69 -40 218 -79 398 -13 63 -28 149 -34 190 -5 41 -21 132 -35 202 -14 70 -25 141 -25 158 0 48 -39 256 -56 295 -15 37 -68 77 -118 89 -18 4 -62 0 -115 -13 -397 -91 -394 -90 -424 -118 -67 -64 -70 -101 -28 -318 31 -157 75 -392 117 -630 14 -77 35 -185 46 -240 12 -55 29 -143 38 -195 18 -104 44 -231 91 -440 17 -74 34 -152 39 -173 l8 -39 -98 6 c-128 8 -176 -4 -226 -55 l-39 -40 0 -269 0 -269 38 -39 c42 -43 91 -62 159 -62 25 0 66 -3 91 -6 l46 -7 -24 -41 c-61 -104 -54 -288 15 -394 48 -73 71 -93 153 -137 64 -34 73 -36 164 -36 90 0 101 2 168 36 115 57 254 195 395 395 22 30 48 66 58 80 11 14 22 35 26 48 7 20 14 22 67 22 48 0 61 -4 66 -18 4 -9 20 -35 35 -57 16 -22 45 -64 66 -94 20 -30 44 -64 52 -76 8 -12 24 -35 35 -51 82 -120 160 -208 219 -248 83 -58 173 -86 269 -86 74 0 90 4 152 34 82 40 116 74 156 155 l28 60 138 -7 c76 -4 248 -7 383 -7 231 0 249 1 320 24 149 48 231 134 273 288 12 47 -1 141 -27 195 -9 17 -16 35 -16 41 0 13 -59 80 -83 93 -16 9 -27 6 -62 -17 -43 -29 -90 -51 -112 -53 -23 -2 -9 -21 32 -42 94 -50 120 -189 50 -272 -14 -16 -48 -40 -77 -53 -50 -23 -64 -24 -253 -25 -110 0 -315 6 -455 13 -140 7 -259 11 -265 9 -5 -1 -10 -29 -11 -62 -1 -71 -31 -145 -69 -170 -35 -23 -120 -30 -182 -15 -103 26 -151 79 -385 426 -116 172 -145 209 -162 207 -12 -2 -115 -6 -231 -9 -115 -2 -213 -8 -218 -12 -4 -4 22 -29 58 -55 l65 -48 -56 -81 c-200 -288 -318 -391 -444 -391 -194 -1 -266 232 -121 388 94 100 163 188 154 197 -4 4 -53 11 -108 14 -168 9 -267 15 -332 21 l-63 6 0 189 0 189 68 0 c37 0 128 -5 201 -11 74 -6 137 -7 142 -2 4 4 -3 51 -17 103 -32 125 -83 358 -134 604 -61 301 -250 1315 -254 1365 -1 11 45 24 169 52 205 46 215 47 215 16 0 -35 86 -561 126 -767 68 -358 115 -565 132 -582 10 -11 47 -22 92 -29 68 -11 80 -10 114 6 76 36 107 116 127 328 24 259 -6 476 -106 785 -59 181 -64 216 -39 263 35 69 180 92 281 45 49 -23 54 -29 93 -111 22 -47 45 -83 50 -80 5 3 9 49 9 103 0 89 4 137 16 169 4 13 -52 61 -100 85 -64 33 -192 44 -290 27z"/>
 <path d="M2232 3528 c-7 -7 -12 -16 -12 -20 0 -16 -76 -86 -116 -106 -62 -32 -156 -45 -266 -37 -54 3 -102 4 -107 0 -6 -3 -4 -26 6 -58 8 -28 32 -117 52 -197 l37 -145 116 -3 c64 -2 118 1 121 5 3 5 -10 34 -29 66 -20 31 -33 61 -30 66 3 5 52 42 109 82 154 109 144 94 146 231 2 114 -4 139 -27 116z"/>
 <path d="M2847 2755 c-54 -12 -101 -22 -105 -23 -19 -3 -10 -31 20 -64 l33 -37 205 -20 c113 -12 257 -23 320 -26 63 -3 136 -8 162 -11 28 -2 49 0 53 6 5 8 11 8 20 0 9 -8 15 -8 20 0 3 5 4 11 1 11 -15 4 -23 6 -46 16 -14 6 -52 19 -85 28 -100 28 -292 93 -322 109 -24 12 -77 22 -158 30 -11 1 -64 -8 -118 -19z"/>
 <path d="M4800 5992 c0 -4 23 -30 50 -57 l51 -50 35 40 c66 77 67 75 -41 75 -52 0 -95 -4 -95 -8z"/>
 <path d="M5332 5661 c-28 -37 -52 -71 -52 -74 0 -15 418 -277 442 -277 7 0 88 152 88 165 0 2 -28 19 -62 36 -68 34 -283 166 -325 199 -14 11 -29 20 -32 20 -3 0 -30 -31 -59 -69z"/>
 </g>
<g id="layer6" fill="#00aee0" stroke="none">
 <path d="M0 5983 c0 -12 3 -14 8 -6 4 6 32 13 62 16 l55 3 -62 2 c-54 2 -63 0 -63 -15z"/>
 <path d="M3716 5988 c17 -28 160 -215 231 -301 123 -150 473 -492 633 -618 250 -199 501 -365 733 -484 l97 -50 -2 -1285 -3 -1285 -28 -100 c-95 -347 -335 -598 -684 -714 -165 -56 -236 -61 -839 -61 l-545 0 -35 -26 -34 -26 0 -188 c0 -154 -4 -201 -20 -266 -47 -184 -148 -319 -291 -387 -132 -62 -131 -62 -714 -62 -523 0 -531 0 -609 23 -212 61 -375 189 -457 360 -45 94 -59 175 -59 359 0 162 0 163 25 179 14 9 22 20 19 25 -3 5 -229 9 -517 10 -282 0 -536 4 -564 8 l-53 7 0 -553 0 -553 3000 0 3000 0 0 3000 0 3000 -513 0 -512 0 -35 -45 c-19 -24 -38 -44 -41 -45 -4 0 -25 20 -48 45 l-41 45 -551 0 c-437 0 -549 -3 -543 -12z m1844 -386 c69 -44 149 -91 178 -106 l52 -26 -35 -71 -36 -70 -66 36 c-83 45 -289 177 -326 207 l-27 23 46 58 c44 55 47 57 68 43 11 -9 77 -51 146 -94z"/>
 <path d="M2485 5230 c-8 -12 -3 -1672 5 -1915 6 -175 20 -227 78 -289 85 -90 230 -87 309 8 l28 34 170 -64 c94 -35 245 -89 336 -119 402 -133 560 -142 659 -40 30 31 35 43 38 98 3 50 0 72 -17 104 -39 78 -85 105 -297 178 -107 37 -194 72 -194 76 0 36 77 349 85 349 3 0 44 -26 92 -57 112 -73 211 -123 244 -123 42 0 117 26 153 54 77 58 100 178 52 261 -31 51 -53 69 -263 206 -84 54 -153 102 -153 106 0 15 107 306 155 423 26 63 83 192 127 285 44 94 82 176 85 182 3 9 -67 48 -207 117 l-211 104 -25 -37 c-75 -113 -252 -552 -337 -836 -85 -281 -206 -760 -219 -866 l-3 -26 -121 45 -121 46 -7 195 c-3 108 -8 486 -12 841 -3 355 -7 651 -9 658 -6 16 -410 18 -420 2z"/>
 <path d="M1870 5198 c-54 -28 -90 -78 -90 -126 0 -19 25 -111 55 -204 100 -308 130 -532 106 -788 -20 -205 -45 -275 -110 -306 -31 -15 -45 -15 -110 -5 -42 6 -78 15 -82 19 -25 26 -249 1232 -249 1337 0 12 -6 28 -12 37 -12 14 -33 11 -206 -27 -107 -24 -198 -47 -202 -51 -10 -10 -2 -52 126 -744 108 -581 196 -1005 258 -1247 l23 -93 -101 8 c-55 4 -148 7 -206 7 l-105 0 -3 -199 c-1 -110 1 -203 5 -207 8 -7 190 -23 392 -33 51 -3 96 -7 99 -10 5 -6 -54 -79 -145 -178 -153 -167 -72 -411 137 -412 127 -1 259 116 464 411 l57 82 -55 43 -56 43 198 6 c108 3 204 9 213 13 12 5 40 -31 124 -156 132 -198 252 -362 297 -405 50 -48 111 -75 182 -80 76 -7 123 7 161 47 35 36 64 122 59 172 l-3 39 107 -6 c246 -15 428 -21 612 -21 183 1 198 2 247 25 95 42 152 132 137 212 -19 98 -81 158 -179 173 -22 3 -137 8 -255 11 -118 3 -244 7 -280 10 -36 2 -112 7 -170 10 -58 3 -199 15 -314 27 l-209 21 -132 201 c-73 111 -172 270 -220 354 -52 91 -93 151 -100 149 -26 -10 -355 -251 -355 -260 0 -5 14 -32 30 -59 17 -26 30 -51 30 -54 0 -2 -45 -4 -100 -3 -99 3 -101 3 -106 28 -3 14 -22 87 -41 161 -20 74 -38 145 -41 158 l-5 24 90 -7 c228 -18 352 49 437 236 43 94 64 176 81 314 17 144 16 508 -2 650 -25 200 -113 489 -178 587 -55 83 -207 115 -305 66z"/>
 <path d="M1700 1494 c-106 -29 -213 -111 -274 -213 -60 -99 -64 -127 -57 -396 l7 -240 33 -68 c43 -90 121 -168 208 -210 l68 -32 500 -5 c275 -3 520 -2 545 3 128 21 256 120 318 246 l37 75 3 210 c3 175 6 212 19 221 23 17 9 90 -33 173 -62 125 -192 220 -330 242 -33 6 -268 10 -524 9 -376 0 -475 -3 -520 -15z"/>
 </g>

</svg>