<?xml version="1.0" encoding="utf-8"?>
<!-- Generator: Adobe Illustrator 21.1.0, SVG Export Plug-In . SVG Version: 6.00 Build 0)  -->
<svg version="1.1" id="圖層_1" xmlns="http://www.w3.org/2000/svg" xmlns:xlink="http://www.w3.org/1999/xlink" x="0px" y="0px"
	 viewBox="0 0 40 40" style="enable-background:new 0 0 40 40;" xml:space="preserve">
<style type="text/css">
	.st0{fill:#FFFFFF;}
</style>
<path class="st0" d="M24.6,11c-2.4-1.2-5.2-1.5-7.7-0.6c-2.6,0.8-4.7,2.6-5.9,5s-1.5,5.2-0.6,7.7c0.8,2.6,2.6,4.7,5,5.9
	c1.5,0.7,3,1.1,4.6,1.1c1,0,2.1-0.2,3.1-0.5c2.6-0.8,4.7-2.6,5.9-5C31.6,19.7,29.6,13.5,24.6,11z M15.7,28.4
	c-2.2-1.1-3.9-3.1-4.7-5.5c-0.8-2.4-0.6-4.9,0.6-7.2c0.1-0.1,0.2-0.3,0.2-0.4v0.1l0.5,0.9l0.5,0.2c0,0,0.1,0.4,0.3,0.5L13,17.3
	l0.4,0.3v-0.1l0.7,0.3l0.1,0.3l0.3,0.1l0.4,0.2l0.4,0.8l0.7,0.3l0,0.6l-0.6,0.2l-0.2,0.5L15,21.1l0.4,1.1v0.3v0.1l0.2,0.5l-0.5,1.6
	l0.5,0.2l-0.2,0.7l0.3,0.6L15.5,27l0.2,0.9l0.4,0.7l0.6,0.2l0.1-0.2l-0.3-0.5l0.1-0.2l0.1-0.2l0.1-0.2l-0.3-0.1l-0.1-0.2l0.3-0.2
	l0.1-0.2l-0.2-0.1l0.1-0.2h0.4l0.6-0.1l0.3-0.3l0.8-0.6v-0.6l0.3-0.3l0.5,0.2l0.4-0.2l0.4-1.1l0.5-0.4l0.2-0.3l-0.3-0.2l-0.1-0.5
	L19.9,22l-0.6-0.4l0.1-0.5l-0.1-0.4l-0.6-0.2l-0.2-0.6l-0.3-0.2l-0.1,0.2l-0.6-0.1l-0.1-0.3L17,19l-0.6,0.4L15.6,19l0.2-0.9
	l-0.5-0.3l0.3-0.4v-0.3l-0.9,0.3l-0.4-0.2l0-0.2l0.2-0.3l0.4-0.4l0.7-0.1l1.1,0.3l-0.1,0.4l0.3,0.3l0.1-0.6l0.4-0.2l0.7-0.2l0.1-0.3
	l1.1-0.5l0.4-0.1v-0.1l0.5-0.3l0.1,0.1v0.1l0.2-0.1l0,0l-0.3-0.1h0.2l0.2,0.1l0.2,0.3l0.6,0.3h0.1h0.2l0.1-0.2l-0.3-0.3V15h0.4
	l0.5-1.3l0,0l0,0l0,0l0,0l-0.2-0.5L22,13l-0.6-1l0,0l-0.1-0.2h-0.4l-0.3,0.1v0.5l-0.3-0.1V12l0.4-0.2l-0.6-0.2h-0.2l-0.1,0.2
	l0.2,0.1L19.9,12l-0.4-0.1L19.4,12l-0.6-0.1l0.1-0.3l0.5,0.1l0.4-0.2l-0.2-0.1l-0.3,0.2l-0.4-0.2L18.8,11l-0.3-0.1l0,0
	c0.5-0.1,1.1-0.1,1.6-0.1c1.5,0,2.9,0.3,4.3,1c1.6,0.8,2.8,2,3.7,3.4h-0.3l-0.2,0.1v0.2l0.2,0.1V16l0.4-0.1v0.2l-0.3,0.2h-0.1
	l-0.4-0.1l-0.5,0.4l-0.5-0.1L26,16.9l0.2,0.1l-0.1,0.3L25.6,17h-0.5L25,17.2l-0.1,0.5l0.1,0.1l-0.8,0.4l0,0L24,18.7l-1,0.4l0.2,0.3
	l0.2,0.1l-0.2,0.4H23l-0.3,0.9l0.6,1.4l0.4,0.1l0,0l0.7,0.2l0.2,0.1l0.4,0.1h0.2l0.6,0.1l-0.3,0.7l0.3,1.3l-0.5,0.6l-0.4,0.2
	l-0.2,0.2l-0.2,0.8l0.4,0.6L24.7,28C22,29.7,18.6,29.9,15.7,28.4z"/>
</svg>
