<?xml version="1.0" encoding="utf-8"?>
<!-- Generator: Adobe Illustrator 21.1.0, SVG Export Plug-In . SVG Version: 6.00 Build 0)  -->
<svg version="1.1" id="圖層_1" xmlns="http://www.w3.org/2000/svg" xmlns:xlink="http://www.w3.org/1999/xlink" x="0px" y="0px"
	 viewBox="0 0 40 40" style="enable-background:new 0 0 40 40;" xml:space="preserve">
<style type="text/css">
	.st0{fill:#1A4580;}
</style>
<path class="st0" d="M25.2,17.2h-0.4c-0.1,0-0.2,0-0.3,0.1L20,21.2l-4.4-3.9c-0.1-0.1-0.2-0.1-0.3-0.1h-0.4c-0.3,0-0.5,0.2-0.5,0.5
	l0,0c0,0.1,0.1,0.3,0.2,0.4l5.2,4.6c0.1,0.1,0.2,0.1,0.3,0.1c0.1,0,0.2,0,0.3-0.1c5.4-4.8,5.4-4.8,5.4-5.1
	C25.7,17.4,25.5,17.2,25.2,17.2z"/>
</svg>
