<?xml version="1.0" encoding="utf-8"?>
<!-- Generator: Adobe Illustrator 21.1.0, SVG Export Plug-In . SVG Version: 6.00 Build 0)  -->
<svg version="1.1" id="圖層_1" xmlns="http://www.w3.org/2000/svg" xmlns:xlink="http://www.w3.org/1999/xlink" x="0px" y="0px"
	 viewBox="0 0 40 40" style="enable-background:new 0 0 40 40;" xml:space="preserve">
<style type="text/css">
	.st0{fill:#FFFFFF;}
</style>
<g>
	<path class="st0" d="M16,3.8L16,3.8c5.3,0,9.9,3.6,11.1,8.8c1.5,6.1-2.3,12.3-8.4,13.8c-0.9,0.2-1.8,0.3-2.7,0.3
		c-5.3,0-9.9-3.6-11.1-8.8c-0.7-3-0.2-6,1.4-8.7s4.1-4.4,7.1-5.2C14.1,3.9,15.1,3.8,16,3.8 M16,1.3c-1.1,0-2.2,0.1-3.3,0.4
		C5.2,3.5,0.6,11,2.4,18.5c1.5,6.4,7.3,10.7,13.5,10.7c1.1,0,2.2-0.1,3.3-0.4C26.7,27,31.3,19.5,29.5,12C28,5.6,22.3,1.3,16,1.3
		L16,1.3z"/>
</g>
<g>
	<rect x="31" y="26.5" transform="matrix(0.7071 -0.7071 0.7071 0.7071 -13.8028 32.8657)" class="st0" width="3.5" height="13.1"/>
</g>
</svg>
