<?xml version="1.0" encoding="utf-8"?>
<!-- Generator: Adobe Illustrator 21.0.0, SVG Export Plug-In . SVG Version: 6.00 Build 0)  -->
<svg version="1.1" id="圖層_1" xmlns="http://www.w3.org/2000/svg" xmlns:xlink="http://www.w3.org/1999/xlink" x="0px" y="0px"
	 viewBox="0 0 30 30" style="enable-background:new 0 0 30 30;" xml:space="preserve">
<style type="text/css">
	.st0{fill:#686868;}
</style>
<g>
	<g id="XMLID_7301_">
		<path id="XMLID_7302_" class="st0" d="M12.6,5C6.9,5,2.3,8.6,2.3,13.1s4.7,8,10.4,8S23,17.6,23,13.1S18.3,5,12.6,5z M12.6,18.7
			c-4.3,0-7.8-2.5-7.8-5.6c0-3.1,3.5-5.6,7.8-5.6s7.8,2.5,7.8,5.6S16.9,18.7,12.6,18.7z"/>
	</g>
	<path id="XMLID_7300_" class="st0" d="M6.9,19.3l0.2,4.2c0,0.5,0.6,0.7,0.9,0.4l3.8-3.1L6.9,19.3z"/>
	<path id="XMLID_7299_" class="st0" d="M24.1,23.5L24,26.2c0,0.3-0.3,0.5-0.6,0.3l-2.4-2L24.1,23.5z"/>
	<path id="XMLID_7298_" class="st0" d="M15.8,12.2H9.3c-0.5,0-0.8-0.3-0.8-0.8l0,0c0-0.5,0.3-0.8,0.8-0.8h6.5c0.5,0,0.8,0.3,0.8,0.8
		l0,0C16.6,11.8,16.3,12.2,15.8,12.2z"/>
	<path id="XMLID_7297_" class="st0" d="M15.8,15.6H9.3c-0.5,0-0.8-0.3-0.8-0.8l0,0c0-0.5,0.3-0.8,0.8-0.8h6.5c0.5,0,0.8,0.3,0.8,0.8
		l0,0C16.6,15.2,16.3,15.6,15.8,15.6z"/>
	<g id="XMLID_7295_">
		<path id="XMLID_7296_" class="st0" d="M24.3,14c-0.1,0.6-0.2,1.2-0.5,1.8c1.3,0.7,2,1.9,2,3.1c0,2.3-2.6,4.1-5.7,4.1
			c-1.5,0-3-0.5-4-1.2c-0.7,0.2-1.5,0.3-2.3,0.4c1.4,1.6,3.6,2.6,6.3,2.6c4.2,0,7.6-2.6,7.6-5.9C27.7,16.9,26.3,15.1,24.3,14z"/>
	</g>
</g>
</svg>
