<?xml version="1.0" encoding="utf-8"?>
<!-- Generator: Adobe Illustrator 19.0.0, SVG Export Plug-In . SVG Version: 6.00 Build 0)  -->
<svg version="1.1" id="圖層_1" xmlns="http://www.w3.org/2000/svg" xmlns:xlink="http://www.w3.org/1999/xlink" x="0px" y="0px"
	 viewBox="-66 309.3 461.3 223.8" style="enable-background:new -66 309.3 461.3 223.8;" xml:space="preserve">
<style type="text/css">
	.st0{fill:#FFFFFF;}
</style>
<g>
	<g>
		<path class="st0" d="M218.4,325c0-4.5,4.3-8.1,9.7-8.1c5.4,0,9.7,3.6,9.7,8.1c0,4.5-4.3,8.1-9.7,8.1
			C222.8,333.1,218.4,329.5,218.4,325z"/>
		<path class="st0" d="M245.4,325c0-4.5,4.3-8.1,9.7-8.1c5.4,0,9.7,3.6,9.7,8.1c0,4.5-4.3,8.1-9.7,8.1
			C249.7,333.1,245.4,329.5,245.4,325z"/>
		<path class="st0" d="M272.3,325c0-4.5,4.3-8.1,9.7-8.1c5.4,0,9.7,3.6,9.7,8.1c0,4.5-4.3,8.1-9.7,8.1
			C276.7,333.1,272.3,329.5,272.3,325z"/>
		<path class="st0" d="M299.3,325c0-4.5,4.3-8.1,9.7-8.1c5.4,0,9.7,3.6,9.7,8.1c0,4.5-4.3,8.1-9.7,8.1
			C303.6,333.1,299.3,329.5,299.3,325z"/>
	</g>
	<g>
		<path class="st0" d="M236.2,349.2c0-4.5,4.3-8.1,9.7-8.1c5.4,0,9.7,3.6,9.7,8.1c0,4.5-4.3,8.1-9.7,8.1
			C240.5,357.3,236.2,353.6,236.2,349.2z"/>
		<path class="st0" d="M263.1,349.2c0-4.5,4.3-8.1,9.7-8.1c5.4,0,9.7,3.6,9.7,8.1c0,4.5-4.3,8.1-9.7,8.1
			C267.5,357.3,263.1,353.6,263.1,349.2z"/>
		<path class="st0" d="M290.1,349.2c0-4.5,4.3-8.1,9.7-8.1c5.4,0,9.7,3.6,9.7,8.1c0,4.5-4.3,8.1-9.7,8.1
			C294.4,357.3,290.1,353.6,290.1,349.2z"/>
		<path class="st0" d="M317,349.2c0-4.5,4.3-8.1,9.7-8.1c5.4,0,9.7,3.6,9.7,8.1c0,4.5-4.3,8.1-9.7,8.1
			C321.4,357.3,317,353.6,317,349.2z"/>
	</g>
	<g>
		<path class="st0" d="M254,373.3c0-4.5,4.3-8.1,9.7-8.1c5.4,0,9.7,3.6,9.7,8.1c0,4.5-4.3,8.1-9.7,8.1
			C258.3,381.5,254,377.8,254,373.3z"/>
		<path class="st0" d="M280.9,373.3c0-4.5,4.3-8.1,9.7-8.1c5.4,0,9.7,3.6,9.7,8.1c0,4.5-4.3,8.1-9.7,8.1
			C285.3,381.5,280.9,377.8,280.9,373.3z"/>
		<path class="st0" d="M307.9,373.3c0-4.5,4.3-8.1,9.7-8.1c5.4,0,9.7,3.6,9.7,8.1c0,4.5-4.3,8.1-9.7,8.1
			C312.2,381.5,307.9,377.8,307.9,373.3z"/>
		<path class="st0" d="M334.8,373.3c0-4.5,4.3-8.1,9.7-8.1c5.4,0,9.7,3.6,9.7,8.1c0,4.5-4.3,8.1-9.7,8.1
			C339.2,381.5,334.8,377.8,334.8,373.3z"/>
	</g>
	<path class="st0" d="M298.7,397.5c0-4.5,4.3-8.1,9.7-8.1c5.4,0,9.7,3.6,9.7,8.1c0,4.5-4.3,8.1-9.7,8.1
		C303.1,405.6,298.7,402,298.7,397.5z"/>
	<path class="st0" d="M325.7,397.5c0-4.5,4.3-8.1,9.7-8.1c5.4,0,9.7,3.6,9.7,8.1c0,4.5-4.3,8.1-9.7,8.1
		C330,405.6,325.7,402,325.7,397.5z"/>
	<path class="st0" d="M352.6,397.5c0-4.5,4.3-8.1,9.7-8.1c5.4,0,9.7,3.6,9.7,8.1c0,4.5-4.3,8.1-9.7,8.1
		C357,405.6,352.6,402,352.6,397.5z"/>
	<g>
		<path class="st0" d="M289.6,421.7c0-4.5,4.3-8.1,9.7-8.1c5.4,0,9.7,3.6,9.7,8.1c0,4.5-4.3,8.1-9.7,8.1
			C293.9,429.8,289.6,426.2,289.6,421.7z"/>
		<path class="st0" d="M316.5,421.7c0-4.5,4.3-8.1,9.7-8.1c5.4,0,9.7,3.6,9.7,8.1c0,4.5-4.3,8.1-9.7,8.1
			C320.8,429.8,316.5,426.2,316.5,421.7z"/>
		<path class="st0" d="M343.5,421.7c0-4.5,4.3-8.1,9.7-8.1c5.4,0,9.7,3.6,9.7,8.1c0,4.5-4.3,8.1-9.7,8.1
			C347.8,429.8,343.5,426.2,343.5,421.7z"/>
		<path class="st0" d="M370.4,421.7c0-4.5,4.3-8.1,9.7-8.1c5.4,0,9.7,3.6,9.7,8.1c0,4.5-4.3,8.1-9.7,8.1
			C374.7,429.8,370.4,426.2,370.4,421.7z"/>
	</g>
	<g>
		<path class="st0" d="M218.4,518.5c0,4.5,4.3,8.1,9.7,8.1c5.4,0,9.7-3.6,9.7-8.1c0-4.5-4.3-8.1-9.7-8.1
			C222.8,510.3,218.4,514,218.4,518.5z"/>
		<path class="st0" d="M245.4,518.5c0,4.5,4.3,8.1,9.7,8.1c5.4,0,9.7-3.6,9.7-8.1c0-4.5-4.3-8.1-9.7-8.1
			C249.7,510.3,245.4,514,245.4,518.5z"/>
		<path class="st0" d="M272.3,518.5c0,4.5,4.3,8.1,9.7,8.1c5.4,0,9.7-3.6,9.7-8.1c0-4.5-4.3-8.1-9.7-8.1
			C276.7,510.3,272.3,514,272.3,518.5z"/>
		<path class="st0" d="M299.3,518.5c0,4.5,4.3,8.1,9.7,8.1c5.4,0,9.7-3.6,9.7-8.1c0-4.5-4.3-8.1-9.7-8.1
			C303.6,510.3,299.3,514,299.3,518.5z"/>
	</g>
	<g>
		<path class="st0" d="M236.2,494.3c0,4.5,4.3,8.1,9.7,8.1c5.4,0,9.7-3.6,9.7-8.1c0-4.5-4.3-8.1-9.7-8.1
			C240.5,486.1,236.2,489.8,236.2,494.3z"/>
		<path class="st0" d="M263.1,494.3c0,4.5,4.3,8.1,9.7,8.1c5.4,0,9.7-3.6,9.7-8.1c0-4.5-4.3-8.1-9.7-8.1
			C267.5,486.1,263.1,489.8,263.1,494.3z"/>
		<path class="st0" d="M290.1,494.3c0,4.5,4.3,8.1,9.7,8.1c5.4,0,9.7-3.6,9.7-8.1c0-4.5-4.3-8.1-9.7-8.1
			C294.4,486.1,290.1,489.8,290.1,494.3z"/>
		<ellipse class="st0" cx="326.7" cy="494.3" rx="9.7" ry="8.1"/>
	</g>
	<path class="st0" d="M280.9,470.1c0,4.5,4.3,8.1,9.7,8.1c5.4,0,9.7-3.6,9.7-8.1c0-4.5-4.3-8.1-9.7-8.1
		C285.3,462,280.9,465.6,280.9,470.1z"/>
	<path class="st0" d="M307.9,470.1c0,4.5,4.3,8.1,9.7,8.1c5.4,0,9.7-3.6,9.7-8.1c0-4.5-4.3-8.1-9.7-8.1
		C312.2,462,307.9,465.6,307.9,470.1z"/>
	<path class="st0" d="M334.8,470.1c0,4.5,4.3,8.1,9.7,8.1c5.4,0,9.7-3.6,9.7-8.1c0-4.5-4.3-8.1-9.7-8.1
		C339.2,462,334.8,465.6,334.8,470.1z"/>
	<path class="st0" d="M298.7,445.9c0,4.5,4.3,8.1,9.7,8.1c5.4,0,9.7-3.6,9.7-8.1c0-4.5-4.3-8.1-9.7-8.1
		C303.1,437.8,298.7,441.4,298.7,445.9z"/>
	<path class="st0" d="M325.7,445.9c0,4.5,4.3,8.1,9.7,8.1c5.4,0,9.7-3.6,9.7-8.1c0-4.5-4.3-8.1-9.7-8.1
		C330,437.8,325.7,441.4,325.7,445.9z"/>
	<path class="st0" d="M352.6,445.9c0,4.5,4.3,8.1,9.7,8.1c5.4,0,9.7-3.6,9.7-8.1c0-4.5-4.3-8.1-9.7-8.1
		C357,437.8,352.6,441.4,352.6,445.9z"/>
	<path class="st0" d="M290,391.7h-0.3v0h-44.2c-0.9,0-2.7,0.2-3.6,0.4c-13.7,2-25.5,13.5-27,26.8c-0.3,2.3-0.2,4.4,0.1,6.5
		c1.3,10,9,17.2,19.5,17.7c1,0.1,2,0.1,3.1,0.1v0h16.6c0,0,0,0,0,0c0.6,0,1.1,0,1.7,0c4.2,0.2,7.3,3.1,7.9,7.1
		c0.1,0.8,0.2,1.7,0.1,2.6c-0.6,5.7-6.7,10.6-12.6,10.9c-0.4,0-0.8,0.1-1.3,0.1h-43.1l-3.5,11.1c0,0,0,0,0,0.1l-0.7,2.2l-0.3,1
		c0,0,0,0,0,0l-0.1,0.4c-0.1,0.2,0.1,0.4,0.3,0.4h3.7h0h45.5c0.9,0,2.7-0.2,3.6-0.4c13.7-2,25.5-13.5,27-26.8
		c0.3-2.3,0.2-4.5-0.1-6.5c-1.3-10-9-17.2-19.6-17.7c-1.1-0.1-2.3-0.2-3.4-0.1v0h-16.2c0,0,0,0,0,0c-0.6,0-1.1,0-1.7,0
		c-4.2-0.2-7.3-3.1-7.9-7.1c-0.1-0.8-0.2-1.7-0.1-2.6c0.7-5.7,5.9-10.2,11.8-10.5c0.4,0,0.8-0.1,1.3-0.1h39.1L290,393l0,0l0.1-0.3
		l0.1-0.5c0,0,0,0,0,0l0.1-0.2C290.3,391.8,290.2,391.7,290,391.7z"/>
	<path class="st0" d="M7.8,407H6.2c-0.2,0-0.6,0-0.7-0.2c-0.2-0.2-0.2-0.4-0.1-0.7l0,0l5.1-9.3c0.4-0.9,1-1.7,1.8-2.4
		c2-2,4.5-3.1,7.1-3.4l0,0c3.2-0.4,6.5-0.5,9.8-0.5l0,0h50.3l5.3-17.2l0.4-1.2c0.1-0.2-0.1-0.4-0.3-0.4l-97.9,0l0,0
		c-6.8-0.1-13.6,0.2-20.2,1l0,0.1c-5.4,0.6-10.6,3-14.7,7.1c-1.5,1.5-2.7,3.2-3.6,5l-9.8,18.5l-0.1,0.1c-0.5,1.2-0.4,2.4,0.3,3.2
		c0.8,0.8,2.3,1,3.4,1h42.8l-17.6,57.4l0,0.2c-0.9,4.2,0.2,7.3,3,10.1c2.7,2.7,6.2,4,9.7,4h0.9h31.9L35.1,407H7.8z"/>
	<path class="st0" d="M194.3,435.8c-0.8-0.6-1.7-1.2-2.7-1.7c-0.5-0.3-1-0.5-1.5-0.7c6.3-4,11.2-9.5,12.7-16.7
		c0.4-2.2,0.6-5.1,0.3-7.1c-1.3-10-10.8-17.2-21.3-17.7c-1.1-0.1-3.4-0.1-3.4-0.1l-44,0c-5.7,0-6.3-0.2-9.5,3.2
		c-0.7,0.7-1.2,1.4-1.2,1.4l-65.1,69c-0.1,0-0.5,0.4-0.8,0.4c-0.5,0-0.9-0.4-1-0.9L74.4,407H55.6l-20.9,68.2c0,0,0,0,0,0l-1.1,3.7
		c-0.1,0.2,0.1,0.4,0.3,0.4h0.8h35.7l64.1-72.1h40.7c0,0,1.9,0,2.4,0.1c4.2,0.2,7.3,3.1,7.9,7.1c0.1,0.8,0.2,1.7,0.1,2.6
		c-0.7,5.7-8.5,10.6-14.4,10.9c-0.4,0-0.8,0.1-1.3,0.1h-11l-4.7,15.2h18.5c0,0,0,0,0,0c0.6,0,1.1,0,1.7,0c4.2,0.2,7,3.1,7.5,7.1
		c0.1,0.8,0.2,1.7,0.1,2.6c-0.7,5.7-6.7,10.6-12.6,10.9c-0.4,0-0.8,0.1-1.3,0.1h-26.7l14.8-48.2h-20.4l-19.2,62.7l0,0l-0.1,0.4
		c-0.1,0.2,0.1,0.4,0.3,0.4h0.3l0,0H170c0.2,0,3.7,0,4.3-0.1c15-0.7,27.8-12.1,28.4-25.3c0.1-2.1-0.1-4.2-0.6-6.1
		C201.1,442.9,198.3,438.7,194.3,435.8z"/>
</g>
</svg>
