<?xml version="1.0" encoding="utf-8"?>
<!-- Generator: Adobe Illustrator 21.0.0, SVG Export Plug-In . SVG Version: 6.00 Build 0)  -->
<svg version="1.1" id="圖層_1" xmlns="http://www.w3.org/2000/svg" xmlns:xlink="http://www.w3.org/1999/xlink" x="0px" y="0px"
	 viewBox="0 0 30 30" style="enable-background:new 0 0 30 30;" xml:space="preserve">
<style type="text/css">
	.st0{fill:none;}
	.st1{fill:#FFFFFF;}
</style>
<g>
	<g>
		<g>
			<g>
				<g>
					<circle class="st0" cx="15.7" cy="25.9" r="1.6"/>
					<rect x="8.6" y="4.9" class="st0" width="13.8" height="18.4"/>
					<path class="st1" d="M22,1.1H9.4c-1.7,0-3.1,1.4-3.1,3.1v21.7c0,1.7,1.4,3.1,3.1,3.1H22c1.7,0,3.1-1.4,3.1-3.1V4.2
						C25.1,2.5,23.7,1.1,22,1.1z M15.7,27.5c-0.9,0-1.6-0.7-1.6-1.6c0-0.9,0.7-1.6,1.6-1.6c0.9,0,1.6,0.7,1.6,1.6
						C17.3,26.8,16.6,27.5,15.7,27.5z M22.3,23.3H8.6V4.9h13.8V23.3z"/>
				</g>
			</g>
		</g>
	</g>
	<polygon class="st1" points="10.7,14.6 15.4,19.7 20.8,14.7 19,14.7 19,9.3 12.4,9.3 12.4,14.6 	"/>
</g>
</svg>
