<?xml version="1.0" encoding="utf-8"?>
<!-- Generator: Adobe Illustrator 21.0.0, SVG Export Plug-In . SVG Version: 6.00 Build 0)  -->
<svg version="1.1" id="圖層_1" xmlns="http://www.w3.org/2000/svg" xmlns:xlink="http://www.w3.org/1999/xlink" x="0px" y="0px"
	 viewBox="0 0 30 30" style="enable-background:new 0 0 30 30;" xml:space="preserve">
<style type="text/css">
	.st0{fill:#FFFFFF;}
</style>
<path class="st0" d="M14.7,21c3.7,0,6.7-3,6.7-6.7v-2.5H8v2.5C8,18,11,21,14.7,21z"/>
<path class="st0" d="M21.4,7.6c0-2.2-1-4.1-2.7-5.3v3.8c0,0.6-0.5,1.1-1.1,1.1h-0.5c-0.6,0-1.1-0.5-1.1-1.1v-5
	c-0.5-0.1-1-0.2-1.4-0.2c-0.5,0-1,0.1-1.4,0.2v5c0,0.6-0.5,1.1-1.1,1.1h-0.5c-0.6,0-1.1-0.5-1.1-1.1V2.3C9.1,3.5,8,5.5,8,7.6v2.5
	h13.4V7.6z"/>
<path class="st0" d="M24.5,16.8c0-0.5-0.4-1-1-1c-0.6,0-1,0.4-1,1c0,3.4-3.5,6.3-7.8,6.3c-4.3,0-7.8-2.8-7.8-6.3c0-0.5-0.5-1-1-1
	c-0.6,0-1,0.4-1,1c0,4.1,3.5,7.5,8.1,8.1C13,25.1,13,25.3,13,25.5v1.8h-2.6c-0.5,0-0.9,0.4-0.9,0.9c0,0.5,0.4,0.9,0.9,0.9h8.8
	c0.5,0,0.9-0.4,0.9-0.9c0-0.5-0.4-0.9-0.9-0.9h-2.6v-1.8c0-0.2,0-0.4-0.1-0.6C21,24.3,24.5,20.9,24.5,16.8z"/>
</svg>
