<?xml version="1.0" encoding="utf-8"?>
<!-- Generator: Adobe Illustrator 21.0.0, SVG Export Plug-In . SVG Version: 6.00 Build 0)  -->
<svg version="1.1" id="圖層_1" xmlns="http://www.w3.org/2000/svg" xmlns:xlink="http://www.w3.org/1999/xlink" x="0px" y="0px"
	 viewBox="0 0 80 80" style="enable-background:new 0 0 80 80;" xml:space="preserve">
<style type="text/css">
	.st0{fill:#EC8F26;}
	.st1{fill:#CBCCCC;}
</style>
<g>
	<path id="XMLID_1341_" class="st0" d="M54.4,49.9c-0.3,0-0.5,0-0.7-0.1c-1.2-0.4-1.8-1.7-1.5-2.9c0.3-0.7,0.4-1.5,0.5-2.3
		c0.5-5.2-3.4-9.6-8.5-10.1c-2.5-0.2-5.2,0.6-7.1,2.4c-0.5,0.5-1,1-1.4,1.6c-0.7,1-2.1,1.3-3.2,0.6c-1-0.7-1.3-2.1-0.6-3.2
		c0.6-0.9,1.3-1.7,2.1-2.4c2.8-2.6,6.7-3.9,10.5-3.6c7.6,0.6,13.3,7.3,12.7,15c-0.1,1.2-0.4,2.3-0.7,3.4
		C56.2,49.2,55.3,49.9,54.4,49.9z"/>
	<path id="XMLID_1340_" class="st0" d="M32.2,32.8c-0.6,0-1.3-0.3-1.7-0.8l-3.9-4.6c-0.8-1-0.7-2.4,0.3-3.2c1-0.8,2.4-0.7,3.2,0.3
		l3.9,4.6c0.8,1,0.7,2.4-0.3,3.2C33.2,32.6,32.8,32.8,32.2,32.8z"/>
	<path id="XMLID_1339_" class="st0" d="M66.9,48c-0.1,0-0.1,0-0.2,0l-6.1-0.5c-1.3-0.2-2.2-1.3-2.1-2.5s1.2-2.2,2.4-2.1l6.1,0.5
		c1.3,0.1,2.2,1.2,2.1,2.4C68.9,47.1,67.9,48,66.9,48z"/>
	<path id="XMLID_1338_" class="st0" d="M56.7,34.9c-0.6,0-1.3-0.3-1.7-0.8c-0.8-1-0.7-2.4,0.3-3.2l4.6-3.9c1-0.8,2.4-0.7,3.2,0.3
		c0.8,1,0.7,2.4-0.3,3.2l-4.6,3.9C57.8,34.7,57.2,34.9,56.7,34.9z"/>
	<path id="XMLID_1337_" class="st0" d="M44.9,28.8c-0.1,0-0.1,0-0.2,0c-1.3-0.1-2.2-1.2-2.1-2.4l0.5-6.1c0.1-1.3,1.2-2.2,2.4-2.1
		c1.3,0.1,2.2,1.2,2.1,2.4l-0.5,6.1C47.1,27.9,46.1,28.8,44.9,28.8z"/>
	<path id="XMLID_1334_" class="st1" d="M13.6,79.8L13.6,79.8c-7.3,0-13.1-5.9-13.1-13.1c0-5.7,3.7-10.6,8.9-12.4
		c-0.2-1-0.3-2.1-0.3-3.1c0-9.8,8-17.8,17.8-17.8c7.3,0,13.9,4.5,16.5,11.2c1.5-0.5,3.1-0.6,4.7-0.6c9.8,0,17.8,8,17.8,17.8
		s-8.2,18-17.9,18H13.6z M27,38c-7.3,0-13.2,5.9-13.2,13.2c0,1.4,0.2,2.7,0.6,4.1c0.2,0.6,0.1,1.4-0.3,1.9c-0.4,0.5-0.9,0.9-1.6,1
		C8.2,58.7,5,62.4,5,66.7c0,4.7,3.8,8.5,8.5,8.5H48c7.3,0,13.3-6.2,13.3-13.5c0-7.3-5.9-13.2-13.2-13.2c-1.8,0-3.6,0.4-5.3,1.1
		c-0.6,0.3-1.4,0.3-1.9-0.1c-0.6-0.3-1-0.8-1.2-1.5C38.4,42.1,33,38,27,38z"/>
</g>
</svg>
