<?xml version="1.0" encoding="utf-8"?>
<!-- Generator: Adobe Illustrator 21.0.0, SVG Export Plug-In . SVG Version: 6.00 Build 0)  -->
<svg version="1.1" id="圖層_1" xmlns="http://www.w3.org/2000/svg" xmlns:xlink="http://www.w3.org/1999/xlink" x="0px" y="0px"
	 viewBox="0 0 30 30" style="enable-background:new 0 0 30 30;" xml:space="preserve">
<style type="text/css">
	.st0{fill:#00BA00;}
</style>
<g id="XMLID_7400_">
	<path id="XMLID_7401_" class="st0" d="M27.6,14.5c0-5.6-5.6-10.2-12.6-10.2C8.1,4.3,2.4,8.8,2.4,14.5c0,5.1,4.5,9.3,10.5,10.1
		c0.4,0.1,1,0.3,1.1,0.6c0.1,0.3,0.1,0.8,0,1.1c0,0-0.1,0.9-0.2,1.1c-0.1,0.3-0.3,1.2,1.1,0.7c1.3-0.6,7.3-4.3,9.9-7.3h0
		C26.7,18.8,27.6,16.7,27.6,14.5z M10.6,17.5c0,0.1-0.1,0.2-0.2,0.2H6.8h0c-0.1,0-0.1,0-0.2-0.1c0,0,0,0,0,0c0,0,0,0,0,0
		c0,0-0.1-0.1-0.1-0.2v0V12c0-0.1,0.1-0.2,0.2-0.2h0.9c0.1,0,0.2,0.1,0.2,0.2v4.4h2.4c0.1,0,0.2,0.1,0.2,0.2V17.5z M12.7,17.5
		c0,0.1-0.1,0.2-0.2,0.2h-0.9c-0.1,0-0.2-0.1-0.2-0.2V12c0-0.1,0.1-0.2,0.2-0.2h0.9c0.1,0,0.2,0.1,0.2,0.2V17.5z M18.8,17.5
		c0,0.1-0.1,0.2-0.2,0.2h-0.9c0,0,0,0-0.1,0c0,0,0,0,0,0c0,0,0,0,0,0c0,0,0,0,0,0c0,0,0,0,0,0c0,0,0,0,0,0c0,0,0,0,0,0c0,0,0,0,0,0
		c0,0,0,0,0,0c0,0,0,0-0.1-0.1l-2.5-3.4v3.3c0,0.1-0.1,0.2-0.2,0.2h-0.9c-0.1,0-0.2-0.1-0.2-0.2V12c0-0.1,0.1-0.2,0.2-0.2h0.9
		c0,0,0,0,0,0c0,0,0,0,0,0c0,0,0,0,0,0c0,0,0,0,0,0c0,0,0,0,0,0c0,0,0,0,0,0c0,0,0,0,0,0c0,0,0,0,0,0c0,0,0,0,0,0c0,0,0,0,0,0
		c0,0,0,0,0,0c0,0,0,0,0,0c0,0,0,0,0,0c0,0,0,0,0,0c0,0,0,0,0,0c0,0,0,0,0,0c0,0,0,0,0,0c0,0,0,0,0,0c0,0,0,0,0,0l2.5,3.4V12
		c0-0.1,0.1-0.2,0.2-0.2h0.9c0.1,0,0.2,0.1,0.2,0.2V17.5z M23.6,12.9c0,0.1-0.1,0.2-0.2,0.2H21v0.9h2.4c0.1,0,0.2,0.1,0.2,0.2v0.9
		c0,0.1-0.1,0.2-0.2,0.2H21v0.9h2.4c0.1,0,0.2,0.1,0.2,0.2v0.9c0,0.1-0.1,0.2-0.2,0.2h-3.5h0c-0.1,0-0.1,0-0.2-0.1c0,0,0,0,0,0
		c0,0,0,0,0,0c0,0-0.1-0.1-0.1-0.2v0V12v0c0-0.1,0-0.1,0.1-0.2c0,0,0,0,0,0c0,0,0,0,0,0c0,0,0.1-0.1,0.2-0.1h0h3.5
		c0.1,0,0.2,0.1,0.2,0.2V12.9z"/>
</g>
</svg>
