<?xml version="1.0" encoding="utf-8"?>
<!-- Generator: Adobe Illustrator 21.0.2, SVG Export Plug-In . SVG Version: 6.00 Build 0)  -->
<svg version="1.1" id="圖層_1" xmlns="http://www.w3.org/2000/svg" xmlns:xlink="http://www.w3.org/1999/xlink" x="0px" y="0px"
	 width="30px" height="30px" viewBox="0 0 30 30" style="enable-background:new 0 0 30 30;" xml:space="preserve">
<style type="text/css">
	.st0{display:none;}
	.st1{display:inline;}
	.st2{fill:#686868;}
	.st3{fill:#3B5998;}
	.st4{fill:#DC4A3D;}
	.st5{display:inline;fill:#5F2684;}
	.st6{fill:none;}
	.st7{fill:#5F2684;}
</style>
<g id="圖層_1_1_" class="st0">
	<g id="XMLID_7392_" class="st1">
		<path id="XMLID_7393_" class="st2" d="M17,16.2h4l0.7-4.7h-4.6V8.6c0-1.3,0.3-2.3,2.3-2.3h2.5V2.2C21.3,2.1,19.8,2,18.1,2
			c-3.6,0-6,2.2-6,6.1v3.4h-4v4.7h4V28H17V16.2z"/>
	</g>
</g>
<g id="圖層_1_拷貝" class="st0">
	<g id="XMLID_1_" class="st1">
		<path id="XMLID_2_" class="st3" d="M17,16.2h4l0.7-4.7h-4.6V8.6c0-1.3,0.3-2.3,2.3-2.3h2.5V2.2C21.3,2.1,19.8,2,18.1,2
			c-3.6,0-6,2.2-6,6.1v3.4h-4v4.7h4V28H17V16.2z"/>
	</g>
</g>
<g id="圖層_3" class="st0">
	<g id="XMLID_7358_" class="st1">
		<path id="XMLID_7360_" class="st2" d="M17.7,3.3C17.6,3,17.3,2.8,17,2.8H9.9c-0.8,0-1.6,0.1-2.4,0.4C4.8,4.1,2.9,6.4,2.9,8.7
			c0,3.2,2.5,5.7,5.8,5.9c0,0.2-0.1,0.4-0.1,0.6c0,0.4,0.1,0.9,0.3,1.3c-3.2,0.1-6,1.6-7.1,4c-0.3,0.6-0.4,1.3-0.4,1.9
			s0.2,1.2,0.5,1.8c0.7,1.3,2.2,2.2,4.2,2.8c1,0.3,2.2,0.4,3.3,0.4c1,0,2-0.1,3-0.4c2.9-0.8,4.8-3,4.8-5.5c0-2.4-0.8-3.8-2.8-5.2
			c-0.9-0.6-1.6-1.4-1.6-1.6c0-0.4,0-0.6,1.1-1.5c1.5-1.2,2.3-2.7,2.3-4.3c0-1.3-0.4-2.5-1-3.4h0.2c0.2,0,0.3,0,0.4-0.1l1.6-1.2
			C17.7,3.9,17.8,3.6,17.7,3.3z M9.8,18.6L9.8,18.6c0.6,0,1.1,0.1,1.5,0.2c0.2,0.1,0.3,0.2,0.5,0.3c1.1,0.7,1.8,1.2,2,2
			c0,0.2,0.1,0.4,0.1,0.6c0,2-1.5,3-4.5,3c-2.2,0-4-1.4-4-3.1C5.4,20,7.5,18.6,9.8,18.6z M10.2,12.4L10.2,12.4
			c-1.5,0-2.9-1.8-3.2-3.8C6.8,7.5,7,6.5,7.6,5.8c0.3-0.4,0.8-0.6,1.3-0.6H9c1.5,0,2.9,1.7,3.2,3.8c0.1,1.1-0.1,2.2-0.7,2.8
			C11.1,12.2,10.7,12.4,10.2,12.4z"/>
		<path id="XMLID_7359_" class="st2" d="M28.6,13.3c0-0.4-0.3-0.7-0.7-0.7H24V8.7C24,8.3,23.7,8,23.3,8h-1.2c-0.4,0-0.7,0.3-0.7,0.7
			v3.9h-3.9c-0.4,0-0.7,0.3-0.7,0.7v1.2c0,0.4,0.3,0.7,0.7,0.7h3.9v3.9c0,0.4,0.3,0.7,0.7,0.7h1.2c0.4,0,0.7-0.3,0.7-0.7v-3.9h3.9
			c0.4,0,0.7-0.3,0.7-0.7V13.3z"/>
	</g>
	<g id="XMLID_3_" class="st1">
		<path id="XMLID_5_" class="st4" d="M17.7,3.3C17.6,3,17.3,2.8,17,2.8H9.9c-0.8,0-1.6,0.1-2.4,0.4C4.8,4.1,2.9,6.4,2.9,8.7
			c0,3.2,2.5,5.7,5.8,5.9c0,0.2-0.1,0.4-0.1,0.6c0,0.4,0.1,0.9,0.3,1.3c-3.2,0.1-6,1.6-7.1,4c-0.3,0.6-0.4,1.3-0.4,1.9
			s0.2,1.2,0.5,1.8c0.7,1.3,2.2,2.2,4.2,2.8c1,0.3,2.2,0.4,3.3,0.4c1,0,2-0.1,3-0.4c2.9-0.8,4.8-3,4.8-5.5c0-2.4-0.8-3.8-2.8-5.2
			c-0.9-0.6-1.6-1.4-1.6-1.6c0-0.4,0-0.6,1.1-1.5c1.5-1.2,2.3-2.7,2.3-4.3c0-1.3-0.4-2.5-1-3.4h0.2c0.2,0,0.3,0,0.4-0.1l1.6-1.2
			C17.7,3.9,17.8,3.6,17.7,3.3z M9.8,18.6L9.8,18.6c0.6,0,1.1,0.1,1.5,0.2c0.2,0.1,0.3,0.2,0.5,0.3c1.1,0.7,1.8,1.2,2,2
			c0,0.2,0.1,0.4,0.1,0.6c0,2-1.5,3-4.5,3c-2.2,0-4-1.4-4-3.1C5.4,20,7.5,18.6,9.8,18.6z M10.2,12.4L10.2,12.4
			c-1.5,0-2.9-1.8-3.2-3.8C6.8,7.5,7,6.5,7.6,5.8c0.3-0.4,0.8-0.6,1.3-0.6H9c1.5,0,2.9,1.7,3.2,3.8c0.1,1.1-0.1,2.2-0.7,2.8
			C11.1,12.2,10.7,12.4,10.2,12.4z"/>
		<path id="XMLID_4_" class="st4" d="M28.6,13.3c0-0.4-0.3-0.7-0.7-0.7H24V8.7C24,8.3,23.7,8,23.3,8h-1.2c-0.4,0-0.7,0.3-0.7,0.7
			v3.9h-3.9c-0.4,0-0.7,0.3-0.7,0.7v1.2c0,0.4,0.3,0.7,0.7,0.7h3.9v3.9c0,0.4,0.3,0.7,0.7,0.7h1.2c0.4,0,0.7-0.3,0.7-0.7v-3.9h3.9
			c0.4,0,0.7-0.3,0.7-0.7V13.3z"/>
	</g>
</g>
<g id="XMLID_7684_" class="st0">
	<path id="XMLID_7694_" class="st5" d="M26.4,11.4L23,8.8V5c0-0.6-0.4-1-1-1h-5.4l-0.9-0.7c-0.4-0.4-1-0.4-1.4,0L13.4,4H8
		C7.4,4,7,4.4,7,5v3.8l-3.3,2.5c0,0-0.7,0.5-0.7,1.3C3,13.8,3,26,3,26c0,0.6,0.4,1,1,1h22c0.6,0,1-0.4,1-1c0,0,0-12.4,0-13.5
		C27,11.9,26.4,11.4,26.4,11.4z M8,10.3V8.1V5h4.1h5.8H22v3.1v2.2v5.1l-4.5,3.3l-1.8-1.4c-0.4-0.4-1-0.4-1.4,0l-1.8,1.4L8,15.4V10.3
		z M5,12.5L7,11v3.6l-2-1.5V12.5z M5,14.6l6.4,4.9L5,24.4V14.6z M6.1,25l8.9-6.5l8.9,6.5H6.1z M25,24.4l-6.4-4.9l6.4-4.9V24.4z
		 M25,13.2l-2,1.5V11l2,1.5V13.2z"/>
	<rect id="XMLID_7693_" x="10" y="8" class="st5" width="10" height="1"/>
	<rect id="XMLID_7692_" x="10" y="11" class="st5" width="10" height="1"/>
	<rect id="XMLID_7685_" x="10" y="14" class="st5" width="10" height="1"/>
</g>
<g id="XMLID_55_">
	<polygon id="XMLID_78_" class="st6" points="24.7,23.7 24.7,14.9 18.9,19.3 	"/>
	<polygon id="XMLID_77_" class="st6" points="6.9,24.5 23.2,24.5 15,18.5 	"/>
	<polygon id="XMLID_76_" class="st6" points="5.4,14.9 5.4,23.7 11.2,19.3 	"/>
	<polygon id="XMLID_75_" class="st6" points="7,11.3 5.4,12.5 5.4,12.9 7,14.1 	"/>
	<polygon id="XMLID_74_" class="st6" points="23.1,14.2 24.7,13 24.7,12.5 23.1,11.3 	"/>
	<rect id="XMLID_73_" x="9.9" y="10.8" class="st7" width="10.2" height="1.4"/>
	<rect id="XMLID_72_" x="9.9" y="7.8" class="st7" width="10.2" height="1.4"/>
	<path id="XMLID_57_" class="st7" d="M26.3,11.1l-3.2-2.5V5c0-0.7-0.5-1.2-1.2-1.2h-5.2l-0.8-0.6c-0.5-0.4-1.3-0.4-1.7,0l-0.8,0.7
		H8.1c-0.7,0-1.2,0.5-1.2,1.2v3.6l-3.1,2.4c0,0.1-0.8,0.6-0.8,1.5v13.2C3,26.5,3.5,27,4.3,27h21.6c0.7,0,1.2-0.5,1.1-1.3V12.4
		C26.9,11.6,26.3,11.1,26.3,11.1z M8.6,5.6h13V15l-4,3l-1.5-1.2c-0.3-0.3-0.6-0.4-1-0.4s-0.7,0.1-0.9,0.4L12.6,18l-4-3V5.6z
		 M5.4,12.5L7,11.3v2.8l-1.6-1.2V12.5z M5.4,14.9l5.8,4.4l-5.8,4.4V14.9z M6.9,24.5l8.2-6l8.2,6H6.9z M24.7,23.7l-5.8-4.4l5.8-4.4
		V23.7z M24.7,13l-1.6,1.2v-2.9l1.6,1.2V13z"/>
	<rect id="XMLID_56_" x="9.9" y="13.7" class="st7" width="10.2" height="1.4"/>
</g>
</svg>
