<?xml version="1.0" encoding="utf-8"?>
<!-- Generator: Adobe Illustrator 21.0.2, SVG Export Plug-In . SVG Version: 6.00 Build 0)  -->
<svg version="1.1" xmlns="http://www.w3.org/2000/svg" xmlns:xlink="http://www.w3.org/1999/xlink" x="0px" y="0px" width="30px"
	 height="30px" viewBox="0 0 30 30" style="enable-background:new 0 0 30 30;" xml:space="preserve">
<style type="text/css">
	.st0{display:none;}
	.st1{display:inline;}
	.st2{display:inline;fill:#FFFFFF;}
	.st3{fill:#FFFFFF;}
	.st4{fill:none;stroke:#FFFFFF;stroke-width:2;stroke-miterlimit:10;}
</style>
<g id="圖層_2" class="st0">
	<rect class="st1" width="30" height="30"/>
</g>
<g id="圖層_1" class="st0">
	<path id="XMLID_11_" class="st2" d="M5.2,2L26,14c1.2,0.7,1.2,2.5,0,3.2l-20.8,12C4,29.9,2.4,29,2.4,27.6v-24C2.4,2.2,4,1.3,5.2,2z
		"/>
</g>
<g id="圖層_3">
	<g>
		<g id="XMLID_2_">
			<path id="XMLID_3_" class="st3" d="M25.7,15c0-6.9-5.6-12.6-12.6-12.6S0.6,8.1,0.6,15c0,6.9,5.6,12.6,12.6,12.6
				c2.6,0,5-0.8,6.9-2.1l1.1-0.9C24,22.3,25.7,18.9,25.7,15z M16.4,5.9c1.1-1.5,2.1-0.7,3.7,0.4c1.6,1.2,2.5,2,1.4,3.4
				c-1,1.4-3.7,2.9-5.3,1.7C14.6,10.3,15.3,7.3,16.4,5.9z M13.2,11.2c0.5,0,0.9,0.4,0.9,0.9c0,0.5-0.4,0.9-0.9,0.9
				c-0.5,0-0.9-0.4-0.9-0.9C12.3,11.6,12.7,11.2,13.2,11.2z M13.1,13.5c0.8,0,1.5,0.7,1.5,1.5c0,0.8-0.7,1.5-1.5,1.5
				c-0.8,0-1.5-0.7-1.5-1.5C11.7,14.2,12.3,13.5,13.1,13.5z M14,17.9c0,0.5-0.4,0.9-0.9,0.9c-0.5,0-0.9-0.4-0.9-0.9
				c0-0.5,0.4-0.9,0.9-0.9C13.7,17,14,17.4,14,17.9z M5,20.1c-1.8,0.4-2.1-0.8-2.5-2.8c-0.4-2-0.6-3.2,1.2-3.5
				c1.7-0.4,4.7,0.2,5.1,2.2C9.2,18,6.7,19.8,5,20.1z M5.3,9.4C4.2,8,5.1,7.2,6.7,6c1.6-1.2,2.7-1.8,3.7-0.4
				c1.1,1.4,1.7,4.4,0.1,5.6C8.9,12.4,6.3,10.9,5.3,9.4z M9.4,15c0-0.5,0.4-0.9,0.9-0.9s0.9,0.4,0.9,0.9c0,0.5-0.4,0.9-0.9,0.9
				S9.4,15.5,9.4,15z M13.1,25.8c-2,0-3.2-0.1-3.2-1.9c0-1.8,1.2-4.6,3.2-4.6c2,0,3.2,2.8,3.2,4.6C16.4,25.7,15.1,25.8,13.1,25.8z
				 M16.1,15.9c-0.5,0-0.9-0.4-0.9-0.9c0-0.5,0.4-0.9,0.9-0.9c0.5,0,0.9,0.4,0.9,0.9C17,15.5,16.6,15.9,16.1,15.9z M17.4,16
				c0.4-1.9,3.5-2.5,5.2-2.1c1.8,0.4,1.5,1.6,1.1,3.6c-0.5,1.9-0.8,3.1-2.6,2.7C19.3,19.8,16.9,17.9,17.4,16z"/>
		</g>
		<path id="XMLID_1_" class="st4" d="M18.2,25.7c0,0,1.4,0.5,4.1-0.6s5.4-0.8,7.1,0.5"/>
	</g>
</g>
</svg>
