<?xml version="1.0" encoding="utf-8"?>
<!-- Generator: Adobe Illustrator 21.0.0, SVG Export Plug-In . SVG Version: 6.00 Build 0)  -->
<svg version="1.1" id="圖層_1" xmlns="http://www.w3.org/2000/svg" xmlns:xlink="http://www.w3.org/1999/xlink" x="0px" y="0px"
	 viewBox="0 0 30 30" style="enable-background:new 0 0 30 30;" xml:space="preserve">
<style type="text/css">
	.st0{fill:none;stroke:#E60012;stroke-width:2;stroke-miterlimit:10;}
</style>
<g>
	<g>
		<path class="st0" d="M5.4,4.8V5c0,0,0-0.1,0-0.1C5.4,4.9,5.4,4.9,5.4,4.8z"/>
		<path d="M25.5,8.3H8C6.1,8.3,4.6,6.8,4.5,5C4.6,3,6.1,1.6,8,1.6h17.5v1.7H8C7,3.3,6.3,4,6.2,5C6.3,5.8,7,6.6,8,6.6h17.5V8.3z"/>
	</g>
	<g>
		<path d="M8,6.6C7,6.6,6.3,5.8,6.2,4.9l-1.7,0l0,20.1c0,1.9,1.6,3.5,3.5,3.5h17.5V6.6H8z M22.9,20.6l-3.5-2.4l-2.8,2.4V10h6.3V20.6
			z"/>
	</g>
</g>
</svg>
