<?xml version="1.0" encoding="utf-8"?>
<!-- Generator: Adobe Illustrator 21.0.2, SVG Export Plug-In . SVG Version: 6.00 Build 0)  -->
<svg version="1.1" xmlns="http://www.w3.org/2000/svg" xmlns:xlink="http://www.w3.org/1999/xlink" x="0px" y="0px" width="35px"
	 height="30px" viewBox="0 0 35 30" style="enable-background:new 0 0 35 30;" xml:space="preserve">
<style type="text/css">
	.st0{display:none;}
	.st1{display:inline;}
	.st2{fill:#686868;}
	.st3{fill:#3B5998;}
	.st4{display:inline;fill:#DC4A3D;}
	.st5{fill:#EA423A;}
	.st6{fill:#DC4A3D;}
</style>
<g id="圖層_1" class="st0">
	<g id="圖層_1_1_">
		<g id="XMLID_7392_" class="st1">
			<path id="XMLID_7393_" class="st2" d="M19.5,16.2h4l0.7-4.7h-4.6V8.6c0-1.3,0.3-2.3,2.3-2.3h2.5V2.2C23.8,2.1,22.3,2,20.6,2
				c-3.6,0-6,2.2-6,6.1v3.4h-4v4.7h4V28h4.9V16.2z"/>
		</g>
	</g>
	<g id="圖層_1_拷貝">
		<g id="XMLID_1_" class="st1">
			<path id="XMLID_2_" class="st3" d="M19.5,16.2h4l0.7-4.7h-4.6V8.6c0-1.3,0.3-2.3,2.3-2.3h2.5V2.2C23.8,2.1,22.3,2,20.6,2
				c-3.6,0-6,2.2-6,6.1v3.4h-4v4.7h4V28h4.9V16.2z"/>
		</g>
	</g>
	<g id="圖層_3" class="st1">
		<g id="XMLID_7358_">
			<path id="XMLID_7360_" class="st2" d="M20.2,3.3c-0.1-0.3-0.4-0.5-0.7-0.5h-7.1c-0.8,0-1.6,0.1-2.4,0.4C7.3,4.1,5.4,6.4,5.4,8.7
				c0,3.2,2.5,5.7,5.8,5.9c0,0.2-0.1,0.4-0.1,0.6c0,0.4,0.1,0.9,0.3,1.3c-3.2,0.1-6,1.6-7.1,4c-0.3,0.6-0.4,1.3-0.4,1.9
				s0.2,1.2,0.5,1.8c0.7,1.3,2.2,2.2,4.2,2.8c1,0.3,2.2,0.4,3.3,0.4c1,0,2-0.1,3-0.4c2.9-0.8,4.8-3,4.8-5.5c0-2.4-0.8-3.8-2.8-5.2
				c-0.9-0.6-1.6-1.4-1.6-1.6c0-0.4,0-0.6,1.1-1.5c1.5-1.2,2.3-2.7,2.3-4.3c0-1.3-0.4-2.5-1-3.4h0.2c0.2,0,0.3,0,0.4-0.1l1.6-1.2
				C20.2,3.9,20.3,3.6,20.2,3.3z M12.3,18.6L12.3,18.6c0.6,0,1.1,0.1,1.5,0.2c0.2,0.1,0.3,0.2,0.5,0.3c1.1,0.7,1.8,1.2,2,2
				c0,0.2,0.1,0.4,0.1,0.6c0,2-1.5,3-4.5,3c-2.2,0-4-1.4-4-3.1C7.9,20,10,18.6,12.3,18.6z M12.7,12.4L12.7,12.4
				c-1.5,0-2.9-1.8-3.2-3.8c-0.2-1.1,0-2.1,0.6-2.8c0.3-0.4,0.8-0.6,1.3-0.6h0.1c1.5,0,2.9,1.7,3.2,3.8c0.1,1.1-0.1,2.2-0.7,2.8
				C13.6,12.2,13.2,12.4,12.7,12.4z"/>
			<path id="XMLID_7359_" class="st2" d="M31.1,13.3c0-0.4-0.3-0.7-0.7-0.7h-3.9V8.7c0-0.4-0.3-0.7-0.7-0.7h-1.2
				c-0.4,0-0.7,0.3-0.7,0.7v3.9H20c-0.4,0-0.7,0.3-0.7,0.7v1.2c0,0.4,0.3,0.7,0.7,0.7h3.9v3.9c0,0.4,0.3,0.7,0.7,0.7h1.2
				c0.4,0,0.7-0.3,0.7-0.7v-3.9h3.9c0.4,0,0.7-0.3,0.7-0.7V13.3z"/>
		</g>
		<g id="XMLID_3_" class="st0">
			<path id="XMLID_5_" class="st4" d="M20.2,3.3c-0.1-0.3-0.4-0.5-0.7-0.5h-7.1c-0.8,0-1.6,0.1-2.4,0.4C7.3,4.1,5.4,6.4,5.4,8.7
				c0,3.2,2.5,5.7,5.8,5.9c0,0.2-0.1,0.4-0.1,0.6c0,0.4,0.1,0.9,0.3,1.3c-3.2,0.1-6,1.6-7.1,4c-0.3,0.6-0.4,1.3-0.4,1.9
				s0.2,1.2,0.5,1.8c0.7,1.3,2.2,2.2,4.2,2.8c1,0.3,2.2,0.4,3.3,0.4c1,0,2-0.1,3-0.4c2.9-0.8,4.8-3,4.8-5.5c0-2.4-0.8-3.8-2.8-5.2
				c-0.9-0.6-1.6-1.4-1.6-1.6c0-0.4,0-0.6,1.1-1.5c1.5-1.2,2.3-2.7,2.3-4.3c0-1.3-0.4-2.5-1-3.4h0.2c0.2,0,0.3,0,0.4-0.1l1.6-1.2
				C20.2,3.9,20.3,3.6,20.2,3.3z M12.3,18.6L12.3,18.6c0.6,0,1.1,0.1,1.5,0.2c0.2,0.1,0.3,0.2,0.5,0.3c1.1,0.7,1.8,1.2,2,2
				c0,0.2,0.1,0.4,0.1,0.6c0,2-1.5,3-4.5,3c-2.2,0-4-1.4-4-3.1C7.9,20,10,18.6,12.3,18.6z M12.7,12.4L12.7,12.4
				c-1.5,0-2.9-1.8-3.2-3.8c-0.2-1.1,0-2.1,0.6-2.8c0.3-0.4,0.8-0.6,1.3-0.6h0.1c1.5,0,2.9,1.7,3.2,3.8c0.1,1.1-0.1,2.2-0.7,2.8
				C13.6,12.2,13.2,12.4,12.7,12.4z"/>
			<path id="XMLID_4_" class="st4" d="M31.1,13.3c0-0.4-0.3-0.7-0.7-0.7h-3.9V8.7c0-0.4-0.3-0.7-0.7-0.7h-1.2
				c-0.4,0-0.7,0.3-0.7,0.7v3.9H20c-0.4,0-0.7,0.3-0.7,0.7v1.2c0,0.4,0.3,0.7,0.7,0.7h3.9v3.9c0,0.4,0.3,0.7,0.7,0.7h1.2
				c0.4,0,0.7-0.3,0.7-0.7v-3.9h3.9c0.4,0,0.7-0.3,0.7-0.7V13.3z"/>
		</g>
	</g>
	<g id="圖層_4">
		<g id="XMLID_7345_" class="st1">
			<path id="XMLID_7346_" class="st2" d="M17.7,2c-2.5,0-4.8,0.9-6.6,2.7C9.4,6.4,8.3,8.6,8.2,11v0.1v0.1c0,0,0,0,0,0.1V25
				c0,1.6,1.3,3,3,3s3-1.3,3-3v-4.7l0.8,0.3c0.9,0.3,1.8,0.4,2.8,0.4c5.3,0,9.5-4.3,9.5-9.5C27.2,6.2,23,2,17.7,2z M17.7,15.1h-3.1
				c-0.5,0-0.9-0.4-0.9-0.9v-3.1c0-2.2,1.8-4,4-4s4,1.8,4,4S19.9,15.1,17.7,15.1z"/>
		</g>
		<g id="XMLID_75_" class="st1">
			<path id="XMLID_76_" class="st5" d="M17.5,2c-2.5,0-4.8,0.9-6.6,2.7C9.2,6.3,8.1,8.6,8,11v0.1v0.1c0,0,0,0,0,0.1v13.9
				c0,1.6,1.3,3,3,3s3-1.3,3-3v-4.7l0.8,0.3c0.9,0.3,1.8,0.4,2.8,0.4c5.3,0,9.5-4.3,9.5-9.5C27,6.3,22.8,2,17.5,2z M17.5,15.1h-3.1
				c-0.5,0-0.9-0.4-0.9-0.9v-3.1c0-2.2,1.8-4,4-4s4,1.8,4,4S19.7,15.1,17.5,15.1z"/>
		</g>
	</g>
</g>
<g id="圖層_2">
	<g id="XMLID_647_">
		<g id="XMLID_648_">
			<g id="XMLID_649_">
				<path id="XMLID_650_" class="st6" d="M11.4,12.9v4.2c0,0,4.1,0,5.7,0c-0.9,2.7-2.3,4.2-5.7,4.2c-3.5,0-6.2-2.8-6.2-6.3
					s2.7-6.3,6.2-6.3c1.8,0,3,0.6,4.1,1.6c0.9-0.9,0.8-1,3-3.1c-1.9-1.7-4.4-2.8-7.1-2.8C5.5,4.4,0.8,9.1,0.8,15s4.8,10.6,10.6,10.6
					c8.8,0,10.9-7.6,10.2-12.7C19.5,12.9,11.4,12.9,11.4,12.9z M30.5,13.1V9.4h-2.6v3.7h-3.8v2.6h3.8v3.8h2.6v-3.8h3.7v-2.6H30.5z"
					/>
			</g>
		</g>
	</g>
	<g id="XMLID_6_" class="st0">
		<g id="XMLID_7_" class="st1">
			<g id="XMLID_8_">
				<path id="XMLID_9_" class="st2" d="M11.4,12.9v4.2c0,0,4.1,0,5.7,0c-0.9,2.7-2.3,4.2-5.7,4.2c-3.5,0-6.2-2.8-6.2-6.3
					s2.7-6.3,6.2-6.3c1.8,0,3,0.6,4.1,1.6c0.9-0.9,0.8-1,3-3.1c-1.9-1.7-4.4-2.8-7.1-2.8C5.5,4.4,0.8,9.1,0.8,15s4.8,10.6,10.6,10.6
					c8.8,0,10.9-7.6,10.2-12.7C19.5,12.9,11.4,12.9,11.4,12.9z M30.5,13.1V9.4h-2.6v3.7h-3.8v2.6h3.8v3.8h2.6v-3.8h3.7v-2.6H30.5z"
					/>
			</g>
		</g>
	</g>
</g>
</svg>
