<?xml version="1.0" encoding="utf-8"?>
<!-- Generator: Adobe Illustrator 21.0.0, SVG Export Plug-In . SVG Version: 6.00 Build 0)  -->
<svg version="1.1" id="圖層_1" xmlns="http://www.w3.org/2000/svg" xmlns:xlink="http://www.w3.org/1999/xlink" x="0px" y="0px"
	 viewBox="0 0 30 30" style="enable-background:new 0 0 30 30;" xml:space="preserve">
<style type="text/css">
	.st0{fill:#00BA00;}
</style>
<g id="XMLID_7809_">
	<path id="XMLID_7810_" class="st0" d="M28.6,13.8c0-6.2-6.2-11.3-13.9-11.3S0.9,7.6,0.9,13.8c0,5.5,4.9,10.2,11.6,11.1
		c0.4,0.1,1.1,0.3,1.2,0.7c0.1,0.4,0.1,0.9,0,1.2c0,0-0.2,1-0.2,1.2c0,0.4-0.3,1.4,1.2,0.7c1.5-0.6,8-4.7,10.9-8l0,0
		C27.6,18.5,28.6,16.2,28.6,13.8z M9.9,17.1c0,0.1-0.1,0.3-0.3,0.3H5.7l0,0c-0.1,0-0.1,0-0.2-0.1l0,0l0,0c0,0-0.1-0.1-0.1-0.2l0,0
		v-6c0-0.1,0.1-0.3,0.3-0.3h1C6.8,10.8,7,10.9,7,11v4.8h2.6c0.1,0,0.3,0.1,0.3,0.3L9.9,17.1L9.9,17.1z M12.2,17.1
		c0,0.1-0.1,0.3-0.3,0.3h-1c-0.1,0-0.3-0.1-0.3-0.3v-6c0-0.1,0.1-0.3,0.3-0.3h1c0.1,0,0.3,0.1,0.3,0.3V17.1z M18.9,17.1
		c0,0.1-0.1,0.3-0.3,0.3h-1c0,0,0,0-0.1,0l0,0l0,0l0,0l0,0l0,0l0,0l0,0l0,0c0,0,0,0-0.1-0.1l-2.8-3.7v3.6c0,0.1-0.1,0.3-0.3,0.3h-1
		c-0.1,0-0.3-0.1-0.3-0.3v-6c0-0.1,0.1-0.3,0.3-0.3h1l0,0l0,0l0,0l0,0l0,0l0,0l0,0l0,0l0,0l0,0l0,0l0,0l0,0l0,0l0,0l0,0l0,0l0,0
		c0,0,0,0,0,0l2.8,3.7v-3.6c0-0.1,0.1-0.3,0.3-0.3h1c0.1,0,0.3,0.1,0.3,0.3v6.1H18.9z M24.2,12c0,0.1-0.1,0.3-0.3,0.3h-2.6v1H24
		c0.1,0,0.3,0.1,0.3,0.3v1c0,0.1-0.1,0.3-0.3,0.3h-2.6v1H24c0.1,0,0.3,0.1,0.3,0.3v1c0,0.1-0.1,0.3-0.3,0.3h-3.9l0,0
		c-0.1,0-0.1,0-0.2-0.1l0,0l0,0c0,0-0.1-0.1-0.1-0.2l0,0v-6l0,0c0-0.1,0-0.1,0.1-0.2l0,0l0,0c0,0,0.1-0.1,0.2-0.1l0,0H24
		c0.1,0,0.3,0.1,0.3,0.3V12z"/>
</g>
</svg>
