<?xml version="1.0" encoding="utf-8"?>
<!-- Generator: Adobe Illustrator 21.0.0, SVG Export Plug-In . SVG Version: 6.00 Build 0)  -->
<svg version="1.1" id="圖層_1" xmlns="http://www.w3.org/2000/svg" xmlns:xlink="http://www.w3.org/1999/xlink" x="0px" y="0px"
	 viewBox="0 0 120.2 140" style="enable-background:new 0 0 120.2 140;" xml:space="preserve">
<style type="text/css">
	.st0{fill:#686868;}
</style>
<g id="XMLID_5_">
	<g id="XMLID_9_">
		<polygon id="XMLID_12_" class="st0" points="48,65.8 42.8,88.2 65,82.1 99.2,46.5 82.3,30.2 		"/>
		<path id="XMLID_10_" class="st0" d="M108.3,26.9l-6.8-6.5c-2.8-2.7-7.3-2.6-10,0.2l-5.7,6l16.9,16.3l5.7-6
			C111.2,34,111.1,29.6,108.3,26.9z"/>
	</g>
	<path id="XMLID_14_" class="st0" d="M75,103.1H26.4c-1.6,0-2.8-1.3-2.8-2.8l0,0c0-1.6,1.3-2.8,2.8-2.8H75c1.6,0,2.8,1.3,2.8,2.8
		l0,0C77.8,101.8,76.5,103.1,75,103.1z"/>
	<g id="XMLID_15_">
		<path id="XMLID_18_" class="st0" d="M75.1,76.5l-5.5,5.7H75c1.6,0,2.8-1.3,2.8-2.8C77.8,77.8,76.6,76.5,75.1,76.5z"/>
		<path id="XMLID_21_" class="st0" d="M26.4,76.5c-1.6,0-2.8,1.3-2.8,2.8s1.3,2.8,2.8,2.8h14.3l1.3-5.7L26.4,76.5L26.4,76.5z"/>
		<path id="XMLID_23_" class="st0" d="M26.4,55.8c-1.6,0-2.8,1.3-2.8,2.8c0,1.6,1.3,2.8,2.8,2.8h21l5.5-5.7H26.4V55.8z"/>
	</g>
	<g id="XMLID_4_">
		<path id="XMLID_26_" class="st0" d="M86.2,64.9v48.4c0,0.2-0.2,0.5-0.5,0.5H15.4c-0.2,0-0.5-0.2-0.5-0.5V42.9
			c0-0.2,0.2-0.5,0.5-0.5h50.4l6.6-6.8h-57c-4,0-7.3,3.3-7.3,7.3v70.4c0,4,3.3,7.3,7.3,7.3h70.4c4,0,7.3-3.3,7.3-7.3V57.8L86.2,64.9
			z"/>
	</g>
</g>
</svg>
