<?xml version="1.0" encoding="utf-8"?>
<!-- Generator: Adobe Illustrator 21.0.0, SVG Export Plug-In . SVG Version: 6.00 Build 0)  -->
<svg version="1.1" id="圖層_1" xmlns="http://www.w3.org/2000/svg" xmlns:xlink="http://www.w3.org/1999/xlink" x="0px" y="0px"
	 viewBox="0 0 30 30" style="enable-background:new 0 0 30 30;" xml:space="preserve">
<style type="text/css">
	.st0{display:none;}
	.st1{display:inline;}
	.st2{fill:#686868;}
	.st3{fill:#3B5998;}
	.st4{fill:#EA423A;}
	.st5{fill:#FFFFFF;stroke:#000000;stroke-miterlimit:10;}
</style>
<g id="圖層_1_1_" class="st0">
	<g id="XMLID_7392_" class="st1">
		<path id="XMLID_7393_" class="st2" d="M17,16.2h4l0.7-4.7h-4.6V8.6c0-1.3,0.3-2.3,2.3-2.3h2.5V2.2C21.3,2.1,19.8,2,18.1,2
			c-3.6,0-6,2.2-6,6.1v3.4h-4v4.7h4V28H17V16.2z"/>
	</g>
</g>
<g id="圖層_1_拷貝" class="st0">
	<g id="XMLID_1_" class="st1">
		<path id="XMLID_2_" class="st3" d="M17,16.2h4l0.7-4.7h-4.6V8.6c0-1.3,0.3-2.3,2.3-2.3h2.5V2.2C21.3,2.1,19.8,2,18.1,2
			c-3.6,0-6,2.2-6,6.1v3.4h-4v4.7h4V28H17V16.2z"/>
	</g>
</g>
<g id="圖層_4" class="st0">
	<g id="XMLID_7345_" class="st1">
		<path id="XMLID_7346_" class="st2" d="M15.2,2c-2.5,0-4.8,0.9-6.6,2.7C6.9,6.4,5.8,8.6,5.7,11v0.1v0.1c0,0,0,0,0,0.1V25
			c0,1.6,1.3,3,3,3s3-1.3,3-3v-4.7l0.8,0.3c0.9,0.3,1.8,0.4,2.8,0.4c5.3,0,9.5-4.3,9.5-9.5C24.7,6.2,20.5,2,15.2,2z M15.2,15.1h-3.1
			c-0.5,0-0.9-0.4-0.9-0.9v-3.1c0-2.2,1.8-4,4-4s4,1.8,4,4S17.4,15.1,15.2,15.1z"/>
	</g>
	<g id="XMLID_75_" class="st1">
		<path id="XMLID_76_" class="st4" d="M15,2c-2.5,0-4.8,0.9-6.6,2.7C6.7,6.3,5.6,8.6,5.5,11v0.1v0.1c0,0,0,0,0,0.1v13.9
			c0,1.6,1.3,3,3,3s3-1.3,3-3v-4.7l0.8,0.3c0.9,0.3,1.8,0.4,2.8,0.4c5.3,0,9.5-4.3,9.5-9.5C24.5,6.3,20.3,2,15,2z M15,15.1h-3.1
			c-0.5,0-0.9-0.4-0.9-0.9v-3.1c0-2.2,1.8-4,4-4s4,1.8,4,4S17.2,15.1,15,15.1z"/>
	</g>
</g>
<g id="XMLID_31_">
	<circle id="XMLID_10_" class="st5" cx="15" cy="15.2" r="13.8"/>
</g>
<path id="XMLID_3_" d="M15,11.6c-3.8-3.8-8-1.9-8,1.9s8,9.3,8,9.3s8-5.5,8-9.3S18.8,7.8,15,11.6z"/>
</svg>
