<?xml version="1.0" encoding="utf-8"?>
<!-- Generator: Adobe Illustrator 21.0.2, SVG Export Plug-In . SVG Version: 6.00 Build 0)  -->
<svg version="1.1" id="圖層_1" xmlns="http://www.w3.org/2000/svg" xmlns:xlink="http://www.w3.org/1999/xlink" x="0px" y="0px"
	 width="36px" height="36px" viewBox="0 0 36 36" style="enable-background:new 0 0 36 36;" xml:space="preserve">
<style type="text/css">
	.st0{display:none;}
	.st1{display:inline;}
	.st2{fill:#3B5998;}
	.st3{fill:#FFFFFF;}
	.st4{fill:#DC4A3D;}
	.st5{fill:#EA423A;}
	.st6{fill:#03C302;}
	.st7{fill:#686868;}
	.st8{display:inline;fill:#FFFFFF;}
	.st9{display:inline;fill:#686868;}
</style>
<g id="圖層_1_1_" class="st0">
	<g class="st1">
		<rect class="st2" width="36" height="36"/>
		<g id="XMLID_55_">
			<g id="XMLID_56_">
				<path id="XMLID_57_" class="st3" d="M19.9,19.1h3.8l0.6-4.4h-4.4v-2.8c0-1.3,0.4-2.1,2.2-2.1h2.3v-4C24,5.7,22.7,5.6,21,5.6
					c-3.4,0-5.7,2.1-5.7,5.8v3.3h-3.8v4.4h3.8v11.3h4.6V19.1z"/>
			</g>
		</g>
	</g>
	<g class="st1">
		<rect class="st4" width="36" height="36"/>
		<g id="XMLID_46_">
			<g id="XMLID_47_">
				<path id="XMLID_49_" class="st3" d="M20.1,8.8c-0.1-0.2-0.3-0.4-0.5-0.4H14c-0.6,0-1.3,0.1-1.9,0.3c-2.1,0.7-3.6,2.5-3.6,4.4
					c0,2.5,1.9,4.5,4.6,4.6c0,0.2,0,0.3,0,0.5c0,0.3,0.1,0.7,0.2,1c-2.5,0-4.7,1.3-5.6,3.1c-0.2,0.5-0.3,1-0.3,1.5s0.1,0.9,0.4,1.4
					c0.6,1,1.7,1.8,3.3,2.2c0.8,0.2,1.7,0.3,2.6,0.3c0.8,0,1.6-0.1,2.3-0.3c2.3-0.7,3.8-2.3,3.8-4.3c0-1.9-0.6-3-2.2-4.1
					c-0.7-0.5-1.2-1.1-1.2-1.3c0-0.3,0-0.5,0.9-1.2c1.2-0.9,1.8-2.1,1.8-3.4c0-1-0.3-2-0.8-2.7h0.2c0.1,0,0.2,0,0.3-0.1l1.3-0.9
					C20.1,9.3,20.2,9,20.1,8.8z M13.9,20.8L13.9,20.8c0.5,0,0.8,0.1,1.2,0.2c0.1,0.1,0.2,0.2,0.4,0.3c0.9,0.6,1.4,1,1.6,1.6
					c0,0.1,0.1,0.3,0.1,0.4c0,1.6-1.2,2.3-3.5,2.3c-1.8,0-3.1-1.1-3.1-2.4C10.5,21.9,12.1,20.8,13.9,20.8z M14.2,16L14.2,16
					c-1.2,0-2.3-1.4-2.5-3c-0.1-0.9,0.1-1.7,0.5-2.2c0.3-0.3,0.6-0.5,1-0.5l0,0c1.2,0,2.3,1.4,2.5,3c0.1,0.9-0.1,1.7-0.5,2.2
					C15,15.8,14.6,16,14.2,16z"/>
				<path id="XMLID_48_" class="st3" d="M28.7,16.7c0-0.3-0.3-0.6-0.6-0.6H25V13c0-0.3-0.3-0.6-0.6-0.6h-0.9c-0.3,0-0.6,0.3-0.6,0.6
					v3.1H20c-0.3,0-0.6,0.3-0.6,0.6v0.9c0,0.3,0.3,0.6,0.6,0.6h3v3.1c0,0.3,0.3,0.6,0.6,0.6h0.9c0.3,0,0.6-0.3,0.6-0.6v-3.1h3.1
					c0.3,0,0.6-0.3,0.6-0.6L28.7,16.7z"/>
			</g>
		</g>
	</g>
	<g class="st1">
		<rect class="st5" width="36" height="36"/>
		<g id="XMLID_39_">
			<g id="XMLID_40_">
				<path id="XMLID_41_" class="st3" d="M18,7.5c-2,0-3.9,0.8-5.4,2.2c-1.4,1.4-2.2,3.2-2.4,5.1l0,0l0,0c0,0,0,0,0,0.1v11.3
					c0,1.3,1.1,2.4,2.4,2.4s2.4-1.1,2.4-2.4v-3.8l0.7,0.2c0.7,0.2,1.5,0.3,2.2,0.3c4.3,0,7.7-3.5,7.7-7.7C25.7,10.9,22.3,7.5,18,7.5
					z M18,18.1h-2.5c-0.4,0-0.7-0.3-0.7-0.7v-2.5c0-1.8,1.4-3.2,3.2-3.2s3.2,1.4,3.2,3.2S19.8,18.1,18,18.1z"/>
			</g>
		</g>
	</g>
	<g class="st1">
		<rect class="st6" width="36" height="36"/>
		<g id="XMLID_14_">
			<path id="XMLID_63_" class="st3" d="M30,16.3c0-5.4-5.4-9.7-12-9.7S6,11,6,16.3c0,4.8,4.3,8.8,10,9.6c0.4,0.1,0.9,0.3,1.1,0.6
				c0.1,0.3,0.1,0.8,0,1.1c0,0-0.1,0.8-0.2,1c-0.1,0.3-0.2,1.2,1,0.6c1.3-0.5,6.9-4.1,9.4-7l0,0C29.1,20.4,30,18.5,30,16.3z
				 M13.8,19.2c0,0.1-0.1,0.2-0.2,0.2h-3.4l0,0c-0.1,0-0.1,0-0.2-0.1l0,0l0,0c0,0-0.1-0.1-0.1-0.2l0,0V14c0-0.1,0.1-0.2,0.2-0.2H11
				c0.1,0,0.2,0.1,0.2,0.2v4.1h2.3c0.1,0,0.2,0.1,0.2,0.2v0.9H13.8z M15.8,19.2c0,0.1-0.1,0.2-0.2,0.2h-0.8c-0.1,0-0.2-0.1-0.2-0.2
				V14c0-0.1,0.1-0.2,0.2-0.2h0.8c0.1,0,0.2,0.1,0.2,0.2V19.2z M21.6,19.2c0,0.1-0.1,0.2-0.2,0.2h-0.8c0,0,0,0-0.1,0l0,0l0,0l0,0
				l0,0l0,0l0,0l0,0l0,0c0,0,0,0-0.1-0.1L18,16.1v3.1c0,0.1-0.1,0.2-0.2,0.2H17c-0.1,0-0.2-0.1-0.2-0.2V14c0-0.1,0.1-0.2,0.2-0.2
				h0.8l0,0l0,0l0,0l0,0l0,0l0,0l0,0l0,0l0,0l0,0l0,0l0,0l0,0l0,0l0,0l0,0l0,0l0,0l0,0l2.4,3.2v-3c0-0.1,0.1-0.2,0.2-0.2h0.8
				c0.1,0,0.2,0.1,0.2,0.2v5.2H21.6z M26.2,14.8c0,0.1-0.1,0.2-0.2,0.2h-2.3v0.9H26c0.1,0,0.2,0.1,0.2,0.2V17c0,0.1-0.1,0.2-0.2,0.2
				h-2.3v0.9H26c0.1,0,0.2,0.1,0.2,0.2v0.8c0,0.1-0.1,0.2-0.2,0.2h-3.4l0,0c-0.1,0-0.1,0-0.2-0.1l0,0l0,0c0,0-0.1-0.1-0.1-0.2l0,0
				v-5l0,0c0-0.1,0-0.1,0.1-0.2l0,0l0,0c0,0,0.1-0.1,0.2-0.1l0,0H26c0.1,0,0.2,0.1,0.2,0.2V14.8z"/>
		</g>
	</g>
</g>
<g id="圖層_1_拷貝" class="st0">
	<rect class="st3" width="36" height="36"/>
	<g id="XMLID_21_">
		<g id="XMLID_22_" class="st1">
			<path id="XMLID_23_" class="st7" d="M19.9,19.1h3.8l0.6-4.4h-4.4v-2.8c0-1.3,0.4-2.1,2.2-2.1h2.3v-4C24,5.7,22.7,5.6,21,5.6
				c-3.4,0-5.7,2.1-5.7,5.8v3.3h-3.8v4.4h3.8v11.3h4.6V19.1z"/>
		</g>
	</g>
	<rect class="st8" width="36" height="36"/>
	<g id="XMLID_13_" class="st1">
		<g id="XMLID_15_">
			<path id="XMLID_17_" class="st7" d="M20.1,8.8c-0.1-0.2-0.3-0.4-0.5-0.4H14c-0.6,0-1.3,0.1-1.9,0.3c-2.1,0.7-3.6,2.5-3.6,4.4
				c0,2.5,1.9,4.5,4.6,4.6c0,0.2,0,0.3,0,0.5c0,0.3,0.1,0.7,0.2,1c-2.5,0-4.7,1.3-5.6,3.1c-0.2,0.5-0.3,1-0.3,1.5s0.1,0.9,0.4,1.4
				c0.6,1,1.7,1.8,3.3,2.2c0.8,0.2,1.7,0.3,2.6,0.3c0.8,0,1.6-0.1,2.3-0.3c2.3-0.7,3.8-2.3,3.8-4.3c0-1.9-0.6-3-2.2-4.1
				c-0.7-0.5-1.2-1.1-1.2-1.3c0-0.3,0-0.5,0.9-1.2c1.2-0.9,1.8-2.1,1.8-3.4c0-1-0.3-2-0.8-2.7h0.2c0.1,0,0.2,0,0.3-0.1l1.3-0.9
				C20.1,9.3,20.2,9,20.1,8.8z M13.9,20.8L13.9,20.8c0.5,0,0.8,0.1,1.2,0.2c0.1,0.1,0.2,0.2,0.4,0.3c0.9,0.6,1.4,1,1.6,1.6
				c0,0.1,0.1,0.3,0.1,0.4c0,1.6-1.2,2.3-3.5,2.3c-1.8,0-3.1-1.1-3.1-2.4C10.5,21.9,12.1,20.8,13.9,20.8z M14.2,16L14.2,16
				c-1.2,0-2.3-1.4-2.5-3c-0.1-0.9,0.1-1.7,0.5-2.2c0.3-0.3,0.6-0.5,1-0.5l0,0c1.2,0,2.3,1.4,2.5,3c0.1,0.9-0.1,1.7-0.5,2.2
				C15,15.8,14.6,16,14.2,16z"/>
			<path id="XMLID_16_" class="st7" d="M28.7,16.7c0-0.3-0.3-0.6-0.6-0.6H25V13c0-0.3-0.3-0.6-0.6-0.6h-0.9c-0.3,0-0.6,0.3-0.6,0.6
				v3.1H20c-0.3,0-0.6,0.3-0.6,0.6v0.9c0,0.3,0.3,0.6,0.6,0.6h3v3.1c0,0.3,0.3,0.6,0.6,0.6h0.9c0.3,0,0.6-0.3,0.6-0.6v-3.1h3.1
				c0.3,0,0.6-0.3,0.6-0.6L28.7,16.7z"/>
		</g>
	</g>
	<rect class="st3" width="36" height="36"/>
	<g id="XMLID_8_">
		<g id="XMLID_9_" class="st1">
			<path id="XMLID_10_" class="st7" d="M18,7.5c-2,0-3.9,0.8-5.4,2.2c-1.4,1.4-2.2,3.2-2.4,5.1l0,0l0,0c0,0,0,0,0,0.1v11.3
				c0,1.3,1.1,2.4,2.4,2.4s2.4-1.1,2.4-2.4v-3.8l0.7,0.2c0.7,0.2,1.5,0.3,2.2,0.3c4.3,0,7.7-3.5,7.7-7.7C25.7,10.9,22.3,7.5,18,7.5z
				 M18,18.1h-2.5c-0.4,0-0.7-0.3-0.7-0.7v-2.5c0-1.8,1.4-3.2,3.2-3.2s3.2,1.4,3.2,3.2S19.8,18.1,18,18.1z"/>
		</g>
	</g>
	<rect class="st3" width="36" height="36"/>
	<g id="XMLID_1_">
		<path id="XMLID_2_" class="st9" d="M30,16.3c0-5.4-5.4-9.7-12-9.7S6,11,6,16.3c0,4.8,4.3,8.8,10,9.6c0.4,0.1,0.9,0.3,1.1,0.6
			c0.1,0.3,0.1,0.8,0,1.1c0,0-0.1,0.8-0.2,1c-0.1,0.3-0.2,1.2,1,0.6c1.3-0.5,6.9-4.1,9.4-7l0,0C29.1,20.4,30,18.5,30,16.3z
			 M13.8,19.2c0,0.1-0.1,0.2-0.2,0.2h-3.4l0,0c-0.1,0-0.1,0-0.2-0.1l0,0l0,0c0,0-0.1-0.1-0.1-0.2l0,0V14c0-0.1,0.1-0.2,0.2-0.2H11
			c0.1,0,0.2,0.1,0.2,0.2v4.1h2.3c0.1,0,0.2,0.1,0.2,0.2v0.9H13.8z M15.8,19.2c0,0.1-0.1,0.2-0.2,0.2h-0.8c-0.1,0-0.2-0.1-0.2-0.2
			V14c0-0.1,0.1-0.2,0.2-0.2h0.8c0.1,0,0.2,0.1,0.2,0.2V19.2z M21.6,19.2c0,0.1-0.1,0.2-0.2,0.2h-0.8c0,0,0,0-0.1,0l0,0l0,0l0,0l0,0
			l0,0l0,0l0,0l0,0c0,0,0,0-0.1-0.1L18,16.1v3.1c0,0.1-0.1,0.2-0.2,0.2H17c-0.1,0-0.2-0.1-0.2-0.2V14c0-0.1,0.1-0.2,0.2-0.2h0.8l0,0
			l0,0l0,0l0,0l0,0l0,0l0,0l0,0l0,0l0,0l0,0l0,0l0,0l0,0l0,0l0,0l0,0l0,0l0,0l2.4,3.2v-3c0-0.1,0.1-0.2,0.2-0.2h0.8
			c0.1,0,0.2,0.1,0.2,0.2v5.2H21.6z M26.2,14.8c0,0.1-0.1,0.2-0.2,0.2h-2.3v0.9H26c0.1,0,0.2,0.1,0.2,0.2V17c0,0.1-0.1,0.2-0.2,0.2
			h-2.3v0.9H26c0.1,0,0.2,0.1,0.2,0.2v0.8c0,0.1-0.1,0.2-0.2,0.2h-3.4l0,0c-0.1,0-0.1,0-0.2-0.1l0,0l0,0c0,0-0.1-0.1-0.1-0.2l0,0v-5
			l0,0c0-0.1,0-0.1,0.1-0.2l0,0l0,0c0,0,0.1-0.1,0.2-0.1l0,0H26c0.1,0,0.2,0.1,0.2,0.2V14.8z"/>
	</g>
</g>
<rect class="st4" width="36" height="36"/>
<g id="XMLID_6_">
	<g id="XMLID_7_">
		<g id="XMLID_3_">
			<path id="XMLID_4_" class="st3" d="M13.5,16.5v3.1c0,0,3,0,4.2,0c-0.7,2-1.7,3.1-4.2,3.1c-2.6,0-4.6-2.1-4.6-4.7s2-4.7,4.6-4.7
				c1.4,0,2.2,0.5,3,1.1c0.6-0.6,0.6-0.7,2.2-2.3c-1.4-1.3-3.2-2-5.3-2c-4.3,0-7.8,3.5-7.8,7.8s3.5,7.8,7.8,7.8c6.5,0,8-5.6,7.5-9.4
				C19.5,16.5,13.5,16.5,13.5,16.5z M27.6,16.6v-2.7h-1.9v2.7h-2.8v1.9h2.8v2.8h1.9v-2.8h2.7v-1.9H27.6z"/>
		</g>
	</g>
</g>
</svg>
