<?xml version="1.0" encoding="utf-8"?>
<!-- Generator: Adobe Illustrator 21.1.0, SVG Export Plug-In . SVG Version: 6.00 Build 0)  -->
<svg version="1.1" id="圖層_1" xmlns="http://www.w3.org/2000/svg" xmlns:xlink="http://www.w3.org/1999/xlink" x="0px" y="0px"
	 viewBox="0 0 58.6 21.6" style="enable-background:new 0 0 58.6 21.6;" xml:space="preserve">
<style type="text/css">
	.st0{fill:#FD3A13;stroke:#FD3A13;stroke-miterlimit:10;}
	.st1{display:none;}
	.st2{display:inline;fill:#FFFFFF;stroke:#D7D7D8;stroke-miterlimit:10;}
</style>
<g id="XMLID_3_">
	<path id="XMLID_6_" class="st0" d="M0.7,10.8l10.9,10.3H58V0.5H11.6L0.7,10.8z M9.1,10.8c0-1.4,1.1-2.6,2.6-2.6s2.6,1.1,2.6,2.6
		c0,1.4-1.1,2.6-2.6,2.6S9.1,12.2,9.1,10.8z"/>
</g>
<g id="XMLID_1_" class="st1">
	<path id="XMLID_2_" class="st2" d="M0.7,10.8l10.9,10.3H58V0.5H11.6L0.7,10.8z M9.1,10.8c0-1.4,1.1-2.6,2.6-2.6s2.6,1.1,2.6,2.6
		c0,1.4-1.1,2.6-2.6,2.6S9.1,12.2,9.1,10.8z"/>
</g>
</svg>
