<?xml version="1.0" encoding="utf-8"?>
<!-- Generator: Adobe Illustrator 21.0.0, SVG Export Plug-In . SVG Version: 6.00 Build 0)  -->
<svg version="1.1" id="圖層_1" xmlns="http://www.w3.org/2000/svg" xmlns:xlink="http://www.w3.org/1999/xlink" x="0px" y="0px"
	 viewBox="0 0 30 30" style="enable-background:new 0 0 30 30;" xml:space="preserve">
<style type="text/css">
	.st0{fill:#232323;}
</style>
<g>
	<path class="st0" d="M22.6,6c-0.4,0-0.9,0-1.3,0.1c2.9,0.6,5.1,3.2,5.1,6.3c0,3.1-2.2,5.7-5.1,6.3c0.4,0.1,0.8,0.1,1.3,0.1
		c3.5,0,6.4-2.9,6.4-6.4C29,8.9,26.1,6,22.6,6z"/>
	<polygon class="st0" points="4.7,8.2 5.8,5.7 5.5,8.4 8,9.5 5.3,9.3 4.2,11.8 4.4,9.1 1.9,7.9 	"/>
	<polygon class="st0" points="16.9,2.8 16.2,0.8 17.5,2.5 19.5,1.8 17.8,3.1 18.6,5.1 17.2,3.4 15.2,4.2 	"/>
	<polygon class="st0" points="11,20.9 8.1,16.6 12.3,19.8 16.6,16.9 13.4,21 16.3,25.4 12.2,22.2 7.8,25.1 	"/>
	<circle class="st0" cx="21" cy="14.5" r="0.3"/>
	<circle class="st0" cx="11.5" cy="27.6" r="0.3"/>
	<circle class="st0" cx="13.1" cy="3.5" r="0.3"/>
	<circle class="st0" cx="22.8" cy="1.8" r="0.3"/>
	<circle class="st0" cx="3.6" cy="16.6" r="0.3"/>
	<circle class="st0" cx="11.4" cy="14.5" r="0.8"/>
	<circle class="st0" cx="16.5" cy="9.2" r="0.4"/>
	<circle class="st0" cx="20.8" cy="23.1" r="0.4"/>
</g>
</svg>
