<?xml version="1.0" encoding="UTF-8" standalone="no"?>
<svg width="75px" height="13px" viewBox="0 0 75 13" version="1.1" xmlns="http://www.w3.org/2000/svg" xmlns:xlink="http://www.w3.org/1999/xlink" xmlns:sketch="http://www.bohemiancoding.com/sketch/ns">
    <!-- Generator: Sketch 3.4.4 (17249) - http://www.bohemiancoding.com/sketch -->
    <title>menu-10</title>
    <desc>Created with Sketch.</desc>
    <defs></defs>
    <g id="Page-1" stroke="none" stroke-width="1" fill="none" fill-rule="evenodd" sketch:type="MSPage">
        <g id="iPhone-5/5S/5C" sketch:type="MSArtboardGroup" transform="translate(-137.000000, -408.000000)" fill="#85BACE">
            <path d="M142.56,409.616 L140.368,409.616 L138.56,420 L137.472,420 L139.296,409.616 L137.104,409.616 L137.264,408.672 L142.72,408.672 L142.56,409.616 Z M148.384,420 L147.056,420 L144.704,410.528 L144.672,410.528 L143.04,420 L142.032,420 L144,408.672 L145.344,408.672 L147.632,418.144 L147.68,418.144 L149.344,408.672 L150.352,408.672 L148.384,420 Z M155.264,420 L150.944,420 L152.912,408.672 L154,408.672 L152.208,418.992 L155.44,418.992 L155.264,420 Z M165.408,409.632 L162.032,409.632 L161.328,413.664 L164.544,413.664 L164.384,414.576 L161.184,414.576 L160.416,419.024 L164.048,419.024 L163.872,420 L159.2,420 L161.168,408.672 L165.568,408.672 L165.408,409.632 Z M173.376,413.008 C173.376,413.957338 173.261334,414.855996 173.032,415.704 C172.802666,416.552004 172.466669,417.29333 172.024,417.928 C171.581331,418.56267 171.03467,419.066665 170.384,419.44 C169.73333,419.813335 168.992004,420 168.16,420 L165.728,420 L167.696,408.672 L170.016,408.672 C170.60267,408.672 171.106665,408.778666 171.528,408.992 C171.949335,409.205334 172.295999,409.501331 172.568,409.88 C172.840001,410.258669 173.042666,410.714664 173.176,411.248 C173.309334,411.781336 173.376,412.367997 173.376,413.008 L173.376,413.008 Z M172.272,413.056 C172.272,411.989328 172.069335,411.152003 171.664,410.544 C171.258665,409.935997 170.650671,409.632 169.84,409.632 L168.592,409.632 L166.96,419.04 L168.32,419.04 C168.917336,419.04 169.458664,418.880002 169.944,418.56 C170.429336,418.239998 170.845332,417.808003 171.192,417.264 C171.538668,416.719997 171.805332,416.085337 171.992,415.36 C172.178668,414.634663 172.272,413.866671 172.272,413.056 L172.272,413.056 Z M175.376,420 L174.288,420 L176.256,408.672 L177.344,408.672 L175.376,420 Z M183.84,409.616 L181.648,409.616 L179.84,420 L178.752,420 L180.576,409.616 L178.384,409.616 L178.544,408.672 L184,408.672 L183.84,409.616 Z M184.4,420 L183.312,420 L185.28,408.672 L186.368,408.672 L184.4,420 Z M195.072,412.544 C195.072,413.450671 194.960001,414.362662 194.736,415.28 C194.511999,416.197338 194.192002,417.026663 193.776,417.768 C193.359998,418.509337 192.85867,419.111998 192.272,419.576 C191.68533,420.040002 191.029337,420.272 190.304,420.272 C189.802664,420.272 189.362669,420.173334 188.984,419.976 C188.605331,419.778666 188.288001,419.501335 188.032,419.144 C187.775999,418.786665 187.584001,418.357336 187.456,417.856 C187.327999,417.354664 187.264,416.800003 187.264,416.192 C187.264,415.594664 187.312,414.984003 187.408,414.36 C187.504,413.735997 187.645332,413.136003 187.832,412.56 C188.018668,411.983997 188.250665,411.442669 188.528,410.936 C188.805335,410.429331 189.119998,409.989335 189.472,409.616 C189.824002,409.242665 190.215998,408.946668 190.648,408.728 C191.080002,408.509332 191.546664,408.4 192.048,408.4 C192.560003,408.4 193.005331,408.501332 193.384,408.704 C193.762669,408.906668 194.077332,409.189332 194.328,409.552 C194.578668,409.914668 194.765333,410.351997 194.888,410.864 C195.010667,411.376003 195.072,411.935997 195.072,412.544 L195.072,412.544 Z M193.92,412.704 C193.92,412.277331 193.890667,411.864002 193.832,411.464 C193.773333,411.063998 193.669334,410.709335 193.52,410.4 C193.370666,410.090665 193.173335,409.842668 192.928,409.656 C192.682665,409.469332 192.368002,409.376 191.984,409.376 C191.407997,409.376 190.898669,409.602664 190.456,410.056 C190.013331,410.509336 189.640002,411.079997 189.336,411.768 C189.031998,412.456003 188.802667,413.199996 188.648,414 C188.493333,414.800004 188.416,415.551996 188.416,416.256 C188.416,416.682669 188.453333,417.077332 188.528,417.44 C188.602667,417.802668 188.717333,418.119999 188.872,418.392 C189.026667,418.664001 189.226665,418.877333 189.472,419.032 C189.717335,419.186667 190.015998,419.264 190.368,419.264 C190.730668,419.264 191.071998,419.168001 191.392,418.976 C191.712002,418.783999 192.002665,418.525335 192.264,418.2 C192.525335,417.874665 192.759999,417.493336 192.968,417.056 C193.176001,416.618664 193.349333,416.157336 193.488,415.672 C193.626667,415.186664 193.733333,414.690669 193.808,414.184 C193.882667,413.677331 193.92,413.184002 193.92,412.704 L193.92,412.704 Z M202.336,420 L201.008,420 L198.656,410.528 L198.624,410.528 L196.992,420 L195.984,420 L197.952,408.672 L199.296,408.672 L201.584,418.144 L201.632,418.144 L203.296,408.672 L204.304,408.672 L202.336,420 Z M210.736,410.192 C210.522666,409.914665 210.280001,409.712001 210.008,409.584 C209.735999,409.455999 209.424002,409.392 209.072,409.392 C208.826665,409.392 208.578668,409.44 208.328,409.536 C208.077332,409.632 207.848001,409.778666 207.64,409.976 C207.431999,410.173334 207.264001,410.421332 207.136,410.72 C207.007999,411.018668 206.944,411.365331 206.944,411.76 C206.944,412.261336 207.077332,412.663998 207.344,412.968 C207.610668,413.272002 207.935998,413.546665 208.32,413.792 C208.576001,413.952001 208.821332,414.125332 209.056,414.312 C209.290668,414.498668 209.501332,414.711999 209.688,414.952 C209.874668,415.192001 210.023999,415.458665 210.136,415.752 C210.248001,416.045335 210.304,416.378665 210.304,416.752 C210.304,417.306669 210.218668,417.799998 210.048,418.232 C209.877332,418.664002 209.642668,419.031998 209.344,419.336 C209.045332,419.640002 208.696002,419.871999 208.296,420.032 C207.895998,420.192001 207.466669,420.272 207.008,420.272 C206.431997,420.272 205.909336,420.152001 205.44,419.912 C204.970664,419.671999 204.597335,419.365335 204.32,418.992 L205.072,418.208 C205.296001,418.538668 205.575998,418.797332 205.912,418.984 C206.248002,419.170668 206.613331,419.264 207.008,419.264 C207.296001,419.264 207.573332,419.213334 207.84,419.112 C208.106668,419.010666 208.341332,418.861334 208.544,418.664 C208.746668,418.466666 208.909333,418.224001 209.032,417.936 C209.154667,417.647999 209.216,417.322668 209.216,416.96 C209.216,416.447997 209.077335,416.013335 208.8,415.656 C208.522665,415.298665 208.149336,414.976001 207.68,414.688 C207.445332,414.549333 207.218668,414.392001 207,414.216 C206.781332,414.039999 206.586668,413.837334 206.416,413.608 C206.245332,413.378666 206.109334,413.120001 206.008,412.832 C205.906666,412.543999 205.856,412.213335 205.856,411.84 C205.856,411.317331 205.943999,410.842669 206.12,410.416 C206.296001,409.989331 206.533332,409.626668 206.832,409.328 C207.130668,409.029332 207.477331,408.800001 207.872,408.64 C208.266669,408.479999 208.687998,408.4 209.136,408.4 C209.648003,408.4 210.106665,408.485332 210.512,408.656 C210.917335,408.826668 211.242665,409.082665 211.488,409.424 L210.736,410.192 Z" id="menu-10" sketch:type="MSShapeGroup"></path>
        </g>
    </g>
</svg>