<?xml version="1.0" encoding="UTF-8" standalone="no"?>
<svg width="86px" height="13px" viewBox="0 0 86 13" version="1.1" xmlns="http://www.w3.org/2000/svg" xmlns:xlink="http://www.w3.org/1999/xlink" xmlns:sketch="http://www.bohemiancoding.com/sketch/ns">
    <!-- Generator: Sketch 3.4.4 (17249) - http://www.bohemiancoding.com/sketch -->
    <title>menu-05</title>
    <desc>Created with Sketch.</desc>
    <defs></defs>
    <g id="Page-1" stroke="none" stroke-width="1" fill="none" fill-rule="evenodd" sketch:type="MSPage">
        <g id="iPhone-5/5S/5C" sketch:type="MSArtboardGroup" transform="translate(-137.000000, -233.000000)" fill="#85BACE">
            <path d="M137.248,245 L137.248,233.672 L138.688,233.672 L138.688,245 L137.248,245 Z M141.184,245 L141.184,233.672 L142.624,233.672 L142.624,243.656 L145.824,243.656 L145.824,245 L141.184,245 Z M147.152,245 L147.152,233.672 L148.592,233.672 L148.592,243.656 L151.792,243.656 L151.792,245 L147.152,245 Z M159.312,241.112 C159.312,241.688003 159.253334,242.226664 159.136,242.728 C159.018666,243.229336 158.826668,243.669331 158.56,244.048 C158.293332,244.426669 157.944002,244.725332 157.512,244.944 C157.079998,245.162668 156.549336,245.272 155.92,245.272 C155.290664,245.272 154.765335,245.162668 154.344,244.944 C153.922665,244.725332 153.578668,244.426669 153.312,244.048 C153.045332,243.669331 152.856001,243.229336 152.744,242.728 C152.631999,242.226664 152.576,241.688003 152.576,241.112 L152.576,233.672 L154.016,233.672 L154.016,240.968 C154.016,241.352002 154.045333,241.722665 154.104,242.08 C154.162667,242.437335 154.263999,242.754665 154.408,243.032 C154.552001,243.309335 154.749332,243.530666 155,243.696 C155.250668,243.861334 155.567998,243.944 155.952,243.944 C156.336002,243.944 156.650665,243.861334 156.896,243.696 C157.141335,243.530666 157.335999,243.309335 157.48,243.032 C157.624001,242.754665 157.725333,242.437335 157.784,242.08 C157.842667,241.722665 157.872,241.352002 157.872,240.968 L157.872,233.672 L159.312,233.672 L159.312,241.112 Z M166.768,241.992 C166.768,242.504003 166.688001,242.965331 166.528,243.376 C166.367999,243.786669 166.152001,244.130665 165.88,244.408 C165.607999,244.685335 165.285335,244.898666 164.912,245.048 C164.538665,245.197334 164.138669,245.272 163.712,245.272 C163.135997,245.272 162.589336,245.152001 162.072,244.912 C161.554664,244.671999 161.141335,244.354669 160.832,243.96 L161.68,242.92 C161.925335,243.240002 162.231998,243.490666 162.6,243.672 C162.968002,243.853334 163.338665,243.944 163.712,243.944 C164.192002,243.944 164.586665,243.784002 164.896,243.464 C165.205335,243.143998 165.36,242.680003 165.36,242.072 C165.36,241.783999 165.312,241.530668 165.216,241.312 C165.12,241.093332 164.986668,240.896001 164.816,240.72 C164.645332,240.543999 164.450668,240.384001 164.232,240.24 C164.013332,240.095999 163.776001,239.960001 163.52,239.832 C163.210665,239.682666 162.920001,239.514668 162.648,239.328 C162.375999,239.141332 162.133334,238.925335 161.92,238.68 C161.706666,238.434665 161.538667,238.144002 161.416,237.808 C161.293333,237.471998 161.232,237.074669 161.232,236.616 C161.232,236.071997 161.317332,235.597335 161.488,235.192 C161.658668,234.786665 161.885332,234.450668 162.168,234.184 C162.450668,233.917332 162.773332,233.720001 163.136,233.592 C163.498668,233.463999 163.866665,233.4 164.24,233.4 C164.784003,233.4 165.271998,233.490666 165.704,233.672 C166.136002,233.853334 166.495999,234.125332 166.784,234.488 L165.92,235.512 C165.514665,234.978664 164.97067,234.712 164.288,234.712 C164.085332,234.712 163.885334,234.746666 163.688,234.816 C163.490666,234.885334 163.312001,234.997333 163.152,235.152 C162.991999,235.306667 162.864,235.501332 162.768,235.736 C162.672,235.970668 162.624,236.253332 162.624,236.584 C162.624,236.872001 162.669333,237.119999 162.76,237.328 C162.850667,237.536001 162.973333,237.722666 163.128,237.888 C163.282667,238.053334 163.461332,238.202666 163.664,238.336 C163.866668,238.469334 164.085332,238.594666 164.32,238.712 C164.618668,238.861334 164.911999,239.029332 165.2,239.216 C165.488001,239.402668 165.749332,239.623999 165.984,239.88 C166.218668,240.136001 166.407999,240.437332 166.552,240.784 C166.696001,241.130668 166.768,241.533331 166.768,241.992 L166.768,241.992 Z M170.928,234.904 L170.928,245 L169.504,245 L169.504,234.904 L167.344,234.904 L167.344,233.672 L173.088,233.672 L173.088,234.904 L170.928,234.904 Z M178.976,245 L177.056,239.944 L175.744,239.944 L175.744,245 L174.336,245 L174.336,233.672 L177.264,233.672 C177.680002,233.672 178.071998,233.727999 178.44,233.84 C178.808002,233.952001 179.130665,234.130665 179.408,234.376 C179.685335,234.621335 179.903999,234.941331 180.064,235.336 C180.224001,235.730669 180.304,236.205331 180.304,236.76 C180.304,237.218669 180.245334,237.618665 180.128,237.96 C180.010666,238.301335 179.858668,238.591999 179.672,238.832 C179.485332,239.072001 179.280001,239.261333 179.056,239.4 C178.831999,239.538667 178.613334,239.629333 178.4,239.672 L180.512,245 L178.976,245 Z M178.88,236.824 C178.88,236.439998 178.826667,236.125335 178.72,235.88 C178.613333,235.634665 178.474668,235.437334 178.304,235.288 C178.133332,235.138666 177.936001,235.034667 177.712,234.976 C177.487999,234.917333 177.264001,234.888 177.04,234.888 L175.744,234.888 L175.744,238.824 L177.072,238.824 C177.616003,238.824 178.053332,238.650668 178.384,238.304 C178.714668,237.957332 178.88,237.464003 178.88,236.824 L178.88,236.824 Z M187.12,245 L186.48,242.344 L183.2,242.344 L182.544,245 L181.088,245 L183.936,233.672 L185.84,233.672 L188.624,245 L187.12,245 Z M184.896,235.016 L184.832,235.016 L183.392,241.208 L186.288,241.208 L184.896,235.016 Z M192.048,234.904 L192.048,245 L190.624,245 L190.624,234.904 L188.464,234.904 L188.464,233.672 L194.208,233.672 L194.208,234.904 L192.048,234.904 Z M195.456,245 L195.456,233.672 L196.896,233.672 L196.896,245 L195.456,245 Z M206.656,239.32 C206.656,240.205338 206.568001,241.01333 206.392,241.744 C206.215999,242.47467 205.960002,243.101331 205.624,243.624 C205.287998,244.146669 204.882669,244.551999 204.408,244.84 C203.933331,245.128001 203.392003,245.272 202.784,245.272 C202.175997,245.272 201.632002,245.128001 201.152,244.84 C200.671998,244.551999 200.264002,244.146669 199.928,243.624 C199.591998,243.101331 199.336001,242.47467 199.16,241.744 C198.983999,241.01333 198.896,240.205338 198.896,239.32 C198.896,238.434662 198.981332,237.62667 199.152,236.896 C199.322668,236.16533 199.573332,235.541336 199.904,235.024 C200.234668,234.506664 200.642664,234.106668 201.128,233.824 C201.613336,233.541332 202.16533,233.4 202.784,233.4 C203.392003,233.4 203.933331,233.541332 204.408,233.824 C204.882669,234.106668 205.287998,234.506664 205.624,235.024 C205.960002,235.541336 206.215999,236.16533 206.392,236.896 C206.568001,237.62667 206.656,238.434662 206.656,239.32 L206.656,239.32 Z M205.136,239.32 C205.136,238.679997 205.085334,238.077336 204.984,237.512 C204.882666,236.946664 204.733334,236.456002 204.536,236.04 C204.338666,235.623998 204.093335,235.296001 203.8,235.056 C203.506665,234.815999 203.168002,234.696 202.784,234.696 C202.389331,234.696 202.042668,234.815999 201.744,235.056 C201.445332,235.296001 201.197334,235.623998 201,236.04 C200.802666,236.456002 200.656,236.946664 200.56,237.512 C200.464,238.077336 200.416,238.679997 200.416,239.32 C200.416,239.960003 200.464,240.562664 200.56,241.128 C200.656,241.693336 200.802666,242.183998 201,242.6 C201.197334,243.016002 201.445332,243.343999 201.744,243.584 C202.042668,243.824001 202.389331,243.944 202.784,243.944 C203.168002,243.944 203.506665,243.824001 203.8,243.584 C204.093335,243.343999 204.338666,243.016002 204.536,242.6 C204.733334,242.183998 204.882666,241.693336 204.984,241.128 C205.085334,240.562664 205.136,239.960003 205.136,239.32 L205.136,239.32 Z M213.648,245 L210.032,236.216 L209.984,236.216 L209.984,245 L208.656,245 L208.656,233.672 L210.384,233.672 L213.952,242.472 L214,242.472 L214,233.672 L215.328,233.672 L215.328,245 L213.648,245 Z M222.944,241.992 C222.944,242.504003 222.864001,242.965331 222.704,243.376 C222.543999,243.786669 222.328001,244.130665 222.056,244.408 C221.783999,244.685335 221.461335,244.898666 221.088,245.048 C220.714665,245.197334 220.314669,245.272 219.888,245.272 C219.311997,245.272 218.765336,245.152001 218.248,244.912 C217.730664,244.671999 217.317335,244.354669 217.008,243.96 L217.856,242.92 C218.101335,243.240002 218.407998,243.490666 218.776,243.672 C219.144002,243.853334 219.514665,243.944 219.888,243.944 C220.368002,243.944 220.762665,243.784002 221.072,243.464 C221.381335,243.143998 221.536,242.680003 221.536,242.072 C221.536,241.783999 221.488,241.530668 221.392,241.312 C221.296,241.093332 221.162668,240.896001 220.992,240.72 C220.821332,240.543999 220.626668,240.384001 220.408,240.24 C220.189332,240.095999 219.952001,239.960001 219.696,239.832 C219.386665,239.682666 219.096001,239.514668 218.824,239.328 C218.551999,239.141332 218.309334,238.925335 218.096,238.68 C217.882666,238.434665 217.714667,238.144002 217.592,237.808 C217.469333,237.471998 217.408,237.074669 217.408,236.616 C217.408,236.071997 217.493332,235.597335 217.664,235.192 C217.834668,234.786665 218.061332,234.450668 218.344,234.184 C218.626668,233.917332 218.949332,233.720001 219.312,233.592 C219.674668,233.463999 220.042665,233.4 220.416,233.4 C220.960003,233.4 221.447998,233.490666 221.88,233.672 C222.312002,233.853334 222.671999,234.125332 222.96,234.488 L222.096,235.512 C221.690665,234.978664 221.14667,234.712 220.464,234.712 C220.261332,234.712 220.061334,234.746666 219.864,234.816 C219.666666,234.885334 219.488001,234.997333 219.328,235.152 C219.167999,235.306667 219.04,235.501332 218.944,235.736 C218.848,235.970668 218.8,236.253332 218.8,236.584 C218.8,236.872001 218.845333,237.119999 218.936,237.328 C219.026667,237.536001 219.149333,237.722666 219.304,237.888 C219.458667,238.053334 219.637332,238.202666 219.84,238.336 C220.042668,238.469334 220.261332,238.594666 220.496,238.712 C220.794668,238.861334 221.087999,239.029332 221.376,239.216 C221.664001,239.402668 221.925332,239.623999 222.16,239.88 C222.394668,240.136001 222.583999,240.437332 222.728,240.784 C222.872001,241.130668 222.944,241.533331 222.944,241.992 L222.944,241.992 Z" id="menu-05" sketch:type="MSShapeGroup"></path>
        </g>
    </g>
</svg>