<?xml version="1.0" encoding="UTF-8" standalone="no"?>
<svg width="43px" height="13px" viewBox="0 0 43 13" version="1.1" xmlns="http://www.w3.org/2000/svg" xmlns:xlink="http://www.w3.org/1999/xlink" xmlns:sketch="http://www.bohemiancoding.com/sketch/ns">
    <!-- Generator: Sketch 3.4.4 (17249) - http://www.bohemiancoding.com/sketch -->
    <title>menu-04</title>
    <desc>Created with Sketch.</desc>
    <defs></defs>
    <g id="Page-1" stroke="none" stroke-width="1" fill="none" fill-rule="evenodd" sketch:type="MSPage">
        <g id="iPhone-5/5S/5C" sketch:type="MSArtboardGroup" transform="translate(-136.000000, -200.000000)" fill="#85BACE">
            <path d="M140.72,212 L138.864,212 L136.08,200.672 L137.664,200.672 L139.824,210.336 L139.856,210.336 L142.016,200.672 L143.552,200.672 L140.72,212 Z M144.88,212 L144.88,200.672 L146.32,200.672 L146.32,212 L144.88,212 Z M155.664,206.352 C155.664,208.186676 155.29067,209.586662 154.544,210.552 C153.79733,211.517338 152.752007,212 151.408,212 L148.816,212 L148.816,200.672 L151.424,200.672 C152.768007,200.672 153.810663,201.157328 154.552,202.128 C155.293337,203.098672 155.664,204.506657 155.664,206.352 L155.664,206.352 Z M154.224,206.352 C154.224,205.60533 154.152001,204.954669 154.008,204.4 C153.863999,203.845331 153.666668,203.386668 153.416,203.024 C153.165332,202.661332 152.866668,202.389334 152.52,202.208 C152.173332,202.026666 151.802669,201.936 151.408,201.936 L150.24,201.936 L150.24,210.736 L151.408,210.736 C151.802669,210.736 152.173332,210.645334 152.52,210.464 C152.866668,210.282666 153.165332,210.010668 153.416,209.648 C153.666668,209.285332 153.863999,208.829336 154.008,208.28 C154.152001,207.730664 154.224,207.088004 154.224,206.352 L154.224,206.352 Z M157.664,212 L157.664,200.672 L162.432,200.672 L162.432,201.952 L159.056,201.952 L159.056,205.52 L162.208,205.52 L162.208,206.72 L159.056,206.72 L159.056,210.704 L162.592,210.704 L162.592,212 L157.664,212 Z M171.744,206.32 C171.744,207.205338 171.656001,208.01333 171.48,208.744 C171.303999,209.47467 171.048002,210.101331 170.712,210.624 C170.375998,211.146669 169.970669,211.551999 169.496,211.84 C169.021331,212.128001 168.480003,212.272 167.872,212.272 C167.263997,212.272 166.720002,212.128001 166.24,211.84 C165.759998,211.551999 165.352002,211.146669 165.016,210.624 C164.679998,210.101331 164.424001,209.47467 164.248,208.744 C164.071999,208.01333 163.984,207.205338 163.984,206.32 C163.984,205.434662 164.069332,204.62667 164.24,203.896 C164.410668,203.16533 164.661332,202.541336 164.992,202.024 C165.322668,201.506664 165.730664,201.106668 166.216,200.824 C166.701336,200.541332 167.25333,200.4 167.872,200.4 C168.480003,200.4 169.021331,200.541332 169.496,200.824 C169.970669,201.106668 170.375998,201.506664 170.712,202.024 C171.048002,202.541336 171.303999,203.16533 171.48,203.896 C171.656001,204.62667 171.744,205.434662 171.744,206.32 L171.744,206.32 Z M170.224,206.32 C170.224,205.679997 170.173334,205.077336 170.072,204.512 C169.970666,203.946664 169.821334,203.456002 169.624,203.04 C169.426666,202.623998 169.181335,202.296001 168.888,202.056 C168.594665,201.815999 168.256002,201.696 167.872,201.696 C167.477331,201.696 167.130668,201.815999 166.832,202.056 C166.533332,202.296001 166.285334,202.623998 166.088,203.04 C165.890666,203.456002 165.744,203.946664 165.648,204.512 C165.552,205.077336 165.504,205.679997 165.504,206.32 C165.504,206.960003 165.552,207.562664 165.648,208.128 C165.744,208.693336 165.890666,209.183998 166.088,209.6 C166.285334,210.016002 166.533332,210.343999 166.832,210.584 C167.130668,210.824001 167.477331,210.944 167.872,210.944 C168.256002,210.944 168.594665,210.824001 168.888,210.584 C169.181335,210.343999 169.426666,210.016002 169.624,209.6 C169.821334,209.183998 169.970666,208.693336 170.072,208.128 C170.173334,207.562664 170.224,206.960003 170.224,206.32 L170.224,206.32 Z M178.864,208.992 C178.864,209.504003 178.784001,209.965331 178.624,210.376 C178.463999,210.786669 178.248001,211.130665 177.976,211.408 C177.703999,211.685335 177.381335,211.898666 177.008,212.048 C176.634665,212.197334 176.234669,212.272 175.808,212.272 C175.231997,212.272 174.685336,212.152001 174.168,211.912 C173.650664,211.671999 173.237335,211.354669 172.928,210.96 L173.776,209.92 C174.021335,210.240002 174.327998,210.490666 174.696,210.672 C175.064002,210.853334 175.434665,210.944 175.808,210.944 C176.288002,210.944 176.682665,210.784002 176.992,210.464 C177.301335,210.143998 177.456,209.680003 177.456,209.072 C177.456,208.783999 177.408,208.530668 177.312,208.312 C177.216,208.093332 177.082668,207.896001 176.912,207.72 C176.741332,207.543999 176.546668,207.384001 176.328,207.24 C176.109332,207.095999 175.872001,206.960001 175.616,206.832 C175.306665,206.682666 175.016001,206.514668 174.744,206.328 C174.471999,206.141332 174.229334,205.925335 174.016,205.68 C173.802666,205.434665 173.634667,205.144002 173.512,204.808 C173.389333,204.471998 173.328,204.074669 173.328,203.616 C173.328,203.071997 173.413332,202.597335 173.584,202.192 C173.754668,201.786665 173.981332,201.450668 174.264,201.184 C174.546668,200.917332 174.869332,200.720001 175.232,200.592 C175.594668,200.463999 175.962665,200.4 176.336,200.4 C176.880003,200.4 177.367998,200.490666 177.8,200.672 C178.232002,200.853334 178.591999,201.125332 178.88,201.488 L178.016,202.512 C177.610665,201.978664 177.06667,201.712 176.384,201.712 C176.181332,201.712 175.981334,201.746666 175.784,201.816 C175.586666,201.885334 175.408001,201.997333 175.248,202.152 C175.087999,202.306667 174.96,202.501332 174.864,202.736 C174.768,202.970668 174.72,203.253332 174.72,203.584 C174.72,203.872001 174.765333,204.119999 174.856,204.328 C174.946667,204.536001 175.069333,204.722666 175.224,204.888 C175.378667,205.053334 175.557332,205.202666 175.76,205.336 C175.962668,205.469334 176.181332,205.594666 176.416,205.712 C176.714668,205.861334 177.007999,206.029332 177.296,206.216 C177.584001,206.402668 177.845332,206.623999 178.08,206.88 C178.314668,207.136001 178.503999,207.437332 178.648,207.784 C178.792001,208.130668 178.864,208.533331 178.864,208.992 L178.864,208.992 Z" id="menu-04" sketch:type="MSShapeGroup"></path>
        </g>
    </g>
</svg>