<?xml version="1.0" encoding="UTF-8" standalone="no"?>
<svg width="56px" height="13px" viewBox="0 0 56 13" version="1.1" xmlns="http://www.w3.org/2000/svg" xmlns:xlink="http://www.w3.org/1999/xlink" xmlns:sketch="http://www.bohemiancoding.com/sketch/ns">
    <!-- Generator: Sketch 3.4.4 (17249) - http://www.bohemiancoding.com/sketch -->
    <title>menu-07</title>
    <desc>Created with Sketch.</desc>
    <defs></defs>
    <g id="Page-1" stroke="none" stroke-width="1" fill="none" fill-rule="evenodd" sketch:type="MSPage">
        <g id="iPhone-5/5S/5C" sketch:type="MSArtboardGroup" transform="translate(-137.000000, -304.000000)" fill="#85BACE">
            <path d="M138.672,305.984 L138.672,309.632 L141.76,309.632 L141.76,310.88 L138.672,310.88 L138.672,316 L137.248,316 L137.248,304.672 L142,304.672 L142,305.984 L138.672,305.984 Z M143.728,316 L143.728,304.672 L148.496,304.672 L148.496,305.952 L145.12,305.952 L145.12,309.52 L148.272,309.52 L148.272,310.72 L145.12,310.72 L145.12,314.704 L148.656,314.704 L148.656,316 L143.728,316 Z M155.456,316 L154.816,313.344 L151.536,313.344 L150.88,316 L149.424,316 L152.272,304.672 L154.176,304.672 L156.96,316 L155.456,316 Z M153.232,306.016 L153.168,306.016 L151.728,312.208 L154.624,312.208 L153.232,306.016 Z M160.384,305.904 L160.384,316 L158.96,316 L158.96,305.904 L156.8,305.904 L156.8,304.672 L162.544,304.672 L162.544,305.904 L160.384,305.904 Z M170.368,312.112 C170.368,312.688003 170.309334,313.226664 170.192,313.728 C170.074666,314.229336 169.882668,314.669331 169.616,315.048 C169.349332,315.426669 169.000002,315.725332 168.568,315.944 C168.135998,316.162668 167.605336,316.272 166.976,316.272 C166.346664,316.272 165.821335,316.162668 165.4,315.944 C164.978665,315.725332 164.634668,315.426669 164.368,315.048 C164.101332,314.669331 163.912001,314.229336 163.8,313.728 C163.687999,313.226664 163.632,312.688003 163.632,312.112 L163.632,304.672 L165.072,304.672 L165.072,311.968 C165.072,312.352002 165.101333,312.722665 165.16,313.08 C165.218667,313.437335 165.319999,313.754665 165.464,314.032 C165.608001,314.309335 165.805332,314.530666 166.056,314.696 C166.306668,314.861334 166.623998,314.944 167.008,314.944 C167.392002,314.944 167.706665,314.861334 167.952,314.696 C168.197335,314.530666 168.391999,314.309335 168.536,314.032 C168.680001,313.754665 168.781333,313.437335 168.84,313.08 C168.898667,312.722665 168.928,312.352002 168.928,311.968 L168.928,304.672 L170.368,304.672 L170.368,312.112 Z M177.344,316 L175.424,310.944 L174.112,310.944 L174.112,316 L172.704,316 L172.704,304.672 L175.632,304.672 C176.048002,304.672 176.439998,304.727999 176.808,304.84 C177.176002,304.952001 177.498665,305.130665 177.776,305.376 C178.053335,305.621335 178.271999,305.941331 178.432,306.336 C178.592001,306.730669 178.672,307.205331 178.672,307.76 C178.672,308.218669 178.613334,308.618665 178.496,308.96 C178.378666,309.301335 178.226668,309.591999 178.04,309.832 C177.853332,310.072001 177.648001,310.261333 177.424,310.4 C177.199999,310.538667 176.981334,310.629333 176.768,310.672 L178.88,316 L177.344,316 Z M177.248,307.824 C177.248,307.439998 177.194667,307.125335 177.088,306.88 C176.981333,306.634665 176.842668,306.437334 176.672,306.288 C176.501332,306.138666 176.304001,306.034667 176.08,305.976 C175.855999,305.917333 175.632001,305.888 175.408,305.888 L174.112,305.888 L174.112,309.824 L175.44,309.824 C175.984003,309.824 176.421332,309.650668 176.752,309.304 C177.082668,308.957332 177.248,308.464003 177.248,307.824 L177.248,307.824 Z M180.576,316 L180.576,304.672 L185.344,304.672 L185.344,305.952 L181.968,305.952 L181.968,309.52 L185.12,309.52 L185.12,310.72 L181.968,310.72 L181.968,314.704 L185.504,314.704 L185.504,316 L180.576,316 Z M192.512,312.992 C192.512,313.504003 192.432001,313.965331 192.272,314.376 C192.111999,314.786669 191.896001,315.130665 191.624,315.408 C191.351999,315.685335 191.029335,315.898666 190.656,316.048 C190.282665,316.197334 189.882669,316.272 189.456,316.272 C188.879997,316.272 188.333336,316.152001 187.816,315.912 C187.298664,315.671999 186.885335,315.354669 186.576,314.96 L187.424,313.92 C187.669335,314.240002 187.975998,314.490666 188.344,314.672 C188.712002,314.853334 189.082665,314.944 189.456,314.944 C189.936002,314.944 190.330665,314.784002 190.64,314.464 C190.949335,314.143998 191.104,313.680003 191.104,313.072 C191.104,312.783999 191.056,312.530668 190.96,312.312 C190.864,312.093332 190.730668,311.896001 190.56,311.72 C190.389332,311.543999 190.194668,311.384001 189.976,311.24 C189.757332,311.095999 189.520001,310.960001 189.264,310.832 C188.954665,310.682666 188.664001,310.514668 188.392,310.328 C188.119999,310.141332 187.877334,309.925335 187.664,309.68 C187.450666,309.434665 187.282667,309.144002 187.16,308.808 C187.037333,308.471998 186.976,308.074669 186.976,307.616 C186.976,307.071997 187.061332,306.597335 187.232,306.192 C187.402668,305.786665 187.629332,305.450668 187.912,305.184 C188.194668,304.917332 188.517332,304.720001 188.88,304.592 C189.242668,304.463999 189.610665,304.4 189.984,304.4 C190.528003,304.4 191.015998,304.490666 191.448,304.672 C191.880002,304.853334 192.239999,305.125332 192.528,305.488 L191.664,306.512 C191.258665,305.978664 190.71467,305.712 190.032,305.712 C189.829332,305.712 189.629334,305.746666 189.432,305.816 C189.234666,305.885334 189.056001,305.997333 188.896,306.152 C188.735999,306.306667 188.608,306.501332 188.512,306.736 C188.416,306.970668 188.368,307.253332 188.368,307.584 C188.368,307.872001 188.413333,308.119999 188.504,308.328 C188.594667,308.536001 188.717333,308.722666 188.872,308.888 C189.026667,309.053334 189.205332,309.202666 189.408,309.336 C189.610668,309.469334 189.829332,309.594666 190.064,309.712 C190.362668,309.861334 190.655999,310.029332 190.944,310.216 C191.232001,310.402668 191.493332,310.623999 191.728,310.88 C191.962668,311.136001 192.151999,311.437332 192.296,311.784 C192.440001,312.130668 192.512,312.533331 192.512,312.992 L192.512,312.992 Z" id="menu-07" sketch:type="MSShapeGroup"></path>
        </g>
    </g>
</svg>