<?xml version="1.0" encoding="UTF-8" standalone="no"?>
<svg width="100px" height="13px" viewBox="0 0 100 13" version="1.1" xmlns="http://www.w3.org/2000/svg" xmlns:xlink="http://www.w3.org/1999/xlink" xmlns:sketch="http://www.bohemiancoding.com/sketch/ns">
    <!-- Generator: Sketch 3.4.4 (17249) - http://www.bohemiancoding.com/sketch -->
    <title>menu-06</title>
    <desc>Created with Sketch.</desc>
    <defs></defs>
    <g id="Page-1" stroke="none" stroke-width="1" fill="none" fill-rule="evenodd" sketch:type="MSPage">
        <g id="iPhone-5/5S/5C" sketch:type="MSArtboardGroup" transform="translate(-137.000000, -266.000000)" fill="#85BACE">
            <path d="M143.12,269.856 C143.12,270.400003 143.040001,270.879998 142.88,271.296 C142.719999,271.712002 142.504001,272.055999 142.232,272.328 C141.959999,272.600001 141.650668,272.805333 141.304,272.944 C140.957332,273.082667 140.592002,273.152 140.208,273.152 L138.672,273.152 L138.672,278 L137.248,278 L137.248,266.672 L140.112,266.672 C140.453335,266.672 140.802665,266.722666 141.16,266.824 C141.517335,266.925334 141.839999,267.098665 142.128,267.344 C142.416001,267.589335 142.653332,267.917331 142.84,268.328 C143.026668,268.738669 143.12,269.247997 143.12,269.856 L143.12,269.856 Z M141.696,269.872 C141.696,269.18933 141.536002,268.690668 141.216,268.376 C140.895998,268.061332 140.480003,267.904 139.968,267.904 L138.672,267.904 L138.672,271.952 L139.968,271.952 C140.480003,271.952 140.895998,271.778668 141.216,271.432 C141.536002,271.085332 141.696,270.565337 141.696,269.872 L141.696,269.872 Z M150.24,278 L150.24,272.768 L146.288,272.768 L146.288,278 L144.848,278 L144.848,266.672 L146.288,266.672 L146.288,271.488 L150.24,271.488 L150.24,266.672 L151.68,266.672 L151.68,278 L150.24,278 Z M161.44,272.32 C161.44,273.205338 161.352001,274.01333 161.176,274.744 C160.999999,275.47467 160.744002,276.101331 160.408,276.624 C160.071998,277.146669 159.666669,277.551999 159.192,277.84 C158.717331,278.128001 158.176003,278.272 157.568,278.272 C156.959997,278.272 156.416002,278.128001 155.936,277.84 C155.455998,277.551999 155.048002,277.146669 154.712,276.624 C154.375998,276.101331 154.120001,275.47467 153.944,274.744 C153.767999,274.01333 153.68,273.205338 153.68,272.32 C153.68,271.434662 153.765332,270.62667 153.936,269.896 C154.106668,269.16533 154.357332,268.541336 154.688,268.024 C155.018668,267.506664 155.426664,267.106668 155.912,266.824 C156.397336,266.541332 156.94933,266.4 157.568,266.4 C158.176003,266.4 158.717331,266.541332 159.192,266.824 C159.666669,267.106668 160.071998,267.506664 160.408,268.024 C160.744002,268.541336 160.999999,269.16533 161.176,269.896 C161.352001,270.62667 161.44,271.434662 161.44,272.32 L161.44,272.32 Z M159.92,272.32 C159.92,271.679997 159.869334,271.077336 159.768,270.512 C159.666666,269.946664 159.517334,269.456002 159.32,269.04 C159.122666,268.623998 158.877335,268.296001 158.584,268.056 C158.290665,267.815999 157.952002,267.696 157.568,267.696 C157.173331,267.696 156.826668,267.815999 156.528,268.056 C156.229332,268.296001 155.981334,268.623998 155.784,269.04 C155.586666,269.456002 155.44,269.946664 155.344,270.512 C155.248,271.077336 155.2,271.679997 155.2,272.32 C155.2,272.960003 155.248,273.562664 155.344,274.128 C155.44,274.693336 155.586666,275.183998 155.784,275.6 C155.981334,276.016002 156.229332,276.343999 156.528,276.584 C156.826668,276.824001 157.173331,276.944 157.568,276.944 C157.952002,276.944 158.290665,276.824001 158.584,276.584 C158.877335,276.343999 159.122666,276.016002 159.32,275.6 C159.517334,275.183998 159.666666,274.693336 159.768,274.128 C159.869334,273.562664 159.92,272.960003 159.92,272.32 L159.92,272.32 Z M165.296,267.904 L165.296,278 L163.872,278 L163.872,267.904 L161.712,267.904 L161.712,266.672 L167.456,266.672 L167.456,267.904 L165.296,267.904 Z M175.776,272.32 C175.776,273.205338 175.688001,274.01333 175.512,274.744 C175.335999,275.47467 175.080002,276.101331 174.744,276.624 C174.407998,277.146669 174.002669,277.551999 173.528,277.84 C173.053331,278.128001 172.512003,278.272 171.904,278.272 C171.295997,278.272 170.752002,278.128001 170.272,277.84 C169.791998,277.551999 169.384002,277.146669 169.048,276.624 C168.711998,276.101331 168.456001,275.47467 168.28,274.744 C168.103999,274.01333 168.016,273.205338 168.016,272.32 C168.016,271.434662 168.101332,270.62667 168.272,269.896 C168.442668,269.16533 168.693332,268.541336 169.024,268.024 C169.354668,267.506664 169.762664,267.106668 170.248,266.824 C170.733336,266.541332 171.28533,266.4 171.904,266.4 C172.512003,266.4 173.053331,266.541332 173.528,266.824 C174.002669,267.106668 174.407998,267.506664 174.744,268.024 C175.080002,268.541336 175.335999,269.16533 175.512,269.896 C175.688001,270.62667 175.776,271.434662 175.776,272.32 L175.776,272.32 Z M174.256,272.32 C174.256,271.679997 174.205334,271.077336 174.104,270.512 C174.002666,269.946664 173.853334,269.456002 173.656,269.04 C173.458666,268.623998 173.213335,268.296001 172.92,268.056 C172.626665,267.815999 172.288002,267.696 171.904,267.696 C171.509331,267.696 171.162668,267.815999 170.864,268.056 C170.565332,268.296001 170.317334,268.623998 170.12,269.04 C169.922666,269.456002 169.776,269.946664 169.68,270.512 C169.584,271.077336 169.536,271.679997 169.536,272.32 C169.536,272.960003 169.584,273.562664 169.68,274.128 C169.776,274.693336 169.922666,275.183998 170.12,275.6 C170.317334,276.016002 170.565332,276.343999 170.864,276.584 C171.162668,276.824001 171.509331,276.944 171.904,276.944 C172.288002,276.944 172.626665,276.824001 172.92,276.584 C173.213335,276.343999 173.458666,276.016002 173.656,275.6 C173.853334,275.183998 174.002666,274.693336 174.104,274.128 C174.205334,273.562664 174.256,272.960003 174.256,272.32 L174.256,272.32 Z M182.24,267.984 L182.24,271.632 L185.328,271.632 L185.328,272.88 L182.24,272.88 L182.24,278 L180.816,278 L180.816,266.672 L185.568,266.672 L185.568,267.984 L182.24,267.984 Z M187.296,278 L187.296,266.672 L192.064,266.672 L192.064,267.952 L188.688,267.952 L188.688,271.52 L191.84,271.52 L191.84,272.72 L188.688,272.72 L188.688,276.704 L192.224,276.704 L192.224,278 L187.296,278 Z M199.024,278 L198.384,275.344 L195.104,275.344 L194.448,278 L192.992,278 L195.84,266.672 L197.744,266.672 L200.528,278 L199.024,278 Z M196.8,268.016 L196.736,268.016 L195.296,274.208 L198.192,274.208 L196.8,268.016 Z M203.952,267.904 L203.952,278 L202.528,278 L202.528,267.904 L200.368,267.904 L200.368,266.672 L206.112,266.672 L206.112,267.904 L203.952,267.904 Z M213.936,274.112 C213.936,274.688003 213.877334,275.226664 213.76,275.728 C213.642666,276.229336 213.450668,276.669331 213.184,277.048 C212.917332,277.426669 212.568002,277.725332 212.136,277.944 C211.703998,278.162668 211.173336,278.272 210.544,278.272 C209.914664,278.272 209.389335,278.162668 208.968,277.944 C208.546665,277.725332 208.202668,277.426669 207.936,277.048 C207.669332,276.669331 207.480001,276.229336 207.368,275.728 C207.255999,275.226664 207.2,274.688003 207.2,274.112 L207.2,266.672 L208.64,266.672 L208.64,273.968 C208.64,274.352002 208.669333,274.722665 208.728,275.08 C208.786667,275.437335 208.887999,275.754665 209.032,276.032 C209.176001,276.309335 209.373332,276.530666 209.624,276.696 C209.874668,276.861334 210.191998,276.944 210.576,276.944 C210.960002,276.944 211.274665,276.861334 211.52,276.696 C211.765335,276.530666 211.959999,276.309335 212.104,276.032 C212.248001,275.754665 212.349333,275.437335 212.408,275.08 C212.466667,274.722665 212.496,274.352002 212.496,273.968 L212.496,266.672 L213.936,266.672 L213.936,274.112 Z M220.912,278 L218.992,272.944 L217.68,272.944 L217.68,278 L216.272,278 L216.272,266.672 L219.2,266.672 C219.616002,266.672 220.007998,266.727999 220.376,266.84 C220.744002,266.952001 221.066665,267.130665 221.344,267.376 C221.621335,267.621335 221.839999,267.941331 222,268.336 C222.160001,268.730669 222.24,269.205331 222.24,269.76 C222.24,270.218669 222.181334,270.618665 222.064,270.96 C221.946666,271.301335 221.794668,271.591999 221.608,271.832 C221.421332,272.072001 221.216001,272.261333 220.992,272.4 C220.767999,272.538667 220.549334,272.629333 220.336,272.672 L222.448,278 L220.912,278 Z M220.816,269.824 C220.816,269.439998 220.762667,269.125335 220.656,268.88 C220.549333,268.634665 220.410668,268.437334 220.24,268.288 C220.069332,268.138666 219.872001,268.034667 219.648,267.976 C219.423999,267.917333 219.200001,267.888 218.976,267.888 L217.68,267.888 L217.68,271.824 L219.008,271.824 C219.552003,271.824 219.989332,271.650668 220.32,271.304 C220.650668,270.957332 220.816,270.464003 220.816,269.824 L220.816,269.824 Z M224.144,278 L224.144,266.672 L228.912,266.672 L228.912,267.952 L225.536,267.952 L225.536,271.52 L228.688,271.52 L228.688,272.72 L225.536,272.72 L225.536,276.704 L229.072,276.704 L229.072,278 L224.144,278 Z M236.08,274.992 C236.08,275.504003 236.000001,275.965331 235.84,276.376 C235.679999,276.786669 235.464001,277.130665 235.192,277.408 C234.919999,277.685335 234.597335,277.898666 234.224,278.048 C233.850665,278.197334 233.450669,278.272 233.024,278.272 C232.447997,278.272 231.901336,278.152001 231.384,277.912 C230.866664,277.671999 230.453335,277.354669 230.144,276.96 L230.992,275.92 C231.237335,276.240002 231.543998,276.490666 231.912,276.672 C232.280002,276.853334 232.650665,276.944 233.024,276.944 C233.504002,276.944 233.898665,276.784002 234.208,276.464 C234.517335,276.143998 234.672,275.680003 234.672,275.072 C234.672,274.783999 234.624,274.530668 234.528,274.312 C234.432,274.093332 234.298668,273.896001 234.128,273.72 C233.957332,273.543999 233.762668,273.384001 233.544,273.24 C233.325332,273.095999 233.088001,272.960001 232.832,272.832 C232.522665,272.682666 232.232001,272.514668 231.96,272.328 C231.687999,272.141332 231.445334,271.925335 231.232,271.68 C231.018666,271.434665 230.850667,271.144002 230.728,270.808 C230.605333,270.471998 230.544,270.074669 230.544,269.616 C230.544,269.071997 230.629332,268.597335 230.8,268.192 C230.970668,267.786665 231.197332,267.450668 231.48,267.184 C231.762668,266.917332 232.085332,266.720001 232.448,266.592 C232.810668,266.463999 233.178665,266.4 233.552,266.4 C234.096003,266.4 234.583998,266.490666 235.016,266.672 C235.448002,266.853334 235.807999,267.125332 236.096,267.488 L235.232,268.512 C234.826665,267.978664 234.28267,267.712 233.6,267.712 C233.397332,267.712 233.197334,267.746666 233,267.816 C232.802666,267.885334 232.624001,267.997333 232.464,268.152 C232.303999,268.306667 232.176,268.501332 232.08,268.736 C231.984,268.970668 231.936,269.253332 231.936,269.584 C231.936,269.872001 231.981333,270.119999 232.072,270.328 C232.162667,270.536001 232.285333,270.722666 232.44,270.888 C232.594667,271.053334 232.773332,271.202666 232.976,271.336 C233.178668,271.469334 233.397332,271.594666 233.632,271.712 C233.930668,271.861334 234.223999,272.029332 234.512,272.216 C234.800001,272.402668 235.061332,272.623999 235.296,272.88 C235.530668,273.136001 235.719999,273.437332 235.864,273.784 C236.008001,274.130668 236.08,274.533331 236.08,274.992 L236.08,274.992 Z" id="menu-06" sketch:type="MSShapeGroup"></path>
        </g>
    </g>
</svg>