<?xml version="1.0" encoding="UTF-8" standalone="no"?>
<svg width="98px" height="13px" viewBox="0 0 98 13" version="1.1" xmlns="http://www.w3.org/2000/svg" xmlns:xlink="http://www.w3.org/1999/xlink" xmlns:sketch="http://www.bohemiancoding.com/sketch/ns">
    <!-- Generator: Sketch 3.4.4 (17249) - http://www.bohemiancoding.com/sketch -->
    <title>BUSINESS BLOGS</title>
    <desc>Created with Sketch.</desc>
    <defs></defs>
    <g id="Welcome" stroke="none" stroke-width="1" fill="none" fill-rule="evenodd" sketch:type="MSPage">
        <g id="Desktop-HD" sketch:type="MSArtboardGroup" transform="translate(-488.000000, -707.000000)" fill="#85BACE">
            <path d="M492.648,710.696 C492.648,710.354665 492.594667,710.069334 492.488,709.84 C492.381333,709.610666 492.242668,709.424001 492.072,709.28 C491.901332,709.135999 491.706668,709.034667 491.488,708.976 C491.269332,708.917333 491.042668,708.888 490.808,708.888 L489.608,708.888 L489.608,712.536 L490.84,712.536 C491.053334,712.536 491.269332,712.501334 491.488,712.432 C491.706668,712.362666 491.901332,712.256001 492.072,712.112 C492.242668,711.967999 492.381333,711.778668 492.488,711.544 C492.594667,711.309332 492.648,711.026668 492.648,710.696 L492.648,710.696 Z M492.952,715.784 C492.952,715.399998 492.890667,715.072001 492.768,714.8 C492.645333,714.527999 492.488001,714.309334 492.296,714.144 C492.103999,713.978666 491.888001,713.858667 491.648,713.784 C491.407999,713.709333 491.170668,713.672 490.936,713.672 L489.608,713.672 L489.608,717.784 L491,717.784 C491.266668,717.784 491.519999,717.744 491.76,717.664 C492.000001,717.584 492.207999,717.464001 492.384,717.304 C492.560001,717.143999 492.698666,716.938668 492.8,716.688 C492.901334,716.437332 492.952,716.136002 492.952,715.784 L492.952,715.784 Z M492.44,713.048 C492.642668,713.090667 492.858666,713.175999 493.088,713.304 C493.317334,713.432001 493.527999,713.610666 493.72,713.84 C493.912001,714.069334 494.069333,714.351998 494.192,714.688 C494.314667,715.024002 494.376,715.421331 494.376,715.88 C494.376,716.46667 494.280001,716.957331 494.088,717.352 C493.895999,717.746669 493.650668,718.066665 493.352,718.312 C493.053332,718.557335 492.722668,718.733333 492.36,718.84 C491.997332,718.946667 491.645335,719 491.304,719 L488.248,719 L488.248,707.672 L490.968,707.672 C491.288002,707.672 491.626665,707.712 491.984,707.792 C492.341335,707.872 492.669332,708.018666 492.968,708.232 C493.266668,708.445334 493.511999,708.733332 493.704,709.096 C493.896001,709.458668 493.992,709.917331 493.992,710.472 C493.992,710.845335 493.949334,711.170665 493.864,711.448 C493.778666,711.725335 493.664001,711.967999 493.52,712.176 C493.375999,712.384001 493.210668,712.557333 493.024,712.696 C492.837332,712.834667 492.642668,712.941333 492.44,713.016 L492.44,713.048 Z M502.824,715.112 C502.824,715.688003 502.765334,716.226664 502.648,716.728 C502.530666,717.229336 502.338668,717.669331 502.072,718.048 C501.805332,718.426669 501.456002,718.725332 501.024,718.944 C500.591998,719.162668 500.061336,719.272 499.432,719.272 C498.802664,719.272 498.277335,719.162668 497.856,718.944 C497.434665,718.725332 497.090668,718.426669 496.824,718.048 C496.557332,717.669331 496.368001,717.229336 496.256,716.728 C496.143999,716.226664 496.088,715.688003 496.088,715.112 L496.088,707.672 L497.528,707.672 L497.528,714.968 C497.528,715.352002 497.557333,715.722665 497.616,716.08 C497.674667,716.437335 497.775999,716.754665 497.92,717.032 C498.064001,717.309335 498.261332,717.530666 498.512,717.696 C498.762668,717.861334 499.079998,717.944 499.464,717.944 C499.848002,717.944 500.162665,717.861334 500.408,717.696 C500.653335,717.530666 500.847999,717.309335 500.992,717.032 C501.136001,716.754665 501.237333,716.437335 501.296,716.08 C501.354667,715.722665 501.384,715.352002 501.384,714.968 L501.384,707.672 L502.824,707.672 L502.824,715.112 Z M510.28,715.992 C510.28,716.504003 510.200001,716.965331 510.04,717.376 C509.879999,717.786669 509.664001,718.130665 509.392,718.408 C509.119999,718.685335 508.797335,718.898666 508.424,719.048 C508.050665,719.197334 507.650669,719.272 507.224,719.272 C506.647997,719.272 506.101336,719.152001 505.584,718.912 C505.066664,718.671999 504.653335,718.354669 504.344,717.96 L505.192,716.92 C505.437335,717.240002 505.743998,717.490666 506.112,717.672 C506.480002,717.853334 506.850665,717.944 507.224,717.944 C507.704002,717.944 508.098665,717.784002 508.408,717.464 C508.717335,717.143998 508.872,716.680003 508.872,716.072 C508.872,715.783999 508.824,715.530668 508.728,715.312 C508.632,715.093332 508.498668,714.896001 508.328,714.72 C508.157332,714.543999 507.962668,714.384001 507.744,714.24 C507.525332,714.095999 507.288001,713.960001 507.032,713.832 C506.722665,713.682666 506.432001,713.514668 506.16,713.328 C505.887999,713.141332 505.645334,712.925335 505.432,712.68 C505.218666,712.434665 505.050667,712.144002 504.928,711.808 C504.805333,711.471998 504.744,711.074669 504.744,710.616 C504.744,710.071997 504.829332,709.597335 505,709.192 C505.170668,708.786665 505.397332,708.450668 505.68,708.184 C505.962668,707.917332 506.285332,707.720001 506.648,707.592 C507.010668,707.463999 507.378665,707.4 507.752,707.4 C508.296003,707.4 508.783998,707.490666 509.216,707.672 C509.648002,707.853334 510.007999,708.125332 510.296,708.488 L509.432,709.512 C509.026665,708.978664 508.48267,708.712 507.8,708.712 C507.597332,708.712 507.397334,708.746666 507.2,708.816 C507.002666,708.885334 506.824001,708.997333 506.664,709.152 C506.503999,709.306667 506.376,709.501332 506.28,709.736 C506.184,709.970668 506.136,710.253332 506.136,710.584 C506.136,710.872001 506.181333,711.119999 506.272,711.328 C506.362667,711.536001 506.485333,711.722666 506.64,711.888 C506.794667,712.053334 506.973332,712.202666 507.176,712.336 C507.378668,712.469334 507.597332,712.594666 507.832,712.712 C508.130668,712.861334 508.423999,713.029332 508.712,713.216 C509.000001,713.402668 509.261332,713.623999 509.496,713.88 C509.730668,714.136001 509.919999,714.437332 510.064,714.784 C510.208001,715.130668 510.28,715.533331 510.28,715.992 L510.28,715.992 Z M512.2,719 L512.2,707.672 L513.64,707.672 L513.64,719 L512.2,719 Z M521.128,719 L517.512,710.216 L517.464,710.216 L517.464,719 L516.136,719 L516.136,707.672 L517.864,707.672 L521.432,716.472 L521.48,716.472 L521.48,707.672 L522.808,707.672 L522.808,719 L521.128,719 Z M525.304,719 L525.304,707.672 L530.072,707.672 L530.072,708.952 L526.696,708.952 L526.696,712.52 L529.848,712.52 L529.848,713.72 L526.696,713.72 L526.696,717.704 L530.232,717.704 L530.232,719 L525.304,719 Z M537.24,715.992 C537.24,716.504003 537.160001,716.965331 537,717.376 C536.839999,717.786669 536.624001,718.130665 536.352,718.408 C536.079999,718.685335 535.757335,718.898666 535.384,719.048 C535.010665,719.197334 534.610669,719.272 534.184,719.272 C533.607997,719.272 533.061336,719.152001 532.544,718.912 C532.026664,718.671999 531.613335,718.354669 531.304,717.96 L532.152,716.92 C532.397335,717.240002 532.703998,717.490666 533.072,717.672 C533.440002,717.853334 533.810665,717.944 534.184,717.944 C534.664002,717.944 535.058665,717.784002 535.368,717.464 C535.677335,717.143998 535.832,716.680003 535.832,716.072 C535.832,715.783999 535.784,715.530668 535.688,715.312 C535.592,715.093332 535.458668,714.896001 535.288,714.72 C535.117332,714.543999 534.922668,714.384001 534.704,714.24 C534.485332,714.095999 534.248001,713.960001 533.992,713.832 C533.682665,713.682666 533.392001,713.514668 533.12,713.328 C532.847999,713.141332 532.605334,712.925335 532.392,712.68 C532.178666,712.434665 532.010667,712.144002 531.888,711.808 C531.765333,711.471998 531.704,711.074669 531.704,710.616 C531.704,710.071997 531.789332,709.597335 531.96,709.192 C532.130668,708.786665 532.357332,708.450668 532.64,708.184 C532.922668,707.917332 533.245332,707.720001 533.608,707.592 C533.970668,707.463999 534.338665,707.4 534.712,707.4 C535.256003,707.4 535.743998,707.490666 536.176,707.672 C536.608002,707.853334 536.967999,708.125332 537.256,708.488 L536.392,709.512 C535.986665,708.978664 535.44267,708.712 534.76,708.712 C534.557332,708.712 534.357334,708.746666 534.16,708.816 C533.962666,708.885334 533.784001,708.997333 533.624,709.152 C533.463999,709.306667 533.336,709.501332 533.24,709.736 C533.144,709.970668 533.096,710.253332 533.096,710.584 C533.096,710.872001 533.141333,711.119999 533.232,711.328 C533.322667,711.536001 533.445333,711.722666 533.6,711.888 C533.754667,712.053334 533.933332,712.202666 534.136,712.336 C534.338668,712.469334 534.557332,712.594666 534.792,712.712 C535.090668,712.861334 535.383999,713.029332 535.672,713.216 C535.960001,713.402668 536.221332,713.623999 536.456,713.88 C536.690668,714.136001 536.879999,714.437332 537.024,714.784 C537.168001,715.130668 537.24,715.533331 537.24,715.992 L537.24,715.992 Z M544.28,715.992 C544.28,716.504003 544.200001,716.965331 544.04,717.376 C543.879999,717.786669 543.664001,718.130665 543.392,718.408 C543.119999,718.685335 542.797335,718.898666 542.424,719.048 C542.050665,719.197334 541.650669,719.272 541.224,719.272 C540.647997,719.272 540.101336,719.152001 539.584,718.912 C539.066664,718.671999 538.653335,718.354669 538.344,717.96 L539.192,716.92 C539.437335,717.240002 539.743998,717.490666 540.112,717.672 C540.480002,717.853334 540.850665,717.944 541.224,717.944 C541.704002,717.944 542.098665,717.784002 542.408,717.464 C542.717335,717.143998 542.872,716.680003 542.872,716.072 C542.872,715.783999 542.824,715.530668 542.728,715.312 C542.632,715.093332 542.498668,714.896001 542.328,714.72 C542.157332,714.543999 541.962668,714.384001 541.744,714.24 C541.525332,714.095999 541.288001,713.960001 541.032,713.832 C540.722665,713.682666 540.432001,713.514668 540.16,713.328 C539.887999,713.141332 539.645334,712.925335 539.432,712.68 C539.218666,712.434665 539.050667,712.144002 538.928,711.808 C538.805333,711.471998 538.744,711.074669 538.744,710.616 C538.744,710.071997 538.829332,709.597335 539,709.192 C539.170668,708.786665 539.397332,708.450668 539.68,708.184 C539.962668,707.917332 540.285332,707.720001 540.648,707.592 C541.010668,707.463999 541.378665,707.4 541.752,707.4 C542.296003,707.4 542.783998,707.490666 543.216,707.672 C543.648002,707.853334 544.007999,708.125332 544.296,708.488 L543.432,709.512 C543.026665,708.978664 542.48267,708.712 541.8,708.712 C541.597332,708.712 541.397334,708.746666 541.2,708.816 C541.002666,708.885334 540.824001,708.997333 540.664,709.152 C540.503999,709.306667 540.376,709.501332 540.28,709.736 C540.184,709.970668 540.136,710.253332 540.136,710.584 C540.136,710.872001 540.181333,711.119999 540.272,711.328 C540.362667,711.536001 540.485333,711.722666 540.64,711.888 C540.794667,712.053334 540.973332,712.202666 541.176,712.336 C541.378668,712.469334 541.597332,712.594666 541.832,712.712 C542.130668,712.861334 542.423999,713.029332 542.712,713.216 C543.000001,713.402668 543.261332,713.623999 543.496,713.88 C543.730668,714.136001 543.919999,714.437332 544.064,714.784 C544.208001,715.130668 544.28,715.533331 544.28,715.992 L544.28,715.992 Z M553.64,710.696 C553.64,710.354665 553.586667,710.069334 553.48,709.84 C553.373333,709.610666 553.234668,709.424001 553.064,709.28 C552.893332,709.135999 552.698668,709.034667 552.48,708.976 C552.261332,708.917333 552.034668,708.888 551.8,708.888 L550.6,708.888 L550.6,712.536 L551.832,712.536 C552.045334,712.536 552.261332,712.501334 552.48,712.432 C552.698668,712.362666 552.893332,712.256001 553.064,712.112 C553.234668,711.967999 553.373333,711.778668 553.48,711.544 C553.586667,711.309332 553.64,711.026668 553.64,710.696 L553.64,710.696 Z M553.944,715.784 C553.944,715.399998 553.882667,715.072001 553.76,714.8 C553.637333,714.527999 553.480001,714.309334 553.288,714.144 C553.095999,713.978666 552.880001,713.858667 552.64,713.784 C552.399999,713.709333 552.162668,713.672 551.928,713.672 L550.6,713.672 L550.6,717.784 L551.992,717.784 C552.258668,717.784 552.511999,717.744 552.752,717.664 C552.992001,717.584 553.199999,717.464001 553.376,717.304 C553.552001,717.143999 553.690666,716.938668 553.792,716.688 C553.893334,716.437332 553.944,716.136002 553.944,715.784 L553.944,715.784 Z M553.432,713.048 C553.634668,713.090667 553.850666,713.175999 554.08,713.304 C554.309334,713.432001 554.519999,713.610666 554.712,713.84 C554.904001,714.069334 555.061333,714.351998 555.184,714.688 C555.306667,715.024002 555.368,715.421331 555.368,715.88 C555.368,716.46667 555.272001,716.957331 555.08,717.352 C554.887999,717.746669 554.642668,718.066665 554.344,718.312 C554.045332,718.557335 553.714668,718.733333 553.352,718.84 C552.989332,718.946667 552.637335,719 552.296,719 L549.24,719 L549.24,707.672 L551.96,707.672 C552.280002,707.672 552.618665,707.712 552.976,707.792 C553.333335,707.872 553.661332,708.018666 553.96,708.232 C554.258668,708.445334 554.503999,708.733332 554.696,709.096 C554.888001,709.458668 554.984,709.917331 554.984,710.472 C554.984,710.845335 554.941334,711.170665 554.856,711.448 C554.770666,711.725335 554.656001,711.967999 554.512,712.176 C554.367999,712.384001 554.202668,712.557333 554.016,712.696 C553.829332,712.834667 553.634668,712.941333 553.432,713.016 L553.432,713.048 Z M557.24,719 L557.24,707.672 L558.68,707.672 L558.68,717.656 L561.88,717.656 L561.88,719 L557.24,719 Z M569.992,713.32 C569.992,714.205338 569.904001,715.01333 569.728,715.744 C569.551999,716.47467 569.296002,717.101331 568.96,717.624 C568.623998,718.146669 568.218669,718.551999 567.744,718.84 C567.269331,719.128001 566.728003,719.272 566.12,719.272 C565.511997,719.272 564.968002,719.128001 564.488,718.84 C564.007998,718.551999 563.600002,718.146669 563.264,717.624 C562.927998,717.101331 562.672001,716.47467 562.496,715.744 C562.319999,715.01333 562.232,714.205338 562.232,713.32 C562.232,712.434662 562.317332,711.62667 562.488,710.896 C562.658668,710.16533 562.909332,709.541336 563.24,709.024 C563.570668,708.506664 563.978664,708.106668 564.464,707.824 C564.949336,707.541332 565.50133,707.4 566.12,707.4 C566.728003,707.4 567.269331,707.541332 567.744,707.824 C568.218669,708.106668 568.623998,708.506664 568.96,709.024 C569.296002,709.541336 569.551999,710.16533 569.728,710.896 C569.904001,711.62667 569.992,712.434662 569.992,713.32 L569.992,713.32 Z M568.472,713.32 C568.472,712.679997 568.421334,712.077336 568.32,711.512 C568.218666,710.946664 568.069334,710.456002 567.872,710.04 C567.674666,709.623998 567.429335,709.296001 567.136,709.056 C566.842665,708.815999 566.504002,708.696 566.12,708.696 C565.725331,708.696 565.378668,708.815999 565.08,709.056 C564.781332,709.296001 564.533334,709.623998 564.336,710.04 C564.138666,710.456002 563.992,710.946664 563.896,711.512 C563.8,712.077336 563.752,712.679997 563.752,713.32 C563.752,713.960003 563.8,714.562664 563.896,715.128 C563.992,715.693336 564.138666,716.183998 564.336,716.6 C564.533334,717.016002 564.781332,717.343999 565.08,717.584 C565.378668,717.824001 565.725331,717.944 566.12,717.944 C566.504002,717.944 566.842665,717.824001 567.136,717.584 C567.429335,717.343999 567.674666,717.016002 567.872,716.6 C568.069334,716.183998 568.218666,715.693336 568.32,715.128 C568.421334,714.562664 568.472,713.960003 568.472,713.32 L568.472,713.32 Z M575.496,707.4 C576.104003,707.4 576.642664,707.511999 577.112,707.736 C577.581336,707.960001 577.970665,708.301331 578.28,708.76 L577.384,709.736 C577.149332,709.394665 576.877335,709.138668 576.568,708.968 C576.258665,708.797332 575.922668,708.712 575.56,708.712 C575.122664,708.712 574.746668,708.834665 574.432,709.08 C574.117332,709.325335 573.853334,709.658665 573.64,710.08 C573.426666,710.501335 573.269334,710.991997 573.168,711.552 C573.066666,712.112003 573.016,712.70133 573.016,713.32 C573.016,713.97067 573.071999,714.575997 573.184,715.136 C573.296001,715.696003 573.461332,716.181331 573.68,716.592 C573.898668,717.002669 574.173332,717.325332 574.504,717.56 C574.834668,717.794668 575.223998,717.912 575.672,717.912 C576.269336,717.912 576.722665,717.784001 577.032,717.528 L577.032,714.024 L575.544,714.024 L575.544,712.776 L578.424,712.776 L578.424,718.296 C578.093332,718.573335 577.706669,718.794666 577.264,718.96 C576.821331,719.125334 576.280003,719.208 575.64,719.208 C574.98933,719.208 574.408003,719.066668 573.896,718.784 C573.383997,718.501332 572.949335,718.104003 572.592,717.592 C572.234665,717.079997 571.962668,716.461337 571.776,715.736 C571.589332,715.010663 571.496,714.205338 571.496,713.32 C571.496,712.466662 571.586666,711.680004 571.768,710.96 C571.949334,710.239996 572.210665,709.616003 572.552,709.088 C572.893335,708.559997 573.311998,708.146668 573.808,707.848 C574.304002,707.549332 574.866664,707.4 575.496,707.4 L575.496,707.4 Z M585.768,715.992 C585.768,716.504003 585.688001,716.965331 585.528,717.376 C585.367999,717.786669 585.152001,718.130665 584.88,718.408 C584.607999,718.685335 584.285335,718.898666 583.912,719.048 C583.538665,719.197334 583.138669,719.272 582.712,719.272 C582.135997,719.272 581.589336,719.152001 581.072,718.912 C580.554664,718.671999 580.141335,718.354669 579.832,717.96 L580.68,716.92 C580.925335,717.240002 581.231998,717.490666 581.6,717.672 C581.968002,717.853334 582.338665,717.944 582.712,717.944 C583.192002,717.944 583.586665,717.784002 583.896,717.464 C584.205335,717.143998 584.36,716.680003 584.36,716.072 C584.36,715.783999 584.312,715.530668 584.216,715.312 C584.12,715.093332 583.986668,714.896001 583.816,714.72 C583.645332,714.543999 583.450668,714.384001 583.232,714.24 C583.013332,714.095999 582.776001,713.960001 582.52,713.832 C582.210665,713.682666 581.920001,713.514668 581.648,713.328 C581.375999,713.141332 581.133334,712.925335 580.92,712.68 C580.706666,712.434665 580.538667,712.144002 580.416,711.808 C580.293333,711.471998 580.232,711.074669 580.232,710.616 C580.232,710.071997 580.317332,709.597335 580.488,709.192 C580.658668,708.786665 580.885332,708.450668 581.168,708.184 C581.450668,707.917332 581.773332,707.720001 582.136,707.592 C582.498668,707.463999 582.866665,707.4 583.24,707.4 C583.784003,707.4 584.271998,707.490666 584.704,707.672 C585.136002,707.853334 585.495999,708.125332 585.784,708.488 L584.92,709.512 C584.514665,708.978664 583.97067,708.712 583.288,708.712 C583.085332,708.712 582.885334,708.746666 582.688,708.816 C582.490666,708.885334 582.312001,708.997333 582.152,709.152 C581.991999,709.306667 581.864,709.501332 581.768,709.736 C581.672,709.970668 581.624,710.253332 581.624,710.584 C581.624,710.872001 581.669333,711.119999 581.76,711.328 C581.850667,711.536001 581.973333,711.722666 582.128,711.888 C582.282667,712.053334 582.461332,712.202666 582.664,712.336 C582.866668,712.469334 583.085332,712.594666 583.32,712.712 C583.618668,712.861334 583.911999,713.029332 584.2,713.216 C584.488001,713.402668 584.749332,713.623999 584.984,713.88 C585.218668,714.136001 585.407999,714.437332 585.552,714.784 C585.696001,715.130668 585.768,715.533331 585.768,715.992 L585.768,715.992 Z" id="BUSINESS-BLOGS" sketch:type="MSShapeGroup"></path>
        </g>
    </g>
</svg>