<?xml version="1.0" encoding="UTF-8" standalone="no"?>
<svg width="42px" height="13px" viewBox="0 0 42 13" version="1.1" xmlns="http://www.w3.org/2000/svg" xmlns:xlink="http://www.w3.org/1999/xlink" xmlns:sketch="http://www.bohemiancoding.com/sketch/ns">
    <!-- Generator: Sketch 3.4.4 (17249) - http://www.bohemiancoding.com/sketch -->
    <title>VOICES</title>
    <desc>Created with Sketch.</desc>
    <defs></defs>
    <g id="Page-1" stroke="none" stroke-width="1" fill="none" fill-rule="evenodd" sketch:type="MSPage">
        <path d="M4.72,12 L2.864,12 L0.08,0.672 L1.664,0.672 L3.824,10.336 L3.856,10.336 L6.016,0.672 L7.552,0.672 L4.72,12 Z M16.048,6.32 C16.048,7.20533776 15.9600009,8.01332968 15.784,8.744 C15.6079991,9.47467032 15.3520017,10.1013307 15.016,10.624 C14.6799983,11.1466693 14.274669,11.5519986 13.8,11.84 C13.325331,12.1280014 12.784003,12.272 12.176,12.272 C11.567997,12.272 11.0240024,12.1280014 10.544,11.84 C10.0639976,11.5519986 9.65600168,11.1466693 9.32,10.624 C8.98399832,10.1013307 8.72800088,9.47467032 8.552,8.744 C8.37599912,8.01332968 8.288,7.20533776 8.288,6.32 C8.288,5.43466224 8.37333248,4.62667032 8.544,3.896 C8.71466752,3.16532968 8.96533168,2.54133592 9.296,2.024 C9.62666832,1.50666408 10.0346642,1.10666808 10.52,0.824 C11.0053358,0.54133192 11.5573302,0.4 12.176,0.4 C12.784003,0.4 13.325331,0.54133192 13.8,0.824 C14.274669,1.10666808 14.6799983,1.50666408 15.016,2.024 C15.3520017,2.54133592 15.6079991,3.16532968 15.784,3.896 C15.9600009,4.62667032 16.048,5.43466224 16.048,6.32 L16.048,6.32 Z M14.528,6.32 C14.528,5.6799968 14.4773338,5.07733616 14.376,4.512 C14.2746662,3.94666384 14.1253343,3.45600208 13.928,3.04 C13.7306657,2.62399792 13.4853348,2.2960012 13.192,2.056 C12.8986652,1.8159988 12.5600019,1.696 12.176,1.696 C11.7813314,1.696 11.4346682,1.8159988 11.136,2.056 C10.8373318,2.2960012 10.5893343,2.62399792 10.392,3.04 C10.1946657,3.45600208 10.0480005,3.94666384 9.952,4.512 C9.85599952,5.07733616 9.808,5.6799968 9.808,6.32 C9.808,6.9600032 9.85599952,7.56266384 9.952,8.128 C10.0480005,8.69333616 10.1946657,9.18399792 10.392,9.6 C10.5893343,10.0160021 10.8373318,10.3439988 11.136,10.584 C11.4346682,10.8240012 11.7813314,10.944 12.176,10.944 C12.5600019,10.944 12.8986652,10.8240012 13.192,10.584 C13.4853348,10.3439988 13.7306657,10.0160021 13.928,9.6 C14.1253343,9.18399792 14.2746662,8.69333616 14.376,8.128 C14.4773338,7.56266384 14.528,6.9600032 14.528,6.32 L14.528,6.32 Z M18.048,12 L18.048,0.672 L19.488,0.672 L19.488,12 L18.048,12 Z M28.24,10.784 C27.9519986,11.2320022 27.5840022,11.5919986 27.136,11.864 C26.6879978,12.1360014 26.1440032,12.272 25.504,12.272 C24.8746635,12.272 24.3093358,12.1226682 23.808,11.824 C23.3066642,11.5253318 22.885335,11.109336 22.544,10.576 C22.202665,10.042664 21.9413342,9.4160036 21.76,8.696 C21.5786658,7.9759964 21.488,7.1893376 21.488,6.336 C21.488,5.4826624 21.5813324,4.69333696 21.768,3.968 C21.9546676,3.24266304 22.2213316,2.61600264 22.568,2.088 C22.9146684,1.55999736 23.3359975,1.14666816 23.832,0.848 C24.3280025,0.54933184 24.8853302,0.4 25.504,0.4 C26.0800029,0.4 26.6079976,0.51199888 27.088,0.736 C27.5680024,0.96000112 27.9626651,1.30133104 28.272,1.76 L27.376,2.736 C27.1413322,2.39466496 26.8693349,2.14133416 26.56,1.976 C26.2506651,1.81066584 25.9200018,1.728 25.568,1.728 C25.1306645,1.728 24.7520016,1.85066544 24.432,2.096 C24.1119984,2.34133456 23.848001,2.67199792 23.64,3.088 C23.431999,3.50400208 23.2746672,3.9919972 23.168,4.552 C23.0613328,5.1120028 23.008,5.70666352 23.008,6.336 C23.008,6.96533648 23.0613328,7.55733056 23.168,8.112 C23.2746672,8.66666944 23.4346656,9.15466456 23.648,9.576 C23.8613344,9.99733544 24.130665,10.3306654 24.456,10.576 C24.781335,10.8213346 25.1626645,10.944 25.6,10.944 C25.9946686,10.944 26.3439985,10.8373344 26.648,10.624 C26.9520015,10.4106656 27.1946658,10.1493349 27.376,9.84 L28.24,10.784 Z M29.76,12 L29.76,0.672 L34.528,0.672 L34.528,1.952 L31.152,1.952 L31.152,5.52 L34.304,5.52 L34.304,6.72 L31.152,6.72 L31.152,10.704 L34.688,10.704 L34.688,12 L29.76,12 Z M41.696,8.992 C41.696,9.50400256 41.6160008,9.96533128 41.456,10.376 C41.2959992,10.7866687 41.0800014,11.1306653 40.808,11.408 C40.5359986,11.6853347 40.2133352,11.8986659 39.84,12.048 C39.4666648,12.1973341 39.0666688,12.272 38.64,12.272 C38.0639971,12.272 37.5173359,12.1520012 37,11.912 C36.4826641,11.6719988 36.0693349,11.3546686 35.76,10.96 L36.608,9.92 C36.8533346,10.2400016 37.1599982,10.4906658 37.528,10.672 C37.8960018,10.8533342 38.2666648,10.944 38.64,10.944 C39.1200024,10.944 39.5146651,10.7840016 39.824,10.464 C40.1333349,10.1439984 40.288,9.68000304 40.288,9.072 C40.288,8.78399856 40.2400005,8.53066776 40.144,8.312 C40.0479995,8.09333224 39.9146675,7.89600088 39.744,7.72 C39.5733325,7.54399912 39.3786678,7.38400072 39.16,7.24 C38.9413322,7.09599928 38.7040013,6.96000064 38.448,6.832 C38.1386651,6.68266592 37.8480014,6.5146676 37.576,6.328 C37.3039986,6.1413324 37.0613344,5.92533456 36.848,5.68 C36.6346656,5.43466544 36.4666673,5.14400168 36.344,4.808 C36.2213327,4.47199832 36.16,4.07466896 36.16,3.616 C36.16,3.07199728 36.2453325,2.59733536 36.416,2.192 C36.5866675,1.78666464 36.8133319,1.450668 37.096,1.184 C37.3786681,0.917332 37.7013315,0.72000064 38.064,0.592 C38.4266685,0.46399936 38.7946648,0.4 39.168,0.4 C39.7120027,0.4 40.1999978,0.49066576 40.632,0.672 C41.0640022,0.85333424 41.4239986,1.12533152 41.712,1.488 L40.848,2.512 C40.4426646,1.978664 39.8986701,1.712 39.216,1.712 C39.0133323,1.712 38.8133343,1.74666632 38.616,1.816 C38.4186657,1.88533368 38.2400008,1.99733256 38.08,2.152 C37.9199992,2.30666744 37.7920005,2.50133216 37.696,2.736 C37.5999995,2.97066784 37.552,3.25333168 37.552,3.584 C37.552,3.87200144 37.5973329,4.11999896 37.688,4.328 C37.7786671,4.53600104 37.9013326,4.72266584 38.056,4.888 C38.2106674,5.05333416 38.3893323,5.202666 38.592,5.336 C38.7946677,5.469334 39.0133322,5.59466608 39.248,5.712 C39.5466682,5.86133408 39.8399986,6.0293324 40.128,6.216 C40.4160014,6.4026676 40.6773322,6.62399872 40.912,6.88 C41.1466678,7.13600128 41.3359993,7.4373316 41.48,7.784 C41.6240007,8.1306684 41.696,8.53333104 41.696,8.992 L41.696,8.992 Z" id="VOICES" fill="#85BACE" sketch:type="MSShapeGroup"></path>
    </g>
</svg>