<?xml version="1.0" encoding="UTF-8" standalone="no"?>
<svg width="69px" height="13px" viewBox="0 0 69 13" version="1.1" xmlns="http://www.w3.org/2000/svg" xmlns:xlink="http://www.w3.org/1999/xlink" xmlns:sketch="http://www.bohemiancoding.com/sketch/ns">
    <!-- Generator: Sketch 3.4.4 (17249) - http://www.bohemiancoding.com/sketch -->
    <title>menu-09</title>
    <desc>Created with Sketch.</desc>
    <defs></defs>
    <g id="Page-1" stroke="none" stroke-width="1" fill="none" fill-rule="evenodd" sketch:type="MSPage">
        <g id="iPhone-5/5S/5C" sketch:type="MSArtboardGroup" transform="translate(-136.000000, -380.000000)" fill="#85BACE">
            <path d="M143.616,382.416 C143.242665,381.73333 142.666671,381.392 141.888,381.392 C141.493331,381.392 141.125335,381.490666 140.784,381.688 C140.442665,381.885334 140.130668,382.151998 139.848,382.488 C139.565332,382.824002 139.317334,383.215998 139.104,383.664 C138.890666,384.112002 138.709334,384.583998 138.56,385.08 C138.410666,385.576002 138.298667,386.079997 138.224,386.592 C138.149333,387.104003 138.112,387.594664 138.112,388.064 C138.112,388.512002 138.149333,388.930665 138.224,389.32 C138.298667,389.709335 138.418666,390.047999 138.584,390.336 C138.749334,390.624001 138.967999,390.850666 139.24,391.016 C139.512001,391.181334 139.845331,391.264 140.24,391.264 C140.709336,391.264 141.119998,391.146668 141.472,390.912 C141.824002,390.677332 142.122665,390.405335 142.368,390.096 L142.96,390.816 C142.597332,391.253336 142.181336,391.605332 141.712,391.872 C141.242664,392.138668 140.688003,392.272 140.048,392.272 C139.535997,392.272 139.088002,392.170668 138.704,391.968 C138.319998,391.765332 137.997335,391.480002 137.736,391.112 C137.474665,390.743998 137.280001,390.306669 137.152,389.8 C137.023999,389.293331 136.96,388.736003 136.96,388.128 C136.96,387.199995 137.079999,386.277338 137.32,385.36 C137.560001,384.442662 137.901331,383.616004 138.344,382.88 C138.786669,382.143996 139.31733,381.546669 139.936,381.088 C140.55467,380.629331 141.242663,380.4 142,380.4 C142.554669,380.4 143.037331,380.506666 143.448,380.72 C143.858669,380.933334 144.186665,381.258664 144.432,381.696 L143.616,382.416 Z M148.88,392 L148.752,389.152 L145.216,389.152 L143.936,392 L142.816,392 L147.936,380.672 L149.408,380.672 L149.984,392 L148.88,392 Z M148.512,381.664 L148.448,381.664 L145.552,388.288 L148.752,388.288 L148.512,381.664 Z M157.072,381.616 L154.88,381.616 L153.072,392 L151.984,392 L153.808,381.616 L151.616,381.616 L151.776,380.672 L157.232,380.672 L157.072,381.616 Z M162.752,381.632 L159.376,381.632 L158.672,385.664 L161.888,385.664 L161.728,386.576 L158.528,386.576 L157.76,391.024 L161.392,391.024 L161.216,392 L156.544,392 L158.512,380.672 L162.912,380.672 L162.752,381.632 Z M170.032,382.432 C169.850666,382.090665 169.610668,381.832001 169.312,381.656 C169.013332,381.479999 168.677335,381.392 168.304,381.392 C167.898665,381.392 167.525335,381.493332 167.184,381.696 C166.842665,381.898668 166.533335,382.167998 166.256,382.504 C165.978665,382.840002 165.733334,383.231998 165.52,383.68 C165.306666,384.128002 165.125334,384.599998 164.976,385.096 C164.826666,385.592002 164.714667,386.095997 164.64,386.608 C164.565333,387.120003 164.528,387.610664 164.528,388.08 C164.528,388.560002 164.568,388.994665 164.648,389.384 C164.728,389.773335 164.855999,390.106665 165.032,390.384 C165.208001,390.661335 165.431999,390.877333 165.704,391.032 C165.976001,391.186667 166.309331,391.264 166.704,391.264 C167.045335,391.264 167.362665,391.213334 167.656,391.112 C167.949335,391.010666 168.197332,390.880001 168.4,390.72 L169.072,386.848 L167.456,386.848 L167.632,385.904 L170.304,385.904 L169.36,391.312 C168.997332,391.589335 168.586669,391.813332 168.128,391.984 C167.669331,392.154668 167.141336,392.24 166.544,392.24 C166.010664,392.24 165.546669,392.141334 165.152,391.944 C164.757331,391.746666 164.429335,391.469335 164.168,391.112 C163.906665,390.754665 163.709334,390.322669 163.576,389.816 C163.442666,389.309331 163.376,388.74667 163.376,388.128 C163.376,387.231996 163.495999,386.325338 163.736,385.408 C163.976001,384.490662 164.314664,383.661337 164.752,382.92 C165.189336,382.178663 165.719997,381.573336 166.344,381.104 C166.968003,380.634664 167.658663,380.4 168.416,380.4 C168.960003,380.4 169.445331,380.506666 169.872,380.72 C170.298669,380.933334 170.629332,381.263998 170.864,381.712 L170.032,382.432 Z M179.664,384.544 C179.664,385.450671 179.552001,386.362662 179.328,387.28 C179.103999,388.197338 178.784002,389.026663 178.368,389.768 C177.951998,390.509337 177.45067,391.111998 176.864,391.576 C176.27733,392.040002 175.621337,392.272 174.896,392.272 C174.394664,392.272 173.954669,392.173334 173.576,391.976 C173.197331,391.778666 172.880001,391.501335 172.624,391.144 C172.367999,390.786665 172.176001,390.357336 172.048,389.856 C171.919999,389.354664 171.856,388.800003 171.856,388.192 C171.856,387.594664 171.904,386.984003 172,386.36 C172.096,385.735997 172.237332,385.136003 172.424,384.56 C172.610668,383.983997 172.842665,383.442669 173.12,382.936 C173.397335,382.429331 173.711998,381.989335 174.064,381.616 C174.416002,381.242665 174.807998,380.946668 175.24,380.728 C175.672002,380.509332 176.138664,380.4 176.64,380.4 C177.152003,380.4 177.597331,380.501332 177.976,380.704 C178.354669,380.906668 178.669332,381.189332 178.92,381.552 C179.170668,381.914668 179.357333,382.351997 179.48,382.864 C179.602667,383.376003 179.664,383.935997 179.664,384.544 L179.664,384.544 Z M178.512,384.704 C178.512,384.277331 178.482667,383.864002 178.424,383.464 C178.365333,383.063998 178.261334,382.709335 178.112,382.4 C177.962666,382.090665 177.765335,381.842668 177.52,381.656 C177.274665,381.469332 176.960002,381.376 176.576,381.376 C175.999997,381.376 175.490669,381.602664 175.048,382.056 C174.605331,382.509336 174.232002,383.079997 173.928,383.768 C173.623998,384.456003 173.394667,385.199996 173.24,386 C173.085333,386.800004 173.008,387.551996 173.008,388.256 C173.008,388.682669 173.045333,389.077332 173.12,389.44 C173.194667,389.802668 173.309333,390.119999 173.464,390.392 C173.618667,390.664001 173.818665,390.877333 174.064,391.032 C174.309335,391.186667 174.607998,391.264 174.96,391.264 C175.322668,391.264 175.663998,391.168001 175.984,390.976 C176.304002,390.783999 176.594665,390.525335 176.856,390.2 C177.117335,389.874665 177.351999,389.493336 177.56,389.056 C177.768001,388.618664 177.941333,388.157336 178.08,387.672 C178.218667,387.186664 178.325333,386.690669 178.4,386.184 C178.474667,385.677331 178.512,385.184002 178.512,384.704 L178.512,384.704 Z M187.632,383.2 C187.632,383.680002 187.565334,384.114665 187.432,384.504 C187.298666,384.893335 187.114668,385.231999 186.88,385.52 C186.645332,385.808001 186.373335,386.045332 186.064,386.232 C185.754665,386.418668 185.418668,386.544 185.056,386.608 L186.592,392 L185.488,392 L184.032,386.736 L182.544,386.736 L181.632,392 L180.576,392 L182.544,380.672 L184.992,380.672 C185.792004,380.672 186.431998,380.877331 186.912,381.288 C187.392002,381.698669 187.632,382.335996 187.632,383.2 L187.632,383.2 Z M186.592,383.328 C186.592,382.730664 186.424002,382.293335 186.088,382.016 C185.751998,381.738665 185.328003,381.6 184.816,381.6 L183.44,381.6 L182.704,385.872 L184.208,385.872 C184.560002,385.872 184.879999,385.813334 185.168,385.696 C185.456001,385.578666 185.706666,385.408001 185.92,385.184 C186.133334,384.959999 186.298666,384.690668 186.416,384.376 C186.533334,384.061332 186.592,383.712002 186.592,383.328 L186.592,383.328 Z M189.232,392 L188.144,392 L190.112,380.672 L191.2,380.672 L189.232,392 Z M198,381.632 L194.624,381.632 L193.92,385.664 L197.136,385.664 L196.976,386.576 L193.776,386.576 L193.008,391.024 L196.64,391.024 L196.464,392 L191.792,392 L193.76,380.672 L198.16,380.672 L198,381.632 Z M204.16,382.192 C203.946666,381.914665 203.704001,381.712001 203.432,381.584 C203.159999,381.455999 202.848002,381.392 202.496,381.392 C202.250665,381.392 202.002668,381.44 201.752,381.536 C201.501332,381.632 201.272001,381.778666 201.064,381.976 C200.855999,382.173334 200.688001,382.421332 200.56,382.72 C200.431999,383.018668 200.368,383.365331 200.368,383.76 C200.368,384.261336 200.501332,384.663998 200.768,384.968 C201.034668,385.272002 201.359998,385.546665 201.744,385.792 C202.000001,385.952001 202.245332,386.125332 202.48,386.312 C202.714668,386.498668 202.925332,386.711999 203.112,386.952 C203.298668,387.192001 203.447999,387.458665 203.56,387.752 C203.672001,388.045335 203.728,388.378665 203.728,388.752 C203.728,389.306669 203.642668,389.799998 203.472,390.232 C203.301332,390.664002 203.066668,391.031998 202.768,391.336 C202.469332,391.640002 202.120002,391.871999 201.72,392.032 C201.319998,392.192001 200.890669,392.272 200.432,392.272 C199.855997,392.272 199.333336,392.152001 198.864,391.912 C198.394664,391.671999 198.021335,391.365335 197.744,390.992 L198.496,390.208 C198.720001,390.538668 198.999998,390.797332 199.336,390.984 C199.672002,391.170668 200.037331,391.264 200.432,391.264 C200.720001,391.264 200.997332,391.213334 201.264,391.112 C201.530668,391.010666 201.765332,390.861334 201.968,390.664 C202.170668,390.466666 202.333333,390.224001 202.456,389.936 C202.578667,389.647999 202.64,389.322668 202.64,388.96 C202.64,388.447997 202.501335,388.013335 202.224,387.656 C201.946665,387.298665 201.573336,386.976001 201.104,386.688 C200.869332,386.549333 200.642668,386.392001 200.424,386.216 C200.205332,386.039999 200.010668,385.837334 199.84,385.608 C199.669332,385.378666 199.533334,385.120001 199.432,384.832 C199.330666,384.543999 199.28,384.213335 199.28,383.84 C199.28,383.317331 199.367999,382.842669 199.544,382.416 C199.720001,381.989331 199.957332,381.626668 200.256,381.328 C200.554668,381.029332 200.901331,380.800001 201.296,380.64 C201.690669,380.479999 202.111998,380.4 202.56,380.4 C203.072003,380.4 203.530665,380.485332 203.936,380.656 C204.341335,380.826668 204.666665,381.082665 204.912,381.424 L204.16,382.192 Z" id="menu-09" sketch:type="MSShapeGroup"></path>
        </g>
    </g>
</svg>