<?xml version="1.0" encoding="UTF-8" standalone="no"?>
<svg width="34px" height="13px" viewBox="0 0 34 13" version="1.1" xmlns="http://www.w3.org/2000/svg" xmlns:xlink="http://www.w3.org/1999/xlink" xmlns:sketch="http://www.bohemiancoding.com/sketch/ns">
    <!-- Generator: Sketch 3.4.4 (17249) - http://www.bohemiancoding.com/sketch -->
    <title>menu-01</title>
    <desc>Created with Sketch.</desc>
    <defs></defs>
    <g id="Page-1" stroke="none" stroke-width="1" fill="none" fill-rule="evenodd" sketch:type="MSPage">
        <g id="iPhone-5/5S/5C" sketch:type="MSArtboardGroup" transform="translate(-139.000000, -101.000000)" fill="#85BACE">
            <path d="M144.24,113 L140.624,104.216 L140.576,104.216 L140.576,113 L139.248,113 L139.248,101.672 L140.976,101.672 L144.544,110.472 L144.592,110.472 L144.592,101.672 L145.92,101.672 L145.92,113 L144.24,113 Z M148.416,113 L148.416,101.672 L153.184,101.672 L153.184,102.952 L149.808,102.952 L149.808,106.52 L152.96,106.52 L152.96,107.72 L149.808,107.72 L149.808,111.704 L153.344,111.704 L153.344,113 L148.416,113 Z M163.504,113 L161.664,113 L159.968,103.832 L159.936,103.832 L158.24,113 L156.4,113 L154.224,101.672 L155.696,101.672 L157.36,111.112 L157.408,111.112 L159.152,101.672 L160.832,101.672 L162.608,111.112 L162.64,111.112 L164.288,101.672 L165.696,101.672 L163.504,113 Z M172.256,109.992 C172.256,110.504003 172.176001,110.965331 172.016,111.376 C171.855999,111.786669 171.640001,112.130665 171.368,112.408 C171.095999,112.685335 170.773335,112.898666 170.4,113.048 C170.026665,113.197334 169.626669,113.272 169.2,113.272 C168.623997,113.272 168.077336,113.152001 167.56,112.912 C167.042664,112.671999 166.629335,112.354669 166.32,111.96 L167.168,110.92 C167.413335,111.240002 167.719998,111.490666 168.088,111.672 C168.456002,111.853334 168.826665,111.944 169.2,111.944 C169.680002,111.944 170.074665,111.784002 170.384,111.464 C170.693335,111.143998 170.848,110.680003 170.848,110.072 C170.848,109.783999 170.8,109.530668 170.704,109.312 C170.608,109.093332 170.474668,108.896001 170.304,108.72 C170.133332,108.543999 169.938668,108.384001 169.72,108.24 C169.501332,108.095999 169.264001,107.960001 169.008,107.832 C168.698665,107.682666 168.408001,107.514668 168.136,107.328 C167.863999,107.141332 167.621334,106.925335 167.408,106.68 C167.194666,106.434665 167.026667,106.144002 166.904,105.808 C166.781333,105.471998 166.72,105.074669 166.72,104.616 C166.72,104.071997 166.805332,103.597335 166.976,103.192 C167.146668,102.786665 167.373332,102.450668 167.656,102.184 C167.938668,101.917332 168.261332,101.720001 168.624,101.592 C168.986668,101.463999 169.354665,101.4 169.728,101.4 C170.272003,101.4 170.759998,101.490666 171.192,101.672 C171.624002,101.853334 171.983999,102.125332 172.272,102.488 L171.408,103.512 C171.002665,102.978664 170.45867,102.712 169.776,102.712 C169.573332,102.712 169.373334,102.746666 169.176,102.816 C168.978666,102.885334 168.800001,102.997333 168.64,103.152 C168.479999,103.306667 168.352,103.501332 168.256,103.736 C168.16,103.970668 168.112,104.253332 168.112,104.584 C168.112,104.872001 168.157333,105.119999 168.248,105.328 C168.338667,105.536001 168.461333,105.722666 168.616,105.888 C168.770667,106.053334 168.949332,106.202666 169.152,106.336 C169.354668,106.469334 169.573332,106.594666 169.808,106.712 C170.106668,106.861334 170.399999,107.029332 170.688,107.216 C170.976001,107.402668 171.237332,107.623999 171.472,107.88 C171.706668,108.136001 171.895999,108.437332 172.04,108.784 C172.184001,109.130668 172.256,109.533331 172.256,109.992 L172.256,109.992 Z" id="menu-01" sketch:type="MSShapeGroup"></path>
        </g>
    </g>
</svg>