<svg xmlns="http://www.w3.org/2000/svg" viewBox="0 0 26.82 11.9"><defs><style>.a{fill:#85bace;}</style></defs><title>Asset 1</title><path class="a" d="M0,11.63V.27H1.44V11.63Z"/><path class="a" d="M8.92,11.63,5.29,2.82h0v8.81H3.91V.27H5.65L9.22,9.1h0V.27H10.6V11.63Z"/><path class="a" d="M14.52,1.59V5.25h3.09V6.5H14.52v5.13H13.07V.27h4.79V1.59Z"/><path class="a" d="M26.82,5.94a10.84,10.84,0,0,1-.26,2.43,6.32,6.32,0,0,1-.77,1.88,3.84,3.84,0,0,1-1.22,1.22,3.08,3.08,0,0,1-1.63.43,3.14,3.14,0,0,1-1.64-.43,3.65,3.65,0,0,1-1.22-1.22,5.84,5.84,0,0,1-.77-1.88A10.27,10.27,0,0,1,19,5.94a10.72,10.72,0,0,1,.26-2.43,6,6,0,0,1,.75-1.88A3.52,3.52,0,0,1,21.28.43,3.19,3.19,0,0,1,22.94,0a3.08,3.08,0,0,1,1.63.43,3.77,3.77,0,0,1,1.22,1.2,6.22,6.22,0,0,1,.77,1.88A10.72,10.72,0,0,1,26.82,5.94Zm-1.52,0a10.48,10.48,0,0,0-.15-1.82,6.07,6.07,0,0,0-.45-1.47,2.86,2.86,0,0,0-.74-1,1.55,1.55,0,0,0-1-.36,1.6,1.6,0,0,0-1,.36,2.76,2.76,0,0,0-.75,1,5.66,5.66,0,0,0-.44,1.47,10.5,10.5,0,0,0-.14,1.82,10.47,10.47,0,0,0,.14,1.81,5.74,5.74,0,0,0,.44,1.48,2.81,2.81,0,0,0,.75,1,1.6,1.6,0,0,0,1,.36,1.55,1.55,0,0,0,1-.36,2.91,2.91,0,0,0,.74-1,6.15,6.15,0,0,0,.45-1.48A10.44,10.44,0,0,0,25.3,5.94Z"/></svg>