<?xml version="1.0" encoding="UTF-8"?>
<svg width="66px" height="13px" viewBox="0 0 66 13" version="1.1" xmlns="http://www.w3.org/2000/svg" xmlns:xlink="http://www.w3.org/1999/xlink" xmlns:sketch="http://www.bohemiancoding.com/sketch/ns">
    <!-- Generator: Sketch 3.4.4 (17249) - http://www.bohemiancoding.com/sketch -->
    <title>FOLLOW US</title>
    <desc>Created with Sketch.</desc>
    <defs></defs>
    <g id="Page-1" stroke="none" stroke-width="1" fill="none" fill-rule="evenodd" sketch:type="MSPage">
        <path d="M6.912,1.76399847 L3.52,1.76399847 L2.8,5.84399847 L5.968,5.84399847 L5.808,6.78799847 L2.656,6.78799847 L1.728,12.0999985 L0.656,12.0999985 L2.624,0.771998474 L7.104,0.771998474 L6.912,1.76399847 Z M14.992,4.64399847 C14.992,5.55066967 14.8800011,6.46266055 14.656,7.37999847 C14.4319989,8.29733639 14.1120021,9.12666143 13.696,9.86799847 C13.2799979,10.6093355 12.7786696,11.2119962 12.192,11.6759985 C11.6053304,12.1400008 10.949337,12.3719985 10.224,12.3719985 C9.72266416,12.3719985 9.28266856,12.2733328 8.904,12.0759985 C8.52533144,11.8786642 8.20800128,11.6013336 7.952,11.2439985 C7.69599872,10.8866634 7.50400064,10.4573343 7.376,9.95599847 C7.24799936,9.45466263 7.184,8.90000151 7.184,8.29199847 C7.184,7.69466215 7.23199952,7.08400159 7.328,6.45999847 C7.42400048,5.83599535 7.5653324,5.23600135 7.752,4.65999847 C7.9386676,4.08399559 8.17066528,3.54266767 8.448,3.03599847 C8.72533472,2.52932927 9.03999824,2.08933367 9.392,1.71599847 C9.74400176,1.34266327 10.1359978,1.04666623 10.568,0.827998474 C11.0000022,0.609330714 11.4666642,0.499998474 11.968,0.499998474 C12.4800026,0.499998474 12.9253314,0.601330794 13.304,0.803998474 C13.6826686,1.00666615 13.9973321,1.28932999 14.248,1.65199847 C14.4986679,2.01466695 14.6853327,2.45199591 14.808,2.96399847 C14.9306673,3.47600103 14.992,4.03599543 14.992,4.64399847 L14.992,4.64399847 Z M13.84,4.80399847 C13.84,4.37732967 13.810667,3.96400047 13.752,3.56399847 C13.693333,3.16399647 13.5893341,2.80933335 13.44,2.49999847 C13.2906659,2.19066359 13.0933346,1.94266607 12.848,1.75599847 C12.6026654,1.56933087 12.2880019,1.47599847 11.904,1.47599847 C11.3279971,1.47599847 10.8186689,1.70266287 10.376,2.15599847 C9.93333112,2.60933407 9.56000152,3.17999503 9.256,3.86799847 C8.95199848,4.55600191 8.72266744,5.29999447 8.568,6.09999847 C8.41333256,6.90000247 8.336,7.65199495 8.336,8.35599847 C8.336,8.78266727 8.37333296,9.17732999 8.448,9.53999847 C8.52266704,9.90266695 8.63733256,10.2199971 8.792,10.4919985 C8.94666744,10.7639998 9.14666544,10.977331 9.392,11.1319985 C9.63733456,11.2866659 9.93599824,11.3639985 10.288,11.3639985 C10.6506685,11.3639985 10.9919984,11.2679994 11.312,11.0759985 C11.6320016,10.8839975 11.9226654,10.6253334 12.184,10.2999985 C12.4453346,9.97466351 12.679999,9.59333399 12.888,9.15599847 C13.096001,8.71866295 13.2693326,8.25733423 13.408,7.77199847 C13.5466674,7.28666271 13.653333,6.79066767 13.728,6.28399847 C13.802667,5.77732927 13.84,5.28400087 13.84,4.80399847 L13.84,4.80399847 Z M20.224,12.0999985 L15.904,12.0999985 L17.872,0.771998474 L18.96,0.771998474 L17.168,11.0919985 L20.4,11.0919985 L20.224,12.0999985 Z M25.904,12.0999985 L21.584,12.0999985 L23.552,0.771998474 L24.64,0.771998474 L22.848,11.0919985 L26.08,11.0919985 L25.904,12.0999985 Z M34.896,4.64399847 C34.896,5.55066967 34.7840011,6.46266055 34.56,7.37999847 C34.3359989,8.29733639 34.0160021,9.12666143 33.6,9.86799847 C33.1839979,10.6093355 32.6826696,11.2119962 32.096,11.6759985 C31.5093304,12.1400008 30.853337,12.3719985 30.128,12.3719985 C29.6266642,12.3719985 29.1866686,12.2733328 28.808,12.0759985 C28.4293314,11.8786642 28.1120013,11.6013336 27.856,11.2439985 C27.5999987,10.8866634 27.4080006,10.4573343 27.28,9.95599847 C27.1519994,9.45466263 27.088,8.90000151 27.088,8.29199847 C27.088,7.69466215 27.1359995,7.08400159 27.232,6.45999847 C27.3280005,5.83599535 27.4693324,5.23600135 27.656,4.65999847 C27.8426676,4.08399559 28.0746653,3.54266767 28.352,3.03599847 C28.6293347,2.52932927 28.9439982,2.08933367 29.296,1.71599847 C29.6480018,1.34266327 30.0399978,1.04666623 30.472,0.827998474 C30.9040022,0.609330714 31.3706642,0.499998474 31.872,0.499998474 C32.3840026,0.499998474 32.8293314,0.601330794 33.208,0.803998474 C33.5866686,1.00666615 33.9013321,1.28932999 34.152,1.65199847 C34.4026679,2.01466695 34.5893327,2.45199591 34.712,2.96399847 C34.8346673,3.47600103 34.896,4.03599543 34.896,4.64399847 L34.896,4.64399847 Z M33.744,4.80399847 C33.744,4.37732967 33.714667,3.96400047 33.656,3.56399847 C33.597333,3.16399647 33.4933341,2.80933335 33.344,2.49999847 C33.1946659,2.19066359 32.9973346,1.94266607 32.752,1.75599847 C32.5066654,1.56933087 32.1920019,1.47599847 31.808,1.47599847 C31.2319971,1.47599847 30.7226689,1.70266287 30.28,2.15599847 C29.8373311,2.60933407 29.4640015,3.17999503 29.16,3.86799847 C28.8559985,4.55600191 28.6266674,5.29999447 28.472,6.09999847 C28.3173326,6.90000247 28.24,7.65199495 28.24,8.35599847 C28.24,8.78266727 28.277333,9.17732999 28.352,9.53999847 C28.426667,9.90266695 28.5413326,10.2199971 28.696,10.4919985 C28.8506674,10.7639998 29.0506654,10.977331 29.296,11.1319985 C29.5413346,11.2866659 29.8399982,11.3639985 30.192,11.3639985 C30.5546685,11.3639985 30.8959984,11.2679994 31.216,11.0759985 C31.5360016,10.8839975 31.8266654,10.6253334 32.088,10.2999985 C32.3493346,9.97466351 32.583999,9.59333399 32.792,9.15599847 C33.000001,8.71866295 33.1733326,8.25733423 33.312,7.77199847 C33.4506674,7.28666271 33.557333,6.79066767 33.632,6.28399847 C33.706667,5.77732927 33.744,5.28400087 33.744,4.80399847 L33.744,4.80399847 Z M43.632,12.0999985 L42.192,12.0999985 L42.016,2.35599847 L41.984,2.35599847 L38.432,12.0999985 L36.992,12.0999985 L36.736,0.771998474 L37.84,0.771998474 L37.984,10.7239985 L38.032,10.7239985 L41.648,0.771998474 L42.96,0.771998474 L43.168,10.7239985 L43.2,10.7239985 L46.784,0.771998474 L47.856,0.771998474 L43.632,12.0999985 Z M57.168,8.13199847 C57.0613328,8.71866807 56.9200009,9.27066255 56.744,9.78799847 C56.5679991,10.3053344 56.3333348,10.7559966 56.04,11.1399985 C55.7466652,11.5240004 55.3840022,11.8253307 54.952,12.0439985 C54.5199978,12.2626662 53.9946698,12.3719985 53.376,12.3719985 C52.8959976,12.3719985 52.4800018,12.2973326 52.128,12.1479985 C51.7759982,11.9986644 51.4853345,11.7959998 51.256,11.5399985 C51.0266655,11.2839972 50.8586672,10.9800002 50.752,10.6279985 C50.6453328,10.2759967 50.592,9.89200055 50.592,9.47599847 C50.592,9.27333079 50.6026666,9.05999959 50.624,8.83599847 C50.6453334,8.61199735 50.6773331,8.37733303 50.72,8.13199847 L52,0.771998474 L53.088,0.771998474 L51.824,7.97199847 C51.7813331,8.19599959 51.7493334,8.42533063 51.728,8.65999847 C51.7066666,8.89466631 51.696,9.11333079 51.696,9.31599847 C51.696,9.59333319 51.7226664,9.85733055 51.776,10.1079985 C51.8293336,10.3586664 51.922666,10.5773309 52.056,10.7639985 C52.189334,10.9506661 52.3679989,11.0973313 52.592,11.2039985 C52.8160011,11.3106657 53.0933317,11.3639985 53.424,11.3639985 C53.8720022,11.3639985 54.2506651,11.2679994 54.56,11.0759985 C54.8693349,10.8839975 55.1253323,10.6280001 55.328,10.3079985 C55.5306677,9.98799687 55.6906661,9.62533383 55.808,9.21999847 C55.9253339,8.81466311 56.021333,8.39866727 56.096,7.97199847 L57.36,0.771998474 L58.448,0.771998474 L57.168,8.13199847 Z M64.752,2.29199847 C64.5386656,2.01466375 64.2960014,1.81199911 64.024,1.68399847 C63.7519986,1.55599783 63.4400018,1.49199847 63.088,1.49199847 C62.8426654,1.49199847 62.5946679,1.53999799 62.344,1.63599847 C62.0933321,1.73199895 61.864001,1.87866415 61.656,2.07599847 C61.447999,2.27333279 61.2800006,2.52133031 61.152,2.81999847 C61.0239994,3.11866663 60.96,3.46532983 60.96,3.85999847 C60.96,4.36133431 61.093332,4.76399695 61.36,5.06799847 C61.626668,5.37199999 61.9519981,5.64666391 62.336,5.89199847 C62.5920013,6.05199927 62.8373322,6.22533087 63.072,6.41199847 C63.3066678,6.59866607 63.5173324,6.81199727 63.704,7.05199847 C63.8906676,7.29199967 64.0399994,7.55866367 64.152,7.85199847 C64.2640006,8.14533327 64.32,8.47866327 64.32,8.85199847 C64.32,9.40666791 64.2346675,9.89999631 64.064,10.3319985 C63.8933325,10.7640006 63.6586682,11.131997 63.36,11.4359985 C63.0613318,11.74 62.712002,11.9719977 62.312,12.1319985 C61.911998,12.2919993 61.482669,12.3719985 61.024,12.3719985 C60.4479971,12.3719985 59.9253357,12.2519997 59.456,12.0119985 C58.9866643,11.7719973 58.6133347,11.4653337 58.336,11.0919985 L59.088,10.3079985 C59.3120011,10.6386668 59.5919983,10.8973309 59.928,11.0839985 C60.2640017,11.2706661 60.6293314,11.3639985 61.024,11.3639985 C61.3120014,11.3639985 61.589332,11.3133323 61.856,11.2119985 C62.122668,11.1106646 62.3573323,10.9613328 62.56,10.7639985 C62.7626677,10.5666642 62.9253327,10.3239999 63.048,10.0359985 C63.1706673,9.74799703 63.232,9.42266695 63.232,9.05999847 C63.232,8.54799591 63.0933347,8.11333359 62.816,7.75599847 C62.5386653,7.39866335 62.1653357,7.07599991 61.696,6.78799847 C61.4613322,6.64933111 61.2346678,6.49199935 61.016,6.31599847 C60.7973322,6.13999759 60.6026675,5.93733295 60.432,5.70799847 C60.2613325,5.47866399 60.1253338,5.21999991 60.024,4.93199847 C59.9226662,4.64399703 59.872,4.31333367 59.872,3.93999847 C59.872,3.41732919 59.9599991,2.94266727 60.136,2.51599847 C60.3120009,2.08932967 60.5493318,1.72666663 60.848,1.42799847 C61.1466682,1.12933031 61.4933314,0.899999274 61.888,0.739998474 C62.2826686,0.579997674 62.7039978,0.499998474 63.152,0.499998474 C63.6640026,0.499998474 64.1226646,0.585330954 64.528,0.755998474 C64.9333354,0.926665994 65.2586654,1.18266343 65.504,1.52399847 L64.752,2.29199847 Z" id="FOLLOW-US" fill="#85BACE" sketch:type="MSShapeGroup"></path>
    </g>
</svg>