<?xml version="1.0" encoding="utf-8"?>
<!-- Generator: Adobe Illustrator 21.1.0, SVG Export Plug-In . SVG Version: 6.00 Build 0)  -->
<svg version="1.1" id="圖層_1" xmlns="http://www.w3.org/2000/svg" xmlns:xlink="http://www.w3.org/1999/xlink" x="0px" y="0px"
	 viewBox="0 0 720 476" style="enable-background:new 0 0 720 476;" xml:space="preserve">
<style type="text/css">
	.st0{fill:#FFFFFF;}
	.st1{fill:#3E3E3F;}
	.st2{fill:#3E3E3F;stroke:#3E3E3F;stroke-width:3;stroke-miterlimit:10;}
	.st3{fill:#3E3E3F;stroke:#3E3E3F;stroke-width:5;stroke-miterlimit:10;}
	.st4{fill:#EDAAA9;}
</style>
<g>
	<g>
		<g>
			<path class="st0" d="M440,20.4c-4.6,13.9-16.5,33.5-37.1,44.1l0,0c-59.8-10.4-198.1-30-287.6,0c-14.9-4.8-25.3-22.5-36.5-37.9
				C26.3,132.8,23.4,222,42.3,291.6c31.6,116.5,140.9,152.3,240,150.4c89.4-1.7,162.3-52,194.6-132.1C506.1,236,492.2,80.4,440,20.4
				z"/>
			<path class="st1" d="M420.8,15c-5.2,14.1-15,24.7-27.9,32.2c-14.2,8.1-12.6,33.1,4.8,36.5c0,0,0,0,0,0
				c3.5-12.8,7.1-25.7,10.6-38.5c-95.9-16.6-203.7-30.4-298.2,0c5.1,0.7,10.2,1.3,15.4,2c-13.7-5.9-20.9-19-29.3-30.8
				c-7.9-11.1-27.3-14.7-34.5,0c-44,90.5-66.2,193.4-35.3,291.7c26.6,84.6,102.4,134.5,186.7,148.8c88.3,15,180.1-3.4,241.4-72.5
				c58.5-66,64.5-156.9,52.4-240.5c-7-48.7-20.6-99.3-52.8-137.6c-16.5-19.7-44.6,8.6-28.2,28.2c23.9,28.6,33.4,68.3,40,104.1
				c7.7,42,8.9,87.1,1.8,129.3c-15,88.4-91.8,149.2-179.5,154c-79.8,4.4-167.7-21.3-209.8-93.9C27.1,239.8,54.6,122,96.2,36.6
				c-11.5,0-23,0-34.5,0c9.3,13,17.9,26.6,30.2,37c12.8,10.8,23.5,11.5,38.9,7c31.6-9.3,64.9-11.5,97.6-12.1
				c56.6-1,113.5,5.6,169.2,15.2c25,4.3,36-33.6,10.6-38.5c0,0,0,0,0,0c1.6,12.2,3.2,24.3,4.8,36.5c22.3-12.8,37.4-32.1,46.2-56
				C468.1,1.4,429.6-8.9,420.8,15z"/>
		</g>
		<g>
			<path class="st0" d="M440,20.4c-4.6,13.9-16.5,33.5-37.1,44.1l0,0c-59.8-10.4-198.1-30-287.6,0c-14.9-4.8-25.3-22.5-36.5-37.9
				C26.3,132.8,23.4,222,42.3,291.6c31.6,116.5,140.9,152.3,240,150.4c89.4-1.7,162.3-52,194.6-132.1C506.1,236,492.2,80.4,440,20.4
				z"/>
		</g>
		<path class="st1" d="M75.3,79.5c-1-3.7,5.2-40.3,7.9-28.8c2.6,11.5,15.5,16.5,15.5,16.5L75.3,79.5z"/>
		<path class="st1" d="M448.4,75.9c0.5-3.8-11.5-39-12.3-27.2s-12.7,18.7-12.7,18.7L448.4,75.9z"/>
	</g>
	<g>
		<g>
			<path class="st2" d="M260.6,305.6c-10.6-0.7-39.7-18-29-32.6c9.3-12.6,24.6,4,29.9,11.3c3.3-17.3,42.3-19.2,30.3,2.7
				C287.2,295,269.9,306.2,260.6,305.6"/>
			<path class="st2" d="M260.6,300.6c-8.5-1-16.9-7.2-22.6-13.2c-5.6-5.8-3.5-17.3,6.4-12.6c5.1,2.4,9.5,7.6,12.8,12
				c2.5,3.3,7.9,3.4,9.1-1.2c2.2-8.2,14.4-12.2,21.6-8.4c6,3.2-6.4,13.7-8.4,15.2C274.2,296.6,267.5,300.4,260.6,300.6
				c-6.4,0.1-6.4,10.1,0,10c13.1-0.3,51.7-21.9,35.5-39.2c-11.4-12.2-35.4-3.3-39.4,11.6c3-0.4,6.1-0.8,9.1-1.2
				c-9.8-12.9-32.3-29.7-41-6.1c-6.5,17.6,22.4,33.2,35.8,34.9C267,311.4,266.9,301.4,260.6,300.6L260.6,300.6z"/>
		</g>
		<path class="st1" d="M263.4,299.7c1.8,13,16.4,19.1,27.4,22.7c14.1,4.8,30.1,6.7,43.2-1.3c14.7-9.1,14.4-26.6,1.9-36.9
			c-13.4-11-35.4-9.3-51-5.3c-6.2,1.6-3.6,11.2,2.7,9.6c10.4-2.7,20.9-3.3,31.4-1.2c6.8,1.4,15.8,5.8,16.8,13.8
			c1.1,8.5-10.4,14.6-17.1,15.4c-12.5,1.4-43.4-4.1-45.5-19.5C272.1,290.7,262.5,293.4,263.4,299.7L263.4,299.7z"/>
		<path class="st1" d="M249.4,296.4c-2.2,15.5-31.3,19.3-43.6,19.3c-5.3,0-10-2.3-14-5.6c-10.8-8.9-1.2-19.3,8.5-22.8
			c10.8-3.9,23.9-2.3,34.7,0.5c6.2,1.7,8.9-8,2.7-9.6c-16.3-4.3-35.2-5-50,4.2c-15,9.3-12.7,26.8-0.3,36.9
			c17.2,14.1,68.1,4.8,71.7-20.2C259.9,292.8,250.3,290.1,249.4,296.4L249.4,296.4z"/>
		<path class="st3" d="M235.7,277.1c-4.7-13.1-11.9-25.4-18.3-37.7c-4.7-8.9-8.6-19.7-14.4-28c-1.9,2.4-3.8,4.9-5.6,7.3
			c0.3,0.1,0.6,0.2,1,0.3c6.2,1.7,8.9-8,2.7-9.6c-0.3-0.1-0.6-0.2-1-0.3c-4-1.1-8.2,3.6-5.6,7.3c5.2,7.4,8.8,17.4,13.1,25.4
			c6.5,12.3,14,24.7,18.7,37.8C228.3,285.8,237.9,283.2,235.7,277.1L235.7,277.1z"/>
		<path class="st3" d="M298.8,279.8c4.7-13.1,12.2-25.5,18.7-37.8c4.3-8.1,7.9-18,13.1-25.4c2.6-3.7-1.7-8.4-5.6-7.3
			c-0.3,0.1-0.6,0.2-1,0.3c-6.2,1.7-3.6,11.3,2.7,9.6c0.3-0.1,0.6-0.2,1-0.3c-1.9-2.4-3.8-4.9-5.6-7.3c-5.8,8.3-9.7,19-14.4,28
			c-6.5,12.2-13.7,24.6-18.3,37.7C287.1,283.2,296.7,285.8,298.8,279.8L298.8,279.8z"/>
		
			<ellipse transform="matrix(0.1673 -0.9859 0.9859 0.1673 -68.691 352.6252)" class="st2" cx="174.4" cy="217" rx="23.5" ry="32.2"/>
		<path class="st2" d="M156.2,209.2c-9.2,2.9-19.7,2.2-29.1,0.8c-6.3-0.9-9,8.7-2.7,9.6c11.2,1.6,23.4,2.7,34.4-0.8
			C164.9,216.9,162.3,207.3,156.2,209.2L156.2,209.2z"/>
		
			<ellipse transform="matrix(0.9859 -0.1673 0.1673 0.9859 -31.412 61.1653)" class="st2" cx="347.2" cy="217" rx="32.2" ry="23.5"/>
		<path class="st2" d="M362.9,218.8c11,3.5,23.2,2.4,34.4,0.8c6.3-0.9,3.6-10.5-2.7-9.6c-9.4,1.3-19.9,2.1-29.1-0.8
			C359.4,207.3,356.7,216.9,362.9,218.8L362.9,218.8z"/>
	</g>
	<ellipse class="st4" cx="137.6" cy="294.6" rx="28.6" ry="27.5"/>
	<ellipse class="st4" cx="386" cy="294.6" rx="28.6" ry="27.5"/>
</g>
<path class="st3" d="M594.3,158.3c18.6-13.2,34.9-30,51.5-45.6c12.1-11.4,27.3-22.4,37.9-35.1c-4.7-1.9-9.4-3.8-14.1-5.7
	c0,0.6,0,1.1,0,1.7c0.1,10.6,16.5,10.5,16.4-0.1c0-0.6,0-1.1,0-1.7c-0.1-6.7-9.3-11.4-14.1-5.7c-9.5,11.5-23.6,21.6-34.5,31.9
	c-16.6,15.7-32.9,33-51.5,46.2C577.3,150.4,585.6,164.5,594.3,158.3L594.3,158.3z"/>
<path class="st3" d="M585.4,341.1c18.3,13.7,39.3,24,59.2,35c14.5,8,29.7,19.2,45.1,25.3c0.4-5,0.7-10.1,1.1-15.1
	c-0.5,0.2-1,0.4-1.6,0.5c-10,3.4-4.9,18.9,5.1,15.6c0.5-0.2,1-0.4,1.6-0.5c6.4-2.2,8-12.4,1.1-15.1c-13.9-5.5-27.8-15.8-41-23
	c-20-10.9-41.5-21.2-59.8-34.9C587.7,322.4,576.9,334.7,585.4,341.1L585.4,341.1z"/>
</svg>
