<svg id="圖層_1" data-name="圖層 1" xmlns="http://www.w3.org/2000/svg" viewBox="0 0 38.5 36.2"><defs><style>.cls-1,.cls-3,.cls-5{fill:none;}.cls-1{stroke:#403f3f;stroke-width:3px;}.cls-1,.cls-3{stroke-linecap:round;stroke-linejoin:round;}.cls-2,.cls-4{fill:#3f3f3f;}.cls-3,.cls-4,.cls-5{stroke:#3f3f3f;}.cls-4,.cls-5{stroke-miterlimit:10;}.cls-6{fill:#edaaaa;}</style></defs><title>bow-index-new</title><path class="cls-1" d="M4.8,32.5a1.32,1.32,0,0,1-1.3-1.3V3.6l6,4.5H29l6-4.5V31.3a1.32,1.32,0,0,1-1.3,1.3L4.8,32.5Z"/><circle class="cls-2" cx="10.3" cy="20.4" r="2"/><line class="cls-3" x1="12" y1="20.4" x2="14.5" y2="25.8"/><path class="cls-4" d="M16.5,26.6c.6,0,2.4-.8,1.7-1.5s-1.5.2-1.8.5c-.2-.8-2.5-.9-1.8.1a2.84,2.84,0,0,0,1.9.9"/><path class="cls-4" d="M16.5,26.4a2.51,2.51,0,0,0,1.4-.6c.3-.3.2-.8-.4-.6a2.41,2.41,0,0,0-.8.6c-.1.1-.5.2-.5-.1s-.9-.6-1.3-.4.4.6.5.7a2.1,2.1,0,0,0,1.1.4c.4,0,.4.5,0,.5-.8,0-3.1-1-2.1-1.8a1.73,1.73,0,0,1,2.4.5.75.75,0,0,1-.5-.1c.6-.6,1.9-1.4,2.5-.3.4.8-1.3,1.5-2.1,1.6-.6.1-.6-.4-.2-.4Z"/><circle class="cls-2" cx="22.5" cy="20.4" r="2"/><line class="cls-3" x1="20.9" y1="20.4" x2="18.4" y2="25.8"/><line class="cls-5" x1="7.5" y1="18.9" x2="9.6" y2="19.5"/><line class="cls-5" x1="25.3" y1="18.9" x2="23.2" y2="19.5"/><ellipse class="cls-6" cx="27.4" cy="24.8" rx="1.7" ry="1.2"/><ellipse class="cls-6" cx="5.7" cy="24.6" rx="1.7" ry="1.2"/></svg>