<?xml version="1.0" encoding="iso-8859-1"?>
<!-- Generator: Adobe Illustrator 21.1.0, SVG Export Plug-In . SVG Version: 6.00 Build 0)  -->
<svg version="1.1" fill="#3f3f3f" id="&#x5716;&#x5C64;_1" xmlns="http://www.w3.org/2000/svg" xmlns:xlink="http://www.w3.org/1999/xlink" x="0px"
	 y="0px" viewBox="0 0 196 76" style="enable-background:new 0 0 196 76;" xml:space="preserve">
<g>
	<path d="M68.02,5.04h-9.634c-1.479,0-2.677,1.196-2.677,2.672v59.852c0,1.475,1.198,2.672,2.677,2.672h9.634
		c1.479,0,2.676-1.196,2.676-2.672V7.712C70.696,6.236,69.499,5.04,68.02,5.04"/>
	<path d="M134.341,5.04h-9.635c-1.478,0-2.677,1.196-2.677,2.672V43.27L94.6,6.228c-0.063-0.096-0.135-0.185-0.21-0.272
		c-0.005-0.006-0.013-0.013-0.017-0.019c-0.05-0.057-0.103-0.111-0.158-0.163c-0.016-0.015-0.033-0.03-0.049-0.045
		c-0.046-0.042-0.093-0.082-0.142-0.121c-0.024-0.018-0.048-0.035-0.071-0.053c-0.046-0.033-0.092-0.065-0.14-0.095
		c-0.026-0.017-0.053-0.033-0.081-0.049c-0.047-0.027-0.095-0.055-0.144-0.079c-0.027-0.015-0.055-0.027-0.083-0.041
		c-0.051-0.023-0.101-0.046-0.153-0.066c-0.029-0.011-0.057-0.02-0.086-0.031c-0.053-0.018-0.106-0.035-0.159-0.051
		c-0.031-0.009-0.061-0.016-0.093-0.024c-0.051-0.013-0.103-0.025-0.155-0.035c-0.038-0.007-0.075-0.012-0.112-0.016
		c-0.048-0.007-0.093-0.013-0.141-0.017c-0.047-0.005-0.093-0.005-0.14-0.007c-0.03-0.002-0.06-0.005-0.089-0.005H82.74
		c-1.478,0-2.676,1.196-2.676,2.672v59.852c0,1.475,1.198,2.672,2.676,2.672h9.635c1.478,0,2.676-1.196,2.676-2.672V32.017
		l27.463,37.088c0.19,0.268,0.421,0.487,0.677,0.661c0.01,0.007,0.02,0.014,0.03,0.021c0.054,0.035,0.11,0.068,0.166,0.1
		c0.024,0.014,0.05,0.029,0.077,0.042c0.041,0.022,0.084,0.042,0.127,0.062c0.042,0.019,0.084,0.038,0.127,0.055
		c0.028,0.011,0.056,0.02,0.084,0.031c0.058,0.021,0.12,0.041,0.18,0.058c0.013,0.003,0.025,0.006,0.038,0.01
		c0.218,0.057,0.448,0.091,0.684,0.091h9.635c1.478,0,2.676-1.196,2.676-2.672V7.712C137.017,6.236,135.819,5.04,134.341,5.04"/>
	<path d="M44.794,55.248H18.615V7.712c0-1.476-1.198-2.672-2.677-2.672H6.303c-1.479,0-2.677,1.196-2.677,2.672V67.56v0.004
		c0,0.718,0.285,1.369,0.748,1.849c0.013,0.013,0.023,0.027,0.036,0.04c0.013,0.013,0.027,0.024,0.039,0.036
		c0.481,0.461,1.131,0.747,1.85,0.747h0.004h38.491c1.475,0,2.672-1.198,2.672-2.676v-9.635
		C47.466,56.446,46.27,55.248,44.794,55.248"/>
	<path d="M187.551,20.027c1.476,0,2.672-1.198,2.672-2.676V7.716c0-1.478-1.196-2.676-2.672-2.676h-38.49h-0.005
		c-0.722,0-1.377,0.288-1.856,0.754c-0.011,0.009-0.021,0.019-0.032,0.029c-0.016,0.015-0.027,0.031-0.043,0.047
		c-0.458,0.48-0.74,1.127-0.74,1.842v0.004v59.844v0.005c0,0.718,0.285,1.369,0.746,1.848c0.013,0.013,0.024,0.027,0.037,0.04
		c0.013,0.013,0.027,0.024,0.04,0.037c0.48,0.461,1.13,0.747,1.848,0.747h0.005h38.49c1.476,0,2.672-1.198,2.672-2.677v-9.634
		c0-1.479-1.196-2.676-2.672-2.676h-26.179V45.131h26.179c1.476,0,2.672-1.198,2.672-2.676V32.82c0-1.478-1.196-2.675-2.672-2.675
		h-26.179V20.027H187.551z"/>
</g>
</svg>
