<?xml version="1.0" encoding="utf-8"?>
<!-- Generator: Adobe Illustrator 22.1.0, SVG Export Plug-In . SVG Version: 6.00 Build 0)  -->
<svg version="1.1" id="圖層_2_1_" xmlns="http://www.w3.org/2000/svg" xmlns:xlink="http://www.w3.org/1999/xlink" x="0px"
	 y="0px" viewBox="0 0 66 54" style="enable-background:new 0 0 66 54;" xml:space="preserve">
<style type="text/css">
	.st0{fill:#3F3F3F;}
</style>
<path class="st0" d="M34.8,53.5c-4.5,0-7.9-3.2-8.3-3.6c0,0-0.1,0-0.1-0.1L6.2,28.8c-4-4.4-9.3-15-1-23.9C5.5,4.6,9.6,0.5,16,0.5
	c0,0,0,0,0,0c4.9,0,9.8,2.4,14.4,7.1l6.3,6.3l4.6-6.2c0-0.1,0.1-0.1,0.2-0.2c7-7.7,15.1-5.3,18.3-3c0,0,0.1,0,0.1,0.1
	c7.7,6.1,5,15,2.5,18.9c0,0.1-0.1,0.1-0.1,0.2l-6.9,9l8.9,8.9c1,1,1,2.6,0,3.5c-1,1-2.6,1-3.5,0l-8.5-8.5L42.1,50
	c0,0.1-0.1,0.1-0.2,0.2c-2,2.1-4.4,3.3-7,3.3C34.9,53.5,34.8,53.5,34.8,53.5z M29.9,46.4c0.3,0.2,2.5,2.2,5,2.1
	c1.2,0,2.3-0.6,3.4-1.7L48.8,33l-3.5-3.5l-4.7,6.1c-0.3,0.4-2.6,3.2-6.2,3.6c-2.1,0.2-4.3-0.4-6.2-2c-0.1-0.1-0.2-0.2-0.3-0.3
	c-3.7-4.3-1.6-9.3,0.1-11.4l5.7-7.6l-6.8-6.8C23.2,7.4,19.6,5.5,16,5.5c0,0,0,0,0,0c-4.3,0-7.1,2.8-7.1,2.8C1.7,16,9.6,25,9.9,25.4
	L29.9,46.4z M31.6,33.5c0.8,0.6,1.6,0.8,2.3,0.8c1.5-0.2,2.8-1.6,2.8-1.7l5-6.6l-4.5-4.5l-5.3,7.1C31.7,28.9,29.9,31.3,31.6,33.5z
	 M48.3,25.5l3.5,3.5l6.4-8.3c0.2-0.4,1.3-2.2,1.6-4.6c0.5-3.1-0.5-5.6-3-7.6c-0.7-0.5-6.1-3.8-11.6,2.2l-5,6.7l4.5,4.5l2.1-2.8
	c0.8-1.1,2.4-1.3,3.5-0.5c1.1,0.8,1.3,2.4,0.5,3.5L48.3,25.5z"/>
</svg>
