<svg id="圖層_1" data-name="圖層 1" xmlns="http://www.w3.org/2000/svg" viewBox="0 0 38.5 36.2"><defs><style>.cls-1{fill:#fff;}.cls-2,.cls-3{fill:#403f3f;}.cls-3{stroke:#403f3f;stroke-miterlimit:10;stroke-width:0.25px;}</style></defs><title>剁手指</title><path class="cls-1" d="M33.9,18.2,16.1,11.3C12,9.8,8.4,10.2,7,13.1H7C5.8,16,8.5,19,12.5,20.6l17.8,6.9Z"/><path class="cls-2" d="M30.3,28.7a.9.9,0,0,1-.5-.1L12,21.7c-5-2-7.6-5.8-6.3-9.1,1.7-3.5,5.8-4.4,10.7-2.5L34.3,17a1.22,1.22,0,0,1,.7,1.6l-3.5,9.3a1.21,1.21,0,0,1-.7.7A.75.75,0,0,1,30.3,28.7Zm-18.6-17a3.88,3.88,0,0,0-3.7,2c-.8,2.1,1.8,4.6,4.9,5.8l16.6,6.4,2.7-7L15.5,12.5A9.85,9.85,0,0,0,11.7,11.7Z"/><path class="cls-1" d="M18.3,23.3a37.59,37.59,0,0,1-8.2,3.1c-5,1.3-8.7-4.1-8.7-4.1L35.8,6.6l1.3,2.5-9.2,4.5-.6,1.7"/><path class="cls-2" d="M8.5,27.9c-4.7,0-8-4.6-8.1-4.8a1.23,1.23,0,0,1-.2-1,1.12,1.12,0,0,1,.7-.8L35.3,5.5a1.2,1.2,0,0,1,1.6.6l1.3,2.5a1.15,1.15,0,0,1,.1,1,1.06,1.06,0,0,1-.6.7l-8.8,4.2-.4,1.2a1.26,1.26,0,1,1-2.4-.8l.6-1.7a1.06,1.06,0,0,1,.6-.7l8.1-3.9-.2-.3L3.4,22.9C4.7,24.2,7,26,9.8,25.3a39.44,39.44,0,0,0,7.9-3,1.25,1.25,0,1,1,1.2,2.2,38.27,38.27,0,0,1-8.5,3.3A12.75,12.75,0,0,1,8.5,27.9Z"/><path class="cls-2" d="M21.4,17.6s1.3,0,1.6-2.2c0,0,.2-1.9,3.3-1.4,0,0,1.7.6,3.5,1.3,0,0,.6.7-1.4,1-1.2.2-2.2.3-2.2.3a1.71,1.71,0,0,0-1.7,2c.2,2.1-2.2,2.1-2.2,2.1-.8.1-1.5-.2-1.5,1.6.1,3.8-2.6,3.7-2.6,3.7-2.2-.5-1.8-1.9-1.8-1.9A3.23,3.23,0,0,1,17.7,22a2.33,2.33,0,0,0,.9-1.9S18.4,17.8,21.4,17.6Z"/><polygon class="cls-2" points="27.2 14.1 25.4 11.2 35.7 6.7 37.1 9.3 27.2 14.1"/><path class="cls-3" d="M10.12,16.8A5.16,5.16,0,0,1,9,16.6l-1.8-.7a.22.22,0,0,1,.2-.4l1.9.7a2.42,2.42,0,0,0,3.1-3.3A3,3,0,0,0,11,11.6l-1.9-.7a.22.22,0,1,1,.2-.4l1.9.7a3.53,3.53,0,0,1,1.7,1.5,2.81,2.81,0,0,1,.1,2.2A3.25,3.25,0,0,1,10.12,16.8Z"/></svg>